<?xml version="1.0" standalone="no"?>
 <!DOCTYPE svg PUBLIC "-//W3C//DTD SVG 1.1//EN" 
 "http://www.w3.org/Graphics/SVG/1.1/DTD/svg11.dtd"> 
<svg xmlns="http://www.w3.org/2000/svg" version="1.1" 
    width="29.7002cm" height="21.0007cm" viewBox="0 0 116930 82680 ">
<title>SVG Picture created as CZTKeyRev0-B_SilkS.svg date 2020/12/06 02:07:53 </title>
  <desc>Picture generated by PCBNEW </desc>
<g style="fill:#000000; fill-opacity:1;stroke:#000000; stroke-opacity:1;
stroke-linecap:round; stroke-linejoin:round; "
 transform="translate(0 0) scale(1 1)">
</g>
<g style="fill:#000000; fill-opacity:0.0; 
stroke:#000000; stroke-width:-0.000393701; stroke-opacity:1; 
stroke-linecap:round; stroke-linejoin:round;">
</g>
<g style="fill:#000000; fill-opacity:0.0; 
stroke:#000000; stroke-width:147.638; stroke-opacity:1; 
stroke-linecap:round; stroke-linejoin:round;">
<path d="M129168 23246
L129227 23158
" />
<path d="M129009 23481
L129168 23246
" />
<path d="M128797 23799
L129009 23481
" />
<path d="M117946 22854
L117946 22854
" />
<path d="M128118 24823
L128323 24514
" />
<path d="M117958 22844
L117946 22854
" />
<path d="M125281 24541
L124564 24372
" />
<path d="M127919 25126
L127974 25043
" />
<path d="M123364 24088
L122882 23974
" />
<path d="M117929 22869
L117897 22953
" />
<path d="M122479 23878
L122217 23816
" />
<path d="M127917 25130
L127919 25126
" />
<path d="M118256 22898
L118032 22858
" />
<path d="M123925 24221
L123364 24088
" />
<path d="M118032 22858
L117958 22844
" />
<path d="M117854 23160
L117817 23476
" />
<path d="M129221 23127
L119957 20823
" />
<path d="M122580 23902
L122479 23878
" />
<path d="M122882 23974
L122580 23902
" />
<path d="M124564 24372
L123925 24221
" />
<path d="M119750 23234
L119115 23087
" />
<path d="M127731 26435
L127904 25160
" />
<path d="M117897 22953
L117854 23160
" />
<path d="M126077 24729
L125281 24541
" />
<path d="M127665 25104
L126951 24935
" />
<path d="M118617 22975
L118256 22898
" />
<path d="M121432 23630
L120522 23415
" />
<path d="M128323 24514
L128558 24158
" />
<path d="M122217 23816
L121432 23630
" />
<path d="M129279 23399
L129264 23651
" />
<path d="M120522 23415
L119750 23234
" />
<path d="M129275 23191
L129279 23399
" />
<path d="M127974 25043
L128118 24823
" />
<path d="M117792 23794
L117786 23901
" />
<path d="M117786 23901
L127731 26435
" />
<path d="M126951 24935
L126077 24729
" />
<path d="M117817 23476
L117792 23794
" />
<path d="M129243 23138
L129275 23191
" />
<path d="M128558 24158
L128797 23799
" />
<path d="M119957 20823
L117977 22811
" />
<path d="M117977 22811
L127940 25161
" />
<path d="M129243 23138
L129243 23138
" />
<path d="M117946 22854
L117929 22869
" />
<path d="M129227 23158
L129243 23138
" />
<path d="M119115 23087
L118617 22975
" />
<path d="M119957 20823
L119957 20823
" />
<path d="M127904 25160
L127665 25104
" />
<path d="M127940 25161
L129221 23127
" />
<path d="M120543 19588
L120572 19514
" />
<path d="M120809 19655
L120809 19677
" />
<path d="M120684 19447
L120724 19465
" />
<path d="M120670 19447
L120684 19447
" />
<path d="M120768 19841
L120724 19890
" />
<path d="M120856 19220
L120883 19181
" />
<path d="M120670 19908
L120657 19908
" />
<path d="M120572 19841
L120543 19767
" />
<path d="M130684 23091
L136941 24599
" />
<path d="M120616 19465
L120657 19447
" />
<path d="M120684 19908
L120670 19908
" />
<path d="M120930 19159
L120946 19159
" />
<path d="M120883 19285
L120856 19246
" />
<path d="M120657 19447
L120670 19447
" />
<path d="M120616 19890
L120572 19841
" />
<path d="M120724 19890
L120684 19908
" />
<path d="M121036 19220
L121036 19233
" />
<path d="M120657 19908
L120616 19890
" />
<path d="M120883 19181
L120930 19159
" />
<path d="M120532 19655
L120543 19588
" />
<path d="M120798 19767
L120768 19841
" />
<path d="M120768 19514
L120798 19588
" />
<path d="M120809 19677
L120809 19700
" />
<path d="M120724 19465
L120768 19514
" />
<path d="M120572 19514
L120616 19465
" />
<path d="M120532 19700
L120532 19677
" />
<path d="M120809 19677
L120809 19677
" />
<path d="M120543 19767
L120532 19700
" />
<path d="M120532 19677
L120532 19655
" />
<path d="M121010 19181
L121036 19220
" />
<path d="M120962 19159
L121010 19181
" />
<path d="M120946 19159
L120962 19159
" />
<path d="M120809 19700
L120798 19767
" />
<path d="M120798 19588
L120809 19655
" />
<path d="M120856 19233
L120856 19220
" />
<path d="M116000 19550
L119901 20493
" />
<path d="M120856 19246
L120856 19233
" />
<path d="M121036 19233
L121036 19233
" />
<path d="M120930 19307
L120883 19285
" />
<path d="M119902 19063
L119856 19340
" />
<path d="M119955 20505
L120193 20578
" />
<path d="M119856 19340
L119849 19672
" />
<path d="M120962 19307
L120946 19307
" />
<path d="M120486 19170
L120467 19170
" />
<path d="M120560 18503
L120482 18515
" />
<path d="M120360 19453
L120358 19464
" />
<path d="M120113 18677
L119988 18842
" />
<path d="M120430 18521
L120278 18568
" />
<path d="M120362 19443
L120360 19453
" />
<path d="M121010 19285
L120962 19307
" />
<path d="M120378 19081
L120378 19062
" />
<path d="M121036 19246
L121010 19285
" />
<path d="M121036 19233
L121036 19246
" />
<path d="M120306 19365
L120314 19366
" />
<path d="M120352 19397
L120362 19443
" />
<path d="M119882 20061
L119933 20395
" />
<path d="M120267 19380
L120306 19365
" />
<path d="M119933 20395
L119955 20505
" />
<path d="M120237 19440
L120239 19430
" />
<path d="M119849 19672
L119882 20061
" />
<path d="M119856 19340
L119849 19672
" />
<path d="M120322 19368
L120352 19397
" />
<path d="M120246 19487
L120237 19440
" />
<path d="M120562 19138
L120505 19170
" />
<path d="M120482 18515
L120430 18521
" />
<path d="M120278 18568
L120113 18677
" />
<path d="M119988 18842
L119902 19063
" />
<path d="M119955 20505
L120193 20578
" />
<path d="M121477 19295
L121320 18977
" />
<path d="M119882 20061
L119933 20395
" />
<path d="M120276 19515
L120246 19487
" />
<path d="M120332 19503
L120293 19519
" />
<path d="M120467 19170
L120410 19138
" />
<path d="M120562 18986
L120593 19043
" />
<path d="M121320 18977
L121083 18685
" />
<path d="M120410 19138
L120378 19081
" />
<path d="M120285 19517
L120276 19515
" />
<path d="M120593 19062
L120593 19081
" />
<path d="M120593 19062
L120593 19062
" />
<path d="M120293 19519
L120285 19517
" />
<path d="M120358 19464
L120332 19503
" />
<path d="M120486 18955
L120505 18955
" />
<path d="M119902 19063
L119856 19340
" />
<path d="M120193 20578
L121515 19406
" />
<path d="M120467 18955
L120486 18955
" />
<path d="M119849 19672
L119882 20061
" />
<path d="M120378 19062
L120378 19043
" />
<path d="M120804 18531
L120560 18503
" />
<path d="M120410 18986
L120467 18955
" />
<path d="M120593 19081
L120562 19138
" />
<path d="M119933 20395
L119955 20505
" />
<path d="M119988 18842
L119902 19063
" />
<path d="M120946 19307
L120930 19307
" />
<path d="M120314 19366
L120322 19368
" />
<path d="M120241 19420
L120267 19380
" />
<path d="M120239 19430
L120241 19420
" />
<path d="M120593 19043
L120593 19062
" />
<path d="M121083 18685
L120804 18531
" />
<path d="M120360 19453
L120360 19453
" />
<path d="M120505 18955
L120562 18986
" />
<path d="M121515 19406
L121477 19295
" />
<path d="M120505 19170
L120486 19170
" />
<path d="M120378 19043
L120410 18986
" />
<path d="M127470 21126
L127503 21108
" />
<path d="M127698 21323
L127698 21302
" />
<path d="M127452 21180
L127452 21169
" />
<path d="M120113 18677
L119988 18842
" />
<path d="M128013 21171
L128053 21239
" />
<path d="M127901 21538
L127883 21538
" />
<path d="M127752 21475
L127713 21407
" />
<path d="M128111 20830
L128113 20813
" />
<path d="M127865 21538
L127811 21521
" />
<path d="M120278 18568
L120113 18677
" />
<path d="M128068 21323
L128068 21323
" />
<path d="M127452 21158
L127470 21126
" />
<path d="M127525 21231
L127514 21231
" />
<path d="M120430 18521
L120278 18568
" />
<path d="M120482 18515
L120430 18521
" />
<path d="M120804 18531
L120560 18503
" />
<path d="M127713 21239
L127752 21171
" />
<path d="M121083 18685
L120804 18531
" />
<path d="M127557 21126
L127575 21158
" />
<path d="M127901 21108
L127955 21125
" />
<path d="M127514 21108
L127525 21108
" />
<path d="M127503 21108
L127514 21108
" />
<path d="M127713 21407
L127698 21344
" />
<path d="M128296 20832
L128295 20849
" />
<path d="M127811 21521
L127752 21475
" />
<path d="M127883 21538
L127865 21538
" />
<path d="M128068 21344
L128053 21407
" />
<path d="M127575 21158
L127575 21169
" />
<path d="M128228 20719
L128277 20760
" />
<path d="M127557 21213
L127525 21231
" />
<path d="M127525 21108
L127557 21126
" />
<path d="M128053 21239
L128068 21302
" />
<path d="M128109 20847
L128111 20830
" />
<path d="M128177 20961
L128129 20919
" />
<path d="M121515 19406
L121477 19295
" />
<path d="M128053 21407
L128013 21475
" />
<path d="M128068 21302
L128068 21323
" />
<path d="M128216 20717
L128228 20719
" />
<path d="M127865 21108
L127883 21108
" />
<path d="M127470 21213
L127452 21180
" />
<path d="M127883 21108
L127901 21108
" />
<path d="M127698 21302
L127713 21239
" />
<path d="M127698 21344
L127698 21323
" />
<path d="M128147 20746
L128203 20716
" />
<path d="M127575 21169
L127575 21169
" />
<path d="M127955 21521
L127901 21538
" />
<path d="M127452 21169
L127452 21158
" />
<path d="M127503 21231
L127470 21213
" />
<path d="M127575 21180
L127557 21213
" />
<path d="M128129 20919
L128109 20847
" />
<path d="M128277 20760
L128296 20832
" />
<path d="M121320 18977
L121083 18685
" />
<path d="M127752 21171
L127811 21125
" />
<path d="M127514 21231
L127503 21231
" />
<path d="M127575 21169
L127575 21180
" />
<path d="M128203 20716
L128216 20717
" />
<path d="M120560 18503
L120482 18515
" />
<path d="M121477 19295
L121320 18977
" />
<path d="M128013 21475
L127955 21521
" />
<path d="M128295 20849
L128295 20849
" />
<path d="M127955 21125
L128013 21171
" />
<path d="M128068 21323
L128068 21344
" />
<path d="M127811 21125
L127865 21108
" />
<path d="M128113 20813
L128147 20746
" />
<path d="M128259 20933
L128203 20963
" />
<path d="M128293 20866
L128259 20933
" />
<path d="M128295 20849
L128293 20866
" />
<path d="M127606 20707
L127615 20657
" />
<path d="M127813 20657
L127822 20707
" />
<path d="M127756 20567
L127790 20604
" />
<path d="M127724 20554
L127756 20567
" />
<path d="M127714 20554
L127724 20554
" />
<path d="M127703 20554
L127714 20554
" />
<path d="M124631 20315
L124774 20439
" />
<path d="M127672 20567
L127703 20554
" />
<path d="M127638 20604
L127672 20567
" />
<path d="M127813 20789
L127790 20843
" />
<path d="M127381 20312
L127549 20199
" />
<path d="M124277 20192
L124455 20133
" />
<path d="M127724 20892
L127714 20892
" />
<path d="M127615 20657
L127638 20604
" />
<path d="M127672 20879
L127638 20843
" />
<path d="M127606 20723
L127606 20707
" />
<path d="M123970 19995
L123970 20030
" />
<path d="M127756 20879
L127724 20892
" />
<path d="M124108 20202
L124277 20192
" />
<path d="M127705 20152
L127758 20147
" />
<path d="M127112 21016
L127162 20720
" />
<path d="M127703 20892
L127672 20879
" />
<path d="M127714 20892
L127703 20892
" />
<path d="M127790 20843
L127756 20879
" />
<path d="M128303 20275
L128538 20543
" />
<path d="M127549 20199
L127705 20152
" />
<path d="M124944 20481
L125096 20458
" />
<path d="M124512 20107
L124536 20162
" />
<path d="M123450 19812
L123441 19835
" />
<path d="M123408 19567
L123451 19643
" />
<path d="M123357 19525
L123408 19567
" />
<path d="M127822 20740
L127813 20789
" />
<path d="M128704 20842
L128748 20947
" />
<path d="M125096 20458
L125143 20440
" />
<path d="M123463 19736
L123450 19812
" />
<path d="M127198 22268
L127178 22149
" />
<path d="M127615 20789
L127606 20740
" />
<path d="M127822 20707
L127822 20723
" />
<path d="M124536 20162
L124631 20315
" />
<path d="M127638 20843
L127615 20789
" />
<path d="M127606 20740
L127606 20723
" />
<path d="M128043 20143
L128303 20275
" />
<path d="M127825 20131
L128043 20143
" />
<path d="M123451 19643
L123463 19736
" />
<path d="M128190 20962
L128177 20961
" />
<path d="M127822 20723
L127822 20723
" />
<path d="M127758 20147
L127825 20131
" />
<path d="M127822 20723
L127822 20740
" />
<path d="M127178 22149
L127130 21790
" />
<path d="M123441 19835
L123441 19835
" />
<path d="M127130 21790
L127101 21372
" />
<path d="M127790 20604
L127813 20657
" />
<path d="M124006 20136
L124108 20202
" />
<path d="M124455 20133
L124512 20107
" />
<path d="M127252 20485
L127381 20312
" />
<path d="M123970 20030
L124006 20136
" />
<path d="M128203 20963
L128190 20962
" />
<path d="M124774 20439
L124944 20481
" />
<path d="M127162 20720
L127252 20485
" />
<path d="M128538 20543
L128704 20842
" />
<path d="M127101 21372
L127112 21016
" />
<path d="M123169 19530
L123253 19504
" />
<path d="M123034 19865
L123022 19772
" />
<path d="M123043 19674
L123053 19651
" />
<path d="M123253 19504
L123319 19509
" />
<path d="M123169 19530
L123253 19504
" />
<path d="M123388 19921
L123315 19979
" />
<path d="M123146 19991
L123127 19984
" />
<path d="M126821 20681
L126819 20779
" />
<path d="M123231 20004
L123166 19999
" />
<path d="M123096 19588
L123169 19530
" />
<path d="M126480 21038
L126462 21029
" />
<path d="M123076 19941
L123034 19865
" />
<path d="M126497 21047
L126480 21038
" />
<path d="M126391 20803
L126414 20724
" />
<path d="M123096 19588
L123169 19530
" />
<path d="M123034 19697
L123043 19674
" />
<path d="M123022 19772
L123034 19697
" />
<path d="M123357 19525
L123408 19567
" />
<path d="M126439 20676
L126489 20611
" />
<path d="M123127 19984
L123076 19941
" />
<path d="M123319 19509
L123338 19517
" />
<path d="M123253 19504
L123319 19509
" />
<path d="M123315 19979
L123231 20004
" />
<path d="M126489 20611
L126568 20552
" />
<path d="M123166 19999
L123146 19991
" />
<path d="M123315 19979
L123231 20004
" />
<path d="M123450 19812
L123441 19835
" />
<path d="M123408 19567
L123451 19643
" />
<path d="M123432 19858
L123388 19921
" />
<path d="M123127 19984
L123076 19941
" />
<path d="M123338 19517
L123357 19525
" />
<path d="M123076 19941
L123034 19865
" />
<path d="M126791 20599
L126821 20681
" />
<path d="M126731 20545
L126748 20553
" />
<path d="M123441 19835
L123441 19835
" />
<path d="M123441 19835
L123432 19858
" />
<path d="M126651 20528
L126714 20536
" />
<path d="M126462 21029
L126420 20983
" />
<path d="M126420 20983
L126390 20901
" />
<path d="M123034 19697
L123043 19674
" />
<path d="M126568 20552
L126651 20528
" />
<path d="M126414 20724
L126426 20700
" />
<path d="M126797 20858
L126784 20882
" />
<path d="M126714 20536
L126731 20545
" />
<path d="M123451 19643
L123463 19736
" />
<path d="M123432 19858
L123388 19921
" />
<path d="M123053 19651
L123096 19588
" />
<path d="M123022 19772
L123034 19697
" />
<path d="M123146 19991
L123127 19984
" />
<path d="M126748 20553
L126791 20599
" />
<path d="M123388 19921
L123315 19979
" />
<path d="M123043 19674
L123053 19651
" />
<path d="M123034 19865
L123022 19772
" />
<path d="M123166 19999
L123146 19991
" />
<path d="M126390 20901
L126391 20803
" />
<path d="M126784 20882
L126784 20882
" />
<path d="M123338 19517
L123357 19525
" />
<path d="M123441 19835
L123432 19858
" />
<path d="M126426 20700
L126439 20676
" />
<path d="M123231 20004
L123166 19999
" />
<path d="M123319 19509
L123338 19517
" />
<path d="M123463 19736
L123450 19812
" />
<path d="M123053 19651
L123096 19588
" />
<path d="M126819 20779
L126797 20858
" />
<path d="M126643 21030
L126559 21054
" />
<path d="M130210 18606
L130182 18586
" />
<path d="M129822 18665
L129482 18842
" />
<path d="M126772 20906
L126721 20971
" />
<path d="M126721 20971
L126643 21030
" />
<path d="M126784 20882
L126772 20906
" />
<path d="M128856 18943
L128267 18496
" />
<path d="M126784 20882
L126784 20882
" />
<path d="M126797 20858
L126784 20882
" />
<path d="M124751 16631
L124718 16631
" />
<path d="M126819 20779
L126797 20858
" />
<path d="M130291 18933
L130264 18709
" />
<path d="M126568 20552
L126651 20528
" />
<path d="M126559 21054
L126497 21047
" />
<path d="M124952 16747
L124890 16681
" />
<path d="M126731 20545
L126748 20553
" />
<path d="M126821 20681
L126819 20779
" />
<path d="M126791 20599
L126821 20681
" />
<path d="M126748 20553
L126791 20599
" />
<path d="M125391 17327
L125234 17131
" />
<path d="M126714 20536
L126731 20545
" />
<path d="M125024 16843
L124952 16747
" />
<path d="M126480 21038
L126462 21029
" />
<path d="M126772 20906
L126721 20971
" />
<path d="M126651 20528
L126714 20536
" />
<path d="M126489 20611
L126568 20552
" />
<path d="M126439 20676
L126489 20611
" />
<path d="M126426 20700
L126439 20676
" />
<path d="M126391 20803
L126414 20724
" />
<path d="M126497 21047
L126480 21038
" />
<path d="M124621 16689
L124458 16863
" />
<path d="M125597 17561
L125544 17504
" />
<path d="M127438 18033
L126548 17721
" />
<path d="M124825 16643
L124769 16631
" />
<path d="M129482 18842
L129145 19041
" />
<path d="M124458 16863
L124261 17154
" />
<path d="M130264 19278
L130291 18933
" />
<path d="M125837 17582
L125597 17561
" />
<path d="M124261 17154
L124084 17458
" />
<path d="M129035 19110
L128856 18943
" />
<path d="M126390 20901
L126391 20803
" />
<path d="M124769 16631
L124751 16631
" />
<path d="M126420 20983
L126390 20901
" />
<path d="M126462 21029
L126420 20983
" />
<path d="M126643 21030
L126559 21054
" />
<path d="M126548 17721
L125837 17582
" />
<path d="M130160 18571
L130055 18579
" />
<path d="M130264 18709
L130210 18606
" />
<path d="M124084 17458
L124029 17561
" />
<path d="M130055 18579
L129822 18665
" />
<path d="M125544 17504
L125391 17327
" />
<path d="M128267 18496
L127438 18033
" />
<path d="M130182 18586
L130160 18571
" />
<path d="M124029 17561
L124029 17561
" />
<path d="M124890 16681
L124825 16643
" />
<path d="M125114 16970
L125024 16843
" />
<path d="M130205 19643
L130264 19278
" />
<path d="M129145 19041
L129035 19110
" />
<path d="M125234 17131
L125114 16970
" />
<path d="M126559 21054
L126497 21047
" />
<path d="M124718 16631
L124621 16689
" />
<path d="M126721 20971
L126643 21030
" />
<path d="M126414 20724
L126426 20700
" />
<path d="M126784 20882
L126772 20906
" />
<path d="M130170 19825
L130182 19764
" />
<path d="M130129 20005
L130170 19825
" />
<path d="M130043 20303
L130083 20178
" />
<path d="M129984 20491
L130010 20401
" />
<path d="M129964 20594
L129984 20491
" />
<path d="M130010 20401
L130043 20303
" />
<path d="M130083 20178
L130129 20005
" />
<path d="M130182 19764
L130205 19643
" />
<path d="M127773 26396
L127766 26407
" />
<path d="M123866 17603
L123385 17755
" />
<path d="M127928 26142
L127850 26271
" />
<path d="M130039 21095
L129948 20919
" />
<path d="M119914 20509
L120054 20544
" />
<path d="M128144 24691
L118456 22415
" />
<path d="M120317 22730
L121426 21192
" />
<path d="M129264 23651
L129250 23800
" />
<path d="M125038 23861
L126084 22446
" />
<path d="M129952 20730
L129964 20594
" />
<path d="M121264 20839
L122276 21083
" />
<path d="M127795 26362
L127773 26396
" />
<path d="M128387 25368
L128258 25588
" />
<path d="M129948 20872
L129952 20730
" />
<path d="M129948 20919
L129948 20872
" />
<path d="M130406 21989
L130039 21095
" />
<path d="M122779 18000
L122209 18293
" />
<path d="M130658 22903
L130406 21989
" />
<path d="M127756 26257
L127778 26056
" />
<path d="M120299 19966
L120004 20369
" />
<path d="M127766 26407
L127750 26385
" />
<path d="M127766 26407
L127766 26407
" />
<path d="M123485 23384
L124423 21984
" />
<path d="M129008 24292
L128900 24483
" />
<path d="M121854 23045
L122854 21615
" />
<path d="M126751 24127
L127591 22722
" />
<path d="M127880 25351
L127906 25194
" />
<path d="M127778 26056
L127810 25816
" />
<path d="M129171 23991
L129099 24126
" />
<path d="M128520 25141
L128387 25368
" />
<path d="M127750 26385
L127756 26257
" />
<path d="M130691 23089
L130658 22903
" />
<path d="M128560 22583
L130158 22963
" />
<path d="M120054 20544
L120477 20648
" />
<path d="M126653 22129
L128560 22583
" />
<path d="M127906 25194
L127916 25133
" />
<path d="M120477 20648
L121264 20839
" />
<path d="M129220 23893
L129171 23991
" />
<path d="M121180 19030
L120721 19474
" />
<path d="M128024 25981
L127928 26142
" />
<path d="M122276 21083
L123511 21380
" />
<path d="M120721 19474
L120299 19966
" />
<path d="M124029 17561
L123866 17603
" />
<path d="M129241 23839
L129238 23853
" />
<path d="M127810 25816
L127846 25570
" />
<path d="M123385 17755
L122779 18000
" />
<path d="M127917 25130
L127917 25130
" />
<path d="M127850 26271
L127795 26362
" />
<path d="M128135 25794
L128024 25981
" />
<path d="M128652 24914
L128520 25141
" />
<path d="M129099 24126
L129008 24292
" />
<path d="M124970 21728
L126653 22129
" />
<path d="M122209 18293
L121677 18637
" />
<path d="M128258 25588
L128135 25794
" />
<path d="M128780 24692
L128652 24914
" />
<path d="M129238 23853
L129220 23893
" />
<path d="M130158 22963
L130691 23089
" />
<path d="M123511 21380
L124970 21728
" />
<path d="M127916 25133
L127917 25130
" />
<path d="M128900 24483
L128780 24692
" />
<path d="M120004 20369
L119914 20509
" />
<path d="M127846 25570
L127880 25351
" />
<path d="M121677 18637
L121180 19030
" />
<path d="M129250 23800
L129241 23839
" />
</g>
<g style="fill:#000000; fill-opacity:0.0; 
stroke:#000000; stroke-width:98.4252; stroke-opacity:1; 
stroke-linecap:round; stroke-linejoin:round;">
<path d="M131245 33346
L131097 32165
" />
<path d="M131153 32615
L131034 32559
L130809 32559
L130704 32615
L130654 32671
L130612 32784
L130654 33121
L130725 33234
L130788 33290
L130907 33346
L131132 33346
L131238 33290
" />
<path d="M130190 32559
L130007 33346
" />
<path d="M129628 32559
L130007 33346
L130155 33628
L130218 33684
L130338 33740
" />
<path d="M127863 33290
L127983 33346
L128208 33346
L128313 33290
L128362 33234
L128405 33121
L128362 32784
L128292 32671
L128229 32615
L128109 32559
L127884 32559
L127779 32615
" />
<path d="M127378 32559
L126759 32559
L127477 33346
L126858 33346
" />
<path d="M126478 32559
L126028 32559
" />
<path d="M126260 32165
L126387 33178
L126345 33290
L126239 33346
L126127 33346
" />
<path d="M125733 33346
L125635 32559
" />
<path d="M125663 32784
L125592 32671
L125529 32615
L125410 32559
L125297 32559
" />
<path d="M124833 33346
L124939 33290
L124988 33234
L125030 33121
L124988 32784
L124918 32671
L124854 32615
L124735 32559
L124566 32559
L124461 32615
L124411 32671
L124369 32784
L124411 33121
L124482 33234
L124545 33290
L124664 33346
L124833 33346
" />
<path d="M123765 33346
L123870 33290
L123912 33178
L123786 32165
" />
<path d="M123146 33346
L123251 33290
L123293 33178
L123167 32165
" />
<path d="M122527 33346
L122633 33290
L122682 33234
L122724 33121
L122682 32784
L122612 32671
L122548 32615
L122429 32559
L122260 32559
L122155 32615
L122105 32671
L122063 32784
L122105 33121
L122176 33234
L122239 33290
L122358 33346
L122527 33346
" />
<path d="M121459 33346
L121564 33290
L121606 33178
L121480 32165
" />
<path d="M120495 33290
L120615 33346
L120840 33346
L120945 33290
L120995 33234
L121037 33121
L120995 32784
L120924 32671
L120861 32615
L120741 32559
L120516 32559
L120411 32615
" />
<path d="M120010 32559
L119392 32559
L120109 33346
L119490 33346
" />
<path d="M126746 31471
L127140 30909
" />
<path d="M127421 31471
L127421 30290
L126971 30290
L126859 30346
L126802 30403
L126746 30515
L126746 30684
L126802 30796
L126859 30853
L126971 30909
L127421 30909
" />
<path d="M125790 31415
L125903 31471
L126128 31471
L126240 31415
L126296 31303
L126296 30853
L126240 30740
L126128 30684
L125903 30684
L125790 30740
L125734 30853
L125734 30965
L126296 31078
" />
<path d="M125340 30684
L125059 31471
L124778 30684
" />
<path d="M124328 31359
L124272 31415
L124328 31471
L124384 31415
L124328 31359
L124328 31471
" />
<path d="M123540 30290
L123428 30290
L123315 30346
L123259 30403
L123203 30515
L123147 30740
L123147 31021
L123203 31246
L123259 31359
L123315 31415
L123428 31471
L123540 31471
L123653 31415
L123709 31359
L123765 31246
L123822 31021
L123822 30740
L123765 30515
L123709 30403
L123653 30346
L123540 30290
" />
<path d="M127505 29484
L127562 29540
L127730 29596
L127843 29596
L128012 29540
L128124 29428
L128180 29315
L128237 29090
L128237 28921
L128180 28696
L128124 28584
L128012 28471
L127843 28415
L127730 28415
L127562 28471
L127505 28528
" />
<path d="M127112 28415
L126324 28415
L127112 29596
L126324 29596
" />
<path d="M126043 28415
L125368 28415
" />
<path d="M125706 29596
L125706 28415
" />
<path d="M124975 29596
L124975 28415
" />
<path d="M124300 29596
L124806 28921
" />
<path d="M124300 28415
L124975 29090
" />
<path d="M123343 29540
L123456 29596
L123681 29596
L123793 29540
L123850 29428
L123850 28978
L123793 28865
L123681 28809
L123456 28809
L123343 28865
L123287 28978
L123287 29090
L123850 29203
" />
<path d="M122894 28809
L122612 29596
" />
<path d="M122331 28809
L122612 29596
L122725 29878
L122781 29934
L122894 29990
" />
</g>
<g style="fill:#000000; fill-opacity:1.0; 
stroke:#000000; stroke-width:39.3701; stroke-opacity:1; 
stroke-linecap:round; stroke-linejoin:round;">
<path style="fill:#000000; fill-opacity:1.0; 
stroke:#000000; stroke-width:39.3701; stroke-opacity:1; 
stroke-linecap:round; stroke-linejoin:round;fill-rule:evenodd;"
d="M 124596,68668
124950,68314
124596,68314
Z" /> 
<path style="fill:#000000; fill-opacity:1.0; 
stroke:#000000; stroke-width:39.3701; stroke-opacity:1; 
stroke-linecap:round; stroke-linejoin:round;fill-rule:evenodd;"
d="M 117096,68668
117450,68314
117096,68314
Z" /> 
<path style="fill:#000000; fill-opacity:1.0; 
stroke:#000000; stroke-width:39.3701; stroke-opacity:1; 
stroke-linecap:round; stroke-linejoin:round;fill-rule:evenodd;"
d="M 109596,68668
109950,68314
109596,68314
Z" /> 
<path style="fill:#000000; fill-opacity:1.0; 
stroke:#000000; stroke-width:39.3701; stroke-opacity:1; 
stroke-linecap:round; stroke-linejoin:round;fill-rule:evenodd;"
d="M 96471,68668
96825,68314
96471,68314
Z" /> 
<path style="fill:#000000; fill-opacity:1.0; 
stroke:#000000; stroke-width:39.3701; stroke-opacity:1; 
stroke-linecap:round; stroke-linejoin:round;fill-rule:evenodd;"
d="M 85221,68668
85575,68314
85221,68314
Z" /> 
<path style="fill:#000000; fill-opacity:1.0; 
stroke:#000000; stroke-width:39.3701; stroke-opacity:1; 
stroke-linecap:round; stroke-linejoin:round;fill-rule:evenodd;"
d="M 56159,68668
56513,68314
56159,68314
Z" /> 
<path style="fill:#000000; fill-opacity:1.0; 
stroke:#000000; stroke-width:39.3701; stroke-opacity:1; 
stroke-linecap:round; stroke-linejoin:round;fill-rule:evenodd;"
d="M 28033,68668
28388,68314
28033,68314
Z" /> 
<path style="fill:#000000; fill-opacity:1.0; 
stroke:#000000; stroke-width:39.3701; stroke-opacity:1; 
stroke-linecap:round; stroke-linejoin:round;fill-rule:evenodd;"
d="M 18658,68668
19013,68314
18658,68314
Z" /> 
<path style="fill:#000000; fill-opacity:1.0; 
stroke:#000000; stroke-width:39.3701; stroke-opacity:1; 
stroke-linecap:round; stroke-linejoin:round;fill-rule:evenodd;"
d="M 9283,68668
9638,68314
9283,68314
Z" /> 
<path style="fill:#000000; fill-opacity:1.0; 
stroke:#000000; stroke-width:39.3701; stroke-opacity:1; 
stroke-linecap:round; stroke-linejoin:round;fill-rule:evenodd;"
d="M -1028,68668
-674,68314
-1028,68314
Z" /> 
<path style="fill:#000000; fill-opacity:1.0; 
stroke:#000000; stroke-width:39.3701; stroke-opacity:1; 
stroke-linecap:round; stroke-linejoin:round;fill-rule:evenodd;"
d="M 126783,61168
127138,60814
126783,60814
Z" /> 
<path style="fill:#000000; fill-opacity:1.0; 
stroke:#000000; stroke-width:39.3701; stroke-opacity:1; 
stroke-linecap:round; stroke-linejoin:round;fill-rule:evenodd;"
d="M 117096,61168
117450,60814
117096,60814
Z" /> 
<path style="fill:#000000; fill-opacity:1.0; 
stroke:#000000; stroke-width:39.3701; stroke-opacity:1; 
stroke-linecap:round; stroke-linejoin:round;fill-rule:evenodd;"
d="M 103033,61168
103388,60814
103033,60814
Z" /> 
<path style="fill:#000000; fill-opacity:1.0; 
stroke:#000000; stroke-width:39.3701; stroke-opacity:1; 
stroke-linecap:round; stroke-linejoin:round;fill-rule:evenodd;"
d="M 92721,61168
93075,60814
92721,60814
Z" /> 
<path style="fill:#000000; fill-opacity:1.0; 
stroke:#000000; stroke-width:39.3701; stroke-opacity:1; 
stroke-linecap:round; stroke-linejoin:round;fill-rule:evenodd;"
d="M 85221,61168
85575,60814
85221,60814
Z" /> 
<path style="fill:#000000; fill-opacity:1.0; 
stroke:#000000; stroke-width:39.3701; stroke-opacity:1; 
stroke-linecap:round; stroke-linejoin:round;fill-rule:evenodd;"
d="M 77721,61168
78075,60814
77721,60814
Z" /> 
<path style="fill:#000000; fill-opacity:1.0; 
stroke:#000000; stroke-width:39.3701; stroke-opacity:1; 
stroke-linecap:round; stroke-linejoin:round;fill-rule:evenodd;"
d="M 70221,61168
70575,60814
70221,60814
Z" /> 
<path style="fill:#000000; fill-opacity:1.0; 
stroke:#000000; stroke-width:39.3701; stroke-opacity:1; 
stroke-linecap:round; stroke-linejoin:round;fill-rule:evenodd;"
d="M 62721,61168
63075,60814
62721,60814
Z" /> 
<path style="fill:#000000; fill-opacity:1.0; 
stroke:#000000; stroke-width:39.3701; stroke-opacity:1; 
stroke-linecap:round; stroke-linejoin:round;fill-rule:evenodd;"
d="M 55221,61168
55575,60814
55221,60814
Z" /> 
<path style="fill:#000000; fill-opacity:1.0; 
stroke:#000000; stroke-width:39.3701; stroke-opacity:1; 
stroke-linecap:round; stroke-linejoin:round;fill-rule:evenodd;"
d="M 47721,61168
48075,60814
47721,60814
Z" /> 
<path style="fill:#000000; fill-opacity:1.0; 
stroke:#000000; stroke-width:39.3701; stroke-opacity:1; 
stroke-linecap:round; stroke-linejoin:round;fill-rule:evenodd;"
d="M 40221,61168
40575,60814
40221,60814
Z" /> 
<path style="fill:#000000; fill-opacity:1.0; 
stroke:#000000; stroke-width:39.3701; stroke-opacity:1; 
stroke-linecap:round; stroke-linejoin:round;fill-rule:evenodd;"
d="M 32721,61168
33075,60814
32721,60814
Z" /> 
<path style="fill:#000000; fill-opacity:1.0; 
stroke:#000000; stroke-width:39.3701; stroke-opacity:1; 
stroke-linecap:round; stroke-linejoin:round;fill-rule:evenodd;"
d="M 25221,61168
25575,60814
25221,60814
Z" /> 
<path style="fill:#000000; fill-opacity:1.0; 
stroke:#000000; stroke-width:39.3701; stroke-opacity:1; 
stroke-linecap:round; stroke-linejoin:round;fill-rule:evenodd;"
d="M 13033,61168
13388,60814
13033,60814
Z" /> 
<path style="fill:#000000; fill-opacity:1.0; 
stroke:#000000; stroke-width:39.3701; stroke-opacity:1; 
stroke-linecap:round; stroke-linejoin:round;fill-rule:evenodd;"
d="M -1028,61168
-674,60814
-1028,60814
Z" /> 
<path style="fill:#000000; fill-opacity:1.0; 
stroke:#000000; stroke-width:39.3701; stroke-opacity:1; 
stroke-linecap:round; stroke-linejoin:round;fill-rule:evenodd;"
d="M 126471,53668
126825,53314
126471,53314
Z" /> 
<path style="fill:#000000; fill-opacity:1.0; 
stroke:#000000; stroke-width:39.3701; stroke-opacity:1; 
stroke-linecap:round; stroke-linejoin:round;fill-rule:evenodd;"
d="M 108659,53668
109013,53314
108659,53314
Z" /> 
<path style="fill:#000000; fill-opacity:1.0; 
stroke:#000000; stroke-width:39.3701; stroke-opacity:1; 
stroke-linecap:round; stroke-linejoin:round;fill-rule:evenodd;"
d="M 96471,53668
96825,53314
96471,53314
Z" /> 
<path style="fill:#000000; fill-opacity:1.0; 
stroke:#000000; stroke-width:39.3701; stroke-opacity:1; 
stroke-linecap:round; stroke-linejoin:round;fill-rule:evenodd;"
d="M 88971,53668
89325,53314
88971,53314
Z" /> 
<path style="fill:#000000; fill-opacity:1.0; 
stroke:#000000; stroke-width:39.3701; stroke-opacity:1; 
stroke-linecap:round; stroke-linejoin:round;fill-rule:evenodd;"
d="M 81471,53668
81825,53314
81471,53314
Z" /> 
<path style="fill:#000000; fill-opacity:1.0; 
stroke:#000000; stroke-width:39.3701; stroke-opacity:1; 
stroke-linecap:round; stroke-linejoin:round;fill-rule:evenodd;"
d="M 73971,53668
74325,53314
73971,53314
Z" /> 
<path style="fill:#000000; fill-opacity:1.0; 
stroke:#000000; stroke-width:39.3701; stroke-opacity:1; 
stroke-linecap:round; stroke-linejoin:round;fill-rule:evenodd;"
d="M 66471,53668
66825,53314
66471,53314
Z" /> 
<path style="fill:#000000; fill-opacity:1.0; 
stroke:#000000; stroke-width:39.3701; stroke-opacity:1; 
stroke-linecap:round; stroke-linejoin:round;fill-rule:evenodd;"
d="M 58971,53668
59325,53314
58971,53314
Z" /> 
<path style="fill:#000000; fill-opacity:1.0; 
stroke:#000000; stroke-width:39.3701; stroke-opacity:1; 
stroke-linecap:round; stroke-linejoin:round;fill-rule:evenodd;"
d="M 51471,53668
51825,53314
51471,53314
Z" /> 
<path style="fill:#000000; fill-opacity:1.0; 
stroke:#000000; stroke-width:39.3701; stroke-opacity:1; 
stroke-linecap:round; stroke-linejoin:round;fill-rule:evenodd;"
d="M 43971,53668
44325,53314
43971,53314
Z" /> 
<path style="fill:#000000; fill-opacity:1.0; 
stroke:#000000; stroke-width:39.3701; stroke-opacity:1; 
stroke-linecap:round; stroke-linejoin:round;fill-rule:evenodd;"
d="M 36471,53668
36825,53314
36471,53314
Z" /> 
<path style="fill:#000000; fill-opacity:1.0; 
stroke:#000000; stroke-width:39.3701; stroke-opacity:1; 
stroke-linecap:round; stroke-linejoin:round;fill-rule:evenodd;"
d="M 28971,53668
29325,53314
28971,53314
Z" /> 
<path style="fill:#000000; fill-opacity:1.0; 
stroke:#000000; stroke-width:39.3701; stroke-opacity:1; 
stroke-linecap:round; stroke-linejoin:round;fill-rule:evenodd;"
d="M 21471,53668
21825,53314
21471,53314
Z" /> 
<path style="fill:#000000; fill-opacity:1.0; 
stroke:#000000; stroke-width:39.3701; stroke-opacity:1; 
stroke-linecap:round; stroke-linejoin:round;fill-rule:evenodd;"
d="M 11158,53668
11513,53314
11158,53314
Z" /> 
<path style="fill:#000000; fill-opacity:1.0; 
stroke:#000000; stroke-width:39.3701; stroke-opacity:1; 
stroke-linecap:round; stroke-linejoin:round;fill-rule:evenodd;"
d="M -1028,53668
-674,53314
-1028,53314
Z" /> 
<path style="fill:#000000; fill-opacity:1.0; 
stroke:#000000; stroke-width:39.3701; stroke-opacity:1; 
stroke-linecap:round; stroke-linejoin:round;fill-rule:evenodd;"
d="M 126471,46168
126825,45814
126471,45814
Z" /> 
<path style="fill:#000000; fill-opacity:1.0; 
stroke:#000000; stroke-width:39.3701; stroke-opacity:1; 
stroke-linecap:round; stroke-linejoin:round;fill-rule:evenodd;"
d="M 111471,46168
111825,45814
111471,45814
Z" /> 
<path style="fill:#000000; fill-opacity:1.0; 
stroke:#000000; stroke-width:39.3701; stroke-opacity:1; 
stroke-linecap:round; stroke-linejoin:round;fill-rule:evenodd;"
d="M 102096,46168
102450,45814
102096,45814
Z" /> 
<path style="fill:#000000; fill-opacity:1.0; 
stroke:#000000; stroke-width:39.3701; stroke-opacity:1; 
stroke-linecap:round; stroke-linejoin:round;fill-rule:evenodd;"
d="M 94596,46168
94950,45814
94596,45814
Z" /> 
<path style="fill:#000000; fill-opacity:1.0; 
stroke:#000000; stroke-width:39.3701; stroke-opacity:1; 
stroke-linecap:round; stroke-linejoin:round;fill-rule:evenodd;"
d="M 87096,46168
87450,45814
87096,45814
Z" /> 
<path style="fill:#000000; fill-opacity:1.0; 
stroke:#000000; stroke-width:39.3701; stroke-opacity:1; 
stroke-linecap:round; stroke-linejoin:round;fill-rule:evenodd;"
d="M 79596,46168
79950,45814
79596,45814
Z" /> 
<path style="fill:#000000; fill-opacity:1.0; 
stroke:#000000; stroke-width:39.3701; stroke-opacity:1; 
stroke-linecap:round; stroke-linejoin:round;fill-rule:evenodd;"
d="M 72096,46168
72450,45814
72096,45814
Z" /> 
<path style="fill:#000000; fill-opacity:1.0; 
stroke:#000000; stroke-width:39.3701; stroke-opacity:1; 
stroke-linecap:round; stroke-linejoin:round;fill-rule:evenodd;"
d="M 64596,46168
64950,45814
64596,45814
Z" /> 
<path style="fill:#000000; fill-opacity:1.0; 
stroke:#000000; stroke-width:39.3701; stroke-opacity:1; 
stroke-linecap:round; stroke-linejoin:round;fill-rule:evenodd;"
d="M 57096,46168
57450,45814
57096,45814
Z" /> 
<path style="fill:#000000; fill-opacity:1.0; 
stroke:#000000; stroke-width:39.3701; stroke-opacity:1; 
stroke-linecap:round; stroke-linejoin:round;fill-rule:evenodd;"
d="M 49596,46168
49950,45814
49596,45814
Z" /> 
<path style="fill:#000000; fill-opacity:1.0; 
stroke:#000000; stroke-width:39.3701; stroke-opacity:1; 
stroke-linecap:round; stroke-linejoin:round;fill-rule:evenodd;"
d="M 42096,46168
42450,45814
42096,45814
Z" /> 
<path style="fill:#000000; fill-opacity:1.0; 
stroke:#000000; stroke-width:39.3701; stroke-opacity:1; 
stroke-linecap:round; stroke-linejoin:round;fill-rule:evenodd;"
d="M 34596,46168
34950,45814
34596,45814
Z" /> 
<path style="fill:#000000; fill-opacity:1.0; 
stroke:#000000; stroke-width:39.3701; stroke-opacity:1; 
stroke-linecap:round; stroke-linejoin:round;fill-rule:evenodd;"
d="M 27096,46168
27450,45814
27096,45814
Z" /> 
<path style="fill:#000000; fill-opacity:1.0; 
stroke:#000000; stroke-width:39.3701; stroke-opacity:1; 
stroke-linecap:round; stroke-linejoin:round;fill-rule:evenodd;"
d="M 19596,46168
19950,45814
19596,45814
Z" /> 
<path style="fill:#000000; fill-opacity:1.0; 
stroke:#000000; stroke-width:39.3701; stroke-opacity:1; 
stroke-linecap:round; stroke-linejoin:round;fill-rule:evenodd;"
d="M 10221,46168
10575,45814
10221,45814
Z" /> 
<path style="fill:#000000; fill-opacity:1.0; 
stroke:#000000; stroke-width:39.3701; stroke-opacity:1; 
stroke-linecap:round; stroke-linejoin:round;fill-rule:evenodd;"
d="M -1028,46168
-674,45814
-1028,45814
Z" /> 
<path style="fill:#000000; fill-opacity:1.0; 
stroke:#000000; stroke-width:39.3701; stroke-opacity:1; 
stroke-linecap:round; stroke-linejoin:round;fill-rule:evenodd;"
d="M 126471,38668
126825,38314
126471,38314
Z" /> 
<path style="fill:#000000; fill-opacity:1.0; 
stroke:#000000; stroke-width:39.3701; stroke-opacity:1; 
stroke-linecap:round; stroke-linejoin:round;fill-rule:evenodd;"
d="M 109596,38668
109950,38314
109596,38314
Z" /> 
<path style="fill:#000000; fill-opacity:1.0; 
stroke:#000000; stroke-width:39.3701; stroke-opacity:1; 
stroke-linecap:round; stroke-linejoin:round;fill-rule:evenodd;"
d="M 98346,38668
98700,38314
98346,38314
Z" /> 
<path style="fill:#000000; fill-opacity:1.0; 
stroke:#000000; stroke-width:39.3701; stroke-opacity:1; 
stroke-linecap:round; stroke-linejoin:round;fill-rule:evenodd;"
d="M 90846,38668
91200,38314
90846,38314
Z" /> 
<path style="fill:#000000; fill-opacity:1.0; 
stroke:#000000; stroke-width:39.3701; stroke-opacity:1; 
stroke-linecap:round; stroke-linejoin:round;fill-rule:evenodd;"
d="M 83346,38668
83700,38314
83346,38314
Z" /> 
<path style="fill:#000000; fill-opacity:1.0; 
stroke:#000000; stroke-width:39.3701; stroke-opacity:1; 
stroke-linecap:round; stroke-linejoin:round;fill-rule:evenodd;"
d="M 75846,38668
76200,38314
75846,38314
Z" /> 
<path style="fill:#000000; fill-opacity:1.0; 
stroke:#000000; stroke-width:39.3701; stroke-opacity:1; 
stroke-linecap:round; stroke-linejoin:round;fill-rule:evenodd;"
d="M 68346,38668
68700,38314
68346,38314
Z" /> 
<path style="fill:#000000; fill-opacity:1.0; 
stroke:#000000; stroke-width:39.3701; stroke-opacity:1; 
stroke-linecap:round; stroke-linejoin:round;fill-rule:evenodd;"
d="M 60846,38668
61200,38314
60846,38314
Z" /> 
<path style="fill:#000000; fill-opacity:1.0; 
stroke:#000000; stroke-width:39.3701; stroke-opacity:1; 
stroke-linecap:round; stroke-linejoin:round;fill-rule:evenodd;"
d="M 53346,38668
53700,38314
53346,38314
Z" /> 
<path style="fill:#000000; fill-opacity:1.0; 
stroke:#000000; stroke-width:39.3701; stroke-opacity:1; 
stroke-linecap:round; stroke-linejoin:round;fill-rule:evenodd;"
d="M 45846,38668
46200,38314
45846,38314
Z" /> 
<path style="fill:#000000; fill-opacity:1.0; 
stroke:#000000; stroke-width:39.3701; stroke-opacity:1; 
stroke-linecap:round; stroke-linejoin:round;fill-rule:evenodd;"
d="M 38346,38668
38700,38314
38346,38314
Z" /> 
<path style="fill:#000000; fill-opacity:1.0; 
stroke:#000000; stroke-width:39.3701; stroke-opacity:1; 
stroke-linecap:round; stroke-linejoin:round;fill-rule:evenodd;"
d="M 30846,38668
31200,38314
30846,38314
Z" /> 
<path style="fill:#000000; fill-opacity:1.0; 
stroke:#000000; stroke-width:39.3701; stroke-opacity:1; 
stroke-linecap:round; stroke-linejoin:round;fill-rule:evenodd;"
d="M 23346,38668
23700,38314
23346,38314
Z" /> 
<path style="fill:#000000; fill-opacity:1.0; 
stroke:#000000; stroke-width:39.3701; stroke-opacity:1; 
stroke-linecap:round; stroke-linejoin:round;fill-rule:evenodd;"
d="M 15846,38668
16200,38314
15846,38314
Z" /> 
<path style="fill:#000000; fill-opacity:1.0; 
stroke:#000000; stroke-width:39.3701; stroke-opacity:1; 
stroke-linecap:round; stroke-linejoin:round;fill-rule:evenodd;"
d="M 8346,38668
8700,38314
8346,38314
Z" /> 
<path style="fill:#000000; fill-opacity:1.0; 
stroke:#000000; stroke-width:39.3701; stroke-opacity:1; 
stroke-linecap:round; stroke-linejoin:round;fill-rule:evenodd;"
d="M -1028,38668
-674,38314
-1028,38314
Z" /> 
<path style="fill:#000000; fill-opacity:1.0; 
stroke:#000000; stroke-width:39.3701; stroke-opacity:1; 
stroke-linecap:round; stroke-linejoin:round;fill-rule:evenodd;"
d="M 113346,29293
113700,28939
113346,28939
Z" /> 
<path style="fill:#000000; fill-opacity:1.0; 
stroke:#000000; stroke-width:39.3701; stroke-opacity:1; 
stroke-linecap:round; stroke-linejoin:round;fill-rule:evenodd;"
d="M 103971,29293
104325,28939
103971,28939
Z" /> 
<path style="fill:#000000; fill-opacity:1.0; 
stroke:#000000; stroke-width:39.3701; stroke-opacity:1; 
stroke-linecap:round; stroke-linejoin:round;fill-rule:evenodd;"
d="M 96471,29293
96825,28939
96471,28939
Z" /> 
<path style="fill:#000000; fill-opacity:1.0; 
stroke:#000000; stroke-width:39.3701; stroke-opacity:1; 
stroke-linecap:round; stroke-linejoin:round;fill-rule:evenodd;"
d="M 88971,29293
89325,28939
88971,28939
Z" /> 
<path style="fill:#000000; fill-opacity:1.0; 
stroke:#000000; stroke-width:39.3701; stroke-opacity:1; 
stroke-linecap:round; stroke-linejoin:round;fill-rule:evenodd;"
d="M 81471,29293
81825,28939
81471,28939
Z" /> 
<path style="fill:#000000; fill-opacity:1.0; 
stroke:#000000; stroke-width:39.3701; stroke-opacity:1; 
stroke-linecap:round; stroke-linejoin:round;fill-rule:evenodd;"
d="M 72096,29293
72450,28939
72096,28939
Z" /> 
<path style="fill:#000000; fill-opacity:1.0; 
stroke:#000000; stroke-width:39.3701; stroke-opacity:1; 
stroke-linecap:round; stroke-linejoin:round;fill-rule:evenodd;"
d="M 64596,29293
64950,28939
64596,28939
Z" /> 
<path style="fill:#000000; fill-opacity:1.0; 
stroke:#000000; stroke-width:39.3701; stroke-opacity:1; 
stroke-linecap:round; stroke-linejoin:round;fill-rule:evenodd;"
d="M 57096,29293
57450,28939
57096,28939
Z" /> 
<path style="fill:#000000; fill-opacity:1.0; 
stroke:#000000; stroke-width:39.3701; stroke-opacity:1; 
stroke-linecap:round; stroke-linejoin:round;fill-rule:evenodd;"
d="M 49596,29293
49950,28939
49596,28939
Z" /> 
<path style="fill:#000000; fill-opacity:1.0; 
stroke:#000000; stroke-width:39.3701; stroke-opacity:1; 
stroke-linecap:round; stroke-linejoin:round;fill-rule:evenodd;"
d="M 40221,29293
40575,28939
40221,28939
Z" /> 
<path style="fill:#000000; fill-opacity:1.0; 
stroke:#000000; stroke-width:39.3701; stroke-opacity:1; 
stroke-linecap:round; stroke-linejoin:round;fill-rule:evenodd;"
d="M 32721,29293
33075,28939
32721,28939
Z" /> 
<path style="fill:#000000; fill-opacity:1.0; 
stroke:#000000; stroke-width:39.3701; stroke-opacity:1; 
stroke-linecap:round; stroke-linejoin:round;fill-rule:evenodd;"
d="M 25221,29293
25575,28939
25221,28939
Z" /> 
<path style="fill:#000000; fill-opacity:1.0; 
stroke:#000000; stroke-width:39.3701; stroke-opacity:1; 
stroke-linecap:round; stroke-linejoin:round;fill-rule:evenodd;"
d="M 17721,29293
18075,28939
17721,28939
Z" /> 
<path style="fill:#000000; fill-opacity:1.0; 
stroke:#000000; stroke-width:39.3701; stroke-opacity:1; 
stroke-linecap:round; stroke-linejoin:round;fill-rule:evenodd;"
d="M 8346,29293
8700,28939
8346,28939
Z" /> 
</g>
<g style="fill:#000000; fill-opacity:0.0; 
stroke:#000000; stroke-width:39.3701; stroke-opacity:1; 
stroke-linecap:round; stroke-linejoin:round;">
</g>
<g style="fill:#000000; fill-opacity:0.0; 
stroke:#000000; stroke-width:59.0551; stroke-opacity:1; 
stroke-linecap:round; stroke-linejoin:round;">
<path d="M9036 6768
L9036 7086
L9017 7124
L8998 7143
L8961 7161
L8886 7161
L8848 7143
L8830 7124
L8811 7086
L8811 6768
" />
<path d="M8642 7143
L8586 7161
L8492 7161
L8455 7143
L8436 7124
L8417 7086
L8417 7049
L8436 7011
L8455 6993
L8492 6974
L8567 6955
L8605 6936
L8623 6918
L8642 6880
L8642 6843
L8623 6805
L8605 6786
L8567 6768
L8473 6768
L8417 6786
" />
<path d="M8117 6955
L8061 6974
L8042 6993
L8023 7030
L8023 7086
L8042 7124
L8061 7143
L8098 7161
L8248 7161
L8248 6768
L8117 6768
L8080 6786
L8061 6805
L8042 6843
L8042 6880
L8061 6918
L8080 6936
L8117 6955
L8248 6955
" />
<path d="M7611 6899
L7461 6899
" />
<path d="M7555 7161
L7555 6824
L7536 6786
L7499 6768
L7461 6768
" />
<path d="M7161 7161
L7161 6955
L7180 6918
L7217 6899
L7292 6899
L7330 6918
" />
<path d="M7161 7143
L7199 7161
L7292 7161
L7330 7143
L7349 7105
L7349 7068
L7330 7030
L7292 7011
L7199 7011
L7161 6993
" />
<path d="M6805 7143
L6842 7161
L6917 7161
L6955 7143
L6974 7124
L6992 7086
L6992 6974
L6974 6936
L6955 6918
L6917 6899
L6842 6899
L6805 6918
" />
<path d="M6636 7161
L6636 6899
" />
<path d="M6636 6768
L6655 6786
L6636 6805
L6617 6786
L6636 6768
L6636 6805
" />
<path d="M6449 6899
L6449 7161
" />
<path d="M6449 6936
L6430 6918
L6392 6899
L6336 6899
L6299 6918
L6280 6955
L6280 7161
" />
<path d="M5924 6899
L5924 7218
L5943 7255
L5961 7274
L5999 7293
L6055 7293
L6092 7274
" />
<path d="M5924 7143
L5961 7161
L6036 7161
L6074 7143
L6092 7124
L6111 7086
L6111 6974
L6092 6936
L6074 6918
L6036 6899
L5961 6899
L5924 6918
" />
<path d="M8577 7489
L8427 7489
" />
<path d="M8520 7358
L8520 7696
L8502 7733
L8464 7752
L8427 7752
" />
<path d="M8239 7752
L8277 7733
L8295 7714
L8314 7677
L8314 7564
L8295 7527
L8277 7508
L8239 7489
L8183 7489
L8145 7508
L8127 7527
L8108 7564
L8108 7677
L8127 7714
L8145 7733
L8183 7752
L8239 7752
" />
<path d="M7977 7489
L7902 7752
L7827 7564
L7752 7752
L7677 7489
" />
<path d="M7358 7752
L7358 7546
L7377 7508
L7414 7489
L7489 7489
L7527 7508
" />
<path d="M7358 7733
L7395 7752
L7489 7752
L7527 7733
L7545 7696
L7545 7658
L7527 7621
L7489 7602
L7395 7602
L7358 7583
" />
<path d="M7170 7752
L7170 7489
" />
<path d="M7170 7564
L7152 7527
L7133 7508
L7095 7489
L7058 7489
" />
<path d="M6758 7752
L6758 7358
" />
<path d="M6758 7733
L6796 7752
L6871 7752
L6908 7733
L6927 7714
L6946 7677
L6946 7564
L6927 7527
L6908 7508
L6871 7489
L6796 7489
L6758 7508
" />
<path d="M6589 7733
L6552 7752
L6477 7752
L6439 7733
L6421 7696
L6421 7677
L6439 7639
L6477 7621
L6533 7621
L6571 7602
L6589 7564
L6589 7546
L6571 7508
L6533 7489
L6477 7489
L6439 7508
" />
<path d="M8642 8080
L8492 8080
" />
<path d="M8586 7949
L8586 8286
L8567 8324
L8530 8342
L8492 8342
" />
<path d="M8361 8342
L8361 7949
" />
<path d="M8192 8342
L8192 8136
L8211 8099
L8248 8080
L8305 8080
L8342 8099
L8361 8118
" />
<path d="M7855 8324
L7892 8342
L7967 8342
L8005 8324
L8023 8286
L8023 8136
L8005 8099
L7967 8080
L7892 8080
L7855 8099
L7836 8136
L7836 8174
L8023 8211
" />
<path d="M7367 8342
L7367 7949
L7217 7949
L7180 7968
L7161 7986
L7142 8024
L7142 8080
L7161 8118
L7180 8136
L7217 8155
L7367 8155
" />
<path d="M6749 8305
L6767 8324
L6824 8342
L6861 8342
L6917 8324
L6955 8286
L6974 8249
L6992 8174
L6992 8118
L6974 8043
L6955 8005
L6917 7968
L6861 7949
L6824 7949
L6767 7968
L6749 7986
" />
<path d="M6449 8136
L6392 8155
L6374 8174
L6355 8211
L6355 8267
L6374 8305
L6392 8324
L6430 8342
L6580 8342
L6580 7949
L6449 7949
L6411 7968
L6392 7986
L6374 8024
L6374 8061
L6392 8099
L6411 8118
L6449 8136
L6580 8136
" />
<g >
</g>
</g> 
</svg>
