<?xml version="1.0" standalone="no"?>
 <!DOCTYPE svg PUBLIC "-//W3C//DTD SVG 1.1//EN" 
 "http://www.w3.org/Graphics/SVG/1.1/DTD/svg11.dtd"> 
<svg xmlns="http://www.w3.org/2000/svg" version="1.1" 
    width="29.7002cm" height="21.0007cm" viewBox="0 0 116930 82680 ">
<title>SVG Picture created as CZTKeyRev0-Edge_Cuts.svg date 2020/12/06 02:07:53 </title>
  <desc>Picture generated by PCBNEW </desc>
<g style="fill:#000000; fill-opacity:1;stroke:#000000; stroke-opacity:1;
stroke-linecap:round; stroke-linejoin:round; "
 transform="translate(0 0) scale(1 1)">
</g>
<g style="fill:#000000; fill-opacity:0.0; 
stroke:#000000; stroke-width:-0.000393701; stroke-opacity:1; 
stroke-linecap:round; stroke-linejoin:round;">
</g>
<g style="fill:#000000; fill-opacity:0.0; 
stroke:#000000; stroke-width:19.685; stroke-opacity:1; 
stroke-linecap:round; stroke-linejoin:round;">
<path d="M131875 7187.5 A937.5 937.5 0.0 0 0 130938 6250 " />
<path d="M-2187 6250
L130937 6250
" />
<path d="M-2187.5 6250 A937.5 937.5 0.0 0 0 -3125 7187.5 " />
<path d="M131875 74062
L131875 7187
" />
<path d="M130938 75000 A937.5 937.5 0.0 0 0 131875 74062.5 " />
<path d="M-2187 75000
L130937 75000
" />
<path d="M-3125 74062.5 A937.5 937.5 0.0 0 0 -2187.5 75000 " />
<path d="M-3125 7187
L-3125 74062
" />
</g>
<g style="fill:#000000; fill-opacity:0.0; 
stroke:#000000; stroke-width:39.3701; stroke-opacity:1; 
stroke-linecap:round; stroke-linejoin:round;">
<path d="M126563 68472 A196.85 196.85 0.0 0 0 126662 68445.2 " />
<path d="M125937 68472
L126562 68472
" />
<path d="M125838 68445.2 A196.85 196.85 0.0 0 0 125937 68472 " />
<path d="M125838 68445.2 A196.85 196.85 0.0 0 0 125561 68700.5 " />
<path d="M125581 68785.9 A196.85 196.85 0.0 0 0 125561 68700.5 " />
<path d="M125580 69339
L125580 68785
" />
<path d="M125561 69424.7 A196.85 196.85 0.0 0 0 125581 69339.3 " />
<path d="M125561 69424.7 A196.85 196.85 0.0 0 0 125838 69680 " />
<path d="M125937 69653.1 A196.85 196.85 0.0 0 0 125838 69680 " />
<path d="M126562 69653
L125937 69653
" />
<path d="M126662 69680 A196.85 196.85 0.0 0 0 126563 69653.1 " />
<path d="M126662 69680 A196.85 196.85 0.0 0 0 126939 69424.7 " />
<path d="M126919 69339.3 A196.85 196.85 0.0 0 0 126939 69424.7 " />
<path d="M126919 68785
L126919 69339
" />
<path d="M126939 68700.5 A196.85 196.85 0.0 0 0 126919 68785.9 " />
<path d="M126939 68700.5 A196.85 196.85 0.0 0 0 126662 68445.2 " />
<path d="M119063 68472 A196.85 196.85 0.0 0 0 119162 68445.2 " />
<path d="M118437 68472
L119062 68472
" />
<path d="M118338 68445.2 A196.85 196.85 0.0 0 0 118437 68472 " />
<path d="M118338 68445.2 A196.85 196.85 0.0 0 0 118061 68700.5 " />
<path d="M118081 68785.9 A196.85 196.85 0.0 0 0 118061 68700.5 " />
<path d="M118080 69339
L118080 68785
" />
<path d="M118061 69424.7 A196.85 196.85 0.0 0 0 118081 69339.3 " />
<path d="M118061 69424.7 A196.85 196.85 0.0 0 0 118338 69680 " />
<path d="M118437 69653.1 A196.85 196.85 0.0 0 0 118338 69680 " />
<path d="M119062 69653
L118437 69653
" />
<path d="M119162 69680 A196.85 196.85 0.0 0 0 119063 69653.1 " />
<path d="M119162 69680 A196.85 196.85 0.0 0 0 119439 69424.7 " />
<path d="M119419 69339.3 A196.85 196.85 0.0 0 0 119439 69424.7 " />
<path d="M119419 68785
L119419 69339
" />
<path d="M119439 68700.5 A196.85 196.85 0.0 0 0 119419 68785.9 " />
<path d="M119439 68700.5 A196.85 196.85 0.0 0 0 119162 68445.2 " />
<path d="M111563 68472 A196.85 196.85 0.0 0 0 111662 68445.2 " />
<path d="M110937 68472
L111562 68472
" />
<path d="M110838 68445.2 A196.85 196.85 0.0 0 0 110937 68472 " />
<path d="M110838 68445.2 A196.85 196.85 0.0 0 0 110561 68700.5 " />
<path d="M110581 68785.9 A196.85 196.85 0.0 0 0 110561 68700.5 " />
<path d="M110580 69339
L110580 68785
" />
<path d="M110561 69424.7 A196.85 196.85 0.0 0 0 110581 69339.3 " />
<path d="M110561 69424.7 A196.85 196.85 0.0 0 0 110838 69680 " />
<path d="M110937 69653.1 A196.85 196.85 0.0 0 0 110838 69680 " />
<path d="M111562 69653
L110937 69653
" />
<path d="M111662 69680 A196.85 196.85 0.0 0 0 111563 69653.1 " />
<path d="M111662 69680 A196.85 196.85 0.0 0 0 111939 69424.7 " />
<path d="M111919 69339.3 A196.85 196.85 0.0 0 0 111939 69424.7 " />
<path d="M111919 68785
L111919 69339
" />
<path d="M111939 68700.5 A196.85 196.85 0.0 0 0 111919 68785.9 " />
<path d="M111939 68700.5 A196.85 196.85 0.0 0 0 111662 68445.2 " />
<path d="M98438 68472 A196.85 196.85 0.0 0 0 98537.3 68445.2 " />
<path d="M97812 68472
L98437 68472
" />
<path d="M97713.1 68445.2 A196.85 196.85 0.0 0 0 97812.4 68472 " />
<path d="M97713.1 68445.2 A196.85 196.85 0.0 0 0 97436.4 68700.5 " />
<path d="M97455.9 68785.9 A196.85 196.85 0.0 0 0 97436.4 68700.5 " />
<path d="M97455 69339
L97455 68785
" />
<path d="M97436.4 69424.7 A196.85 196.85 0.0 0 0 97455.9 69339.3 " />
<path d="M97436.4 69424.7 A196.85 196.85 0.0 0 0 97713.1 69680 " />
<path d="M97812.4 69653.1 A196.85 196.85 0.0 0 0 97713.1 69680 " />
<path d="M98437 69653
L97812 69653
" />
<path d="M98537.3 69680 A196.85 196.85 0.0 0 0 98438 69653.1 " />
<path d="M98537.3 69680 A196.85 196.85 0.0 0 0 98814 69424.7 " />
<path d="M98794.5 69339.3 A196.85 196.85 0.0 0 0 98814 69424.7 " />
<path d="M98794 68785
L98794 69339
" />
<path d="M98814 68700.5 A196.85 196.85 0.0 0 0 98794.5 68785.9 " />
<path d="M98814 68700.5 A196.85 196.85 0.0 0 0 98537.3 68445.2 " />
<path d="M87187.6 68472 A196.85 196.85 0.0 0 0 87286.9 68445.2 " />
<path d="M86562 68472
L87187 68472
" />
<path d="M86462.7 68445.2 A196.85 196.85 0.0 0 0 86562 68472 " />
<path d="M86462.7 68445.2 A196.85 196.85 0.0 0 0 86186 68700.5 " />
<path d="M86205.5 68785.9 A196.85 196.85 0.0 0 0 86186 68700.5 " />
<path d="M86205 69339
L86205 68785
" />
<path d="M86186 69424.7 A196.85 196.85 0.0 0 0 86205.5 69339.3 " />
<path d="M86186 69424.7 A196.85 196.85 0.0 0 0 86462.7 69680 " />
<path d="M86562 69653.1 A196.85 196.85 0.0 0 0 86462.7 69680 " />
<path d="M87187 69653
L86562 69653
" />
<path d="M87286.9 69680 A196.85 196.85 0.0 0 0 87187.6 69653.1 " />
<path d="M87286.9 69680 A196.85 196.85 0.0 0 0 87563.6 69424.7 " />
<path d="M87544.1 69339.3 A196.85 196.85 0.0 0 0 87563.6 69424.7 " />
<path d="M87544 68785
L87544 69339
" />
<path d="M87563.6 68700.5 A196.85 196.85 0.0 0 0 87544.1 68785.9 " />
<path d="M87563.6 68700.5 A196.85 196.85 0.0 0 0 87286.9 68445.2 " />
<path d="M58125.4 68472 A196.85 196.85 0.0 0 0 58224.7 68445.2 " />
<path d="M57499 68472
L58125 68472
" />
<path d="M57400.5 68445.2 A196.85 196.85 0.0 0 0 57499.8 68472 " />
<path d="M57400.5 68445.2 A196.85 196.85 0.0 0 0 57123.8 68700.5 " />
<path d="M57143.3 68785.9 A196.85 196.85 0.0 0 0 57123.8 68700.5 " />
<path d="M57143 69339
L57143 68785
" />
<path d="M57123.8 69424.7 A196.85 196.85 0.0 0 0 57143.3 69339.3 " />
<path d="M57123.8 69424.7 A196.85 196.85 0.0 0 0 57400.5 69680 " />
<path d="M57499.8 69653.1 A196.85 196.85 0.0 0 0 57400.5 69680 " />
<path d="M58125 69653
L57499 69653
" />
<path d="M58224.7 69680 A196.85 196.85 0.0 0 0 58125.4 69653.1 " />
<path d="M58224.7 69680 A196.85 196.85 0.0 0 0 58501.4 69424.7 " />
<path d="M58481.9 69339.3 A196.85 196.85 0.0 0 0 58501.4 69424.7 " />
<path d="M58481 68785
L58481 69339
" />
<path d="M58501.4 68700.5 A196.85 196.85 0.0 0 0 58481.9 68785.9 " />
<path d="M58501.4 68700.5 A196.85 196.85 0.0 0 0 58224.7 68445.2 " />
<path d="M30000.3 68472 A196.85 196.85 0.0 0 0 30099.6 68445.2 " />
<path d="M29374 68472
L30000 68472
" />
<path d="M29275.4 68445.2 A196.85 196.85 0.0 0 0 29374.7 68472 " />
<path d="M29275.4 68445.2 A196.85 196.85 0.0 0 0 28998.7 68700.5 " />
<path d="M29018.2 68785.9 A196.85 196.85 0.0 0 0 28998.7 68700.5 " />
<path d="M29018 69339
L29018 68785
" />
<path d="M28998.7 69424.7 A196.85 196.85 0.0 0 0 29018.2 69339.3 " />
<path d="M28998.7 69424.7 A196.85 196.85 0.0 0 0 29275.4 69680 " />
<path d="M29374.7 69653.1 A196.85 196.85 0.0 0 0 29275.4 69680 " />
<path d="M30000 69653
L29374 69653
" />
<path d="M30099.6 69680 A196.85 196.85 0.0 0 0 30000.3 69653.1 " />
<path d="M30099.6 69680 A196.85 196.85 0.0 0 0 30376.3 69424.7 " />
<path d="M30356.8 69339.3 A196.85 196.85 0.0 0 0 30376.3 69424.7 " />
<path d="M30356 68785
L30356 69339
" />
<path d="M30376.3 68700.5 A196.85 196.85 0.0 0 0 30356.8 68785.9 " />
<path d="M30376.3 68700.5 A196.85 196.85 0.0 0 0 30099.6 68445.2 " />
<path d="M20625.3 68472 A196.85 196.85 0.0 0 0 20724.6 68445.2 " />
<path d="M19999 68472
L20625 68472
" />
<path d="M19900.4 68445.2 A196.85 196.85 0.0 0 0 19999.7 68472 " />
<path d="M19900.4 68445.2 A196.85 196.85 0.0 0 0 19623.7 68700.5 " />
<path d="M19643.2 68785.9 A196.85 196.85 0.0 0 0 19623.7 68700.5 " />
<path d="M19643 69339
L19643 68785
" />
<path d="M19623.7 69424.7 A196.85 196.85 0.0 0 0 19643.2 69339.3 " />
<path d="M19623.7 69424.7 A196.85 196.85 0.0 0 0 19900.4 69680 " />
<path d="M19999.7 69653.1 A196.85 196.85 0.0 0 0 19900.4 69680 " />
<path d="M20625 69653
L19999 69653
" />
<path d="M20724.6 69680 A196.85 196.85 0.0 0 0 20625.3 69653.1 " />
<path d="M20724.6 69680 A196.85 196.85 0.0 0 0 21001.3 69424.7 " />
<path d="M20981.8 69339.3 A196.85 196.85 0.0 0 0 21001.3 69424.7 " />
<path d="M20981 68785
L20981 69339
" />
<path d="M21001.3 68700.5 A196.85 196.85 0.0 0 0 20981.8 68785.9 " />
<path d="M21001.3 68700.5 A196.85 196.85 0.0 0 0 20724.6 68445.2 " />
<path d="M11250.3 68472 A196.85 196.85 0.0 0 0 11349.6 68445.2 " />
<path d="M10624 68472
L11250 68472
" />
<path d="M10525.4 68445.2 A196.85 196.85 0.0 0 0 10624.7 68472 " />
<path d="M10525.4 68445.2 A196.85 196.85 0.0 0 0 10248.7 68700.5 " />
<path d="M10268.2 68785.9 A196.85 196.85 0.0 0 0 10248.7 68700.5 " />
<path d="M10268 69339
L10268 68785
" />
<path d="M10248.7 69424.7 A196.85 196.85 0.0 0 0 10268.2 69339.3 " />
<path d="M10248.7 69424.7 A196.85 196.85 0.0 0 0 10525.4 69680 " />
<path d="M10624.7 69653.1 A196.85 196.85 0.0 0 0 10525.4 69680 " />
<path d="M11250 69653
L10624 69653
" />
<path d="M11349.6 69680 A196.85 196.85 0.0 0 0 11250.3 69653.1 " />
<path d="M11349.6 69680 A196.85 196.85 0.0 0 0 11626.3 69424.7 " />
<path d="M11606.8 69339.3 A196.85 196.85 0.0 0 0 11626.3 69424.7 " />
<path d="M11606 68785
L11606 69339
" />
<path d="M11626.3 68700.5 A196.85 196.85 0.0 0 0 11606.8 68785.9 " />
<path d="M11626.3 68700.5 A196.85 196.85 0.0 0 0 11349.6 68445.2 " />
<path d="M937.776 68472 A196.85 196.85 0.0 0 0 1037.09 68445.2 " />
<path d="M312 68472
L937 68472
" />
<path d="M212.909 68445.2 A196.85 196.85 0.0 0 0 312.224 68472 " />
<path d="M212.909 68445.2 A196.85 196.85 0.0 0 0 -63.7731 68700.5 " />
<path d="M-44.2909 68785.9 A196.85 196.85 0.0 0 0 -63.7732 68700.5 " />
<path d="M-44 69339
L-44 68785
" />
<path d="M-63.7732 69424.7 A196.85 196.85 0.0 0 0 -44.2909 69339.3 " />
<path d="M-63.7731 69424.7 A196.85 196.85 0.0 0 0 212.909 69680 " />
<path d="M312.223 69653.1 A196.85 196.85 0.0 0 0 212.909 69680 " />
<path d="M937 69653
L312 69653
" />
<path d="M1037.09 69680 A196.85 196.85 0.0 0 0 937.777 69653.1 " />
<path d="M1037.09 69680 A196.85 196.85 0.0 0 0 1313.77 69424.7 " />
<path d="M1294.29 69339.3 A196.85 196.85 0.0 0 0 1313.77 69424.7 " />
<path d="M1294 68785
L1294 69339
" />
<path d="M1313.77 68700.5 A196.85 196.85 0.0 0 0 1294.29 68785.9 " />
<path d="M1313.77 68700.5 A196.85 196.85 0.0 0 0 1037.09 68445.2 " />
<path d="M128750 60972 A196.85 196.85 0.0 0 0 128849 60945.2 " />
<path d="M128124 60972
L128750 60972
" />
<path d="M128025 60945.2 A196.85 196.85 0.0 0 0 128125 60972 " />
<path d="M128025 60945.2 A196.85 196.85 0.0 0 0 127749 61200.5 " />
<path d="M127768 61285.9 A196.85 196.85 0.0 0 0 127749 61200.5 " />
<path d="M127768 61839
L127768 61285
" />
<path d="M127749 61924.7 A196.85 196.85 0.0 0 0 127768 61839.3 " />
<path d="M127749 61924.7 A196.85 196.85 0.0 0 0 128025 62180 " />
<path d="M128125 62153.1 A196.85 196.85 0.0 0 0 128025 62180 " />
<path d="M128750 62153
L128124 62153
" />
<path d="M128849 62180 A196.85 196.85 0.0 0 0 128750 62153.1 " />
<path d="M128849 62180 A196.85 196.85 0.0 0 0 129126 61924.7 " />
<path d="M129107 61839.3 A196.85 196.85 0.0 0 0 129126 61924.7 " />
<path d="M129106 61285
L129106 61839
" />
<path d="M129126 61200.5 A196.85 196.85 0.0 0 0 129107 61285.9 " />
<path d="M129126 61200.5 A196.85 196.85 0.0 0 0 128849 60945.2 " />
<path d="M119063 60972 A196.85 196.85 0.0 0 0 119162 60945.2 " />
<path d="M118437 60972
L119062 60972
" />
<path d="M118338 60945.2 A196.85 196.85 0.0 0 0 118437 60972 " />
<path d="M118338 60945.2 A196.85 196.85 0.0 0 0 118061 61200.5 " />
<path d="M118081 61285.9 A196.85 196.85 0.0 0 0 118061 61200.5 " />
<path d="M118080 61839
L118080 61285
" />
<path d="M118061 61924.7 A196.85 196.85 0.0 0 0 118081 61839.3 " />
<path d="M118061 61924.7 A196.85 196.85 0.0 0 0 118338 62180 " />
<path d="M118437 62153.1 A196.85 196.85 0.0 0 0 118338 62180 " />
<path d="M119062 62153
L118437 62153
" />
<path d="M119162 62180 A196.85 196.85 0.0 0 0 119063 62153.1 " />
<path d="M119162 62180 A196.85 196.85 0.0 0 0 119439 61924.7 " />
<path d="M119419 61839.3 A196.85 196.85 0.0 0 0 119439 61924.7 " />
<path d="M119419 61285
L119419 61839
" />
<path d="M119439 61200.5 A196.85 196.85 0.0 0 0 119419 61285.9 " />
<path d="M119439 61200.5 A196.85 196.85 0.0 0 0 119162 60945.2 " />
<path d="M105000 60972 A196.85 196.85 0.0 0 0 105099 60945.2 " />
<path d="M104374 60972
L105000 60972
" />
<path d="M104275 60945.2 A196.85 196.85 0.0 0 0 104375 60972 " />
<path d="M104275 60945.2 A196.85 196.85 0.0 0 0 103999 61200.5 " />
<path d="M104018 61285.9 A196.85 196.85 0.0 0 0 103999 61200.5 " />
<path d="M104018 61839
L104018 61285
" />
<path d="M103999 61924.7 A196.85 196.85 0.0 0 0 104018 61839.3 " />
<path d="M103999 61924.7 A196.85 196.85 0.0 0 0 104275 62180 " />
<path d="M104375 62153.1 A196.85 196.85 0.0 0 0 104275 62180 " />
<path d="M105000 62153
L104374 62153
" />
<path d="M105099 62180 A196.85 196.85 0.0 0 0 105000 62153.1 " />
<path d="M105099 62180 A196.85 196.85 0.0 0 0 105376 61924.7 " />
<path d="M105357 61839.3 A196.85 196.85 0.0 0 0 105376 61924.7 " />
<path d="M105356 61285
L105356 61839
" />
<path d="M105376 61200.5 A196.85 196.85 0.0 0 0 105357 61285.9 " />
<path d="M105376 61200.5 A196.85 196.85 0.0 0 0 105099 60945.2 " />
<path d="M94687.6 60972 A196.85 196.85 0.0 0 0 94786.9 60945.2 " />
<path d="M94062 60972
L94687 60972
" />
<path d="M93962.7 60945.2 A196.85 196.85 0.0 0 0 94062 60972 " />
<path d="M93962.7 60945.2 A196.85 196.85 0.0 0 0 93686 61200.5 " />
<path d="M93705.5 61285.9 A196.85 196.85 0.0 0 0 93686 61200.5 " />
<path d="M93705 61839
L93705 61285
" />
<path d="M93686 61924.7 A196.85 196.85 0.0 0 0 93705.5 61839.3 " />
<path d="M93686 61924.7 A196.85 196.85 0.0 0 0 93962.7 62180 " />
<path d="M94062 62153.1 A196.85 196.85 0.0 0 0 93962.7 62180 " />
<path d="M94687 62153
L94062 62153
" />
<path d="M94786.9 62180 A196.85 196.85 0.0 0 0 94687.6 62153.1 " />
<path d="M94786.9 62180 A196.85 196.85 0.0 0 0 95063.6 61924.7 " />
<path d="M95044.1 61839.3 A196.85 196.85 0.0 0 0 95063.6 61924.7 " />
<path d="M95044 61285
L95044 61839
" />
<path d="M95063.6 61200.5 A196.85 196.85 0.0 0 0 95044.1 61285.9 " />
<path d="M95063.6 61200.5 A196.85 196.85 0.0 0 0 94786.9 60945.2 " />
<path d="M87187.6 60972 A196.85 196.85 0.0 0 0 87286.9 60945.2 " />
<path d="M86562 60972
L87187 60972
" />
<path d="M86462.7 60945.2 A196.85 196.85 0.0 0 0 86562 60972 " />
<path d="M86462.7 60945.2 A196.85 196.85 0.0 0 0 86186 61200.5 " />
<path d="M86205.5 61285.9 A196.85 196.85 0.0 0 0 86186 61200.5 " />
<path d="M86205 61839
L86205 61285
" />
<path d="M86186 61924.7 A196.85 196.85 0.0 0 0 86205.5 61839.3 " />
<path d="M86186 61924.7 A196.85 196.85 0.0 0 0 86462.7 62180 " />
<path d="M86562 62153.1 A196.85 196.85 0.0 0 0 86462.7 62180 " />
<path d="M87187 62153
L86562 62153
" />
<path d="M87286.9 62180 A196.85 196.85 0.0 0 0 87187.6 62153.1 " />
<path d="M87286.9 62180 A196.85 196.85 0.0 0 0 87563.6 61924.7 " />
<path d="M87544.1 61839.3 A196.85 196.85 0.0 0 0 87563.6 61924.7 " />
<path d="M87544 61285
L87544 61839
" />
<path d="M87563.6 61200.5 A196.85 196.85 0.0 0 0 87544.1 61285.9 " />
<path d="M87563.6 61200.5 A196.85 196.85 0.0 0 0 87286.9 60945.2 " />
<path d="M79687.6 60972 A196.85 196.85 0.0 0 0 79786.9 60945.2 " />
<path d="M79062 60972
L79687 60972
" />
<path d="M78962.7 60945.2 A196.85 196.85 0.0 0 0 79062 60972 " />
<path d="M78962.7 60945.2 A196.85 196.85 0.0 0 0 78686 61200.5 " />
<path d="M78705.5 61285.9 A196.85 196.85 0.0 0 0 78686 61200.5 " />
<path d="M78705 61839
L78705 61285
" />
<path d="M78686 61924.7 A196.85 196.85 0.0 0 0 78705.5 61839.3 " />
<path d="M78686 61924.7 A196.85 196.85 0.0 0 0 78962.7 62180 " />
<path d="M79062 62153.1 A196.85 196.85 0.0 0 0 78962.7 62180 " />
<path d="M79687 62153
L79062 62153
" />
<path d="M79786.9 62180 A196.85 196.85 0.0 0 0 79687.6 62153.1 " />
<path d="M79786.9 62180 A196.85 196.85 0.0 0 0 80063.6 61924.7 " />
<path d="M80044.1 61839.3 A196.85 196.85 0.0 0 0 80063.6 61924.7 " />
<path d="M80044 61285
L80044 61839
" />
<path d="M80063.6 61200.5 A196.85 196.85 0.0 0 0 80044.1 61285.9 " />
<path d="M80063.6 61200.5 A196.85 196.85 0.0 0 0 79786.9 60945.2 " />
<path d="M72187.6 60972 A196.85 196.85 0.0 0 0 72286.9 60945.2 " />
<path d="M71562 60972
L72187 60972
" />
<path d="M71462.7 60945.2 A196.85 196.85 0.0 0 0 71562 60972 " />
<path d="M71462.7 60945.2 A196.85 196.85 0.0 0 0 71186 61200.5 " />
<path d="M71205.5 61285.9 A196.85 196.85 0.0 0 0 71186 61200.5 " />
<path d="M71205 61839
L71205 61285
" />
<path d="M71186 61924.7 A196.85 196.85 0.0 0 0 71205.5 61839.3 " />
<path d="M71186 61924.7 A196.85 196.85 0.0 0 0 71462.7 62180 " />
<path d="M71562 62153.1 A196.85 196.85 0.0 0 0 71462.7 62180 " />
<path d="M72187 62153
L71562 62153
" />
<path d="M72286.9 62180 A196.85 196.85 0.0 0 0 72187.6 62153.1 " />
<path d="M72286.9 62180 A196.85 196.85 0.0 0 0 72563.6 61924.7 " />
<path d="M72544.1 61839.3 A196.85 196.85 0.0 0 0 72563.6 61924.7 " />
<path d="M72544 61285
L72544 61839
" />
<path d="M72563.6 61200.5 A196.85 196.85 0.0 0 0 72544.1 61285.9 " />
<path d="M72563.6 61200.5 A196.85 196.85 0.0 0 0 72286.9 60945.2 " />
<path d="M64687.6 60972 A196.85 196.85 0.0 0 0 64786.9 60945.2 " />
<path d="M64062 60972
L64687 60972
" />
<path d="M63962.7 60945.2 A196.85 196.85 0.0 0 0 64062 60972 " />
<path d="M63962.7 60945.2 A196.85 196.85 0.0 0 0 63686 61200.5 " />
<path d="M63705.5 61285.9 A196.85 196.85 0.0 0 0 63686 61200.5 " />
<path d="M63705 61839
L63705 61285
" />
<path d="M63686 61924.7 A196.85 196.85 0.0 0 0 63705.5 61839.3 " />
<path d="M63686 61924.7 A196.85 196.85 0.0 0 0 63962.7 62180 " />
<path d="M64062 62153.1 A196.85 196.85 0.0 0 0 63962.7 62180 " />
<path d="M64687 62153
L64062 62153
" />
<path d="M64786.9 62180 A196.85 196.85 0.0 0 0 64687.6 62153.1 " />
<path d="M64786.9 62180 A196.85 196.85 0.0 0 0 65063.6 61924.7 " />
<path d="M65044.1 61839.3 A196.85 196.85 0.0 0 0 65063.6 61924.7 " />
<path d="M65044 61285
L65044 61839
" />
<path d="M65063.6 61200.5 A196.85 196.85 0.0 0 0 65044.1 61285.9 " />
<path d="M65063.6 61200.5 A196.85 196.85 0.0 0 0 64786.9 60945.2 " />
<path d="M57187.6 60972 A196.85 196.85 0.0 0 0 57286.9 60945.2 " />
<path d="M56562 60972
L57187 60972
" />
<path d="M56462.7 60945.2 A196.85 196.85 0.0 0 0 56562 60972 " />
<path d="M56462.7 60945.2 A196.85 196.85 0.0 0 0 56186 61200.5 " />
<path d="M56205.5 61285.9 A196.85 196.85 0.0 0 0 56186 61200.5 " />
<path d="M56205 61839
L56205 61285
" />
<path d="M56186 61924.7 A196.85 196.85 0.0 0 0 56205.5 61839.3 " />
<path d="M56186 61924.7 A196.85 196.85 0.0 0 0 56462.7 62180 " />
<path d="M56562 62153.1 A196.85 196.85 0.0 0 0 56462.7 62180 " />
<path d="M57187 62153
L56562 62153
" />
<path d="M57286.9 62180 A196.85 196.85 0.0 0 0 57187.6 62153.1 " />
<path d="M57286.9 62180 A196.85 196.85 0.0 0 0 57563.6 61924.7 " />
<path d="M57544.1 61839.3 A196.85 196.85 0.0 0 0 57563.6 61924.7 " />
<path d="M57544 61285
L57544 61839
" />
<path d="M57563.6 61200.5 A196.85 196.85 0.0 0 0 57544.1 61285.9 " />
<path d="M57563.6 61200.5 A196.85 196.85 0.0 0 0 57286.9 60945.2 " />
<path d="M49687.6 60972 A196.85 196.85 0.0 0 0 49786.9 60945.2 " />
<path d="M49062 60972
L49687 60972
" />
<path d="M48962.7 60945.2 A196.85 196.85 0.0 0 0 49062 60972 " />
<path d="M48962.7 60945.2 A196.85 196.85 0.0 0 0 48686 61200.5 " />
<path d="M48705.5 61285.9 A196.85 196.85 0.0 0 0 48686 61200.5 " />
<path d="M48705 61839
L48705 61285
" />
<path d="M48686 61924.7 A196.85 196.85 0.0 0 0 48705.5 61839.3 " />
<path d="M48686 61924.7 A196.85 196.85 0.0 0 0 48962.7 62180 " />
<path d="M49062 62153.1 A196.85 196.85 0.0 0 0 48962.7 62180 " />
<path d="M49687 62153
L49062 62153
" />
<path d="M49786.9 62180 A196.85 196.85 0.0 0 0 49687.6 62153.1 " />
<path d="M49786.9 62180 A196.85 196.85 0.0 0 0 50063.6 61924.7 " />
<path d="M50044.1 61839.3 A196.85 196.85 0.0 0 0 50063.6 61924.7 " />
<path d="M50044 61285
L50044 61839
" />
<path d="M50063.6 61200.5 A196.85 196.85 0.0 0 0 50044.1 61285.9 " />
<path d="M50063.6 61200.5 A196.85 196.85 0.0 0 0 49786.9 60945.2 " />
<path d="M42187.6 60972 A196.85 196.85 0.0 0 0 42286.9 60945.2 " />
<path d="M41562 60972
L42187 60972
" />
<path d="M41462.7 60945.2 A196.85 196.85 0.0 0 0 41562 60972 " />
<path d="M41462.7 60945.2 A196.85 196.85 0.0 0 0 41186 61200.5 " />
<path d="M41205.5 61285.9 A196.85 196.85 0.0 0 0 41186 61200.5 " />
<path d="M41205 61839
L41205 61285
" />
<path d="M41186 61924.7 A196.85 196.85 0.0 0 0 41205.5 61839.3 " />
<path d="M41186 61924.7 A196.85 196.85 0.0 0 0 41462.7 62180 " />
<path d="M41562 62153.1 A196.85 196.85 0.0 0 0 41462.7 62180 " />
<path d="M42187 62153
L41562 62153
" />
<path d="M42286.9 62180 A196.85 196.85 0.0 0 0 42187.6 62153.1 " />
<path d="M42286.9 62180 A196.85 196.85 0.0 0 0 42563.6 61924.7 " />
<path d="M42544.1 61839.3 A196.85 196.85 0.0 0 0 42563.6 61924.7 " />
<path d="M42544 61285
L42544 61839
" />
<path d="M42563.6 61200.5 A196.85 196.85 0.0 0 0 42544.1 61285.9 " />
<path d="M42563.6 61200.5 A196.85 196.85 0.0 0 0 42286.9 60945.2 " />
<path d="M34687.8 60972 A196.85 196.85 0.0 0 0 34787.1 60945.2 " />
<path d="M34062 60972
L34687 60972
" />
<path d="M33962.9 60945.2 A196.85 196.85 0.0 0 0 34062.2 60972 " />
<path d="M33962.9 60945.2 A196.85 196.85 0.0 0 0 33686.2 61200.5 " />
<path d="M33705.7 61285.9 A196.85 196.85 0.0 0 0 33686.2 61200.5 " />
<path d="M33705 61839
L33705 61285
" />
<path d="M33686.2 61924.7 A196.85 196.85 0.0 0 0 33705.7 61839.3 " />
<path d="M33686.2 61924.7 A196.85 196.85 0.0 0 0 33962.9 62180 " />
<path d="M34062.2 62153.1 A196.85 196.85 0.0 0 0 33962.9 62180 " />
<path d="M34687 62153
L34062 62153
" />
<path d="M34787.1 62180 A196.85 196.85 0.0 0 0 34687.8 62153.1 " />
<path d="M34787.1 62180 A196.85 196.85 0.0 0 0 35063.8 61924.7 " />
<path d="M35044.3 61839.3 A196.85 196.85 0.0 0 0 35063.8 61924.7 " />
<path d="M35044 61285
L35044 61839
" />
<path d="M35063.8 61200.5 A196.85 196.85 0.0 0 0 35044.3 61285.9 " />
<path d="M35063.8 61200.5 A196.85 196.85 0.0 0 0 34787.1 60945.2 " />
<path d="M27187.8 60972 A196.85 196.85 0.0 0 0 27287.1 60945.2 " />
<path d="M26562 60972
L27187 60972
" />
<path d="M26462.9 60945.2 A196.85 196.85 0.0 0 0 26562.2 60972 " />
<path d="M26462.9 60945.2 A196.85 196.85 0.0 0 0 26186.2 61200.5 " />
<path d="M26205.7 61285.9 A196.85 196.85 0.0 0 0 26186.2 61200.5 " />
<path d="M26205 61839
L26205 61285
" />
<path d="M26186.2 61924.7 A196.85 196.85 0.0 0 0 26205.7 61839.3 " />
<path d="M26186.2 61924.7 A196.85 196.85 0.0 0 0 26462.9 62180 " />
<path d="M26562.2 62153.1 A196.85 196.85 0.0 0 0 26462.9 62180 " />
<path d="M27187 62153
L26562 62153
" />
<path d="M27287.1 62180 A196.85 196.85 0.0 0 0 27187.8 62153.1 " />
<path d="M27287.1 62180 A196.85 196.85 0.0 0 0 27563.8 61924.7 " />
<path d="M27544.3 61839.3 A196.85 196.85 0.0 0 0 27563.8 61924.7 " />
<path d="M27544 61285
L27544 61839
" />
<path d="M27563.8 61200.5 A196.85 196.85 0.0 0 0 27544.3 61285.9 " />
<path d="M27563.8 61200.5 A196.85 196.85 0.0 0 0 27287.1 60945.2 " />
<path d="M15000.3 60972 A196.85 196.85 0.0 0 0 15099.6 60945.2 " />
<path d="M14374 60972
L15000 60972
" />
<path d="M14275.4 60945.2 A196.85 196.85 0.0 0 0 14374.7 60972 " />
<path d="M14275.4 60945.2 A196.85 196.85 0.0 0 0 13998.7 61200.5 " />
<path d="M14018.2 61285.9 A196.85 196.85 0.0 0 0 13998.7 61200.5 " />
<path d="M14018 61839
L14018 61285
" />
<path d="M13998.7 61924.7 A196.85 196.85 0.0 0 0 14018.2 61839.3 " />
<path d="M13998.7 61924.7 A196.85 196.85 0.0 0 0 14275.4 62180 " />
<path d="M14374.7 62153.1 A196.85 196.85 0.0 0 0 14275.4 62180 " />
<path d="M15000 62153
L14374 62153
" />
<path d="M15099.6 62180 A196.85 196.85 0.0 0 0 15000.3 62153.1 " />
<path d="M15099.6 62180 A196.85 196.85 0.0 0 0 15376.3 61924.7 " />
<path d="M15356.8 61839.3 A196.85 196.85 0.0 0 0 15376.3 61924.7 " />
<path d="M15356 61285
L15356 61839
" />
<path d="M15376.3 61200.5 A196.85 196.85 0.0 0 0 15356.8 61285.9 " />
<path d="M15376.3 61200.5 A196.85 196.85 0.0 0 0 15099.6 60945.2 " />
<path d="M937.776 60972 A196.85 196.85 0.0 0 0 1037.09 60945.2 " />
<path d="M312 60972
L937 60972
" />
<path d="M212.909 60945.2 A196.85 196.85 0.0 0 0 312.224 60972 " />
<path d="M212.909 60945.2 A196.85 196.85 0.0 0 0 -63.7731 61200.5 " />
<path d="M-44.2909 61285.9 A196.85 196.85 0.0 0 0 -63.7732 61200.5 " />
<path d="M-44 61839
L-44 61285
" />
<path d="M-63.7732 61924.7 A196.85 196.85 0.0 0 0 -44.2909 61839.3 " />
<path d="M-63.7731 61924.7 A196.85 196.85 0.0 0 0 212.909 62180 " />
<path d="M312.223 62153.1 A196.85 196.85 0.0 0 0 212.909 62180 " />
<path d="M937 62153
L312 62153
" />
<path d="M1037.09 62180 A196.85 196.85 0.0 0 0 937.777 62153.1 " />
<path d="M1037.09 62180 A196.85 196.85 0.0 0 0 1313.77 61924.7 " />
<path d="M1294.29 61839.3 A196.85 196.85 0.0 0 0 1313.77 61924.7 " />
<path d="M1294 61285
L1294 61839
" />
<path d="M1313.77 61200.5 A196.85 196.85 0.0 0 0 1294.29 61285.9 " />
<path d="M1313.77 61200.5 A196.85 196.85 0.0 0 0 1037.09 60945.2 " />
<path d="M128438 53472 A196.85 196.85 0.0 0 0 128537 53445.2 " />
<path d="M127812 53472
L128437 53472
" />
<path d="M127713 53445.2 A196.85 196.85 0.0 0 0 127812 53472 " />
<path d="M127713 53445.2 A196.85 196.85 0.0 0 0 127436 53700.5 " />
<path d="M127456 53785.9 A196.85 196.85 0.0 0 0 127436 53700.5 " />
<path d="M127455 54339
L127455 53785
" />
<path d="M127436 54424.7 A196.85 196.85 0.0 0 0 127456 54339.3 " />
<path d="M127436 54424.7 A196.85 196.85 0.0 0 0 127713 54680 " />
<path d="M127812 54653.1 A196.85 196.85 0.0 0 0 127713 54680 " />
<path d="M128437 54653
L127812 54653
" />
<path d="M128537 54680 A196.85 196.85 0.0 0 0 128438 54653.1 " />
<path d="M128537 54680 A196.85 196.85 0.0 0 0 128814 54424.7 " />
<path d="M128794 54339.3 A196.85 196.85 0.0 0 0 128814 54424.7 " />
<path d="M128794 53785
L128794 54339
" />
<path d="M128814 53700.5 A196.85 196.85 0.0 0 0 128794 53785.9 " />
<path d="M128814 53700.5 A196.85 196.85 0.0 0 0 128537 53445.2 " />
<path d="M110625 53472 A196.85 196.85 0.0 0 0 110725 53445.2 " />
<path d="M109999 53472
L110625 53472
" />
<path d="M109901 53445.2 A196.85 196.85 0.0 0 0 110000 53472 " />
<path d="M109901 53445.2 A196.85 196.85 0.0 0 0 109624 53700.5 " />
<path d="M109643 53785.9 A196.85 196.85 0.0 0 0 109624 53700.5 " />
<path d="M109643 54339
L109643 53785
" />
<path d="M109624 54424.7 A196.85 196.85 0.0 0 0 109643 54339.3 " />
<path d="M109624 54424.7 A196.85 196.85 0.0 0 0 109901 54680 " />
<path d="M110000 54653.1 A196.85 196.85 0.0 0 0 109901 54680 " />
<path d="M110625 54653
L109999 54653
" />
<path d="M110725 54680 A196.85 196.85 0.0 0 0 110625 54653.1 " />
<path d="M110725 54680 A196.85 196.85 0.0 0 0 111001 54424.7 " />
<path d="M110982 54339.3 A196.85 196.85 0.0 0 0 111001 54424.7 " />
<path d="M110981 53785
L110981 54339
" />
<path d="M111001 53700.5 A196.85 196.85 0.0 0 0 110982 53785.9 " />
<path d="M111001 53700.5 A196.85 196.85 0.0 0 0 110725 53445.2 " />
<path d="M98438 53472 A196.85 196.85 0.0 0 0 98537.3 53445.2 " />
<path d="M97812 53472
L98437 53472
" />
<path d="M97713.1 53445.2 A196.85 196.85 0.0 0 0 97812.4 53472 " />
<path d="M97713.1 53445.2 A196.85 196.85 0.0 0 0 97436.4 53700.5 " />
<path d="M97455.9 53785.9 A196.85 196.85 0.0 0 0 97436.4 53700.5 " />
<path d="M97455 54339
L97455 53785
" />
<path d="M97436.4 54424.7 A196.85 196.85 0.0 0 0 97455.9 54339.3 " />
<path d="M97436.4 54424.7 A196.85 196.85 0.0 0 0 97713.1 54680 " />
<path d="M97812.4 54653.1 A196.85 196.85 0.0 0 0 97713.1 54680 " />
<path d="M98437 54653
L97812 54653
" />
<path d="M98537.3 54680 A196.85 196.85 0.0 0 0 98438 54653.1 " />
<path d="M98537.3 54680 A196.85 196.85 0.0 0 0 98814 54424.7 " />
<path d="M98794.5 54339.3 A196.85 196.85 0.0 0 0 98814 54424.7 " />
<path d="M98794 53785
L98794 54339
" />
<path d="M98814 53700.5 A196.85 196.85 0.0 0 0 98794.5 53785.9 " />
<path d="M98814 53700.5 A196.85 196.85 0.0 0 0 98537.3 53445.2 " />
<path d="M90938 53472 A196.85 196.85 0.0 0 0 91037.3 53445.2 " />
<path d="M90312 53472
L90937 53472
" />
<path d="M90213.1 53445.2 A196.85 196.85 0.0 0 0 90312.4 53472 " />
<path d="M90213.1 53445.2 A196.85 196.85 0.0 0 0 89936.4 53700.5 " />
<path d="M89955.9 53785.9 A196.85 196.85 0.0 0 0 89936.4 53700.5 " />
<path d="M89955 54339
L89955 53785
" />
<path d="M89936.4 54424.7 A196.85 196.85 0.0 0 0 89955.9 54339.3 " />
<path d="M89936.4 54424.7 A196.85 196.85 0.0 0 0 90213.1 54680 " />
<path d="M90312.4 54653.1 A196.85 196.85 0.0 0 0 90213.1 54680 " />
<path d="M90937 54653
L90312 54653
" />
<path d="M91037.3 54680 A196.85 196.85 0.0 0 0 90938 54653.1 " />
<path d="M91037.3 54680 A196.85 196.85 0.0 0 0 91314 54424.7 " />
<path d="M91294.5 54339.3 A196.85 196.85 0.0 0 0 91314 54424.7 " />
<path d="M91294 53785
L91294 54339
" />
<path d="M91314 53700.5 A196.85 196.85 0.0 0 0 91294.5 53785.9 " />
<path d="M91314 53700.5 A196.85 196.85 0.0 0 0 91037.3 53445.2 " />
<path d="M83438 53472 A196.85 196.85 0.0 0 0 83537.3 53445.2 " />
<path d="M82812 53472
L83437 53472
" />
<path d="M82713.1 53445.2 A196.85 196.85 0.0 0 0 82812.4 53472 " />
<path d="M82713.1 53445.2 A196.85 196.85 0.0 0 0 82436.4 53700.5 " />
<path d="M82455.9 53785.9 A196.85 196.85 0.0 0 0 82436.4 53700.5 " />
<path d="M82455 54339
L82455 53785
" />
<path d="M82436.4 54424.7 A196.85 196.85 0.0 0 0 82455.9 54339.3 " />
<path d="M82436.4 54424.7 A196.85 196.85 0.0 0 0 82713.1 54680 " />
<path d="M82812.4 54653.1 A196.85 196.85 0.0 0 0 82713.1 54680 " />
<path d="M83437 54653
L82812 54653
" />
<path d="M83537.3 54680 A196.85 196.85 0.0 0 0 83438 54653.1 " />
<path d="M83537.3 54680 A196.85 196.85 0.0 0 0 83814 54424.7 " />
<path d="M83794.5 54339.3 A196.85 196.85 0.0 0 0 83814 54424.7 " />
<path d="M83794 53785
L83794 54339
" />
<path d="M83814 53700.5 A196.85 196.85 0.0 0 0 83794.5 53785.9 " />
<path d="M83814 53700.5 A196.85 196.85 0.0 0 0 83537.3 53445.2 " />
<path d="M75938 53472 A196.85 196.85 0.0 0 0 76037.3 53445.2 " />
<path d="M75312 53472
L75937 53472
" />
<path d="M75213.1 53445.2 A196.85 196.85 0.0 0 0 75312.4 53472 " />
<path d="M75213.1 53445.2 A196.85 196.85 0.0 0 0 74936.4 53700.5 " />
<path d="M74955.9 53785.9 A196.85 196.85 0.0 0 0 74936.4 53700.5 " />
<path d="M74955 54339
L74955 53785
" />
<path d="M74936.4 54424.7 A196.85 196.85 0.0 0 0 74955.9 54339.3 " />
<path d="M74936.4 54424.7 A196.85 196.85 0.0 0 0 75213.1 54680 " />
<path d="M75312.4 54653.1 A196.85 196.85 0.0 0 0 75213.1 54680 " />
<path d="M75937 54653
L75312 54653
" />
<path d="M76037.3 54680 A196.85 196.85 0.0 0 0 75938 54653.1 " />
<path d="M76037.3 54680 A196.85 196.85 0.0 0 0 76314 54424.7 " />
<path d="M76294.5 54339.3 A196.85 196.85 0.0 0 0 76314 54424.7 " />
<path d="M76294 53785
L76294 54339
" />
<path d="M76314 53700.5 A196.85 196.85 0.0 0 0 76294.5 53785.9 " />
<path d="M76314 53700.5 A196.85 196.85 0.0 0 0 76037.3 53445.2 " />
<path d="M68438 53472 A196.85 196.85 0.0 0 0 68537.3 53445.2 " />
<path d="M67812 53472
L68437 53472
" />
<path d="M67713.1 53445.2 A196.85 196.85 0.0 0 0 67812.4 53472 " />
<path d="M67713.1 53445.2 A196.85 196.85 0.0 0 0 67436.4 53700.5 " />
<path d="M67455.9 53785.9 A196.85 196.85 0.0 0 0 67436.4 53700.5 " />
<path d="M67455 54339
L67455 53785
" />
<path d="M67436.4 54424.7 A196.85 196.85 0.0 0 0 67455.9 54339.3 " />
<path d="M67436.4 54424.7 A196.85 196.85 0.0 0 0 67713.1 54680 " />
<path d="M67812.4 54653.1 A196.85 196.85 0.0 0 0 67713.1 54680 " />
<path d="M68437 54653
L67812 54653
" />
<path d="M68537.3 54680 A196.85 196.85 0.0 0 0 68438 54653.1 " />
<path d="M68537.3 54680 A196.85 196.85 0.0 0 0 68814 54424.7 " />
<path d="M68794.5 54339.3 A196.85 196.85 0.0 0 0 68814 54424.7 " />
<path d="M68794 53785
L68794 54339
" />
<path d="M68814 53700.5 A196.85 196.85 0.0 0 0 68794.5 53785.9 " />
<path d="M68814 53700.5 A196.85 196.85 0.0 0 0 68537.3 53445.2 " />
<path d="M60938 53472 A196.85 196.85 0.0 0 0 61037.3 53445.2 " />
<path d="M60312 53472
L60937 53472
" />
<path d="M60213.1 53445.2 A196.85 196.85 0.0 0 0 60312.4 53472 " />
<path d="M60213.1 53445.2 A196.85 196.85 0.0 0 0 59936.4 53700.5 " />
<path d="M59955.9 53785.9 A196.85 196.85 0.0 0 0 59936.4 53700.5 " />
<path d="M59955 54339
L59955 53785
" />
<path d="M59936.4 54424.7 A196.85 196.85 0.0 0 0 59955.9 54339.3 " />
<path d="M59936.4 54424.7 A196.85 196.85 0.0 0 0 60213.1 54680 " />
<path d="M60312.4 54653.1 A196.85 196.85 0.0 0 0 60213.1 54680 " />
<path d="M60937 54653
L60312 54653
" />
<path d="M61037.3 54680 A196.85 196.85 0.0 0 0 60938 54653.1 " />
<path d="M61037.3 54680 A196.85 196.85 0.0 0 0 61314 54424.7 " />
<path d="M61294.5 54339.3 A196.85 196.85 0.0 0 0 61314 54424.7 " />
<path d="M61294 53785
L61294 54339
" />
<path d="M61314 53700.5 A196.85 196.85 0.0 0 0 61294.5 53785.9 " />
<path d="M61314 53700.5 A196.85 196.85 0.0 0 0 61037.3 53445.2 " />
<path d="M53438 53472 A196.85 196.85 0.0 0 0 53537.3 53445.2 " />
<path d="M52812 53472
L53437 53472
" />
<path d="M52713.1 53445.2 A196.85 196.85 0.0 0 0 52812.4 53472 " />
<path d="M52713.1 53445.2 A196.85 196.85 0.0 0 0 52436.4 53700.5 " />
<path d="M52455.9 53785.9 A196.85 196.85 0.0 0 0 52436.4 53700.5 " />
<path d="M52455 54339
L52455 53785
" />
<path d="M52436.4 54424.7 A196.85 196.85 0.0 0 0 52455.9 54339.3 " />
<path d="M52436.4 54424.7 A196.85 196.85 0.0 0 0 52713.1 54680 " />
<path d="M52812.4 54653.1 A196.85 196.85 0.0 0 0 52713.1 54680 " />
<path d="M53437 54653
L52812 54653
" />
<path d="M53537.3 54680 A196.85 196.85 0.0 0 0 53438 54653.1 " />
<path d="M53537.3 54680 A196.85 196.85 0.0 0 0 53814 54424.7 " />
<path d="M53794.5 54339.3 A196.85 196.85 0.0 0 0 53814 54424.7 " />
<path d="M53794 53785
L53794 54339
" />
<path d="M53814 53700.5 A196.85 196.85 0.0 0 0 53794.5 53785.9 " />
<path d="M53814 53700.5 A196.85 196.85 0.0 0 0 53537.3 53445.2 " />
<path d="M45938 53472 A196.85 196.85 0.0 0 0 46037.3 53445.2 " />
<path d="M45312 53472
L45937 53472
" />
<path d="M45213.1 53445.2 A196.85 196.85 0.0 0 0 45312.4 53472 " />
<path d="M45213.1 53445.2 A196.85 196.85 0.0 0 0 44936.4 53700.5 " />
<path d="M44955.9 53785.9 A196.85 196.85 0.0 0 0 44936.4 53700.5 " />
<path d="M44955 54339
L44955 53785
" />
<path d="M44936.4 54424.7 A196.85 196.85 0.0 0 0 44955.9 54339.3 " />
<path d="M44936.4 54424.7 A196.85 196.85 0.0 0 0 45213.1 54680 " />
<path d="M45312.4 54653.1 A196.85 196.85 0.0 0 0 45213.1 54680 " />
<path d="M45937 54653
L45312 54653
" />
<path d="M46037.3 54680 A196.85 196.85 0.0 0 0 45938 54653.1 " />
<path d="M46037.3 54680 A196.85 196.85 0.0 0 0 46314 54424.7 " />
<path d="M46294.5 54339.3 A196.85 196.85 0.0 0 0 46314 54424.7 " />
<path d="M46294 53785
L46294 54339
" />
<path d="M46314 53700.5 A196.85 196.85 0.0 0 0 46294.5 53785.9 " />
<path d="M46314 53700.5 A196.85 196.85 0.0 0 0 46037.3 53445.2 " />
<path d="M38437.8 53472 A196.85 196.85 0.0 0 0 38537.1 53445.2 " />
<path d="M37812 53472
L38437 53472
" />
<path d="M37712.9 53445.2 A196.85 196.85 0.0 0 0 37812.2 53472 " />
<path d="M37712.9 53445.2 A196.85 196.85 0.0 0 0 37436.2 53700.5 " />
<path d="M37455.7 53785.9 A196.85 196.85 0.0 0 0 37436.2 53700.5 " />
<path d="M37455 54339
L37455 53785
" />
<path d="M37436.2 54424.7 A196.85 196.85 0.0 0 0 37455.7 54339.3 " />
<path d="M37436.2 54424.7 A196.85 196.85 0.0 0 0 37712.9 54680 " />
<path d="M37812.2 54653.1 A196.85 196.85 0.0 0 0 37712.9 54680 " />
<path d="M38437 54653
L37812 54653
" />
<path d="M38537.1 54680 A196.85 196.85 0.0 0 0 38437.8 54653.1 " />
<path d="M38537.1 54680 A196.85 196.85 0.0 0 0 38813.8 54424.7 " />
<path d="M38794.3 54339.3 A196.85 196.85 0.0 0 0 38813.8 54424.7 " />
<path d="M38794 53785
L38794 54339
" />
<path d="M38813.8 53700.5 A196.85 196.85 0.0 0 0 38794.3 53785.9 " />
<path d="M38813.8 53700.5 A196.85 196.85 0.0 0 0 38537.1 53445.2 " />
<path d="M30937.8 53472 A196.85 196.85 0.0 0 0 31037.1 53445.2 " />
<path d="M30312 53472
L30937 53472
" />
<path d="M30212.9 53445.2 A196.85 196.85 0.0 0 0 30312.2 53472 " />
<path d="M30212.9 53445.2 A196.85 196.85 0.0 0 0 29936.2 53700.5 " />
<path d="M29955.7 53785.9 A196.85 196.85 0.0 0 0 29936.2 53700.5 " />
<path d="M29955 54339
L29955 53785
" />
<path d="M29936.2 54424.7 A196.85 196.85 0.0 0 0 29955.7 54339.3 " />
<path d="M29936.2 54424.7 A196.85 196.85 0.0 0 0 30212.9 54680 " />
<path d="M30312.2 54653.1 A196.85 196.85 0.0 0 0 30212.9 54680 " />
<path d="M30937 54653
L30312 54653
" />
<path d="M31037.1 54680 A196.85 196.85 0.0 0 0 30937.8 54653.1 " />
<path d="M31037.1 54680 A196.85 196.85 0.0 0 0 31313.8 54424.7 " />
<path d="M31294.3 54339.3 A196.85 196.85 0.0 0 0 31313.8 54424.7 " />
<path d="M31294 53785
L31294 54339
" />
<path d="M31313.8 53700.5 A196.85 196.85 0.0 0 0 31294.3 53785.9 " />
<path d="M31313.8 53700.5 A196.85 196.85 0.0 0 0 31037.1 53445.2 " />
<path d="M23437.8 53472 A196.85 196.85 0.0 0 0 23537.1 53445.2 " />
<path d="M22812 53472
L23437 53472
" />
<path d="M22712.9 53445.2 A196.85 196.85 0.0 0 0 22812.2 53472 " />
<path d="M22712.9 53445.2 A196.85 196.85 0.0 0 0 22436.2 53700.5 " />
<path d="M22455.7 53785.9 A196.85 196.85 0.0 0 0 22436.2 53700.5 " />
<path d="M22455 54339
L22455 53785
" />
<path d="M22436.2 54424.7 A196.85 196.85 0.0 0 0 22455.7 54339.3 " />
<path d="M22436.2 54424.7 A196.85 196.85 0.0 0 0 22712.9 54680 " />
<path d="M22812.2 54653.1 A196.85 196.85 0.0 0 0 22712.9 54680 " />
<path d="M23437 54653
L22812 54653
" />
<path d="M23537.1 54680 A196.85 196.85 0.0 0 0 23437.8 54653.1 " />
<path d="M23537.1 54680 A196.85 196.85 0.0 0 0 23813.8 54424.7 " />
<path d="M23794.3 54339.3 A196.85 196.85 0.0 0 0 23813.8 54424.7 " />
<path d="M23794 53785
L23794 54339
" />
<path d="M23813.8 53700.5 A196.85 196.85 0.0 0 0 23794.3 53785.9 " />
<path d="M23813.8 53700.5 A196.85 196.85 0.0 0 0 23537.1 53445.2 " />
<path d="M13125.3 53472 A196.85 196.85 0.0 0 0 13224.6 53445.2 " />
<path d="M12499 53472
L13125 53472
" />
<path d="M12400.4 53445.2 A196.85 196.85 0.0 0 0 12499.7 53472 " />
<path d="M12400.4 53445.2 A196.85 196.85 0.0 0 0 12123.7 53700.5 " />
<path d="M12143.2 53785.9 A196.85 196.85 0.0 0 0 12123.7 53700.5 " />
<path d="M12143 54339
L12143 53785
" />
<path d="M12123.7 54424.7 A196.85 196.85 0.0 0 0 12143.2 54339.3 " />
<path d="M12123.7 54424.7 A196.85 196.85 0.0 0 0 12400.4 54680 " />
<path d="M12499.7 54653.1 A196.85 196.85 0.0 0 0 12400.4 54680 " />
<path d="M13125 54653
L12499 54653
" />
<path d="M13224.6 54680 A196.85 196.85 0.0 0 0 13125.3 54653.1 " />
<path d="M13224.6 54680 A196.85 196.85 0.0 0 0 13501.3 54424.7 " />
<path d="M13481.8 54339.3 A196.85 196.85 0.0 0 0 13501.3 54424.7 " />
<path d="M13481 53785
L13481 54339
" />
<path d="M13501.3 53700.5 A196.85 196.85 0.0 0 0 13481.8 53785.9 " />
<path d="M13501.3 53700.5 A196.85 196.85 0.0 0 0 13224.6 53445.2 " />
<path d="M937.776 53472 A196.85 196.85 0.0 0 0 1037.09 53445.2 " />
<path d="M312 53472
L937 53472
" />
<path d="M212.909 53445.2 A196.85 196.85 0.0 0 0 312.224 53472 " />
<path d="M212.909 53445.2 A196.85 196.85 0.0 0 0 -63.7731 53700.5 " />
<path d="M-44.2909 53785.9 A196.85 196.85 0.0 0 0 -63.7732 53700.5 " />
<path d="M-44 54339
L-44 53785
" />
<path d="M-63.7732 54424.7 A196.85 196.85 0.0 0 0 -44.2909 54339.3 " />
<path d="M-63.7731 54424.7 A196.85 196.85 0.0 0 0 212.909 54680 " />
<path d="M312.223 54653.1 A196.85 196.85 0.0 0 0 212.909 54680 " />
<path d="M937 54653
L312 54653
" />
<path d="M1037.09 54680 A196.85 196.85 0.0 0 0 937.777 54653.1 " />
<path d="M1037.09 54680 A196.85 196.85 0.0 0 0 1313.77 54424.7 " />
<path d="M1294.29 54339.3 A196.85 196.85 0.0 0 0 1313.77 54424.7 " />
<path d="M1294 53785
L1294 54339
" />
<path d="M1313.77 53700.5 A196.85 196.85 0.0 0 0 1294.29 53785.9 " />
<path d="M1313.77 53700.5 A196.85 196.85 0.0 0 0 1037.09 53445.2 " />
<path d="M128438 45972 A196.85 196.85 0.0 0 0 128537 45945.2 " />
<path d="M127812 45972
L128437 45972
" />
<path d="M127713 45945.2 A196.85 196.85 0.0 0 0 127812 45972 " />
<path d="M127713 45945.2 A196.85 196.85 0.0 0 0 127436 46200.5 " />
<path d="M127456 46285.9 A196.85 196.85 0.0 0 0 127436 46200.5 " />
<path d="M127455 46839
L127455 46285
" />
<path d="M127436 46924.7 A196.85 196.85 0.0 0 0 127456 46839.3 " />
<path d="M127436 46924.7 A196.85 196.85 0.0 0 0 127713 47180 " />
<path d="M127812 47153.1 A196.85 196.85 0.0 0 0 127713 47180 " />
<path d="M128437 47153
L127812 47153
" />
<path d="M128537 47180 A196.85 196.85 0.0 0 0 128438 47153.1 " />
<path d="M128537 47180 A196.85 196.85 0.0 0 0 128814 46924.7 " />
<path d="M128794 46839.3 A196.85 196.85 0.0 0 0 128814 46924.7 " />
<path d="M128794 46285
L128794 46839
" />
<path d="M128814 46200.5 A196.85 196.85 0.0 0 0 128794 46285.9 " />
<path d="M128814 46200.5 A196.85 196.85 0.0 0 0 128537 45945.2 " />
<path d="M113438 45972 A196.85 196.85 0.0 0 0 113537 45945.2 " />
<path d="M112812 45972
L113437 45972
" />
<path d="M112713 45945.2 A196.85 196.85 0.0 0 0 112812 45972 " />
<path d="M112713 45945.2 A196.85 196.85 0.0 0 0 112436 46200.5 " />
<path d="M112456 46285.9 A196.85 196.85 0.0 0 0 112436 46200.5 " />
<path d="M112455 46839
L112455 46285
" />
<path d="M112436 46924.7 A196.85 196.85 0.0 0 0 112456 46839.3 " />
<path d="M112436 46924.7 A196.85 196.85 0.0 0 0 112713 47180 " />
<path d="M112812 47153.1 A196.85 196.85 0.0 0 0 112713 47180 " />
<path d="M113437 47153
L112812 47153
" />
<path d="M113537 47180 A196.85 196.85 0.0 0 0 113438 47153.1 " />
<path d="M113537 47180 A196.85 196.85 0.0 0 0 113814 46924.7 " />
<path d="M113794 46839.3 A196.85 196.85 0.0 0 0 113814 46924.7 " />
<path d="M113794 46285
L113794 46839
" />
<path d="M113814 46200.5 A196.85 196.85 0.0 0 0 113794 46285.9 " />
<path d="M113814 46200.5 A196.85 196.85 0.0 0 0 113537 45945.2 " />
<path d="M104063 45972 A196.85 196.85 0.0 0 0 104162 45945.2 " />
<path d="M103437 45972
L104062 45972
" />
<path d="M103338 45945.2 A196.85 196.85 0.0 0 0 103437 45972 " />
<path d="M103338 45945.2 A196.85 196.85 0.0 0 0 103061 46200.5 " />
<path d="M103081 46285.9 A196.85 196.85 0.0 0 0 103061 46200.5 " />
<path d="M103080 46839
L103080 46285
" />
<path d="M103061 46924.7 A196.85 196.85 0.0 0 0 103081 46839.3 " />
<path d="M103061 46924.7 A196.85 196.85 0.0 0 0 103338 47180 " />
<path d="M103437 47153.1 A196.85 196.85 0.0 0 0 103338 47180 " />
<path d="M104062 47153
L103437 47153
" />
<path d="M104162 47180 A196.85 196.85 0.0 0 0 104063 47153.1 " />
<path d="M104162 47180 A196.85 196.85 0.0 0 0 104439 46924.7 " />
<path d="M104419 46839.3 A196.85 196.85 0.0 0 0 104439 46924.7 " />
<path d="M104419 46285
L104419 46839
" />
<path d="M104439 46200.5 A196.85 196.85 0.0 0 0 104419 46285.9 " />
<path d="M104439 46200.5 A196.85 196.85 0.0 0 0 104162 45945.2 " />
<path d="M96562.8 45972 A196.85 196.85 0.0 0 0 96662.1 45945.2 " />
<path d="M95937 45972
L96562 45972
" />
<path d="M95837.9 45945.2 A196.85 196.85 0.0 0 0 95937.2 45972 " />
<path d="M95837.9 45945.2 A196.85 196.85 0.0 0 0 95561.2 46200.5 " />
<path d="M95580.7 46285.9 A196.85 196.85 0.0 0 0 95561.2 46200.5 " />
<path d="M95580 46839
L95580 46285
" />
<path d="M95561.2 46924.7 A196.85 196.85 0.0 0 0 95580.7 46839.3 " />
<path d="M95561.2 46924.7 A196.85 196.85 0.0 0 0 95837.9 47180 " />
<path d="M95937.2 47153.1 A196.85 196.85 0.0 0 0 95837.9 47180 " />
<path d="M96562 47153
L95937 47153
" />
<path d="M96662.1 47180 A196.85 196.85 0.0 0 0 96562.8 47153.1 " />
<path d="M96662.1 47180 A196.85 196.85 0.0 0 0 96938.8 46924.7 " />
<path d="M96919.3 46839.3 A196.85 196.85 0.0 0 0 96938.8 46924.7 " />
<path d="M96919 46285
L96919 46839
" />
<path d="M96938.8 46200.5 A196.85 196.85 0.0 0 0 96919.3 46285.9 " />
<path d="M96938.8 46200.5 A196.85 196.85 0.0 0 0 96662.1 45945.2 " />
<path d="M89062.8 45972 A196.85 196.85 0.0 0 0 89162.1 45945.2 " />
<path d="M88437 45972
L89062 45972
" />
<path d="M88337.9 45945.2 A196.85 196.85 0.0 0 0 88437.2 45972 " />
<path d="M88337.9 45945.2 A196.85 196.85 0.0 0 0 88061.2 46200.5 " />
<path d="M88080.7 46285.9 A196.85 196.85 0.0 0 0 88061.2 46200.5 " />
<path d="M88080 46839
L88080 46285
" />
<path d="M88061.2 46924.7 A196.85 196.85 0.0 0 0 88080.7 46839.3 " />
<path d="M88061.2 46924.7 A196.85 196.85 0.0 0 0 88337.9 47180 " />
<path d="M88437.2 47153.1 A196.85 196.85 0.0 0 0 88337.9 47180 " />
<path d="M89062 47153
L88437 47153
" />
<path d="M89162.1 47180 A196.85 196.85 0.0 0 0 89062.8 47153.1 " />
<path d="M89162.1 47180 A196.85 196.85 0.0 0 0 89438.8 46924.7 " />
<path d="M89419.3 46839.3 A196.85 196.85 0.0 0 0 89438.8 46924.7 " />
<path d="M89419 46285
L89419 46839
" />
<path d="M89438.8 46200.5 A196.85 196.85 0.0 0 0 89419.3 46285.9 " />
<path d="M89438.8 46200.5 A196.85 196.85 0.0 0 0 89162.1 45945.2 " />
<path d="M81562.8 45972 A196.85 196.85 0.0 0 0 81662.1 45945.2 " />
<path d="M80937 45972
L81562 45972
" />
<path d="M80837.9 45945.2 A196.85 196.85 0.0 0 0 80937.2 45972 " />
<path d="M80837.9 45945.2 A196.85 196.85 0.0 0 0 80561.2 46200.5 " />
<path d="M80580.7 46285.9 A196.85 196.85 0.0 0 0 80561.2 46200.5 " />
<path d="M80580 46839
L80580 46285
" />
<path d="M80561.2 46924.7 A196.85 196.85 0.0 0 0 80580.7 46839.3 " />
<path d="M80561.2 46924.7 A196.85 196.85 0.0 0 0 80837.9 47180 " />
<path d="M80937.2 47153.1 A196.85 196.85 0.0 0 0 80837.9 47180 " />
<path d="M81562 47153
L80937 47153
" />
<path d="M81662.1 47180 A196.85 196.85 0.0 0 0 81562.8 47153.1 " />
<path d="M81662.1 47180 A196.85 196.85 0.0 0 0 81938.8 46924.7 " />
<path d="M81919.3 46839.3 A196.85 196.85 0.0 0 0 81938.8 46924.7 " />
<path d="M81919 46285
L81919 46839
" />
<path d="M81938.8 46200.5 A196.85 196.85 0.0 0 0 81919.3 46285.9 " />
<path d="M81938.8 46200.5 A196.85 196.85 0.0 0 0 81662.1 45945.2 " />
<path d="M74062.8 45972 A196.85 196.85 0.0 0 0 74162.1 45945.2 " />
<path d="M73437 45972
L74062 45972
" />
<path d="M73337.9 45945.2 A196.85 196.85 0.0 0 0 73437.2 45972 " />
<path d="M73337.9 45945.2 A196.85 196.85 0.0 0 0 73061.2 46200.5 " />
<path d="M73080.7 46285.9 A196.85 196.85 0.0 0 0 73061.2 46200.5 " />
<path d="M73080 46839
L73080 46285
" />
<path d="M73061.2 46924.7 A196.85 196.85 0.0 0 0 73080.7 46839.3 " />
<path d="M73061.2 46924.7 A196.85 196.85 0.0 0 0 73337.9 47180 " />
<path d="M73437.2 47153.1 A196.85 196.85 0.0 0 0 73337.9 47180 " />
<path d="M74062 47153
L73437 47153
" />
<path d="M74162.1 47180 A196.85 196.85 0.0 0 0 74062.8 47153.1 " />
<path d="M74162.1 47180 A196.85 196.85 0.0 0 0 74438.8 46924.7 " />
<path d="M74419.3 46839.3 A196.85 196.85 0.0 0 0 74438.8 46924.7 " />
<path d="M74419 46285
L74419 46839
" />
<path d="M74438.8 46200.5 A196.85 196.85 0.0 0 0 74419.3 46285.9 " />
<path d="M74438.8 46200.5 A196.85 196.85 0.0 0 0 74162.1 45945.2 " />
<path d="M66562.8 45972 A196.85 196.85 0.0 0 0 66662.1 45945.2 " />
<path d="M65937 45972
L66562 45972
" />
<path d="M65837.9 45945.2 A196.85 196.85 0.0 0 0 65937.2 45972 " />
<path d="M65837.9 45945.2 A196.85 196.85 0.0 0 0 65561.2 46200.5 " />
<path d="M65580.7 46285.9 A196.85 196.85 0.0 0 0 65561.2 46200.5 " />
<path d="M65580 46839
L65580 46285
" />
<path d="M65561.2 46924.7 A196.85 196.85 0.0 0 0 65580.7 46839.3 " />
<path d="M65561.2 46924.7 A196.85 196.85 0.0 0 0 65837.9 47180 " />
<path d="M65937.2 47153.1 A196.85 196.85 0.0 0 0 65837.9 47180 " />
<path d="M66562 47153
L65937 47153
" />
<path d="M66662.1 47180 A196.85 196.85 0.0 0 0 66562.8 47153.1 " />
<path d="M66662.1 47180 A196.85 196.85 0.0 0 0 66938.8 46924.7 " />
<path d="M66919.3 46839.3 A196.85 196.85 0.0 0 0 66938.8 46924.7 " />
<path d="M66919 46285
L66919 46839
" />
<path d="M66938.8 46200.5 A196.85 196.85 0.0 0 0 66919.3 46285.9 " />
<path d="M66938.8 46200.5 A196.85 196.85 0.0 0 0 66662.1 45945.2 " />
<path d="M59062.8 45972 A196.85 196.85 0.0 0 0 59162.1 45945.2 " />
<path d="M58437 45972
L59062 45972
" />
<path d="M58337.9 45945.2 A196.85 196.85 0.0 0 0 58437.2 45972 " />
<path d="M58337.9 45945.2 A196.85 196.85 0.0 0 0 58061.2 46200.5 " />
<path d="M58080.7 46285.9 A196.85 196.85 0.0 0 0 58061.2 46200.5 " />
<path d="M58080 46839
L58080 46285
" />
<path d="M58061.2 46924.7 A196.85 196.85 0.0 0 0 58080.7 46839.3 " />
<path d="M58061.2 46924.7 A196.85 196.85 0.0 0 0 58337.9 47180 " />
<path d="M58437.2 47153.1 A196.85 196.85 0.0 0 0 58337.9 47180 " />
<path d="M59062 47153
L58437 47153
" />
<path d="M59162.1 47180 A196.85 196.85 0.0 0 0 59062.8 47153.1 " />
<path d="M59162.1 47180 A196.85 196.85 0.0 0 0 59438.8 46924.7 " />
<path d="M59419.3 46839.3 A196.85 196.85 0.0 0 0 59438.8 46924.7 " />
<path d="M59419 46285
L59419 46839
" />
<path d="M59438.8 46200.5 A196.85 196.85 0.0 0 0 59419.3 46285.9 " />
<path d="M59438.8 46200.5 A196.85 196.85 0.0 0 0 59162.1 45945.2 " />
<path d="M51562.8 45972 A196.85 196.85 0.0 0 0 51662.1 45945.2 " />
<path d="M50937 45972
L51562 45972
" />
<path d="M50837.9 45945.2 A196.85 196.85 0.0 0 0 50937.2 45972 " />
<path d="M50837.9 45945.2 A196.85 196.85 0.0 0 0 50561.2 46200.5 " />
<path d="M50580.7 46285.9 A196.85 196.85 0.0 0 0 50561.2 46200.5 " />
<path d="M50580 46839
L50580 46285
" />
<path d="M50561.2 46924.7 A196.85 196.85 0.0 0 0 50580.7 46839.3 " />
<path d="M50561.2 46924.7 A196.85 196.85 0.0 0 0 50837.9 47180 " />
<path d="M50937.2 47153.1 A196.85 196.85 0.0 0 0 50837.9 47180 " />
<path d="M51562 47153
L50937 47153
" />
<path d="M51662.1 47180 A196.85 196.85 0.0 0 0 51562.8 47153.1 " />
<path d="M51662.1 47180 A196.85 196.85 0.0 0 0 51938.8 46924.7 " />
<path d="M51919.3 46839.3 A196.85 196.85 0.0 0 0 51938.8 46924.7 " />
<path d="M51919 46285
L51919 46839
" />
<path d="M51938.8 46200.5 A196.85 196.85 0.0 0 0 51919.3 46285.9 " />
<path d="M51938.8 46200.5 A196.85 196.85 0.0 0 0 51662.1 45945.2 " />
<path d="M44062.8 45972 A196.85 196.85 0.0 0 0 44162.1 45945.2 " />
<path d="M43437 45972
L44062 45972
" />
<path d="M43337.9 45945.2 A196.85 196.85 0.0 0 0 43437.2 45972 " />
<path d="M43337.9 45945.2 A196.85 196.85 0.0 0 0 43061.2 46200.5 " />
<path d="M43080.7 46285.9 A196.85 196.85 0.0 0 0 43061.2 46200.5 " />
<path d="M43080 46839
L43080 46285
" />
<path d="M43061.2 46924.7 A196.85 196.85 0.0 0 0 43080.7 46839.3 " />
<path d="M43061.2 46924.7 A196.85 196.85 0.0 0 0 43337.9 47180 " />
<path d="M43437.2 47153.1 A196.85 196.85 0.0 0 0 43337.9 47180 " />
<path d="M44062 47153
L43437 47153
" />
<path d="M44162.1 47180 A196.85 196.85 0.0 0 0 44062.8 47153.1 " />
<path d="M44162.1 47180 A196.85 196.85 0.0 0 0 44438.8 46924.7 " />
<path d="M44419.3 46839.3 A196.85 196.85 0.0 0 0 44438.8 46924.7 " />
<path d="M44419 46285
L44419 46839
" />
<path d="M44438.8 46200.5 A196.85 196.85 0.0 0 0 44419.3 46285.9 " />
<path d="M44438.8 46200.5 A196.85 196.85 0.0 0 0 44162.1 45945.2 " />
<path d="M36562.8 45972 A196.85 196.85 0.0 0 0 36662.1 45945.2 " />
<path d="M35937 45972
L36562 45972
" />
<path d="M35837.9 45945.2 A196.85 196.85 0.0 0 0 35937.2 45972 " />
<path d="M35837.9 45945.2 A196.85 196.85 0.0 0 0 35561.2 46200.5 " />
<path d="M35580.7 46285.9 A196.85 196.85 0.0 0 0 35561.2 46200.5 " />
<path d="M35580 46839
L35580 46285
" />
<path d="M35561.2 46924.7 A196.85 196.85 0.0 0 0 35580.7 46839.3 " />
<path d="M35561.2 46924.7 A196.85 196.85 0.0 0 0 35837.9 47180 " />
<path d="M35937.2 47153.1 A196.85 196.85 0.0 0 0 35837.9 47180 " />
<path d="M36562 47153
L35937 47153
" />
<path d="M36662.1 47180 A196.85 196.85 0.0 0 0 36562.8 47153.1 " />
<path d="M36662.1 47180 A196.85 196.85 0.0 0 0 36938.8 46924.7 " />
<path d="M36919.3 46839.3 A196.85 196.85 0.0 0 0 36938.8 46924.7 " />
<path d="M36919 46285
L36919 46839
" />
<path d="M36938.8 46200.5 A196.85 196.85 0.0 0 0 36919.3 46285.9 " />
<path d="M36938.8 46200.5 A196.85 196.85 0.0 0 0 36662.1 45945.2 " />
<path d="M29062.8 45972 A196.85 196.85 0.0 0 0 29162.1 45945.2 " />
<path d="M28437 45972
L29062 45972
" />
<path d="M28337.9 45945.2 A196.85 196.85 0.0 0 0 28437.2 45972 " />
<path d="M28337.9 45945.2 A196.85 196.85 0.0 0 0 28061.2 46200.5 " />
<path d="M28080.7 46285.9 A196.85 196.85 0.0 0 0 28061.2 46200.5 " />
<path d="M28080 46839
L28080 46285
" />
<path d="M28061.2 46924.7 A196.85 196.85 0.0 0 0 28080.7 46839.3 " />
<path d="M28061.2 46924.7 A196.85 196.85 0.0 0 0 28337.9 47180 " />
<path d="M28437.2 47153.1 A196.85 196.85 0.0 0 0 28337.9 47180 " />
<path d="M29062 47153
L28437 47153
" />
<path d="M29162.1 47180 A196.85 196.85 0.0 0 0 29062.8 47153.1 " />
<path d="M29162.1 47180 A196.85 196.85 0.0 0 0 29438.8 46924.7 " />
<path d="M29419.3 46839.3 A196.85 196.85 0.0 0 0 29438.8 46924.7 " />
<path d="M29419 46285
L29419 46839
" />
<path d="M29438.8 46200.5 A196.85 196.85 0.0 0 0 29419.3 46285.9 " />
<path d="M29438.8 46200.5 A196.85 196.85 0.0 0 0 29162.1 45945.2 " />
<path d="M21562.8 45972 A196.85 196.85 0.0 0 0 21662.1 45945.2 " />
<path d="M20937 45972
L21562 45972
" />
<path d="M20837.9 45945.2 A196.85 196.85 0.0 0 0 20937.2 45972 " />
<path d="M20837.9 45945.2 A196.85 196.85 0.0 0 0 20561.2 46200.5 " />
<path d="M20580.7 46285.9 A196.85 196.85 0.0 0 0 20561.2 46200.5 " />
<path d="M20580 46839
L20580 46285
" />
<path d="M20561.2 46924.7 A196.85 196.85 0.0 0 0 20580.7 46839.3 " />
<path d="M20561.2 46924.7 A196.85 196.85 0.0 0 0 20837.9 47180 " />
<path d="M20937.2 47153.1 A196.85 196.85 0.0 0 0 20837.9 47180 " />
<path d="M21562 47153
L20937 47153
" />
<path d="M21662.1 47180 A196.85 196.85 0.0 0 0 21562.8 47153.1 " />
<path d="M21662.1 47180 A196.85 196.85 0.0 0 0 21938.8 46924.7 " />
<path d="M21919.3 46839.3 A196.85 196.85 0.0 0 0 21938.8 46924.7 " />
<path d="M21919 46285
L21919 46839
" />
<path d="M21938.8 46200.5 A196.85 196.85 0.0 0 0 21919.3 46285.9 " />
<path d="M21938.8 46200.5 A196.85 196.85 0.0 0 0 21662.1 45945.2 " />
<path d="M12187.8 45972 A196.85 196.85 0.0 0 0 12287.1 45945.2 " />
<path d="M11562 45972
L12187 45972
" />
<path d="M11462.9 45945.2 A196.85 196.85 0.0 0 0 11562.2 45972 " />
<path d="M11462.9 45945.2 A196.85 196.85 0.0 0 0 11186.2 46200.5 " />
<path d="M11205.7 46285.9 A196.85 196.85 0.0 0 0 11186.2 46200.5 " />
<path d="M11205 46839
L11205 46285
" />
<path d="M11186.2 46924.7 A196.85 196.85 0.0 0 0 11205.7 46839.3 " />
<path d="M11186.2 46924.7 A196.85 196.85 0.0 0 0 11462.9 47180 " />
<path d="M11562.2 47153.1 A196.85 196.85 0.0 0 0 11462.9 47180 " />
<path d="M12187 47153
L11562 47153
" />
<path d="M12287.1 47180 A196.85 196.85 0.0 0 0 12187.8 47153.1 " />
<path d="M12287.1 47180 A196.85 196.85 0.0 0 0 12563.8 46924.7 " />
<path d="M12544.3 46839.3 A196.85 196.85 0.0 0 0 12563.8 46924.7 " />
<path d="M12544 46285
L12544 46839
" />
<path d="M12563.8 46200.5 A196.85 196.85 0.0 0 0 12544.3 46285.9 " />
<path d="M12563.8 46200.5 A196.85 196.85 0.0 0 0 12287.1 45945.2 " />
<path d="M937.776 45972 A196.85 196.85 0.0 0 0 1037.09 45945.2 " />
<path d="M312 45972
L937 45972
" />
<path d="M212.909 45945.2 A196.85 196.85 0.0 0 0 312.224 45972 " />
<path d="M212.909 45945.2 A196.85 196.85 0.0 0 0 -63.7731 46200.5 " />
<path d="M-44.2909 46285.9 A196.85 196.85 0.0 0 0 -63.7732 46200.5 " />
<path d="M-44 46839
L-44 46285
" />
<path d="M-63.7732 46924.7 A196.85 196.85 0.0 0 0 -44.2909 46839.3 " />
<path d="M-63.7731 46924.7 A196.85 196.85 0.0 0 0 212.909 47180 " />
<path d="M312.223 47153.1 A196.85 196.85 0.0 0 0 212.909 47180 " />
<path d="M937 47153
L312 47153
" />
<path d="M1037.09 47180 A196.85 196.85 0.0 0 0 937.777 47153.1 " />
<path d="M1037.09 47180 A196.85 196.85 0.0 0 0 1313.77 46924.7 " />
<path d="M1294.29 46839.3 A196.85 196.85 0.0 0 0 1313.77 46924.7 " />
<path d="M1294 46285
L1294 46839
" />
<path d="M1313.77 46200.5 A196.85 196.85 0.0 0 0 1294.29 46285.9 " />
<path d="M1313.77 46200.5 A196.85 196.85 0.0 0 0 1037.09 45945.2 " />
<path d="M128438 38472 A196.85 196.85 0.0 0 0 128537 38445.1 " />
<path d="M127812 38471
L128437 38471
" />
<path d="M127713 38445.1 A196.85 196.85 0.0 0 0 127812 38472 " />
<path d="M127713 38445.1 A196.85 196.85 0.0 0 0 127436 38700.4 " />
<path d="M127456 38785.8 A196.85 196.85 0.0 0 0 127436 38700.4 " />
<path d="M127455 39339
L127455 38785
" />
<path d="M127436 39424.6 A196.85 196.85 0.0 0 0 127456 39339.2 " />
<path d="M127436 39424.6 A196.85 196.85 0.0 0 0 127713 39680 " />
<path d="M127812 39653.1 A196.85 196.85 0.0 0 0 127713 39680 " />
<path d="M128437 39653
L127812 39653
" />
<path d="M128537 39680 A196.85 196.85 0.0 0 0 128438 39653.1 " />
<path d="M128537 39680 A196.85 196.85 0.0 0 0 128814 39424.6 " />
<path d="M128794 39339.2 A196.85 196.85 0.0 0 0 128814 39424.6 " />
<path d="M128794 38785
L128794 39339
" />
<path d="M128814 38700.4 A196.85 196.85 0.0 0 0 128794 38785.8 " />
<path d="M128814 38700.4 A196.85 196.85 0.0 0 0 128537 38445.1 " />
<path d="M111563 38472 A196.85 196.85 0.0 0 0 111662 38445.1 " />
<path d="M110937 38471
L111562 38471
" />
<path d="M110838 38445.1 A196.85 196.85 0.0 0 0 110937 38472 " />
<path d="M110838 38445.1 A196.85 196.85 0.0 0 0 110561 38700.4 " />
<path d="M110581 38785.8 A196.85 196.85 0.0 0 0 110561 38700.4 " />
<path d="M110580 39339
L110580 38785
" />
<path d="M110561 39424.6 A196.85 196.85 0.0 0 0 110581 39339.2 " />
<path d="M110561 39424.6 A196.85 196.85 0.0 0 0 110838 39680 " />
<path d="M110937 39653.1 A196.85 196.85 0.0 0 0 110838 39680 " />
<path d="M111562 39653
L110937 39653
" />
<path d="M111662 39680 A196.85 196.85 0.0 0 0 111563 39653.1 " />
<path d="M111662 39680 A196.85 196.85 0.0 0 0 111939 39424.6 " />
<path d="M111919 39339.2 A196.85 196.85 0.0 0 0 111939 39424.6 " />
<path d="M111919 38785
L111919 39339
" />
<path d="M111939 38700.4 A196.85 196.85 0.0 0 0 111919 38785.8 " />
<path d="M111939 38700.4 A196.85 196.85 0.0 0 0 111662 38445.1 " />
<path d="M100313 38472 A196.85 196.85 0.0 0 0 100412 38445.1 " />
<path d="M99687 38471
L100312 38471
" />
<path d="M99587.9 38445.1 A196.85 196.85 0.0 0 0 99687.2 38472 " />
<path d="M99587.9 38445.1 A196.85 196.85 0.0 0 0 99311.2 38700.4 " />
<path d="M99330.7 38785.8 A196.85 196.85 0.0 0 0 99311.2 38700.4 " />
<path d="M99330 39339
L99330 38785
" />
<path d="M99311.2 39424.6 A196.85 196.85 0.0 0 0 99330.7 39339.2 " />
<path d="M99311.2 39424.6 A196.85 196.85 0.0 0 0 99587.9 39680 " />
<path d="M99687.2 39653.1 A196.85 196.85 0.0 0 0 99587.9 39680 " />
<path d="M100312 39653
L99687 39653
" />
<path d="M100412 39680 A196.85 196.85 0.0 0 0 100313 39653.1 " />
<path d="M100412 39680 A196.85 196.85 0.0 0 0 100689 39424.6 " />
<path d="M100669 39339.2 A196.85 196.85 0.0 0 0 100689 39424.6 " />
<path d="M100669 38785
L100669 39339
" />
<path d="M100689 38700.4 A196.85 196.85 0.0 0 0 100669 38785.8 " />
<path d="M100689 38700.4 A196.85 196.85 0.0 0 0 100412 38445.1 " />
<path d="M92812.8 38472 A196.85 196.85 0.0 0 0 92912.1 38445.1 " />
<path d="M92187 38471
L92812 38471
" />
<path d="M92087.9 38445.1 A196.85 196.85 0.0 0 0 92187.2 38472 " />
<path d="M92087.9 38445.1 A196.85 196.85 0.0 0 0 91811.2 38700.4 " />
<path d="M91830.7 38785.8 A196.85 196.85 0.0 0 0 91811.2 38700.4 " />
<path d="M91830 39339
L91830 38785
" />
<path d="M91811.2 39424.6 A196.85 196.85 0.0 0 0 91830.7 39339.2 " />
<path d="M91811.2 39424.6 A196.85 196.85 0.0 0 0 92087.9 39680 " />
<path d="M92187.2 39653.1 A196.85 196.85 0.0 0 0 92087.9 39680 " />
<path d="M92812 39653
L92187 39653
" />
<path d="M92912.1 39680 A196.85 196.85 0.0 0 0 92812.8 39653.1 " />
<path d="M92912.1 39680 A196.85 196.85 0.0 0 0 93188.8 39424.6 " />
<path d="M93169.3 39339.2 A196.85 196.85 0.0 0 0 93188.8 39424.6 " />
<path d="M93169 38785
L93169 39339
" />
<path d="M93188.8 38700.4 A196.85 196.85 0.0 0 0 93169.3 38785.8 " />
<path d="M93188.8 38700.4 A196.85 196.85 0.0 0 0 92912.1 38445.1 " />
<path d="M85312.8 38472 A196.85 196.85 0.0 0 0 85412.1 38445.1 " />
<path d="M84687 38471
L85312 38471
" />
<path d="M84587.9 38445.1 A196.85 196.85 0.0 0 0 84687.2 38472 " />
<path d="M84587.9 38445.1 A196.85 196.85 0.0 0 0 84311.2 38700.4 " />
<path d="M84330.7 38785.8 A196.85 196.85 0.0 0 0 84311.2 38700.4 " />
<path d="M84330 39339
L84330 38785
" />
<path d="M84311.2 39424.6 A196.85 196.85 0.0 0 0 84330.7 39339.2 " />
<path d="M84311.2 39424.6 A196.85 196.85 0.0 0 0 84587.9 39680 " />
<path d="M84687.2 39653.1 A196.85 196.85 0.0 0 0 84587.9 39680 " />
<path d="M85312 39653
L84687 39653
" />
<path d="M85412.1 39680 A196.85 196.85 0.0 0 0 85312.8 39653.1 " />
<path d="M85412.1 39680 A196.85 196.85 0.0 0 0 85688.8 39424.6 " />
<path d="M85669.3 39339.2 A196.85 196.85 0.0 0 0 85688.8 39424.6 " />
<path d="M85669 38785
L85669 39339
" />
<path d="M85688.8 38700.4 A196.85 196.85 0.0 0 0 85669.3 38785.8 " />
<path d="M85688.8 38700.4 A196.85 196.85 0.0 0 0 85412.1 38445.1 " />
<path d="M77812.8 38472 A196.85 196.85 0.0 0 0 77912.1 38445.1 " />
<path d="M77187 38471
L77812 38471
" />
<path d="M77087.9 38445.1 A196.85 196.85 0.0 0 0 77187.2 38472 " />
<path d="M77087.9 38445.1 A196.85 196.85 0.0 0 0 76811.2 38700.4 " />
<path d="M76830.7 38785.8 A196.85 196.85 0.0 0 0 76811.2 38700.4 " />
<path d="M76830 39339
L76830 38785
" />
<path d="M76811.2 39424.6 A196.85 196.85 0.0 0 0 76830.7 39339.2 " />
<path d="M76811.2 39424.6 A196.85 196.85 0.0 0 0 77087.9 39680 " />
<path d="M77187.2 39653.1 A196.85 196.85 0.0 0 0 77087.9 39680 " />
<path d="M77812 39653
L77187 39653
" />
<path d="M77912.1 39680 A196.85 196.85 0.0 0 0 77812.8 39653.1 " />
<path d="M77912.1 39680 A196.85 196.85 0.0 0 0 78188.8 39424.6 " />
<path d="M78169.3 39339.2 A196.85 196.85 0.0 0 0 78188.8 39424.6 " />
<path d="M78169 38785
L78169 39339
" />
<path d="M78188.8 38700.4 A196.85 196.85 0.0 0 0 78169.3 38785.8 " />
<path d="M78188.8 38700.4 A196.85 196.85 0.0 0 0 77912.1 38445.1 " />
<path d="M70312.8 38472 A196.85 196.85 0.0 0 0 70412.1 38445.1 " />
<path d="M69687 38471
L70312 38471
" />
<path d="M69587.9 38445.1 A196.85 196.85 0.0 0 0 69687.2 38472 " />
<path d="M69587.9 38445.1 A196.85 196.85 0.0 0 0 69311.2 38700.4 " />
<path d="M69330.7 38785.8 A196.85 196.85 0.0 0 0 69311.2 38700.4 " />
<path d="M69330 39339
L69330 38785
" />
<path d="M69311.2 39424.6 A196.85 196.85 0.0 0 0 69330.7 39339.2 " />
<path d="M69311.2 39424.6 A196.85 196.85 0.0 0 0 69587.9 39680 " />
<path d="M69687.2 39653.1 A196.85 196.85 0.0 0 0 69587.9 39680 " />
<path d="M70312 39653
L69687 39653
" />
<path d="M70412.1 39680 A196.85 196.85 0.0 0 0 70312.8 39653.1 " />
<path d="M70412.1 39680 A196.85 196.85 0.0 0 0 70688.8 39424.6 " />
<path d="M70669.3 39339.2 A196.85 196.85 0.0 0 0 70688.8 39424.6 " />
<path d="M70669 38785
L70669 39339
" />
<path d="M70688.8 38700.4 A196.85 196.85 0.0 0 0 70669.3 38785.8 " />
<path d="M70688.8 38700.4 A196.85 196.85 0.0 0 0 70412.1 38445.1 " />
<path d="M62812.8 38472 A196.85 196.85 0.0 0 0 62912.1 38445.1 " />
<path d="M62187 38471
L62812 38471
" />
<path d="M62087.9 38445.1 A196.85 196.85 0.0 0 0 62187.2 38472 " />
<path d="M62087.9 38445.1 A196.85 196.85 0.0 0 0 61811.2 38700.4 " />
<path d="M61830.7 38785.8 A196.85 196.85 0.0 0 0 61811.2 38700.4 " />
<path d="M61830 39339
L61830 38785
" />
<path d="M61811.2 39424.6 A196.85 196.85 0.0 0 0 61830.7 39339.2 " />
<path d="M61811.2 39424.6 A196.85 196.85 0.0 0 0 62087.9 39680 " />
<path d="M62187.2 39653.1 A196.85 196.85 0.0 0 0 62087.9 39680 " />
<path d="M62812 39653
L62187 39653
" />
<path d="M62912.1 39680 A196.85 196.85 0.0 0 0 62812.8 39653.1 " />
<path d="M62912.1 39680 A196.85 196.85 0.0 0 0 63188.8 39424.6 " />
<path d="M63169.3 39339.2 A196.85 196.85 0.0 0 0 63188.8 39424.6 " />
<path d="M63169 38785
L63169 39339
" />
<path d="M63188.8 38700.4 A196.85 196.85 0.0 0 0 63169.3 38785.8 " />
<path d="M63188.8 38700.4 A196.85 196.85 0.0 0 0 62912.1 38445.1 " />
<path d="M55312.8 38472 A196.85 196.85 0.0 0 0 55412.1 38445.1 " />
<path d="M54687 38471
L55312 38471
" />
<path d="M54587.9 38445.1 A196.85 196.85 0.0 0 0 54687.2 38472 " />
<path d="M54587.9 38445.1 A196.85 196.85 0.0 0 0 54311.2 38700.4 " />
<path d="M54330.7 38785.8 A196.85 196.85 0.0 0 0 54311.2 38700.4 " />
<path d="M54330 39339
L54330 38785
" />
<path d="M54311.2 39424.6 A196.85 196.85 0.0 0 0 54330.7 39339.2 " />
<path d="M54311.2 39424.6 A196.85 196.85 0.0 0 0 54587.9 39680 " />
<path d="M54687.2 39653.1 A196.85 196.85 0.0 0 0 54587.9 39680 " />
<path d="M55312 39653
L54687 39653
" />
<path d="M55412.1 39680 A196.85 196.85 0.0 0 0 55312.8 39653.1 " />
<path d="M55412.1 39680 A196.85 196.85 0.0 0 0 55688.8 39424.6 " />
<path d="M55669.3 39339.2 A196.85 196.85 0.0 0 0 55688.8 39424.6 " />
<path d="M55669 38785
L55669 39339
" />
<path d="M55688.8 38700.4 A196.85 196.85 0.0 0 0 55669.3 38785.8 " />
<path d="M55688.8 38700.4 A196.85 196.85 0.0 0 0 55412.1 38445.1 " />
<path d="M47812.8 38472 A196.85 196.85 0.0 0 0 47912.1 38445.1 " />
<path d="M47187 38471
L47812 38471
" />
<path d="M47087.9 38445.1 A196.85 196.85 0.0 0 0 47187.2 38472 " />
<path d="M47087.9 38445.1 A196.85 196.85 0.0 0 0 46811.2 38700.4 " />
<path d="M46830.7 38785.8 A196.85 196.85 0.0 0 0 46811.2 38700.4 " />
<path d="M46830 39339
L46830 38785
" />
<path d="M46811.2 39424.6 A196.85 196.85 0.0 0 0 46830.7 39339.2 " />
<path d="M46811.2 39424.6 A196.85 196.85 0.0 0 0 47087.9 39680 " />
<path d="M47187.2 39653.1 A196.85 196.85 0.0 0 0 47087.9 39680 " />
<path d="M47812 39653
L47187 39653
" />
<path d="M47912.1 39680 A196.85 196.85 0.0 0 0 47812.8 39653.1 " />
<path d="M47912.1 39680 A196.85 196.85 0.0 0 0 48188.8 39424.6 " />
<path d="M48169.3 39339.2 A196.85 196.85 0.0 0 0 48188.8 39424.6 " />
<path d="M48169 38785
L48169 39339
" />
<path d="M48188.8 38700.4 A196.85 196.85 0.0 0 0 48169.3 38785.8 " />
<path d="M48188.8 38700.4 A196.85 196.85 0.0 0 0 47912.1 38445.1 " />
<path d="M40312.8 38472 A196.85 196.85 0.0 0 0 40412.1 38445.1 " />
<path d="M39687 38471
L40312 38471
" />
<path d="M39587.9 38445.1 A196.85 196.85 0.0 0 0 39687.2 38472 " />
<path d="M39587.9 38445.1 A196.85 196.85 0.0 0 0 39311.2 38700.4 " />
<path d="M39330.7 38785.8 A196.85 196.85 0.0 0 0 39311.2 38700.4 " />
<path d="M39330 39339
L39330 38785
" />
<path d="M39311.2 39424.6 A196.85 196.85 0.0 0 0 39330.7 39339.2 " />
<path d="M39311.2 39424.6 A196.85 196.85 0.0 0 0 39587.9 39680 " />
<path d="M39687.2 39653.1 A196.85 196.85 0.0 0 0 39587.9 39680 " />
<path d="M40312 39653
L39687 39653
" />
<path d="M40412.1 39680 A196.85 196.85 0.0 0 0 40312.8 39653.1 " />
<path d="M40412.1 39680 A196.85 196.85 0.0 0 0 40688.8 39424.6 " />
<path d="M40669.3 39339.2 A196.85 196.85 0.0 0 0 40688.8 39424.6 " />
<path d="M40669 38785
L40669 39339
" />
<path d="M40688.8 38700.4 A196.85 196.85 0.0 0 0 40669.3 38785.8 " />
<path d="M40688.8 38700.4 A196.85 196.85 0.0 0 0 40412.1 38445.1 " />
<path d="M32812.8 38472 A196.85 196.85 0.0 0 0 32912.1 38445.1 " />
<path d="M32187 38471
L32812 38471
" />
<path d="M32087.9 38445.1 A196.85 196.85 0.0 0 0 32187.2 38472 " />
<path d="M32087.9 38445.1 A196.85 196.85 0.0 0 0 31811.2 38700.4 " />
<path d="M31830.7 38785.8 A196.85 196.85 0.0 0 0 31811.2 38700.4 " />
<path d="M31830 39339
L31830 38785
" />
<path d="M31811.2 39424.6 A196.85 196.85 0.0 0 0 31830.7 39339.2 " />
<path d="M31811.2 39424.6 A196.85 196.85 0.0 0 0 32087.9 39680 " />
<path d="M32187.2 39653.1 A196.85 196.85 0.0 0 0 32087.9 39680 " />
<path d="M32812 39653
L32187 39653
" />
<path d="M32912.1 39680 A196.85 196.85 0.0 0 0 32812.8 39653.1 " />
<path d="M32912.1 39680 A196.85 196.85 0.0 0 0 33188.8 39424.6 " />
<path d="M33169.3 39339.2 A196.85 196.85 0.0 0 0 33188.8 39424.6 " />
<path d="M33169 38785
L33169 39339
" />
<path d="M33188.8 38700.4 A196.85 196.85 0.0 0 0 33169.3 38785.8 " />
<path d="M33188.8 38700.4 A196.85 196.85 0.0 0 0 32912.1 38445.1 " />
<path d="M25312.8 38472 A196.85 196.85 0.0 0 0 25412.1 38445.1 " />
<path d="M24687 38471
L25312 38471
" />
<path d="M24587.9 38445.1 A196.85 196.85 0.0 0 0 24687.2 38472 " />
<path d="M24587.9 38445.1 A196.85 196.85 0.0 0 0 24311.2 38700.4 " />
<path d="M24330.7 38785.8 A196.85 196.85 0.0 0 0 24311.2 38700.4 " />
<path d="M24330 39339
L24330 38785
" />
<path d="M24311.2 39424.6 A196.85 196.85 0.0 0 0 24330.7 39339.2 " />
<path d="M24311.2 39424.6 A196.85 196.85 0.0 0 0 24587.9 39680 " />
<path d="M24687.2 39653.1 A196.85 196.85 0.0 0 0 24587.9 39680 " />
<path d="M25312 39653
L24687 39653
" />
<path d="M25412.1 39680 A196.85 196.85 0.0 0 0 25312.8 39653.1 " />
<path d="M25412.1 39680 A196.85 196.85 0.0 0 0 25688.8 39424.6 " />
<path d="M25669.3 39339.2 A196.85 196.85 0.0 0 0 25688.8 39424.6 " />
<path d="M25669 38785
L25669 39339
" />
<path d="M25688.8 38700.4 A196.85 196.85 0.0 0 0 25669.3 38785.8 " />
<path d="M25688.8 38700.4 A196.85 196.85 0.0 0 0 25412.1 38445.1 " />
<path d="M17812.8 38472 A196.85 196.85 0.0 0 0 17912.1 38445.1 " />
<path d="M17187 38471
L17812 38471
" />
<path d="M17087.9 38445.1 A196.85 196.85 0.0 0 0 17187.2 38472 " />
<path d="M17087.9 38445.1 A196.85 196.85 0.0 0 0 16811.2 38700.4 " />
<path d="M16830.7 38785.8 A196.85 196.85 0.0 0 0 16811.2 38700.4 " />
<path d="M16830 39339
L16830 38785
" />
<path d="M16811.2 39424.6 A196.85 196.85 0.0 0 0 16830.7 39339.2 " />
<path d="M16811.2 39424.6 A196.85 196.85 0.0 0 0 17087.9 39680 " />
<path d="M17187.2 39653.1 A196.85 196.85 0.0 0 0 17087.9 39680 " />
<path d="M17812 39653
L17187 39653
" />
<path d="M17912.1 39680 A196.85 196.85 0.0 0 0 17812.8 39653.1 " />
<path d="M17912.1 39680 A196.85 196.85 0.0 0 0 18188.8 39424.6 " />
<path d="M18169.3 39339.2 A196.85 196.85 0.0 0 0 18188.8 39424.6 " />
<path d="M18169 38785
L18169 39339
" />
<path d="M18188.8 38700.4 A196.85 196.85 0.0 0 0 18169.3 38785.8 " />
<path d="M18188.8 38700.4 A196.85 196.85 0.0 0 0 17912.1 38445.1 " />
<path d="M10312.8 38472 A196.85 196.85 0.0 0 0 10412.1 38445.1 " />
<path d="M9687 38471
L10312 38471
" />
<path d="M9587.91 38445.1 A196.85 196.85 0.0 0 0 9687.22 38472 " />
<path d="M9587.91 38445.1 A196.85 196.85 0.0 0 0 9311.23 38700.4 " />
<path d="M9330.71 38785.8 A196.85 196.85 0.0 0 0 9311.23 38700.4 " />
<path d="M9330 39339
L9330 38785
" />
<path d="M9311.23 39424.6 A196.85 196.85 0.0 0 0 9330.71 39339.2 " />
<path d="M9311.23 39424.6 A196.85 196.85 0.0 0 0 9587.91 39680 " />
<path d="M9687.22 39653.1 A196.85 196.85 0.0 0 0 9587.91 39680 " />
<path d="M10312 39653
L9687 39653
" />
<path d="M10412.1 39680 A196.85 196.85 0.0 0 0 10312.8 39653.1 " />
<path d="M10412.1 39680 A196.85 196.85 0.0 0 0 10688.8 39424.6 " />
<path d="M10669.3 39339.2 A196.85 196.85 0.0 0 0 10688.8 39424.6 " />
<path d="M10669 38785
L10669 39339
" />
<path d="M10688.8 38700.4 A196.85 196.85 0.0 0 0 10669.3 38785.8 " />
<path d="M10688.8 38700.4 A196.85 196.85 0.0 0 0 10412.1 38445.1 " />
<path d="M937.776 38472 A196.85 196.85 0.0 0 0 1037.09 38445.1 " />
<path d="M312 38471
L937 38471
" />
<path d="M212.909 38445.1 A196.85 196.85 0.0 0 0 312.224 38472 " />
<path d="M212.909 38445.1 A196.85 196.85 0.0 0 0 -63.7731 38700.4 " />
<path d="M-44.2909 38785.8 A196.85 196.85 0.0 0 0 -63.7732 38700.4 " />
<path d="M-44 39339
L-44 38785
" />
<path d="M-63.7732 39424.6 A196.85 196.85 0.0 0 0 -44.2909 39339.2 " />
<path d="M-63.7731 39424.6 A196.85 196.85 0.0 0 0 212.909 39680 " />
<path d="M312.223 39653.1 A196.85 196.85 0.0 0 0 212.909 39680 " />
<path d="M937 39653
L312 39653
" />
<path d="M1037.09 39680 A196.85 196.85 0.0 0 0 937.777 39653.1 " />
<path d="M1037.09 39680 A196.85 196.85 0.0 0 0 1313.77 39424.6 " />
<path d="M1294.29 39339.2 A196.85 196.85 0.0 0 0 1313.77 39424.6 " />
<path d="M1294 38785
L1294 39339
" />
<path d="M1313.77 38700.4 A196.85 196.85 0.0 0 0 1294.29 38785.8 " />
<path d="M1313.77 38700.4 A196.85 196.85 0.0 0 0 1037.09 38445.1 " />
<path d="M115313 29096.9 A196.85 196.85 0.0 0 0 115412 29070 " />
<path d="M114687 29096
L115312 29096
" />
<path d="M114588 29070 A196.85 196.85 0.0 0 0 114687 29096.9 " />
<path d="M114588 29070 A196.85 196.85 0.0 0 0 114311 29325.4 " />
<path d="M114331 29410.8 A196.85 196.85 0.0 0 0 114311 29325.4 " />
<path d="M114330 29964
L114330 29410
" />
<path d="M114311 30049.6 A196.85 196.85 0.0 0 0 114331 29964.2 " />
<path d="M114311 30049.6 A196.85 196.85 0.0 0 0 114588 30304.9 " />
<path d="M114687 30278 A196.85 196.85 0.0 0 0 114588 30304.9 " />
<path d="M115312 30278
L114687 30278
" />
<path d="M115412 30304.9 A196.85 196.85 0.0 0 0 115313 30278 " />
<path d="M115412 30304.9 A196.85 196.85 0.0 0 0 115689 30049.6 " />
<path d="M115669 29964.2 A196.85 196.85 0.0 0 0 115689 30049.6 " />
<path d="M115669 29410
L115669 29964
" />
<path d="M115689 29325.4 A196.85 196.85 0.0 0 0 115669 29410.8 " />
<path d="M115689 29325.4 A196.85 196.85 0.0 0 0 115412 29070 " />
<path d="M105938 29096.9 A196.85 196.85 0.0 0 0 106037 29070 " />
<path d="M105312 29096
L105937 29096
" />
<path d="M105213 29070 A196.85 196.85 0.0 0 0 105312 29096.9 " />
<path d="M105213 29070 A196.85 196.85 0.0 0 0 104936 29325.4 " />
<path d="M104956 29410.8 A196.85 196.85 0.0 0 0 104936 29325.4 " />
<path d="M104955 29964
L104955 29410
" />
<path d="M104936 30049.6 A196.85 196.85 0.0 0 0 104956 29964.2 " />
<path d="M104936 30049.6 A196.85 196.85 0.0 0 0 105213 30304.9 " />
<path d="M105312 30278 A196.85 196.85 0.0 0 0 105213 30304.9 " />
<path d="M105937 30278
L105312 30278
" />
<path d="M106037 30304.9 A196.85 196.85 0.0 0 0 105938 30278 " />
<path d="M106037 30304.9 A196.85 196.85 0.0 0 0 106314 30049.6 " />
<path d="M106294 29964.2 A196.85 196.85 0.0 0 0 106314 30049.6 " />
<path d="M106294 29410
L106294 29964
" />
<path d="M106314 29325.4 A196.85 196.85 0.0 0 0 106294 29410.8 " />
<path d="M106314 29325.4 A196.85 196.85 0.0 0 0 106037 29070 " />
<path d="M98438 29096.9 A196.85 196.85 0.0 0 0 98537.3 29070 " />
<path d="M97812 29096
L98437 29096
" />
<path d="M97713.1 29070 A196.85 196.85 0.0 0 0 97812.4 29096.9 " />
<path d="M97713.1 29070 A196.85 196.85 0.0 0 0 97436.4 29325.4 " />
<path d="M97455.9 29410.8 A196.85 196.85 0.0 0 0 97436.4 29325.4 " />
<path d="M97455 29964
L97455 29410
" />
<path d="M97436.4 30049.6 A196.85 196.85 0.0 0 0 97455.9 29964.2 " />
<path d="M97436.4 30049.6 A196.85 196.85 0.0 0 0 97713.1 30304.9 " />
<path d="M97812.4 30278 A196.85 196.85 0.0 0 0 97713.1 30304.9 " />
<path d="M98437 30278
L97812 30278
" />
<path d="M98537.3 30304.9 A196.85 196.85 0.0 0 0 98438 30278 " />
<path d="M98537.3 30304.9 A196.85 196.85 0.0 0 0 98814 30049.6 " />
<path d="M98794.5 29964.2 A196.85 196.85 0.0 0 0 98814 30049.6 " />
<path d="M98794 29410
L98794 29964
" />
<path d="M98814 29325.4 A196.85 196.85 0.0 0 0 98794.5 29410.8 " />
<path d="M98814 29325.4 A196.85 196.85 0.0 0 0 98537.3 29070 " />
<path d="M90938 29096.9 A196.85 196.85 0.0 0 0 91037.3 29070 " />
<path d="M90312 29096
L90937 29096
" />
<path d="M90213.1 29070 A196.85 196.85 0.0 0 0 90312.4 29096.9 " />
<path d="M90213.1 29070 A196.85 196.85 0.0 0 0 89936.4 29325.4 " />
<path d="M89955.9 29410.8 A196.85 196.85 0.0 0 0 89936.4 29325.4 " />
<path d="M89955 29964
L89955 29410
" />
<path d="M89936.4 30049.6 A196.85 196.85 0.0 0 0 89955.9 29964.2 " />
<path d="M89936.4 30049.6 A196.85 196.85 0.0 0 0 90213.1 30304.9 " />
<path d="M90312.4 30278 A196.85 196.85 0.0 0 0 90213.1 30304.9 " />
<path d="M90937 30278
L90312 30278
" />
<path d="M91037.3 30304.9 A196.85 196.85 0.0 0 0 90938 30278 " />
<path d="M91037.3 30304.9 A196.85 196.85 0.0 0 0 91314 30049.6 " />
<path d="M91294.5 29964.2 A196.85 196.85 0.0 0 0 91314 30049.6 " />
<path d="M91294 29410
L91294 29964
" />
<path d="M91314 29325.4 A196.85 196.85 0.0 0 0 91294.5 29410.8 " />
<path d="M91314 29325.4 A196.85 196.85 0.0 0 0 91037.3 29070 " />
<path d="M83438 29096.9 A196.85 196.85 0.0 0 0 83537.3 29070 " />
<path d="M82812 29096
L83437 29096
" />
<path d="M82713.1 29070 A196.85 196.85 0.0 0 0 82812.4 29096.9 " />
<path d="M82713.1 29070 A196.85 196.85 0.0 0 0 82436.4 29325.4 " />
<path d="M82455.9 29410.8 A196.85 196.85 0.0 0 0 82436.4 29325.4 " />
<path d="M82455 29964
L82455 29410
" />
<path d="M82436.4 30049.6 A196.85 196.85 0.0 0 0 82455.9 29964.2 " />
<path d="M82436.4 30049.6 A196.85 196.85 0.0 0 0 82713.1 30304.9 " />
<path d="M82812.4 30278 A196.85 196.85 0.0 0 0 82713.1 30304.9 " />
<path d="M83437 30278
L82812 30278
" />
<path d="M83537.3 30304.9 A196.85 196.85 0.0 0 0 83438 30278 " />
<path d="M83537.3 30304.9 A196.85 196.85 0.0 0 0 83814 30049.6 " />
<path d="M83794.5 29964.2 A196.85 196.85 0.0 0 0 83814 30049.6 " />
<path d="M83794 29410
L83794 29964
" />
<path d="M83814 29325.4 A196.85 196.85 0.0 0 0 83794.5 29410.8 " />
<path d="M83814 29325.4 A196.85 196.85 0.0 0 0 83537.3 29070 " />
<path d="M74062.8 29096.9 A196.85 196.85 0.0 0 0 74162.1 29070 " />
<path d="M73437 29096
L74062 29096
" />
<path d="M73337.9 29070 A196.85 196.85 0.0 0 0 73437.2 29096.9 " />
<path d="M73337.9 29070 A196.85 196.85 0.0 0 0 73061.2 29325.4 " />
<path d="M73080.7 29410.8 A196.85 196.85 0.0 0 0 73061.2 29325.4 " />
<path d="M73080 29964
L73080 29410
" />
<path d="M73061.2 30049.6 A196.85 196.85 0.0 0 0 73080.7 29964.2 " />
<path d="M73061.2 30049.6 A196.85 196.85 0.0 0 0 73337.9 30304.9 " />
<path d="M73437.2 30278 A196.85 196.85 0.0 0 0 73337.9 30304.9 " />
<path d="M74062 30278
L73437 30278
" />
<path d="M74162.1 30304.9 A196.85 196.85 0.0 0 0 74062.8 30278 " />
<path d="M74162.1 30304.9 A196.85 196.85 0.0 0 0 74438.8 30049.6 " />
<path d="M74419.3 29964.2 A196.85 196.85 0.0 0 0 74438.8 30049.6 " />
<path d="M74419 29410
L74419 29964
" />
<path d="M74438.8 29325.4 A196.85 196.85 0.0 0 0 74419.3 29410.8 " />
<path d="M74438.8 29325.4 A196.85 196.85 0.0 0 0 74162.1 29070 " />
<path d="M66562.8 29096.9 A196.85 196.85 0.0 0 0 66662.1 29070 " />
<path d="M65937 29096
L66562 29096
" />
<path d="M65837.9 29070 A196.85 196.85 0.0 0 0 65937.2 29096.9 " />
<path d="M65837.9 29070 A196.85 196.85 0.0 0 0 65561.2 29325.4 " />
<path d="M65580.7 29410.8 A196.85 196.85 0.0 0 0 65561.2 29325.4 " />
<path d="M65580 29964
L65580 29410
" />
<path d="M65561.2 30049.6 A196.85 196.85 0.0 0 0 65580.7 29964.2 " />
<path d="M65561.2 30049.6 A196.85 196.85 0.0 0 0 65837.9 30304.9 " />
<path d="M65937.2 30278 A196.85 196.85 0.0 0 0 65837.9 30304.9 " />
<path d="M66562 30278
L65937 30278
" />
<path d="M66662.1 30304.9 A196.85 196.85 0.0 0 0 66562.8 30278 " />
<path d="M66662.1 30304.9 A196.85 196.85 0.0 0 0 66938.8 30049.6 " />
<path d="M66919.3 29964.2 A196.85 196.85 0.0 0 0 66938.8 30049.6 " />
<path d="M66919 29410
L66919 29964
" />
<path d="M66938.8 29325.4 A196.85 196.85 0.0 0 0 66919.3 29410.8 " />
<path d="M66938.8 29325.4 A196.85 196.85 0.0 0 0 66662.1 29070 " />
<path d="M59062.8 29096.9 A196.85 196.85 0.0 0 0 59162.1 29070 " />
<path d="M58437 29096
L59062 29096
" />
<path d="M58337.9 29070 A196.85 196.85 0.0 0 0 58437.2 29096.9 " />
<path d="M58337.9 29070 A196.85 196.85 0.0 0 0 58061.2 29325.4 " />
<path d="M58080.7 29410.8 A196.85 196.85 0.0 0 0 58061.2 29325.4 " />
<path d="M58080 29964
L58080 29410
" />
<path d="M58061.2 30049.6 A196.85 196.85 0.0 0 0 58080.7 29964.2 " />
<path d="M58061.2 30049.6 A196.85 196.85 0.0 0 0 58337.9 30304.9 " />
<path d="M58437.2 30278 A196.85 196.85 0.0 0 0 58337.9 30304.9 " />
<path d="M59062 30278
L58437 30278
" />
<path d="M59162.1 30304.9 A196.85 196.85 0.0 0 0 59062.8 30278 " />
<path d="M59162.1 30304.9 A196.85 196.85 0.0 0 0 59438.8 30049.6 " />
<path d="M59419.3 29964.2 A196.85 196.85 0.0 0 0 59438.8 30049.6 " />
<path d="M59419 29410
L59419 29964
" />
<path d="M59438.8 29325.4 A196.85 196.85 0.0 0 0 59419.3 29410.8 " />
<path d="M59438.8 29325.4 A196.85 196.85 0.0 0 0 59162.1 29070 " />
<path d="M51562.8 29096.9 A196.85 196.85 0.0 0 0 51662.1 29070 " />
<path d="M50937 29096
L51562 29096
" />
<path d="M50837.9 29070 A196.85 196.85 0.0 0 0 50937.2 29096.9 " />
<path d="M50837.9 29070 A196.85 196.85 0.0 0 0 50561.2 29325.4 " />
<path d="M50580.7 29410.8 A196.85 196.85 0.0 0 0 50561.2 29325.4 " />
<path d="M50580 29964
L50580 29410
" />
<path d="M50561.2 30049.6 A196.85 196.85 0.0 0 0 50580.7 29964.2 " />
<path d="M50561.2 30049.6 A196.85 196.85 0.0 0 0 50837.9 30304.9 " />
<path d="M50937.2 30278 A196.85 196.85 0.0 0 0 50837.9 30304.9 " />
<path d="M51562 30278
L50937 30278
" />
<path d="M51662.1 30304.9 A196.85 196.85 0.0 0 0 51562.8 30278 " />
<path d="M51662.1 30304.9 A196.85 196.85 0.0 0 0 51938.8 30049.6 " />
<path d="M51919.3 29964.2 A196.85 196.85 0.0 0 0 51938.8 30049.6 " />
<path d="M51919 29410
L51919 29964
" />
<path d="M51938.8 29325.4 A196.85 196.85 0.0 0 0 51919.3 29410.8 " />
<path d="M51938.8 29325.4 A196.85 196.85 0.0 0 0 51662.1 29070 " />
<path d="M42187.6 29096.9 A196.85 196.85 0.0 0 0 42286.9 29070 " />
<path d="M41562 29096
L42187 29096
" />
<path d="M41462.7 29070 A196.85 196.85 0.0 0 0 41562 29096.9 " />
<path d="M41462.7 29070 A196.85 196.85 0.0 0 0 41186 29325.4 " />
<path d="M41205.5 29410.8 A196.85 196.85 0.0 0 0 41186 29325.4 " />
<path d="M41205 29964
L41205 29410
" />
<path d="M41186 30049.6 A196.85 196.85 0.0 0 0 41205.5 29964.2 " />
<path d="M41186 30049.6 A196.85 196.85 0.0 0 0 41462.7 30304.9 " />
<path d="M41562 30278 A196.85 196.85 0.0 0 0 41462.7 30304.9 " />
<path d="M42187 30278
L41562 30278
" />
<path d="M42286.9 30304.9 A196.85 196.85 0.0 0 0 42187.6 30278 " />
<path d="M42286.9 30304.9 A196.85 196.85 0.0 0 0 42563.6 30049.6 " />
<path d="M42544.1 29964.2 A196.85 196.85 0.0 0 0 42563.6 30049.6 " />
<path d="M42544 29410
L42544 29964
" />
<path d="M42563.6 29325.4 A196.85 196.85 0.0 0 0 42544.1 29410.8 " />
<path d="M42563.6 29325.4 A196.85 196.85 0.0 0 0 42286.9 29070 " />
<path d="M34687.8 29096.9 A196.85 196.85 0.0 0 0 34787.1 29070 " />
<path d="M34062 29096
L34687 29096
" />
<path d="M33962.9 29070 A196.85 196.85 0.0 0 0 34062.2 29096.9 " />
<path d="M33962.9 29070 A196.85 196.85 0.0 0 0 33686.2 29325.4 " />
<path d="M33705.7 29410.8 A196.85 196.85 0.0 0 0 33686.2 29325.4 " />
<path d="M33705 29964
L33705 29410
" />
<path d="M33686.2 30049.6 A196.85 196.85 0.0 0 0 33705.7 29964.2 " />
<path d="M33686.2 30049.6 A196.85 196.85 0.0 0 0 33962.9 30304.9 " />
<path d="M34062.2 30278 A196.85 196.85 0.0 0 0 33962.9 30304.9 " />
<path d="M34687 30278
L34062 30278
" />
<path d="M34787.1 30304.9 A196.85 196.85 0.0 0 0 34687.8 30278 " />
<path d="M34787.1 30304.9 A196.85 196.85 0.0 0 0 35063.8 30049.6 " />
<path d="M35044.3 29964.2 A196.85 196.85 0.0 0 0 35063.8 30049.6 " />
<path d="M35044 29410
L35044 29964
" />
<path d="M35063.8 29325.4 A196.85 196.85 0.0 0 0 35044.3 29410.8 " />
<path d="M35063.8 29325.4 A196.85 196.85 0.0 0 0 34787.1 29070 " />
<path d="M27187.8 29096.9 A196.85 196.85 0.0 0 0 27287.1 29070 " />
<path d="M26562 29096
L27187 29096
" />
<path d="M26462.9 29070 A196.85 196.85 0.0 0 0 26562.2 29096.9 " />
<path d="M26462.9 29070 A196.85 196.85 0.0 0 0 26186.2 29325.4 " />
<path d="M26205.7 29410.8 A196.85 196.85 0.0 0 0 26186.2 29325.4 " />
<path d="M26205 29964
L26205 29410
" />
<path d="M26186.2 30049.6 A196.85 196.85 0.0 0 0 26205.7 29964.2 " />
<path d="M26186.2 30049.6 A196.85 196.85 0.0 0 0 26462.9 30304.9 " />
<path d="M26562.2 30278 A196.85 196.85 0.0 0 0 26462.9 30304.9 " />
<path d="M27187 30278
L26562 30278
" />
<path d="M27287.1 30304.9 A196.85 196.85 0.0 0 0 27187.8 30278 " />
<path d="M27287.1 30304.9 A196.85 196.85 0.0 0 0 27563.8 30049.6 " />
<path d="M27544.3 29964.2 A196.85 196.85 0.0 0 0 27563.8 30049.6 " />
<path d="M27544 29410
L27544 29964
" />
<path d="M27563.8 29325.4 A196.85 196.85 0.0 0 0 27544.3 29410.8 " />
<path d="M27563.8 29325.4 A196.85 196.85 0.0 0 0 27287.1 29070 " />
<path d="M19687.8 29096.9 A196.85 196.85 0.0 0 0 19787.1 29070 " />
<path d="M19062 29096
L19687 29096
" />
<path d="M18962.9 29070 A196.85 196.85 0.0 0 0 19062.2 29096.9 " />
<path d="M18962.9 29070 A196.85 196.85 0.0 0 0 18686.2 29325.4 " />
<path d="M18705.7 29410.8 A196.85 196.85 0.0 0 0 18686.2 29325.4 " />
<path d="M18705 29964
L18705 29410
" />
<path d="M18686.2 30049.6 A196.85 196.85 0.0 0 0 18705.7 29964.2 " />
<path d="M18686.2 30049.6 A196.85 196.85 0.0 0 0 18962.9 30304.9 " />
<path d="M19062.2 30278 A196.85 196.85 0.0 0 0 18962.9 30304.9 " />
<path d="M19687 30278
L19062 30278
" />
<path d="M19787.1 30304.9 A196.85 196.85 0.0 0 0 19687.8 30278 " />
<path d="M19787.1 30304.9 A196.85 196.85 0.0 0 0 20063.8 30049.6 " />
<path d="M20044.3 29964.2 A196.85 196.85 0.0 0 0 20063.8 30049.6 " />
<path d="M20044 29410
L20044 29964
" />
<path d="M20063.8 29325.4 A196.85 196.85 0.0 0 0 20044.3 29410.8 " />
<path d="M20063.8 29325.4 A196.85 196.85 0.0 0 0 19787.1 29070 " />
<path d="M10312.8 29096.9 A196.85 196.85 0.0 0 0 10412.1 29070 " />
<path d="M9687 29096
L10312 29096
" />
<path d="M9587.91 29070 A196.85 196.85 0.0 0 0 9687.22 29096.9 " />
<path d="M9587.91 29070 A196.85 196.85 0.0 0 0 9311.23 29325.4 " />
<path d="M9330.71 29410.8 A196.85 196.85 0.0 0 0 9311.23 29325.4 " />
<path d="M9330 29964
L9330 29410
" />
<path d="M9311.23 30049.6 A196.85 196.85 0.0 0 0 9330.71 29964.2 " />
<path d="M9311.23 30049.6 A196.85 196.85 0.0 0 0 9587.91 30304.9 " />
<path d="M9687.22 30278 A196.85 196.85 0.0 0 0 9587.91 30304.9 " />
<path d="M10312 30278
L9687 30278
" />
<path d="M10412.1 30304.9 A196.85 196.85 0.0 0 0 10312.8 30278 " />
<path d="M10412.1 30304.9 A196.85 196.85 0.0 0 0 10688.8 30049.6 " />
<path d="M10669.3 29964.2 A196.85 196.85 0.0 0 0 10688.8 30049.6 " />
<path d="M10669 29410
L10669 29964
" />
<path d="M10688.8 29325.4 A196.85 196.85 0.0 0 0 10669.3 29410.8 " />
<path d="M10688.8 29325.4 A196.85 196.85 0.0 0 0 10412.1 29070 " />
<g >
</g>
<g >
</g>
<g >
</g>
<g >
</g>
<g >
</g>
<g >
</g>
<g >
</g>
<g >
</g>
<g >
</g>
<g >
</g>
<g >
</g>
<g >
</g>
<g >
</g>
<g >
</g>
<g >
</g>
<g >
</g>
<g >
</g>
<g >
</g>
<g >
</g>
<g >
</g>
<g >
</g>
<g >
</g>
<g >
</g>
<g >
</g>
<g >
</g>
<g >
</g>
<g >
</g>
<g >
</g>
<g >
</g>
<g >
</g>
<g >
</g>
<g >
</g>
<g >
</g>
<g >
</g>
<g >
</g>
<g >
</g>
<g >
</g>
<g >
</g>
<g >
</g>
<g >
</g>
<g >
</g>
<g >
</g>
<g >
</g>
<g >
</g>
<g >
</g>
<g >
</g>
<g >
</g>
<g >
</g>
<g >
</g>
<g >
</g>
<g >
</g>
<g >
</g>
<g >
</g>
<g >
</g>
<g >
</g>
<g >
</g>
<g >
</g>
<g >
</g>
<g >
</g>
<g >
</g>
<g >
</g>
<g >
</g>
<g >
</g>
<g >
</g>
<g >
</g>
<g >
</g>
<g >
</g>
<g >
</g>
<g >
</g>
<g >
</g>
<g >
</g>
<g >
</g>
<g >
</g>
<g >
</g>
<g >
</g>
<g >
</g>
<g >
</g>
<g >
</g>
<g >
</g>
<g >
</g>
<g >
</g>
<g >
</g>
<g >
</g>
<g >
</g>
<g >
</g>
<g >
</g>
<g >
</g>
<g >
</g>
<g >
</g>
<g >
</g>
<g >
</g>
<g >
</g>
<g >
</g>
<g >
</g>
<g >
</g>
<g >
</g>
<g >
</g>
<g >
</g>
<g >
</g>
<g >
</g>
<g >
</g>
<g >
</g>
<g >
</g>
<g >
</g>
<g >
</g>
<g >
</g>
<g >
</g>
<g >
</g>
<g >
</g>
<g >
</g>
<g >
</g>
<g >
</g>
<g >
</g>
<g >
</g>
<g >
</g>
<g >
</g>
<g >
</g>
<g >
</g>
<g >
</g>
<g >
</g>
<g >
</g>
<g >
</g>
<g >
</g>
<g >
</g>
<g >
</g>
<g >
</g>
<g >
</g>
<g >
</g>
<g >
</g>
<g >
</g>
<g >
</g>
<g >
</g>
<g >
</g>
<g >
</g>
<g >
</g>
<g >
</g>
<g >
</g>
<g >
</g>
<g >
</g>
<g >
</g>
<g >
</g>
<g >
</g>
<g >
</g>
<g >
</g>
<g >
</g>
<g >
</g>
<g >
</g>
<g >
</g>
<g >
</g>
<g >
</g>
<g >
</g>
<g >
</g>
<g >
</g>
<g >
</g>
<g >
</g>
<g >
</g>
<g >
</g>
<g >
</g>
<g >
</g>
<g >
</g>
<g >
</g>
<g >
</g>
<g >
</g>
<g >
</g>
<g >
</g>
<g >
</g>
<g >
</g>
<g >
</g>
<g >
</g>
<g >
</g>
<g >
</g>
<g >
</g>
<g >
</g>
<g >
</g>
<g >
</g>
<g >
</g>
<g >
</g>
<g >
</g>
<g >
</g>
<g >
</g>
<g >
</g>
<g >
</g>
<g >
</g>
<g >
</g>
<g >
</g>
<g >
</g>
<g >
</g>
<g >
</g>
<g >
</g>
<g >
</g>
<g >
</g>
<g >
</g>
<g >
</g>
<g >
</g>
<g >
</g>
<g >
</g>
<g >
</g>
<g >
</g>
<g >
</g>
<g >
</g>
<g >
</g>
<g >
</g>
<g >
</g>
<g >
</g>
<g >
</g>
<g >
</g>
<g >
</g>
<g >
</g>
<g >
</g>
<g >
</g>
<g >
</g>
<g >
</g>
<g >
</g>
<g >
</g>
<g >
</g>
<g >
</g>
<g >
</g>
<g >
</g>
<g >
</g>
<g >
</g>
<g >
</g>
<g >
</g>
<g >
</g>
<g >
</g>
<g >
</g>
<g >
</g>
<g >
</g>
<g >
</g>
<g >
</g>
<g >
</g>
<g >
</g>
<g >
</g>
<g >
</g>
<g >
</g>
<g >
</g>
<g >
</g>
<g >
</g>
<g >
</g>
<g >
</g>
<g >
</g>
<g >
</g>
<g >
</g>
<g >
</g>
<g >
</g>
<g >
</g>
<g >
</g>
<g >
</g>
<g >
</g>
<g >
</g>
<g >
</g>
<g >
</g>
<g >
</g>
<g >
</g>
<g >
</g>
<g >
</g>
<g >
</g>
<g >
</g>
<g >
</g>
<g >
</g>
<g >
</g>
<g >
</g>
<g >
</g>
<g >
</g>
<g >
</g>
<g >
</g>
<g >
</g>
<g >
</g>
<g >
</g>
<g >
</g>
<g >
</g>
<g >
</g>
<g >
</g>
<g >
</g>
<g >
</g>
<g >
</g>
<g >
</g>
<g >
</g>
<g >
</g>
<g >
</g>
<g >
</g>
<g >
</g>
<g >
</g>
<g >
</g>
<g >
</g>
<g >
</g>
<g >
</g>
<g >
</g>
<g >
</g>
<g >
</g>
<g >
</g>
<g >
</g>
<g >
</g>
<g >
</g>
<g >
</g>
<g >
</g>
<g >
</g>
<g >
</g>
<g >
</g>
<g >
</g>
<g >
</g>
<g >
</g>
<g >
</g>
<g >
</g>
<g >
</g>
<g >
</g>
<g >
</g>
<g >
</g>
<g >
</g>
<g >
</g>
<g >
</g>
<g >
</g>
<g >
</g>
<g >
</g>
<g >
</g>
<g >
</g>
<g >
</g>
<g >
</g>
<g >
</g>
<g >
</g>
<g >
</g>
<g >
</g>
<g >
</g>
<g >
</g>
<g >
</g>
<g >
</g>
<g >
</g>
<g >
</g>
<g >
</g>
<g >
</g>
<g >
</g>
<g >
</g>
<g >
</g>
<g >
</g>
<g >
</g>
<g >
</g>
<g >
</g>
<g >
</g>
<g >
</g>
<g >
</g>
<g >
</g>
<g >
</g>
<g >
</g>
<g >
</g>
<g >
</g>
<g >
</g>
<g >
</g>
<g >
</g>
<g >
</g>
<g >
</g>
<g >
</g>
<g >
</g>
<g >
</g>
<g >
</g>
<g >
</g>
<g >
</g>
<g >
</g>
<g >
</g>
<g >
</g>
<g >
</g>
<g >
</g>
<g >
</g>
<g >
</g>
<g >
</g>
<g >
</g>
<g >
</g>
</g> 
</svg>
