  0
SECTION
  2
HEADER
  9
$ACADVER
  1
AC1009
  9
$FILLMODE
 70
 0
  9
$SPLFRAME
 70
 1
  9
$EXTMIN
 10
0
 20
0
 30
0.0
  9
$EXTMAX
 10
41.6667
 20
41.6667
 30
0.0
  0
ENDSEC
  0
SECTION
  2
TABLES
  0
TABLE
  2
LAYER
 70
1
  0
LAYER
  2
0
 70
     0
 62
     7
  6
CONTINUOUS
  0
ENDTAB
  0
ENDSEC
  0
SECTION
  2
ENTITIES
  0
POLYLINE
  8
0
 62
     0
 66
     1
 10
0
 20
0
 30
0.0
 40
2
 41
2
  0
VERTEX
  8
0
 10
0.196832
 20
0.17551
 30
0.0
 40
0.0277778
 41
0.0277778
  0
VERTEX
  8
0
 10
0.196832
 20
0.315483
 30
0.0
 40
0.0277778
 41
0.0277778
  0
VERTEX
  8
0
 10
0.224556
 20
0.735351
 30
0.0
 40
0.0277778
 41
0.0277778
  0
VERTEX
  8
0
 10
0.306694
 20
1.2857
 30
0.0
 40
0.0277778
 41
0.0277778
  0
VERTEX
  8
0
 10
0.441732
 20
1.82286
 30
0.0
 40
0.0277778
 41
0.0277778
  0
VERTEX
  8
0
 10
0.628147
 20
2.3431
 30
0.0
 40
0.0277778
 41
0.0277778
  0
VERTEX
  8
0
 10
0.864312
 20
2.84272
 30
0.0
 40
0.0277778
 41
0.0277778
  0
VERTEX
  8
0
 10
1.14882
 20
3.31799
 30
0.0
 40
0.0277778
 41
0.0277778
  0
VERTEX
  8
0
 10
1.47999
 20
3.76519
 30
0.0
 40
0.0277778
 41
0.0277778
  0
VERTEX
  8
0
 10
1.75737
 20
4.08165
 30
0.0
 40
0.0277778
 41
0.0277778
  0
VERTEX
  8
0
 10
1.85639
 20
4.18061
 30
0.0
 40
0.0277778
 41
0.0277778
  0
VERTEX
  8
0
 10
1.95535
 20
4.27957
 30
0.0
 40
0.0277778
 41
0.0277778
  0
VERTEX
  8
0
 10
2.27197
 20
4.55692
 30
0.0
 40
0.0277778
 41
0.0277778
  0
VERTEX
  8
0
 10
2.71935
 20
4.88797
 30
0.0
 40
0.0277778
 41
0.0277778
  0
VERTEX
  8
0
 10
3.19476
 20
5.17236
 30
0.0
 40
0.0277778
 41
0.0277778
  0
VERTEX
  8
0
 10
3.69461
 20
5.40847
 30
0.0
 40
0.0277778
 41
0.0277778
  0
VERTEX
  8
0
 10
4.215
 20
5.59483
 30
0.0
 40
0.0277778
 41
0.0277778
  0
VERTEX
  8
0
 10
4.75233
 20
5.72982
 30
0.0
 40
0.0277778
 41
0.0277778
  0
VERTEX
  8
0
 10
5.30285
 20
5.81196
 30
0.0
 40
0.0277778
 41
0.0277778
  0
VERTEX
  8
0
 10
5.72288
 20
5.83963
 30
0.0
 40
0.0277778
 41
0.0277778
  0
VERTEX
  8
0
 10
5.8629
 20
5.83963
 30
0.0
 40
0.0277778
 41
0.0277778
  0
SEQEND
 8
0
  0
POLYLINE
  8
0
 62
     0
 66
     1
 10
0
 20
0
 30
0.0
 40
2
 41
2
  0
VERTEX
  8
0
 10
9.36486
 20
2.33892
 30
0.0
 40
0.0277778
 41
0.0277778
  0
VERTEX
  8
0
 10
9.36486
 20
2.42844
 30
0.0
 40
0.0277778
 41
0.0277778
  0
VERTEX
  8
0
 10
9.34674
 20
2.69689
 30
0.0
 40
0.0277778
 41
0.0277778
  0
VERTEX
  8
0
 10
9.29368
 20
3.04443
 30
0.0
 40
0.0277778
 41
0.0277778
  0
VERTEX
  8
0
 10
9.20742
 20
3.37993
 30
0.0
 40
0.0277778
 41
0.0277778
  0
VERTEX
  8
0
 10
9.08963
 20
3.70156
 30
0.0
 40
0.0277778
 41
0.0277778
  0
VERTEX
  8
0
 10
8.94217
 20
4.0076
 30
0.0
 40
0.0277778
 41
0.0277778
  0
VERTEX
  8
0
 10
8.76676
 20
4.29622
 30
0.0
 40
0.0277778
 41
0.0277778
  0
VERTEX
  8
0
 10
8.56515
 20
4.56569
 30
0.0
 40
0.0277778
 41
0.0277778
  0
VERTEX
  8
0
 10
8.33914
 20
4.81429
 30
0.0
 40
0.0277778
 41
0.0277778
  0
VERTEX
  8
0
 10
8.09044
 20
5.04025
 30
0.0
 40
0.0277778
 41
0.0277778
  0
VERTEX
  8
0
 10
7.82086
 20
5.24181
 30
0.0
 40
0.0277778
 41
0.0277778
  0
VERTEX
  8
0
 10
7.53212
 20
5.41715
 30
0.0
 40
0.0277778
 41
0.0277778
  0
VERTEX
  8
0
 10
7.22601
 20
5.56456
 30
0.0
 40
0.0277778
 41
0.0277778
  0
VERTEX
  8
0
 10
6.90424
 20
5.68229
 30
0.0
 40
0.0277778
 41
0.0277778
  0
VERTEX
  8
0
 10
6.56863
 20
5.76856
 30
0.0
 40
0.0277778
 41
0.0277778
  0
VERTEX
  8
0
 10
6.22092
 20
5.82156
 30
0.0
 40
0.0277778
 41
0.0277778
  0
VERTEX
  8
0
 10
5.95236
 20
5.83963
 30
0.0
 40
0.0277778
 41
0.0277778
  0
VERTEX
  8
0
 10
5.8629
 20
5.83963
 30
0.0
 40
0.0277778
 41
0.0277778
  0
SEQEND
 8
0
  0
POLYLINE
  8
0
 62
     0
 66
     1
 10
0
 20
0
 30
0.0
 40
2
 41
2
  0
VERTEX
  8
0
 10
7.20074
 20
0.17551
 30
0.0
 40
0.0277778
 41
0.0277778
  0
VERTEX
  8
0
 10
7.25603
 20
0.17551
 30
0.0
 40
0.0277778
 41
0.0277778
  0
VERTEX
  8
0
 10
7.42199
 20
0.186686
 30
0.0
 40
0.0277778
 41
0.0277778
  0
VERTEX
  8
0
 10
7.63687
 20
0.21951
 30
0.0
 40
0.0277778
 41
0.0277778
  0
VERTEX
  8
0
 10
7.84424
 20
0.272786
 30
0.0
 40
0.0277778
 41
0.0277778
  0
VERTEX
  8
0
 10
8.04308
 20
0.34554
 30
0.0
 40
0.0277778
 41
0.0277778
  0
VERTEX
  8
0
 10
8.23226
 20
0.436632
 30
0.0
 40
0.0277778
 41
0.0277778
  0
VERTEX
  8
0
 10
8.41069
 20
0.545031
 30
0.0
 40
0.0277778
 41
0.0277778
  0
VERTEX
  8
0
 10
8.57731
 20
0.669542
 30
0.0
 40
0.0277778
 41
0.0277778
  0
VERTEX
  8
0
 10
8.73096
 20
0.80919
 30
0.0
 40
0.0277778
 41
0.0277778
  0
VERTEX
  8
0
 10
8.87067
 20
0.962782
 30
0.0
 40
0.0277778
 41
0.0277778
  0
VERTEX
  8
0
 10
8.99522
 20
1.12934
 30
0.0
 40
0.0277778
 41
0.0277778
  0
VERTEX
  8
0
 10
9.10363
 20
1.30773
 30
0.0
 40
0.0277778
 41
0.0277778
  0
VERTEX
  8
0
 10
9.19476
 20
1.49681
 30
0.0
 40
0.0277778
 41
0.0277778
  0
VERTEX
  8
0
 10
9.26753
 20
1.69558
 30
0.0
 40
0.0277778
 41
0.0277778
  0
VERTEX
  8
0
 10
9.32086
 20
1.90289
 30
0.0
 40
0.0277778
 41
0.0277778
  0
VERTEX
  8
0
 10
9.35368
 20
2.11774
 30
0.0
 40
0.0277778
 41
0.0277778
  0
VERTEX
  8
0
 10
9.36486
 20
2.28358
 30
0.0
 40
0.0277778
 41
0.0277778
  0
VERTEX
  8
0
 10
9.36486
 20
2.33886
 30
0.0
 40
0.0277778
 41
0.0277778
  0
SEQEND
 8
0
  0
POLYLINE
  8
0
 62
     0
 66
     1
 10
0
 20
0
 30
0.0
 40
2
 41
2
  0
VERTEX
  8
0
 10
5.86296
 20
1.51286
 30
0.0
 40
0.0277778
 41
0.0277778
  0
VERTEX
  8
0
 10
5.86296
 20
1.47868
 30
0.0
 40
0.0277778
 41
0.0277778
  0
VERTEX
  8
0
 10
5.86985
 20
1.37614
 30
0.0
 40
0.0277778
 41
0.0277778
  0
VERTEX
  8
0
 10
5.89008
 20
1.24338
 30
0.0
 40
0.0277778
 41
0.0277778
  0
VERTEX
  8
0
 10
5.92307
 20
1.11523
 30
0.0
 40
0.0277778
 41
0.0277778
  0
VERTEX
  8
0
 10
5.96804
 20
0.99235
 30
0.0
 40
0.0277778
 41
0.0277778
  0
VERTEX
  8
0
 10
6.02442
 20
0.875435
 30
0.0
 40
0.0277778
 41
0.0277778
  0
VERTEX
  8
0
 10
6.09142
 20
0.765192
 30
0.0
 40
0.0277778
 41
0.0277778
  0
VERTEX
  8
0
 10
6.1684
 20
0.662218
 30
0.0
 40
0.0277778
 41
0.0277778
  0
VERTEX
  8
0
 10
6.25478
 20
0.567275
 30
0.0
 40
0.0277778
 41
0.0277778
  0
VERTEX
  8
0
 10
6.34978
 20
0.480957
 30
0.0
 40
0.0277778
 41
0.0277778
  0
VERTEX
  8
0
 10
6.45275
 20
0.403971
 30
0.0
 40
0.0277778
 41
0.0277778
  0
VERTEX
  8
0
 10
6.56304
 20
0.336968
 30
0.0
 40
0.0277778
 41
0.0277778
  0
VERTEX
  8
0
 10
6.68001
 20
0.280653
 30
0.0
 40
0.0277778
 41
0.0277778
  0
VERTEX
  8
0
 10
6.8029
 20
0.235678
 30
0.0
 40
0.0277778
 41
0.0277778
  0
VERTEX
  8
0
 10
6.9311
 20
0.202692
 30
0.0
 40
0.0277778
 41
0.0277778
  0
VERTEX
  8
0
 10
7.06392
 20
0.182454
 30
0.0
 40
0.0277778
 41
0.0277778
  0
VERTEX
  8
0
 10
7.1665
 20
0.17551
 30
0.0
 40
0.0277778
 41
0.0277778
  0
VERTEX
  8
0
 10
7.20074
 20
0.17551
 30
0.0
 40
0.0277778
 41
0.0277778
  0
SEQEND
 8
0
  0
POLYLINE
  8
0
 62
     0
 66
     1
 10
0
 20
0
 30
0.0
 40
2
 41
2
  0
VERTEX
  8
0
 10
5.86296
 20
1.51286
 30
0.0
 40
0.0277778
 41
0.0277778
  0
VERTEX
  8
0
 10
5.86296
 20
1.55453
 30
0.0
 40
0.0277778
 41
0.0277778
  0
VERTEX
  8
0
 10
5.87972
 20
1.67936
 30
0.0
 40
0.0277778
 41
0.0277778
  0
VERTEX
  8
0
 10
5.92785
 20
1.83442
 30
0.0
 40
0.0277778
 41
0.0277778
  0
VERTEX
  8
0
 10
6.00401
 20
1.97472
 30
0.0
 40
0.0277778
 41
0.0277778
  0
VERTEX
  8
0
 10
6.10493
 20
2.09694
 30
0.0
 40
0.0277778
 41
0.0277778
  0
VERTEX
  8
0
 10
6.22721
 20
2.19781
 30
0.0
 40
0.0277778
 41
0.0277778
  0
VERTEX
  8
0
 10
6.36757
 20
2.27399
 30
0.0
 40
0.0277778
 41
0.0277778
  0
VERTEX
  8
0
 10
6.52268
 20
2.3221
 30
0.0
 40
0.0277778
 41
0.0277778
  0
VERTEX
  8
0
 10
6.64757
 20
2.33886
 30
0.0
 40
0.0277778
 41
0.0277778
  0
VERTEX
  8
0
 10
6.68924
 20
2.33886
 30
0.0
 40
0.0277778
 41
0.0277778
  0
SEQEND
 8
0
  0
POLYLINE
  8
0
 62
     0
 66
     1
 10
0
 20
0
 30
0.0
 40
2
 41
2
  0
VERTEX
  8
0
 10
7.20074
 20
1.82753
 30
0.0
 40
0.0277778
 41
0.0277778
  0
VERTEX
  8
0
 10
7.20074
 20
1.8526
 30
0.0
 40
0.0277778
 41
0.0277778
  0
VERTEX
  8
0
 10
7.19081
 20
1.92779
 30
0.0
 40
0.0277778
 41
0.0277778
  0
VERTEX
  8
0
 10
7.16178
 20
2.02322
 30
0.0
 40
0.0277778
 41
0.0277778
  0
VERTEX
  8
0
 10
7.11481
 20
2.11128
 30
0.0
 40
0.0277778
 41
0.0277778
  0
VERTEX
  8
0
 10
7.06863
 20
2.17144
 30
0.0
 40
0.0277778
 41
0.0277778
  0
VERTEX
  8
0
 10
7.05094
 20
2.18913
 30
0.0
 40
0.0277778
 41
0.0277778
  0
VERTEX
  8
0
 10
7.03321
 20
2.20688
 30
0.0
 40
0.0277778
 41
0.0277778
  0
VERTEX
  8
0
 10
6.97299
 20
2.25299
 30
0.0
 40
0.0277778
 41
0.0277778
  0
VERTEX
  8
0
 10
6.88493
 20
2.29997
 30
0.0
 40
0.0277778
 41
0.0277778
  0
VERTEX
  8
0
 10
6.78944
 20
2.329
 30
0.0
 40
0.0277778
 41
0.0277778
  0
VERTEX
  8
0
 10
6.71425
 20
2.33886
 30
0.0
 40
0.0277778
 41
0.0277778
  0
VERTEX
  8
0
 10
6.68924
 20
2.33886
 30
0.0
 40
0.0277778
 41
0.0277778
  0
SEQEND
 8
0
  0
POLYLINE
  8
0
 62
     0
 66
     1
 10
0
 20
0
 30
0.0
 40
2
 41
2
  0
VERTEX
  8
0
 10
7.20074
 20
1.82758
 30
0.0
 40
0.0277778
 41
0.0277778
  0
VERTEX
  8
0
 10
7.20074
 20
1.79747
 30
0.0
 40
0.0277778
 41
0.0277778
  0
VERTEX
  8
0
 10
7.17676
 20
1.70714
 30
0.0
 40
0.0277778
 41
0.0277778
  0
VERTEX
  8
0
 10
7.12332
 20
1.61979
 30
0.0
 40
0.0277778
 41
0.0277778
  0
VERTEX
  8
0
 10
7.10856
 20
1.60504
 30
0.0
 40
0.0277778
 41
0.0277778
  0
VERTEX
  8
0
 10
7.09381
 20
1.59033
 30
0.0
 40
0.0277778
 41
0.0277778
  0
VERTEX
  8
0
 10
7.0064
 20
1.53689
 30
0.0
 40
0.0277778
 41
0.0277778
  0
VERTEX
  8
0
 10
6.91607
 20
1.51292
 30
0.0
 40
0.0277778
 41
0.0277778
  0
VERTEX
  8
0
 10
6.88596
 20
1.51292
 30
0.0
 40
0.0277778
 41
0.0277778
  0
SEQEND
 8
0
  0
POLYLINE
  8
0
 62
     0
 66
     1
 10
0
 20
0
 30
0.0
 40
2
 41
2
  0
VERTEX
  8
0
 10
6.68924
 20
1.70953
 30
0.0
 40
0.0277778
 41
0.0277778
  0
VERTEX
  8
0
 10
6.68924
 20
1.69075
 30
0.0
 40
0.0277778
 41
0.0277778
  0
VERTEX
  8
0
 10
6.70421
 20
1.63433
 30
0.0
 40
0.0277778
 41
0.0277778
  0
VERTEX
  8
0
 10
6.73763
 20
1.57969
 30
0.0
 40
0.0277778
 41
0.0277778
  0
VERTEX
  8
0
 10
6.74685
 20
1.57047
 30
0.0
 40
0.0277778
 41
0.0277778
  0
VERTEX
  8
0
 10
6.75608
 20
1.56125
 30
0.0
 40
0.0277778
 41
0.0277778
  0
VERTEX
  8
0
 10
6.81065
 20
1.52789
 30
0.0
 40
0.0277778
 41
0.0277778
  0
VERTEX
  8
0
 10
6.86714
 20
1.51292
 30
0.0
 40
0.0277778
 41
0.0277778
  0
VERTEX
  8
0
 10
6.88596
 20
1.51292
 30
0.0
 40
0.0277778
 41
0.0277778
  0
SEQEND
 8
0
  0
POLYLINE
  8
0
 62
     0
 66
     1
 10
0
 20
0
 30
0.0
 40
2
 41
2
  0
VERTEX
  8
0
 10
6.68924
 20
1.70953
 30
0.0
 40
0.0277778
 41
0.0277778
  0
VERTEX
  8
0
 10
6.68924
 20
1.72103
 30
0.0
 40
0.0277778
 41
0.0277778
  0
VERTEX
  8
0
 10
6.69846
 20
1.75549
 30
0.0
 40
0.0277778
 41
0.0277778
  0
VERTEX
  8
0
 10
6.72379
 20
1.79303
 30
0.0
 40
0.0277778
 41
0.0277778
  0
VERTEX
  8
0
 10
6.76129
 20
1.81831
 30
0.0
 40
0.0277778
 41
0.0277778
  0
VERTEX
  8
0
 10
6.79579
 20
1.82753
 30
0.0
 40
0.0277778
 41
0.0277778
  0
VERTEX
  8
0
 10
6.80729
 20
1.82753
 30
0.0
 40
0.0277778
 41
0.0277778
  0
SEQEND
 8
0
  0
POLYLINE
  8
0
 62
     0
 66
     1
 10
0
 20
0
 30
0.0
 40
2
 41
2
  0
VERTEX
  8
0
 10
6.80729
 20
1.70953
 30
0.0
 40
0.0277778
 41
0.0277778
  0
VERTEX
  8
0
 10
6.80729
 20
1.82753
 30
0.0
 40
0.0277778
 41
0.0277778
  0
SEQEND
 8
0
  0
POLYLINE
  8
0
 62
     0
 66
     1
 10
0
 20
0
 30
0.0
 40
2
 41
2
  0
VERTEX
  8
0
 10
6.88596
 20
1.70953
 30
0.0
 40
0.0277778
 41
0.0277778
  0
VERTEX
  8
0
 10
6.68924
 20
1.70953
 30
0.0
 40
0.0277778
 41
0.0277778
  0
SEQEND
 8
0
  0
POLYLINE
  8
0
 62
     0
 66
     1
 10
0
 20
0
 30
0.0
 40
2
 41
2
  0
VERTEX
  8
0
 10
6.80729
 20
1.74886
 30
0.0
 40
0.0277778
 41
0.0277778
  0
VERTEX
  8
0
 10
6.88596
 20
1.74886
 30
0.0
 40
0.0277778
 41
0.0277778
  0
SEQEND
 8
0
  0
POLYLINE
  8
0
 62
     0
 66
     1
 10
0
 20
0
 30
0.0
 40
2
 41
2
  0
VERTEX
  8
0
 10
6.84663
 20
1.74886
 30
0.0
 40
0.0277778
 41
0.0277778
  0
VERTEX
  8
0
 10
6.84663
 20
1.70953
 30
0.0
 40
0.0277778
 41
0.0277778
  0
SEQEND
 8
0
  0
POLYLINE
  8
0
 62
     0
 66
     1
 10
0
 20
0
 30
0.0
 40
2
 41
2
  0
VERTEX
  8
0
 10
6.88596
 20
1.82758
 30
0.0
 40
0.0277778
 41
0.0277778
  0
VERTEX
  8
0
 10
6.88596
 20
1.51292
 30
0.0
 40
0.0277778
 41
0.0277778
  0
SEQEND
 8
0
  0
POLYLINE
  8
0
 62
     0
 66
     1
 10
0
 20
0
 30
0.0
 40
2
 41
2
  0
VERTEX
  8
0
 10
6.68924
 20
1.82753
 30
0.0
 40
0.0277778
 41
0.0277778
  0
VERTEX
  8
0
 10
7.20074
 20
1.82753
 30
0.0
 40
0.0277778
 41
0.0277778
  0
SEQEND
 8
0
  0
POLYLINE
  8
0
 62
     0
 66
     1
 10
0
 20
0
 30
0.0
 40
2
 41
2
  0
VERTEX
  8
0
 10
6.68924
 20
1.51286
 30
0.0
 40
0.0277778
 41
0.0277778
  0
VERTEX
  8
0
 10
6.68924
 20
2.33886
 30
0.0
 40
0.0277778
 41
0.0277778
  0
SEQEND
 8
0
  0
POLYLINE
  8
0
 62
     0
 66
     1
 10
0
 20
0
 30
0.0
 40
2
 41
2
  0
VERTEX
  8
0
 10
7.20074
 20
1.51286
 30
0.0
 40
0.0277778
 41
0.0277778
  0
VERTEX
  8
0
 10
5.8629
 20
1.51286
 30
0.0
 40
0.0277778
 41
0.0277778
  0
SEQEND
 8
0
  0
POLYLINE
  8
0
 62
     0
 66
     1
 10
0
 20
0
 30
0.0
 40
2
 41
2
  0
VERTEX
  8
0
 10
7.20074
 20
2.33886
 30
0.0
 40
0.0277778
 41
0.0277778
  0
VERTEX
  8
0
 10
7.20074
 20
0.17551
 30
0.0
 40
0.0277778
 41
0.0277778
  0
SEQEND
 8
0
  0
POLYLINE
  8
0
 62
     0
 66
     1
 10
0
 20
0
 30
0.0
 40
2
 41
2
  0
VERTEX
  8
0
 10
5.8629
 20
2.34088
 30
0.0
 40
0.0277778
 41
0.0277778
  0
VERTEX
  8
0
 10
9.36686
 20
2.34088
 30
0.0
 40
0.0277778
 41
0.0277778
  0
SEQEND
 8
0
  0
POLYLINE
  8
0
 62
     0
 66
     1
 10
0
 20
0
 30
0.0
 40
2
 41
2
  0
VERTEX
  8
0
 10
5.86296
 20
0.17551
 30
0.0
 40
0.0277778
 41
0.0277778
  0
VERTEX
  8
0
 10
5.86296
 20
5.83963
 30
0.0
 40
0.0277778
 41
0.0277778
  0
SEQEND
 8
0
  0
POLYLINE
  8
0
 62
     0
 66
     1
 10
0
 20
0
 30
0.0
 40
2
 41
2
  0
VERTEX
  8
0
 10
0.196832
 20
0.17551
 30
0.0
 40
0.0277778
 41
0.0277778
  0
VERTEX
  8
0
 10
0.196832
 20
5.84483
 30
0.0
 40
0.0277778
 41
0.0277778
  0
SEQEND
 8
0
  0
POLYLINE
  8
0
 62
     0
 66
     1
 10
0
 20
0
 30
0.0
 40
2
 41
2
  0
VERTEX
  8
0
 10
9.36486
 20
0.180718
 30
0.0
 40
0.0277778
 41
0.0277778
  0
VERTEX
  8
0
 10
9.36486
 20
5.84483
 30
0.0
 40
0.0277778
 41
0.0277778
  0
SEQEND
 8
0
  0
POLYLINE
  8
0
 62
     0
 66
     1
 10
0
 20
0
 30
0.0
 40
2
 41
2
  0
VERTEX
  8
0
 10
0.196832
 20
5.84483
 30
0.0
 40
0.0277778
 41
0.0277778
  0
VERTEX
  8
0
 10
9.37007
 20
5.84483
 30
0.0
 40
0.0277778
 41
0.0277778
  0
SEQEND
 8
0
  0
POLYLINE
  8
0
 62
     0
 66
     1
 10
0
 20
0
 30
0.0
 40
2
 41
2
  0
VERTEX
  8
0
 10
0.196832
 20
0.17551
 30
0.0
 40
0.0277778
 41
0.0277778
  0
VERTEX
  8
0
 10
9.37007
 20
0.17551
 30
0.0
 40
0.0277778
 41
0.0277778
  0
SEQEND
 8
0
  0
POLYLINE
  8
0
 62
     0
 66
     1
 10
0
 20
0
 30
0.0
 40
2
 41
2
  0
VERTEX
  8
0
 10
6.88596
 20
1.74886
 30
0.0
 40
0.0277778
 41
0.0277778
  0
VERTEX
  8
0
 10
6.88596
 20
1.75657
 30
0.0
 40
0.0277778
 41
0.0277778
  0
VERTEX
  8
0
 10
6.87978
 20
1.77951
 30
0.0
 40
0.0277778
 41
0.0277778
  0
VERTEX
  8
0
 10
6.8629
 20
1.80453
 30
0.0
 40
0.0277778
 41
0.0277778
  0
VERTEX
  8
0
 10
6.83789
 20
1.8214
 30
0.0
 40
0.0277778
 41
0.0277778
  0
VERTEX
  8
0
 10
6.81494
 20
1.82753
 30
0.0
 40
0.0277778
 41
0.0277778
  0
VERTEX
  8
0
 10
6.80729
 20
1.82753
 30
0.0
 40
0.0277778
 41
0.0277778
  0
SEQEND
 8
0
  0
POLYLINE
  8
0
 62
     0
 66
     1
 10
0
 20
0
 30
0.0
 40
2
 41
2
  0
VERTEX
  8
0
 10
6.88596
 20
1.74886
 30
0.0
 40
0.0277778
 41
0.0277778
  0
VERTEX
  8
0
 10
6.88596
 20
1.74192
 30
0.0
 40
0.0277778
 41
0.0277778
  0
VERTEX
  8
0
 10
6.8744
 20
1.72108
 30
0.0
 40
0.0277778
 41
0.0277778
  0
VERTEX
  8
0
 10
6.85357
 20
1.70953
 30
0.0
 40
0.0277778
 41
0.0277778
  0
VERTEX
  8
0
 10
6.84663
 20
1.70953
 30
0.0
 40
0.0277778
 41
0.0277778
  0
SEQEND
 8
0
  0
POLYLINE
  8
0
 62
     0
 66
     1
 10
0
 20
0
 30
0.0
 40
2
 41
2
  0
VERTEX
  8
0
 10
6.80735
 20
1.74897
 30
0.0
 40
0.0277778
 41
0.0277778
  0
VERTEX
  8
0
 10
6.80735
 20
1.74203
 30
0.0
 40
0.0277778
 41
0.0277778
  0
VERTEX
  8
0
 10
6.81885
 20
1.72119
 30
0.0
 40
0.0277778
 41
0.0277778
  0
VERTEX
  8
0
 10
6.83968
 20
1.70964
 30
0.0
 40
0.0277778
 41
0.0277778
  0
VERTEX
  8
0
 10
6.84668
 20
1.70964
 30
0.0
 40
0.0277778
 41
0.0277778
  0
SEQEND
 8
0
  0
ENDSEC
  0
EOF
