  0
SECTION
  2
HEADER
  9
$ACADVER
  1
AC1009
  9
$FILLMODE
 70
 0
  9
$SPLFRAME
 70
 1
  9
$EXTMIN
 10
0
 20
0
 30
0.0
  9
$EXTMAX
 10
41.6667
 20
41.6667
 30
0.0
  0
ENDSEC
  0
SECTION
  2
TABLES
  0
TABLE
  2
LAYER
 70
1
  0
LAYER
  2
0
 70
     0
 62
     7
  6
CONTINUOUS
  0
ENDTAB
  0
ENDSEC
  0
SECTION
  2
ENTITIES
  0
POLYLINE
  8
0
 62
     0
 66
     1
 10
0
 20
0
 30
0.0
 70
     1
 40
3.75
 41
3.75
  0
VERTEX
  8
0
 10
2.472
 20
3.87424
 30
0.0
 40
0.0520833
 41
0.0520833
  0
VERTEX
  8
0
 10
1.80138
 20
3.20079
 30
0.0
 40
0.0520833
 41
0.0520833
  0
VERTEX
  8
0
 10
5.17551
 20
2.405
 30
0.0
 40
0.0520833
 41
0.0520833
  0
VERTEX
  8
0
 10
5.60949
 20
3.09397
 30
0.0
 40
0.0520833
 41
0.0520833
  0
VERTEX
  8
0
 10
2.472
 20
3.87424
 30
0.0
 40
0.0520833
 41
0.0520833
  0
SEQEND
 8
0
  0
POLYLINE
  8
0
 62
     0
 66
     1
 10
0
 20
0
 30
0.0
 70
     1
 40
3.75
 41
3.75
  0
VERTEX
  8
0
 10
1.79096
 20
3.18631
 30
0.0
 40
0.0520833
 41
0.0520833
  0
VERTEX
  8
0
 10
1.78504
 20
3.18138
 30
0.0
 40
0.0520833
 41
0.0520833
  0
VERTEX
  8
0
 10
1.77425
 20
3.153
 30
0.0
 40
0.0520833
 41
0.0520833
  0
VERTEX
  8
0
 10
1.7596
 20
3.08285
 30
0.0
 40
0.0520833
 41
0.0520833
  0
VERTEX
  8
0
 10
1.74707
 20
2.97581
 30
0.0
 40
0.0520833
 41
0.0520833
  0
VERTEX
  8
0
 10
1.73867
 20
2.86789
 30
0.0
 40
0.0520833
 41
0.0520833
  0
VERTEX
  8
0
 10
1.7366
 20
2.83188
 30
0.0
 40
0.0520833
 41
0.0520833
  0
VERTEX
  8
0
 10
5.10493
 20
1.97364
 30
0.0
 40
0.0520833
 41
0.0520833
  0
VERTEX
  8
0
 10
5.16319
 20
2.40533
 30
0.0
 40
0.0520833
 41
0.0520833
  0
VERTEX
  8
0
 10
5.08251
 20
2.42437
 30
0.0
 40
0.0520833
 41
0.0520833
  0
VERTEX
  8
0
 10
4.84056
 20
2.48144
 30
0.0
 40
0.0520833
 41
0.0520833
  0
VERTEX
  8
0
 10
4.54449
 20
2.55132
 30
0.0
 40
0.0520833
 41
0.0520833
  0
VERTEX
  8
0
 10
4.27496
 20
2.61496
 30
0.0
 40
0.0520833
 41
0.0520833
  0
VERTEX
  8
0
 10
4.03207
 20
2.67231
 30
0.0
 40
0.0520833
 41
0.0520833
  0
VERTEX
  8
0
 10
3.81569
 20
2.72347
 30
0.0
 40
0.0520833
 41
0.0520833
  0
VERTEX
  8
0
 10
3.62587
 20
2.76833
 30
0.0
 40
0.0520833
 41
0.0520833
  0
VERTEX
  8
0
 10
3.46268
 20
2.80701
 30
0.0
 40
0.0520833
 41
0.0520833
  0
VERTEX
  8
0
 10
3.36014
 20
2.83132
 30
0.0
 40
0.0520833
 41
0.0520833
  0
VERTEX
  8
0
 10
3.32601
 20
2.83942
 30
0.0
 40
0.0520833
 41
0.0520833
  0
VERTEX
  8
0
 10
3.23736
 20
2.86046
 30
0.0
 40
0.0520833
 41
0.0520833
  0
VERTEX
  8
0
 10
2.97151
 20
2.9235
 30
0.0
 40
0.0520833
 41
0.0520833
  0
VERTEX
  8
0
 10
2.66347
 20
2.99636
 30
0.0
 40
0.0520833
 41
0.0520833
  0
VERTEX
  8
0
 10
2.40186
 20
3.05778
 30
0.0
 40
0.0520833
 41
0.0520833
  0
VERTEX
  8
0
 10
2.18668
 20
3.10753
 30
0.0
 40
0.0520833
 41
0.0520833
  0
VERTEX
  8
0
 10
2.01801
 20
3.14546
 30
0.0
 40
0.0520833
 41
0.0520833
  0
VERTEX
  8
0
 10
1.89583
 20
3.17139
 30
0.0
 40
0.0520833
 41
0.0520833
  0
VERTEX
  8
0
 10
1.82015
 20
3.18506
 30
0.0
 40
0.0520833
 41
0.0520833
  0
VERTEX
  8
0
 10
1.79492
 20
3.18967
 30
0.0
 40
0.0520833
 41
0.0520833
  0
VERTEX
  8
0
 10
1.79096
 20
3.18631
 30
0.0
 40
0.0520833
 41
0.0520833
  0
SEQEND
 8
0
  0
POLYLINE
  8
0
 62
     0
 66
     1
 10
0
 20
0
 30
0.0
 70
     1
 40
3.75
 41
3.75
  0
VERTEX
  8
0
 10
5.16786
 20
2.41569
 30
0.0
 40
0.0520833
 41
0.0520833
  0
VERTEX
  8
0
 10
5.16846
 20
2.41704
 30
0.0
 40
0.0520833
 41
0.0520833
  0
VERTEX
  8
0
 10
5.1869
 20
2.44515
 30
0.0
 40
0.0520833
 41
0.0520833
  0
VERTEX
  8
0
 10
5.23594
 20
2.51953
 30
0.0
 40
0.0520833
 41
0.0520833
  0
VERTEX
  8
0
 10
5.30518
 20
2.62429
 30
0.0
 40
0.0520833
 41
0.0520833
  0
VERTEX
  8
0
 10
5.38499
 20
2.74474
 30
0.0
 40
0.0520833
 41
0.0520833
  0
VERTEX
  8
0
 10
5.46576
 20
2.86621
 30
0.0
 40
0.0520833
 41
0.0520833
  0
VERTEX
  8
0
 10
5.53771
 20
2.97401
 30
0.0
 40
0.0520833
 41
0.0520833
  0
VERTEX
  8
0
 10
5.59131
 20
3.05354
 30
0.0
 40
0.0520833
 41
0.0520833
  0
VERTEX
  8
0
 10
5.61133
 20
3.08333
 30
0.0
 40
0.0520833
 41
0.0520833
  0
VERTEX
  8
0
 10
5.61681
 20
3.09011
 30
0.0
 40
0.0520833
 41
0.0520833
  0
VERTEX
  8
0
 10
5.61681
 20
3.09011
 30
0.0
 40
0.0520833
 41
0.0520833
  0
VERTEX
  8
0
 10
5.6275
 20
3.07215
 30
0.0
 40
0.0520833
 41
0.0520833
  0
VERTEX
  8
0
 10
5.6289
 20
3.0019
 30
0.0
 40
0.0520833
 41
0.0520833
  0
VERTEX
  8
0
 10
5.62408
 20
2.91639
 30
0.0
 40
0.0520833
 41
0.0520833
  0
VERTEX
  8
0
 10
5.61903
 20
2.86615
 30
0.0
 40
0.0520833
 41
0.0520833
  0
VERTEX
  8
0
 10
5.61626
 20
2.85265
 30
0.0
 40
0.0520833
 41
0.0520833
  0
VERTEX
  8
0
 10
5.61529
 20
2.84793
 30
0.0
 40
0.0520833
 41
0.0520833
  0
VERTEX
  8
0
 10
5.6091
 20
2.83442
 30
0.0
 40
0.0520833
 41
0.0520833
  0
VERTEX
  8
0
 10
5.59261
 20
2.80132
 30
0.0
 40
0.0520833
 41
0.0520833
  0
VERTEX
  8
0
 10
5.56819
 20
2.75558
 30
0.0
 40
0.0520833
 41
0.0520833
  0
VERTEX
  8
0
 10
5.53711
 20
2.69933
 30
0.0
 40
0.0520833
 41
0.0520833
  0
VERTEX
  8
0
 10
5.50065
 20
2.63465
 30
0.0
 40
0.0520833
 41
0.0520833
  0
VERTEX
  8
0
 10
5.46007
 20
2.56375
 30
0.0
 40
0.0520833
 41
0.0520833
  0
VERTEX
  8
0
 10
5.41672
 20
2.48872
 30
0.0
 40
0.0520833
 41
0.0520833
  0
VERTEX
  8
0
 10
5.37196
 20
2.41178
 30
0.0
 40
0.0520833
 41
0.0520833
  0
VERTEX
  8
0
 10
5.32693
 20
2.33501
 30
0.0
 40
0.0520833
 41
0.0520833
  0
VERTEX
  8
0
 10
5.2831
 20
2.26058
 30
0.0
 40
0.0520833
 41
0.0520833
  0
VERTEX
  8
0
 10
5.24169
 20
2.1906
 30
0.0
 40
0.0520833
 41
0.0520833
  0
VERTEX
  8
0
 10
5.204
 20
2.12728
 30
0.0
 40
0.0520833
 41
0.0520833
  0
VERTEX
  8
0
 10
5.17133
 20
2.07269
 30
0.0
 40
0.0520833
 41
0.0520833
  0
VERTEX
  8
0
 10
5.14501
 20
2.02908
 30
0.0
 40
0.0520833
 41
0.0520833
  0
VERTEX
  8
0
 10
5.12631
 20
1.99843
 30
0.0
 40
0.0520833
 41
0.0520833
  0
VERTEX
  8
0
 10
5.11914
 20
1.98676
 30
0.0
 40
0.0520833
 41
0.0520833
  0
VERTEX
  8
0
 10
5.1166
 20
1.98301
 30
0.0
 40
0.0520833
 41
0.0520833
  0
VERTEX
  8
0
 10
5.1166
 20
1.98301
 30
0.0
 40
0.0520833
 41
0.0520833
  0
VERTEX
  8
0
 10
5.11122
 20
1.99056
 30
0.0
 40
0.0520833
 41
0.0520833
  0
VERTEX
  8
0
 10
5.11333
 20
2.03396
 30
0.0
 40
0.0520833
 41
0.0520833
  0
VERTEX
  8
0
 10
5.12076
 20
2.10194
 30
0.0
 40
0.0520833
 41
0.0520833
  0
VERTEX
  8
0
 10
5.13162
 20
2.18321
 30
0.0
 40
0.0520833
 41
0.0520833
  0
VERTEX
  8
0
 10
5.14372
 20
2.2665
 30
0.0
 40
0.0520833
 41
0.0520833
  0
VERTEX
  8
0
 10
5.15517
 20
2.34056
 30
0.0
 40
0.0520833
 41
0.0520833
  0
VERTEX
  8
0
 10
5.1639
 20
2.39404
 30
0.0
 40
0.0520833
 41
0.0520833
  0
VERTEX
  8
0
 10
5.16726
 20
2.41439
 30
0.0
 40
0.0520833
 41
0.0520833
  0
VERTEX
  8
0
 10
5.16786
 20
2.41569
 30
0.0
 40
0.0520833
 41
0.0520833
  0
SEQEND
 8
0
  0
POLYLINE
  8
0
 62
     0
 66
     1
 10
0
 20
0
 30
0.0
 40
3.75
 41
3.75
  0
VERTEX
  8
0
 10
5.24479
 20
2.56424
 30
0.0
 40
0.0520833
 41
0.0520833
  0
VERTEX
  8
0
 10
1.96354
 20
3.33507
 30
0.0
 40
0.0520833
 41
0.0520833
  0
SEQEND
 8
0
  0
POLYLINE
  8
0
 62
     0
 66
     1
 10
0
 20
0
 30
0.0
 40
3.75
 41
3.75
  0
VERTEX
  8
0
 10
4.77274
 20
2.75526
 30
0.0
 40
0.0520833
 41
0.0520833
  0
VERTEX
  8
0
 10
5.05729
 20
3.2309
 30
0.0
 40
0.0520833
 41
0.0520833
  0
SEQEND
 8
0
  0
POLYLINE
  8
0
 62
     0
 66
     1
 10
0
 20
0
 30
0.0
 40
3.75
 41
3.75
  0
VERTEX
  8
0
 10
4.19271
 20
2.84549
 30
0.0
 40
0.0520833
 41
0.0520833
  0
VERTEX
  8
0
 10
4.54688
 20
3.32465
 30
0.0
 40
0.0520833
 41
0.0520833
  0
SEQEND
 8
0
  0
POLYLINE
  8
0
 62
     0
 66
     1
 10
0
 20
0
 30
0.0
 40
3.75
 41
3.75
  0
VERTEX
  8
0
 10
3.11458
 20
3.12153
 30
0.0
 40
0.0520833
 41
0.0520833
  0
VERTEX
  8
0
 10
3.45313
 20
3.6059
 30
0.0
 40
0.0520833
 41
0.0520833
  0
SEQEND
 8
0
  0
POLYLINE
  8
0
 62
     0
 66
     1
 10
0
 20
0
 30
0.0
 40
3.75
 41
3.75
  0
VERTEX
  8
0
 10
2.59397
 20
3.22851
 30
0.0
 40
0.0520833
 41
0.0520833
  0
VERTEX
  8
0
 10
2.96963
 20
3.74935
 30
0.0
 40
0.0520833
 41
0.0520833
  0
SEQEND
 8
0
  0
POLYLINE
  8
0
 62
     0
 66
     1
 10
0
 20
0
 30
0.0
 40
3.75
 41
3.75
  0
VERTEX
  8
0
 10
3.66667
 20
3.00694
 30
0.0
 40
0.0520833
 41
0.0520833
  0
VERTEX
  8
0
 10
3.98438
 20
3.4809
 30
0.0
 40
0.0520833
 41
0.0520833
  0
SEQEND
 8
0
  0
POLYLINE
  8
0
 62
     0
 66
     1
 10
0
 20
0
 30
0.0
 70
     1
 40
3.75
 41
3.75
  0
VERTEX
  8
0
 10
3.85101
 20
4.97885
 30
0.0
 40
0.0520833
 41
0.0520833
  0
VERTEX
  8
0
 10
3.7959
 20
4.96479
 30
0.0
 40
0.0520833
 41
0.0520833
  0
VERTEX
  8
0
 10
3.63308
 20
4.91308
 30
0.0
 40
0.0520833
 41
0.0520833
  0
VERTEX
  8
0
 10
3.42768
 20
4.8304
 30
0.0
 40
0.0520833
 41
0.0520833
  0
VERTEX
  8
0
 10
3.23475
 20
4.7309
 30
0.0
 40
0.0520833
 41
0.0520833
  0
VERTEX
  8
0
 10
3.05431
 20
4.61453
 30
0.0
 40
0.0520833
 41
0.0520833
  0
VERTEX
  8
0
 10
2.88629
 20
4.48128
 30
0.0
 40
0.0520833
 41
0.0520833
  0
VERTEX
  8
0
 10
2.73079
 20
4.33122
 30
0.0
 40
0.0520833
 41
0.0520833
  0
VERTEX
  8
0
 10
2.58778
 20
4.16428
 30
0.0
 40
0.0520833
 41
0.0520833
  0
VERTEX
  8
0
 10
2.48779
 20
4.02778
 30
0.0
 40
0.0520833
 41
0.0520833
  0
VERTEX
  8
0
 10
2.45725
 20
3.98047
 30
0.0
 40
0.0520833
 41
0.0520833
  0
VERTEX
  8
0
 10
2.50489
 20
3.96858
 30
0.0
 40
0.0520833
 41
0.0520833
  0
VERTEX
  8
0
 10
2.64806
 20
3.93349
 30
0.0
 40
0.0520833
 41
0.0520833
  0
VERTEX
  8
0
 10
2.91476
 20
3.86865
 30
0.0
 40
0.0520833
 41
0.0520833
  0
VERTEX
  8
0
 10
3.25722
 20
3.78608
 30
0.0
 40
0.0520833
 41
0.0520833
  0
VERTEX
  8
0
 10
3.67557
 20
3.68571
 30
0.0
 40
0.0520833
 41
0.0520833
  0
VERTEX
  8
0
 10
4.16971
 20
3.5676
 30
0.0
 40
0.0520833
 41
0.0520833
  0
VERTEX
  8
0
 10
4.73969
 20
3.43175
 30
0.0
 40
0.0520833
 41
0.0520833
  0
VERTEX
  8
0
 10
5.38547
 20
3.27806
 30
0.0
 40
0.0520833
 41
0.0520833
  0
VERTEX
  8
0
 10
5.92671
 20
3.14947
 30
0.0
 40
0.0520833
 41
0.0520833
  0
VERTEX
  8
0
 10
6.10715
 20
3.10661
 30
0.0
 40
0.0520833
 41
0.0520833
  0
VERTEX
  8
0
 10
6.09592
 20
3.1696
 30
0.0
 40
0.0520833
 41
0.0520833
  0
VERTEX
  8
0
 10
6.01058
 20
3.47933
 30
0.0
 40
0.0520833
 41
0.0520833
  0
VERTEX
  8
0
 10
5.88639
 20
3.78207
 30
0.0
 40
0.0520833
 41
0.0520833
  0
VERTEX
  8
0
 10
5.85574
 20
3.84158
 30
0.0
 40
0.0520833
 41
0.0520833
  0
VERTEX
  8
0
 10
5.85574
 20
3.85764
 30
0.0
 40
0.0520833
 41
0.0520833
  0
VERTEX
  8
0
 10
5.8571
 20
3.90571
 30
0.0
 40
0.0520833
 41
0.0520833
  0
VERTEX
  8
0
 10
5.86111
 20
3.95176
 30
0.0
 40
0.0520833
 41
0.0520833
  0
VERTEX
  8
0
 10
5.86762
 20
3.98665
 30
0.0
 40
0.0520833
 41
0.0520833
  0
VERTEX
  8
0
 10
5.87663
 20
4.01714
 30
0.0
 40
0.0520833
 41
0.0520833
  0
VERTEX
  8
0
 10
5.88792
 20
4.05018
 30
0.0
 40
0.0520833
 41
0.0520833
  0
VERTEX
  8
0
 10
5.90142
 20
4.09256
 30
0.0
 40
0.0520833
 41
0.0520833
  0
VERTEX
  8
0
 10
5.91704
 20
4.1511
 30
0.0
 40
0.0520833
 41
0.0520833
  0
VERTEX
  8
0
 10
5.93067
 20
4.21229
 30
0.0
 40
0.0520833
 41
0.0520833
  0
VERTEX
  8
0
 10
5.93468
 20
4.23275
 30
0.0
 40
0.0520833
 41
0.0520833
  0
VERTEX
  8
0
 10
5.9426
 20
4.27376
 30
0.0
 40
0.0520833
 41
0.0520833
  0
VERTEX
  8
0
 10
5.96251
 20
4.39757
 30
0.0
 40
0.0520833
 41
0.0520833
  0
VERTEX
  8
0
 10
5.97179
 20
4.51443
 30
0.0
 40
0.0520833
 41
0.0520833
  0
VERTEX
  8
0
 10
5.96251
 20
4.59028
 30
0.0
 40
0.0520833
 41
0.0520833
  0
VERTEX
  8
0
 10
5.94417
 20
4.62494
 30
0.0
 40
0.0520833
 41
0.0520833
  0
VERTEX
  8
0
 10
5.93468
 20
4.63172
 30
0.0
 40
0.0520833
 41
0.0520833
  0
VERTEX
  8
0
 10
5.92736
 20
4.63699
 30
0.0
 40
0.0520833
 41
0.0520833
  0
VERTEX
  8
0
 10
5.89182
 20
4.634
 30
0.0
 40
0.0520833
 41
0.0520833
  0
VERTEX
  8
0
 10
5.81282
 20
4.60514
 30
0.0
 40
0.0520833
 41
0.0520833
  0
VERTEX
  8
0
 10
5.69764
 20
4.54525
 30
0.0
 40
0.0520833
 41
0.0520833
  0
VERTEX
  8
0
 10
5.58361
 20
4.47775
 30
0.0
 40
0.0520833
 41
0.0520833
  0
VERTEX
  8
0
 10
5.54628
 20
4.45426
 30
0.0
 40
0.0520833
 41
0.0520833
  0
VERTEX
  8
0
 10
5.48568
 20
4.51101
 30
0.0
 40
0.0520833
 41
0.0520833
  0
VERTEX
  8
0
 10
5.28618
 20
4.66243
 30
0.0
 40
0.0520833
 41
0.0520833
  0
VERTEX
  8
0
 10
5.00553
 20
4.81922
 30
0.0
 40
0.0520833
 41
0.0520833
  0
VERTEX
  8
0
 10
4.70415
 20
4.92469
 30
0.0
 40
0.0520833
 41
0.0520833
  0
VERTEX
  8
0
 10
4.46317
 20
4.9719
 30
0.0
 40
0.0520833
 41
0.0520833
  0
VERTEX
  8
0
 10
4.38211
 20
4.97885
 30
0.0
 40
0.0520833
 41
0.0520833
  0
VERTEX
  8
0
 10
4.36421
 20
4.99826
 30
0.0
 40
0.0520833
 41
0.0520833
  0
VERTEX
  8
0
 10
4.31228
 20
5.05806
 30
0.0
 40
0.0520833
 41
0.0520833
  0
VERTEX
  8
0
 10
4.25896
 20
5.12457
 30
0.0
 40
0.0520833
 41
0.0520833
  0
VERTEX
  8
0
 10
4.21864
 20
5.17904
 30
0.0
 40
0.0520833
 41
0.0520833
  0
VERTEX
  8
0
 10
4.18804
 20
5.22217
 30
0.0
 40
0.0520833
 41
0.0520833
  0
VERTEX
  8
0
 10
4.16374
 20
5.25456
 30
0.0
 40
0.0520833
 41
0.0520833
  0
VERTEX
  8
0
 10
4.14247
 20
5.27686
 30
0.0
 40
0.0520833
 41
0.0520833
  0
VERTEX
  8
0
 10
4.12076
 20
5.28976
 30
0.0
 40
0.0520833
 41
0.0520833
  0
VERTEX
  8
0
 10
4.10172
 20
5.29389
 30
0.0
 40
0.0520833
 41
0.0520833
  0
VERTEX
  8
0
 10
4.09538
 20
5.29389
 30
0.0
 40
0.0520833
 41
0.0520833
  0
VERTEX
  8
0
 10
4.08442
 20
5.29389
 30
0.0
 40
0.0520833
 41
0.0520833
  0
VERTEX
  8
0
 10
4.05165
 20
5.27425
 30
0.0
 40
0.0520833
 41
0.0520833
  0
VERTEX
  8
0
 10
3.99636
 20
5.21517
 30
0.0
 40
0.0520833
 41
0.0520833
  0
VERTEX
  8
0
 10
3.92947
 20
5.11669
 30
0.0
 40
0.0520833
 41
0.0520833
  0
VERTEX
  8
0
 10
3.86968
 20
5.01383
 30
0.0
 40
0.0520833
 41
0.0520833
  0
VERTEX
  8
0
 10
3.85101
 20
4.97885
 30
0.0
 40
0.0520833
 41
0.0520833
  0
SEQEND
 8
0
  0
POLYLINE
  8
0
 62
     0
 66
     1
 10
0
 20
0
 30
0.0
 70
     1
 40
0
 41
0
  0
VERTEX
  8
0
 10
4.78418
 20
3.85406
 30
0.0
 40
0
 41
0
  0
VERTEX
  8
0
 10
4.78
 20
3.84597
 30
0.0
 40
0
 41
0
  0
VERTEX
  8
0
 10
4.76281
 20
3.824
 30
0.0
 40
0
 41
0
  0
VERTEX
  8
0
 10
4.73633
 20
3.8041
 30
0.0
 40
0
 41
0
  0
VERTEX
  8
0
 10
4.7079
 20
3.79601
 30
0.0
 40
0
 41
0
  0
VERTEX
  8
0
 10
4.68685
 20
3.79844
 30
0.0
 40
0
 41
0
  0
VERTEX
  8
0
 10
4.68099
 20
3.80143
 30
0.0
 40
0
 41
0
  0
VERTEX
  8
0
 10
4.67507
 20
3.80447
 30
0.0
 40
0
 41
0
  0
VERTEX
  8
0
 10
4.66069
 20
3.82004
 30
0.0
 40
0
 41
0
  0
VERTEX
  8
0
 10
4.65056
 20
3.84776
 30
0.0
 40
0
 41
0
  0
VERTEX
  8
0
 10
4.6511
 20
3.88097
 30
0.0
 40
0
 41
0
  0
VERTEX
  8
0
 10
4.65881
 20
3.90776
 30
0.0
 40
0
 41
0
  0
VERTEX
  8
0
 10
4.66292
 20
3.91585
 30
0.0
 40
0
 41
0
  0
VERTEX
  8
0
 10
4.66704
 20
3.92399
 30
0.0
 40
0
 41
0
  0
VERTEX
  8
0
 10
4.68425
 20
3.94596
 30
0.0
 40
0
 41
0
  0
VERTEX
  8
0
 10
4.71078
 20
3.96588
 30
0.0
 40
0
 41
0
  0
VERTEX
  8
0
 10
4.73915
 20
3.97396
 30
0.0
 40
0
 41
0
  0
VERTEX
  8
0
 10
4.76019
 20
3.97151
 30
0.0
 40
0
 41
0
  0
VERTEX
  8
0
 10
4.76611
 20
3.96847
 30
0.0
 40
0
 41
0
  0
VERTEX
  8
0
 10
4.77197
 20
3.9655
 30
0.0
 40
0
 41
0
  0
VERTEX
  8
0
 10
4.78635
 20
3.94993
 30
0.0
 40
0
 41
0
  0
VERTEX
  8
0
 10
4.7965
 20
3.92219
 30
0.0
 40
0
 41
0
  0
VERTEX
  8
0
 10
4.79596
 20
3.889
 30
0.0
 40
0
 41
0
  0
VERTEX
  8
0
 10
4.78831
 20
3.86219
 30
0.0
 40
0
 41
0
  0
VERTEX
  8
0
 10
4.78418
 20
3.85406
 30
0.0
 40
0
 41
0
  0
SEQEND
 8
0
  0
POLYLINE
  8
0
 62
     0
 66
     1
 10
0
 20
0
 30
0.0
 70
     1
 40
0.75
 41
0.75
  0
VERTEX
  8
0
 10
4.78418
 20
3.85406
 30
0.0
 40
0.0104167
 41
0.0104167
  0
VERTEX
  8
0
 10
4.78
 20
3.84597
 30
0.0
 40
0.0104167
 41
0.0104167
  0
VERTEX
  8
0
 10
4.76281
 20
3.824
 30
0.0
 40
0.0104167
 41
0.0104167
  0
VERTEX
  8
0
 10
4.73633
 20
3.8041
 30
0.0
 40
0.0104167
 41
0.0104167
  0
VERTEX
  8
0
 10
4.7079
 20
3.79601
 30
0.0
 40
0.0104167
 41
0.0104167
  0
VERTEX
  8
0
 10
4.68685
 20
3.79844
 30
0.0
 40
0.0104167
 41
0.0104167
  0
VERTEX
  8
0
 10
4.68099
 20
3.80143
 30
0.0
 40
0.0104167
 41
0.0104167
  0
VERTEX
  8
0
 10
4.67507
 20
3.80447
 30
0.0
 40
0.0104167
 41
0.0104167
  0
VERTEX
  8
0
 10
4.66069
 20
3.82004
 30
0.0
 40
0.0104167
 41
0.0104167
  0
VERTEX
  8
0
 10
4.65056
 20
3.84776
 30
0.0
 40
0.0104167
 41
0.0104167
  0
VERTEX
  8
0
 10
4.6511
 20
3.88097
 30
0.0
 40
0.0104167
 41
0.0104167
  0
VERTEX
  8
0
 10
4.65881
 20
3.90776
 30
0.0
 40
0.0104167
 41
0.0104167
  0
VERTEX
  8
0
 10
4.66292
 20
3.91585
 30
0.0
 40
0.0104167
 41
0.0104167
  0
VERTEX
  8
0
 10
4.66704
 20
3.92399
 30
0.0
 40
0.0104167
 41
0.0104167
  0
VERTEX
  8
0
 10
4.68425
 20
3.94596
 30
0.0
 40
0.0104167
 41
0.0104167
  0
VERTEX
  8
0
 10
4.71078
 20
3.96588
 30
0.0
 40
0.0104167
 41
0.0104167
  0
VERTEX
  8
0
 10
4.73915
 20
3.97396
 30
0.0
 40
0.0104167
 41
0.0104167
  0
VERTEX
  8
0
 10
4.76019
 20
3.97151
 30
0.0
 40
0.0104167
 41
0.0104167
  0
VERTEX
  8
0
 10
4.76611
 20
3.96847
 30
0.0
 40
0.0104167
 41
0.0104167
  0
VERTEX
  8
0
 10
4.77197
 20
3.9655
 30
0.0
 40
0.0104167
 41
0.0104167
  0
VERTEX
  8
0
 10
4.78635
 20
3.94993
 30
0.0
 40
0.0104167
 41
0.0104167
  0
VERTEX
  8
0
 10
4.7965
 20
3.92219
 30
0.0
 40
0.0104167
 41
0.0104167
  0
VERTEX
  8
0
 10
4.79596
 20
3.889
 30
0.0
 40
0.0104167
 41
0.0104167
  0
VERTEX
  8
0
 10
4.78831
 20
3.86219
 30
0.0
 40
0.0104167
 41
0.0104167
  0
VERTEX
  8
0
 10
4.78418
 20
3.85406
 30
0.0
 40
0.0104167
 41
0.0104167
  0
SEQEND
 8
0
  0
POLYLINE
  8
0
 62
     0
 66
     1
 10
0
 20
0
 30
0.0
 70
     1
 40
0
 41
0
  0
VERTEX
  8
0
 10
3.65192
 20
4.20893
 30
0.0
 40
0
 41
0
  0
VERTEX
  8
0
 10
3.64876
 20
4.20111
 30
0.0
 40
0
 41
0
  0
VERTEX
  8
0
 10
3.63396
 20
4.17979
 30
0.0
 40
0
 41
0
  0
VERTEX
  8
0
 10
3.60921
 20
4.1601
 30
0.0
 40
0
 41
0
  0
VERTEX
  8
0
 10
3.58083
 20
4.15158
 30
0.0
 40
0
 41
0
  0
VERTEX
  8
0
 10
3.5586
 20
4.15321
 30
0.0
 40
0
 41
0
  0
VERTEX
  8
0
 10
3.55208
 20
4.15582
 30
0.0
 40
0
 41
0
  0
VERTEX
  8
0
 10
3.54551
 20
4.15847
 30
0.0
 40
0
 41
0
  0
VERTEX
  8
0
 10
3.52843
 20
4.17275
 30
0.0
 40
0
 41
0
  0
VERTEX
  8
0
 10
3.51394
 20
4.19862
 30
0.0
 40
0
 41
0
  0
VERTEX
  8
0
 10
3.50982
 20
4.22999
 30
0.0
 40
0
 41
0
  0
VERTEX
  8
0
 10
3.51406
 20
4.25553
 30
0.0
 40
0
 41
0
  0
VERTEX
  8
0
 10
3.51719
 20
4.26335
 30
0.0
 40
0
 41
0
  0
VERTEX
  8
0
 10
3.52035
 20
4.27121
 30
0.0
 40
0
 41
0
  0
VERTEX
  8
0
 10
3.5351
 20
4.29254
 30
0.0
 40
0
 41
0
  0
VERTEX
  8
0
 10
3.55985
 20
4.31222
 30
0.0
 40
0
 41
0
  0
VERTEX
  8
0
 10
3.58822
 20
4.32075
 30
0.0
 40
0
 41
0
  0
VERTEX
  8
0
 10
3.61046
 20
4.31912
 30
0.0
 40
0
 41
0
  0
VERTEX
  8
0
 10
3.61703
 20
4.31646
 30
0.0
 40
0
 41
0
  0
VERTEX
  8
0
 10
3.62354
 20
4.31386
 30
0.0
 40
0
 41
0
  0
VERTEX
  8
0
 10
3.64068
 20
4.29958
 30
0.0
 40
0
 41
0
  0
VERTEX
  8
0
 10
3.65511
 20
4.27371
 30
0.0
 40
0
 41
0
  0
VERTEX
  8
0
 10
3.65924
 20
4.24235
 30
0.0
 40
0
 41
0
  0
VERTEX
  8
0
 10
3.65506
 20
4.21674
 30
0.0
 40
0
 41
0
  0
VERTEX
  8
0
 10
3.65192
 20
4.20893
 30
0.0
 40
0
 41
0
  0
SEQEND
 8
0
  0
POLYLINE
  8
0
 62
     0
 66
     1
 10
0
 20
0
 30
0.0
 70
     1
 40
0.75
 41
0.75
  0
VERTEX
  8
0
 10
3.65192
 20
4.20893
 30
0.0
 40
0.0104167
 41
0.0104167
  0
VERTEX
  8
0
 10
3.64876
 20
4.20111
 30
0.0
 40
0.0104167
 41
0.0104167
  0
VERTEX
  8
0
 10
3.63396
 20
4.17979
 30
0.0
 40
0.0104167
 41
0.0104167
  0
VERTEX
  8
0
 10
3.60921
 20
4.1601
 30
0.0
 40
0.0104167
 41
0.0104167
  0
VERTEX
  8
0
 10
3.58083
 20
4.15158
 30
0.0
 40
0.0104167
 41
0.0104167
  0
VERTEX
  8
0
 10
3.5586
 20
4.15321
 30
0.0
 40
0.0104167
 41
0.0104167
  0
VERTEX
  8
0
 10
3.55208
 20
4.15582
 30
0.0
 40
0.0104167
 41
0.0104167
  0
VERTEX
  8
0
 10
3.54551
 20
4.15847
 30
0.0
 40
0.0104167
 41
0.0104167
  0
VERTEX
  8
0
 10
3.52843
 20
4.17275
 30
0.0
 40
0.0104167
 41
0.0104167
  0
VERTEX
  8
0
 10
3.51394
 20
4.19862
 30
0.0
 40
0.0104167
 41
0.0104167
  0
VERTEX
  8
0
 10
3.50982
 20
4.22999
 30
0.0
 40
0.0104167
 41
0.0104167
  0
VERTEX
  8
0
 10
3.51406
 20
4.25553
 30
0.0
 40
0.0104167
 41
0.0104167
  0
VERTEX
  8
0
 10
3.51719
 20
4.26335
 30
0.0
 40
0.0104167
 41
0.0104167
  0
VERTEX
  8
0
 10
3.52035
 20
4.27121
 30
0.0
 40
0.0104167
 41
0.0104167
  0
VERTEX
  8
0
 10
3.5351
 20
4.29254
 30
0.0
 40
0.0104167
 41
0.0104167
  0
VERTEX
  8
0
 10
3.55985
 20
4.31222
 30
0.0
 40
0.0104167
 41
0.0104167
  0
VERTEX
  8
0
 10
3.58822
 20
4.32075
 30
0.0
 40
0.0104167
 41
0.0104167
  0
VERTEX
  8
0
 10
3.61046
 20
4.31912
 30
0.0
 40
0.0104167
 41
0.0104167
  0
VERTEX
  8
0
 10
3.61703
 20
4.31646
 30
0.0
 40
0.0104167
 41
0.0104167
  0
VERTEX
  8
0
 10
3.62354
 20
4.31386
 30
0.0
 40
0.0104167
 41
0.0104167
  0
VERTEX
  8
0
 10
3.64068
 20
4.29958
 30
0.0
 40
0.0104167
 41
0.0104167
  0
VERTEX
  8
0
 10
3.65511
 20
4.27371
 30
0.0
 40
0.0104167
 41
0.0104167
  0
VERTEX
  8
0
 10
3.65924
 20
4.24235
 30
0.0
 40
0.0104167
 41
0.0104167
  0
VERTEX
  8
0
 10
3.65506
 20
4.21674
 30
0.0
 40
0.0104167
 41
0.0104167
  0
VERTEX
  8
0
 10
3.65192
 20
4.20893
 30
0.0
 40
0.0104167
 41
0.0104167
  0
SEQEND
 8
0
  0
POLYLINE
  8
0
 62
     0
 66
     1
 10
0
 20
0
 30
0.0
 40
3.75
 41
3.75
  0
VERTEX
  8
0
 10
3.83089
 20
4.15457
 30
0.0
 40
0.0520833
 41
0.0520833
  0
VERTEX
  8
0
 10
3.83106
 20
4.14264
 30
0.0
 40
0.0520833
 41
0.0520833
  0
VERTEX
  8
0
 10
3.8431
 20
4.10682
 30
0.0
 40
0.0520833
 41
0.0520833
  0
VERTEX
  8
0
 10
3.87776
 20
4.08458
 30
0.0
 40
0.0520833
 41
0.0520833
  0
VERTEX
  8
0
 10
3.93494
 20
4.08783
 30
0.0
 40
0.0520833
 41
0.0520833
  0
VERTEX
  8
0
 10
3.99539
 20
4.10786
 30
0.0
 40
0.0520833
 41
0.0520833
  0
VERTEX
  8
0
 10
4.0146
 20
4.1166
 30
0.0
 40
0.0520833
 41
0.0520833
  0
VERTEX
  8
0
 10
4.02257
 20
4.09814
 30
0.0
 40
0.0520833
 41
0.0520833
  0
VERTEX
  8
0
 10
4.0549
 20
4.04628
 30
0.0
 40
0.0520833
 41
0.0520833
  0
VERTEX
  8
0
 10
4.10335
 20
4.00418
 30
0.0
 40
0.0520833
 41
0.0520833
  0
VERTEX
  8
0
 10
4.16081
 20
3.99013
 30
0.0
 40
0.0520833
 41
0.0520833
  0
VERTEX
  8
0
 10
4.21251
 20
3.99794
 30
0.0
 40
0.0520833
 41
0.0520833
  0
VERTEX
  8
0
 10
4.2284
 20
4.00401
 30
0.0
 40
0.0520833
 41
0.0520833
  0
SEQEND
 8
0
  0
POLYLINE
  8
0
 62
     0
 66
     1
 10
0
 20
0
 30
0.0
 40
3.75
 41
3.75
  0
VERTEX
  8
0
 10
4.92426
 20
3.38476
 30
0.0
 40
0.0520833
 41
0.0520833
  0
VERTEX
  8
0
 10
4.91732
 20
3.42507
 30
0.0
 40
0.0520833
 41
0.0520833
  0
VERTEX
  8
0
 10
4.90115
 20
3.54682
 30
0.0
 40
0.0520833
 41
0.0520833
  0
VERTEX
  8
0
 10
4.89144
 20
3.68826
 30
0.0
 40
0.0520833
 41
0.0520833
  0
VERTEX
  8
0
 10
4.89513
 20
3.80897
 30
0.0
 40
0.0520833
 41
0.0520833
  0
VERTEX
  8
0
 10
4.91211
 20
3.90913
 30
0.0
 40
0.0520833
 41
0.0520833
  0
VERTEX
  8
0
 10
4.94249
 20
3.98856
 30
0.0
 40
0.0520833
 41
0.0520833
  0
VERTEX
  8
0
 10
4.98622
 20
4.04736
 30
0.0
 40
0.0520833
 41
0.0520833
  0
VERTEX
  8
0
 10
5.04329
 20
4.08556
 30
0.0
 40
0.0520833
 41
0.0520833
  0
VERTEX
  8
0
 10
5.09586
 20
4.1014
 30
0.0
 40
0.0520833
 41
0.0520833
  0
VERTEX
  8
0
 10
5.11376
 20
4.10303
 30
0.0
 40
0.0520833
 41
0.0520833
  0
VERTEX
  8
0
 10
5.13667
 20
4.10861
 30
0.0
 40
0.0520833
 41
0.0520833
  0
VERTEX
  8
0
 10
5.21039
 20
4.10449
 30
0.0
 40
0.0520833
 41
0.0520833
  0
VERTEX
  8
0
 10
5.2985
 20
4.05985
 30
0.0
 40
0.0520833
 41
0.0520833
  0
VERTEX
  8
0
 10
5.3781
 20
3.96913
 30
0.0
 40
0.0520833
 41
0.0520833
  0
VERTEX
  8
0
 10
5.43431
 20
3.86774
 30
0.0
 40
0.0520833
 41
0.0520833
  0
VERTEX
  8
0
 10
5.44911
 20
3.83225
 30
0.0
 40
0.0520833
 41
0.0520833
  0
SEQEND
 8
0
  0
POLYLINE
  8
0
 62
     233
 66
     1
 10
0
 20
0
 30
0.0
 70
     1
 40
0
 41
0
  0
VERTEX
  8
0
 10
5.13542
 20
3.90799
 30
0.0
 40
0
 41
0
  0
VERTEX
  8
0
 10
5.13542
 20
3.90246
 30
0.0
 40
0
 41
0
  0
VERTEX
  8
0
 10
5.13254
 20
3.88574
 30
0.0
 40
0
 41
0
  0
VERTEX
  8
0
 10
5.12472
 20
3.86751
 30
0.0
 40
0
 41
0
  0
VERTEX
  8
0
 10
5.11312
 20
3.85525
 30
0.0
 40
0
 41
0
  0
VERTEX
  8
0
 10
5.10249
 20
3.85069
 30
0.0
 40
0
 41
0
  0
VERTEX
  8
0
 10
5.09896
 20
3.85069
 30
0.0
 40
0
 41
0
  0
VERTEX
  8
0
 10
5.09538
 20
3.85069
 30
0.0
 40
0
 41
0
  0
VERTEX
  8
0
 10
5.08475
 20
3.85525
 30
0.0
 40
0
 41
0
  0
VERTEX
  8
0
 10
5.07314
 20
3.86751
 30
0.0
 40
0
 41
0
  0
VERTEX
  8
0
 10
5.06532
 20
3.88574
 30
0.0
 40
0
 41
0
  0
VERTEX
  8
0
 10
5.0625
 20
3.90246
 30
0.0
 40
0
 41
0
  0
VERTEX
  8
0
 10
5.0625
 20
3.90799
 30
0.0
 40
0
 41
0
  0
VERTEX
  8
0
 10
5.0625
 20
3.91357
 30
0.0
 40
0
 41
0
  0
VERTEX
  8
0
 10
5.06532
 20
3.93028
 30
0.0
 40
0
 41
0
  0
VERTEX
  8
0
 10
5.07314
 20
3.94851
 30
0.0
 40
0
 41
0
  0
VERTEX
  8
0
 10
5.08475
 20
3.96078
 30
0.0
 40
0
 41
0
  0
VERTEX
  8
0
 10
5.09538
 20
3.96528
 30
0.0
 40
0
 41
0
  0
VERTEX
  8
0
 10
5.09896
 20
3.96528
 30
0.0
 40
0
 41
0
  0
VERTEX
  8
0
 10
5.10249
 20
3.96528
 30
0.0
 40
0
 41
0
  0
VERTEX
  8
0
 10
5.11312
 20
3.96078
 30
0.0
 40
0
 41
0
  0
VERTEX
  8
0
 10
5.12472
 20
3.94851
 30
0.0
 40
0
 41
0
  0
VERTEX
  8
0
 10
5.13254
 20
3.93028
 30
0.0
 40
0
 41
0
  0
VERTEX
  8
0
 10
5.13542
 20
3.91357
 30
0.0
 40
0
 41
0
  0
VERTEX
  8
0
 10
5.13542
 20
3.90799
 30
0.0
 40
0
 41
0
  0
SEQEND
 8
0
  0
POLYLINE
  8
0
 62
     233
 66
     1
 10
0
 20
0
 30
0.0
 70
     1
 40
0
 41
0
  0
VERTEX
  8
0
 10
5.29568
 20
3.86524
 30
0.0
 40
0
 41
0
  0
VERTEX
  8
0
 10
5.29508
 20
3.85954
 30
0.0
 40
0
 41
0
  0
VERTEX
  8
0
 10
5.28347
 20
3.83692
 30
0.0
 40
0
 41
0
  0
VERTEX
  8
0
 10
5.26454
 20
3.82661
 30
0.0
 40
0
 41
0
  0
VERTEX
  8
0
 10
5.26025
 20
3.82704
 30
0.0
 40
0
 41
0
  0
VERTEX
  8
0
 10
5.25592
 20
3.82753
 30
0.0
 40
0
 41
0
  0
VERTEX
  8
0
 10
5.23953
 20
3.84153
 30
0.0
 40
0
 41
0
  0
VERTEX
  8
0
 10
5.23292
 20
3.86604
 30
0.0
 40
0
 41
0
  0
VERTEX
  8
0
 10
5.23351
 20
3.87175
 30
0.0
 40
0
 41
0
  0
VERTEX
  8
0
 10
5.2341
 20
3.8775
 30
0.0
 40
0
 41
0
  0
VERTEX
  8
0
 10
5.24567
 20
3.90012
 30
0.0
 40
0
 41
0
  0
VERTEX
  8
0
 10
5.26465
 20
3.91043
 30
0.0
 40
0
 41
0
  0
VERTEX
  8
0
 10
5.26893
 20
3.90994
 30
0.0
 40
0
 41
0
  0
VERTEX
  8
0
 10
5.27322
 20
3.9095
 30
0.0
 40
0
 41
0
  0
VERTEX
  8
0
 10
5.28961
 20
3.89551
 30
0.0
 40
0
 41
0
  0
VERTEX
  8
0
 10
5.29628
 20
3.87099
 30
0.0
 40
0
 41
0
  0
VERTEX
  8
0
 10
5.29568
 20
3.86524
 30
0.0
 40
0
 41
0
  0
SEQEND
 8
0
  0
POLYLINE
  8
0
 62
     233
 66
     1
 10
0
 20
0
 30
0.0
 70
     1
 40
0
 41
0
  0
VERTEX
  8
0
 10
5.05208
 20
3.75694
 30
0.0
 40
0
 41
0
  0
VERTEX
  8
0
 10
5.05208
 20
3.75331
 30
0.0
 40
0
 41
0
  0
VERTEX
  8
0
 10
5.04596
 20
3.74224
 30
0.0
 40
0
 41
0
  0
VERTEX
  8
0
 10
5.03489
 20
3.73611
 30
0.0
 40
0
 41
0
  0
VERTEX
  8
0
 10
5.03125
 20
3.73611
 30
0.0
 40
0
 41
0
  0
VERTEX
  8
0
 10
5.02756
 20
3.73611
 30
0.0
 40
0
 41
0
  0
VERTEX
  8
0
 10
5.0165
 20
3.74224
 30
0.0
 40
0
 41
0
  0
VERTEX
  8
0
 10
5.01042
 20
3.75331
 30
0.0
 40
0
 41
0
  0
VERTEX
  8
0
 10
5.01042
 20
3.75694
 30
0.0
 40
0
 41
0
  0
VERTEX
  8
0
 10
5.01042
 20
3.76064
 30
0.0
 40
0
 41
0
  0
VERTEX
  8
0
 10
5.0165
 20
3.77171
 30
0.0
 40
0
 41
0
  0
VERTEX
  8
0
 10
5.02756
 20
3.77778
 30
0.0
 40
0
 41
0
  0
VERTEX
  8
0
 10
5.03125
 20
3.77778
 30
0.0
 40
0
 41
0
  0
VERTEX
  8
0
 10
5.03489
 20
3.77778
 30
0.0
 40
0
 41
0
  0
VERTEX
  8
0
 10
5.04596
 20
3.77171
 30
0.0
 40
0
 41
0
  0
VERTEX
  8
0
 10
5.05208
 20
3.76064
 30
0.0
 40
0
 41
0
  0
VERTEX
  8
0
 10
5.05208
 20
3.75694
 30
0.0
 40
0
 41
0
  0
SEQEND
 8
0
  0
POLYLINE
  8
0
 62
     233
 66
     1
 10
0
 20
0
 30
0.0
 70
     1
 40
0
 41
0
  0
VERTEX
  8
0
 10
5.21875
 20
3.70486
 30
0.0
 40
0
 41
0
  0
VERTEX
  8
0
 10
5.21875
 20
3.69781
 30
0.0
 40
0
 41
0
  0
VERTEX
  8
0
 10
5.21382
 20
3.67649
 30
0.0
 40
0
 41
0
  0
VERTEX
  8
0
 10
5.20042
 20
3.65332
 30
0.0
 40
0
 41
0
  0
VERTEX
  8
0
 10
5.18056
 20
3.63769
 30
0.0
 40
0
 41
0
  0
VERTEX
  8
0
 10
5.16233
 20
3.63194
 30
0.0
 40
0
 41
0
  0
VERTEX
  8
0
 10
5.15625
 20
3.63194
 30
0.0
 40
0
 41
0
  0
VERTEX
  8
0
 10
5.15012
 20
3.63194
 30
0.0
 40
0
 41
0
  0
VERTEX
  8
0
 10
5.13189
 20
3.63769
 30
0.0
 40
0
 41
0
  0
VERTEX
  8
0
 10
5.11203
 20
3.65332
 30
0.0
 40
0
 41
0
  0
VERTEX
  8
0
 10
5.09864
 20
3.67649
 30
0.0
 40
0
 41
0
  0
VERTEX
  8
0
 10
5.09375
 20
3.69781
 30
0.0
 40
0
 41
0
  0
VERTEX
  8
0
 10
5.09375
 20
3.70486
 30
0.0
 40
0
 41
0
  0
VERTEX
  8
0
 10
5.09375
 20
3.71197
 30
0.0
 40
0
 41
0
  0
VERTEX
  8
0
 10
5.09864
 20
3.73329
 30
0.0
 40
0
 41
0
  0
VERTEX
  8
0
 10
5.11203
 20
3.75646
 30
0.0
 40
0
 41
0
  0
VERTEX
  8
0
 10
5.13189
 20
3.77208
 30
0.0
 40
0
 41
0
  0
VERTEX
  8
0
 10
5.15012
 20
3.77778
 30
0.0
 40
0
 41
0
  0
VERTEX
  8
0
 10
5.15625
 20
3.77778
 30
0.0
 40
0
 41
0
  0
VERTEX
  8
0
 10
5.16233
 20
3.77778
 30
0.0
 40
0
 41
0
  0
VERTEX
  8
0
 10
5.18056
 20
3.77208
 30
0.0
 40
0
 41
0
  0
VERTEX
  8
0
 10
5.20042
 20
3.75646
 30
0.0
 40
0
 41
0
  0
VERTEX
  8
0
 10
5.21382
 20
3.73329
 30
0.0
 40
0
 41
0
  0
VERTEX
  8
0
 10
5.21875
 20
3.71197
 30
0.0
 40
0
 41
0
  0
VERTEX
  8
0
 10
5.21875
 20
3.70486
 30
0.0
 40
0
 41
0
  0
SEQEND
 8
0
  0
POLYLINE
  8
0
 62
     7
 66
     1
 10
0
 20
0
 30
0.0
 70
     1
 40
0
 41
0
  0
VERTEX
  8
0
 10
2.99968
 20
4.35411
 30
0.0
 40
0
 41
0
  0
VERTEX
  8
0
 10
2.9866
 20
4.39165
 30
0.0
 40
0
 41
0
  0
VERTEX
  8
0
 10
2.93371
 20
4.49951
 30
0.0
 40
0
 41
0
  0
VERTEX
  8
0
 10
2.8534
 20
4.59831
 30
0.0
 40
0
 41
0
  0
VERTEX
  8
0
 10
2.75879
 20
4.65044
 30
0.0
 40
0
 41
0
  0
VERTEX
  8
0
 10
2.67617
 20
4.66
 30
0.0
 40
0
 41
0
  0
VERTEX
  8
0
 10
2.64979
 20
4.65593
 30
0.0
 40
0
 41
0
  0
VERTEX
  8
0
 10
2.63222
 20
4.65397
 30
0.0
 40
0
 41
0
  0
VERTEX
  8
0
 10
2.58057
 20
4.63792
 30
0.0
 40
0
 41
0
  0
VERTEX
  8
0
 10
2.52479
 20
4.60092
 30
0.0
 40
0
 41
0
  0
VERTEX
  8
0
 10
2.48242
 20
4.54497
 30
0.0
 40
0
 41
0
  0
VERTEX
  8
0
 10
2.4534
 20
4.47017
 30
0.0
 40
0
 41
0
  0
VERTEX
  8
0
 10
2.43778
 20
4.37646
 30
0.0
 40
0
 41
0
  0
VERTEX
  8
0
 10
2.43549
 20
4.26383
 30
0.0
 40
0
 41
0
  0
VERTEX
  8
0
 10
2.44667
 20
4.13226
 30
0.0
 40
0
 41
0
  0
VERTEX
  8
0
 10
2.46386
 20
4.01921
 30
0.0
 40
0
 41
0
  0
VERTEX
  8
0
 10
2.47119
 20
3.98178
 30
0.0
 40
0
 41
0
  0
VERTEX
  8
0
 10
2.55203
 20
3.95731
 30
0.0
 40
0
 41
0
  0
SEQEND
 8
0
  0
POLYLINE
  8
0
 62
     0
 66
     1
 10
0
 20
0
 30
0.0
 40
3.75
 41
3.75
  0
VERTEX
  8
0
 10
2.99968
 20
4.35411
 30
0.0
 40
0.0520833
 41
0.0520833
  0
VERTEX
  8
0
 10
2.9866
 20
4.39165
 30
0.0
 40
0.0520833
 41
0.0520833
  0
VERTEX
  8
0
 10
2.93371
 20
4.49951
 30
0.0
 40
0.0520833
 41
0.0520833
  0
VERTEX
  8
0
 10
2.8534
 20
4.59831
 30
0.0
 40
0.0520833
 41
0.0520833
  0
VERTEX
  8
0
 10
2.75879
 20
4.65044
 30
0.0
 40
0.0520833
 41
0.0520833
  0
VERTEX
  8
0
 10
2.67617
 20
4.66
 30
0.0
 40
0.0520833
 41
0.0520833
  0
VERTEX
  8
0
 10
2.64979
 20
4.65593
 30
0.0
 40
0.0520833
 41
0.0520833
  0
VERTEX
  8
0
 10
2.63222
 20
4.65397
 30
0.0
 40
0.0520833
 41
0.0520833
  0
VERTEX
  8
0
 10
2.58057
 20
4.63792
 30
0.0
 40
0.0520833
 41
0.0520833
  0
VERTEX
  8
0
 10
2.52479
 20
4.60092
 30
0.0
 40
0.0520833
 41
0.0520833
  0
VERTEX
  8
0
 10
2.48242
 20
4.54497
 30
0.0
 40
0.0520833
 41
0.0520833
  0
VERTEX
  8
0
 10
2.4534
 20
4.47017
 30
0.0
 40
0.0520833
 41
0.0520833
  0
VERTEX
  8
0
 10
2.43778
 20
4.37646
 30
0.0
 40
0.0520833
 41
0.0520833
  0
VERTEX
  8
0
 10
2.43549
 20
4.26383
 30
0.0
 40
0.0520833
 41
0.0520833
  0
VERTEX
  8
0
 10
2.44667
 20
4.13226
 30
0.0
 40
0.0520833
 41
0.0520833
  0
VERTEX
  8
0
 10
2.46386
 20
4.01921
 30
0.0
 40
0.0520833
 41
0.0520833
  0
VERTEX
  8
0
 10
2.47119
 20
3.98178
 30
0.0
 40
0.0520833
 41
0.0520833
  0
VERTEX
  8
0
 10
2.55203
 20
3.95731
 30
0.0
 40
0.0520833
 41
0.0520833
  0
SEQEND
 8
0
  0
POLYLINE
  8
0
 62
     233
 66
     1
 10
0
 20
0
 30
0.0
 70
     1
 40
0
 41
0
  0
VERTEX
  8
0
 10
2.6875
 20
4.47049
 30
0.0
 40
0
 41
0
  0
VERTEX
  8
0
 10
2.6875
 20
4.46408
 30
0.0
 40
0
 41
0
  0
VERTEX
  8
0
 10
2.67681
 20
4.44472
 30
0.0
 40
0
 41
0
  0
VERTEX
  8
0
 10
2.65744
 20
4.43403
 30
0.0
 40
0
 41
0
  0
VERTEX
  8
0
 10
2.65104
 20
4.43403
 30
0.0
 40
0
 41
0
  0
VERTEX
  8
0
 10
2.64458
 20
4.43403
 30
0.0
 40
0
 41
0
  0
VERTEX
  8
0
 10
2.62522
 20
4.44472
 30
0.0
 40
0
 41
0
  0
VERTEX
  8
0
 10
2.61458
 20
4.46408
 30
0.0
 40
0
 41
0
  0
VERTEX
  8
0
 10
2.61458
 20
4.47049
 30
0.0
 40
0
 41
0
  0
VERTEX
  8
0
 10
2.61458
 20
4.47694
 30
0.0
 40
0
 41
0
  0
VERTEX
  8
0
 10
2.62522
 20
4.49631
 30
0.0
 40
0
 41
0
  0
VERTEX
  8
0
 10
2.64458
 20
4.50694
 30
0.0
 40
0
 41
0
  0
VERTEX
  8
0
 10
2.65104
 20
4.50694
 30
0.0
 40
0
 41
0
  0
VERTEX
  8
0
 10
2.65744
 20
4.50694
 30
0.0
 40
0
 41
0
  0
VERTEX
  8
0
 10
2.67681
 20
4.49631
 30
0.0
 40
0
 41
0
  0
VERTEX
  8
0
 10
2.6875
 20
4.47694
 30
0.0
 40
0
 41
0
  0
VERTEX
  8
0
 10
2.6875
 20
4.47049
 30
0.0
 40
0
 41
0
  0
SEQEND
 8
0
  0
POLYLINE
  8
0
 62
     233
 66
     1
 10
0
 20
0
 30
0.0
 70
     1
 40
0
 41
0
  0
VERTEX
  8
0
 10
2.60835
 20
4.338
 30
0.0
 40
0
 41
0
  0
VERTEX
  8
0
 10
2.60764
 20
4.33447
 30
0.0
 40
0
 41
0
  0
VERTEX
  8
0
 10
2.59885
 20
4.32113
 30
0.0
 40
0
 41
0
  0
VERTEX
  8
0
 10
2.58578
 20
4.31586
 30
0.0
 40
0
 41
0
  0
VERTEX
  8
0
 10
2.58296
 20
4.3164
 30
0.0
 40
0
 41
0
  0
VERTEX
  8
0
 10
2.58014
 20
4.317
 30
0.0
 40
0
 41
0
  0
VERTEX
  8
0
 10
2.56993
 20
4.32676
 30
0.0
 40
0
 41
0
  0
VERTEX
  8
0
 10
2.56679
 20
4.34244
 30
0.0
 40
0
 41
0
  0
VERTEX
  8
0
 10
2.56749
 20
4.34597
 30
0.0
 40
0
 41
0
  0
VERTEX
  8
0
 10
2.56814
 20
4.3495
 30
0.0
 40
0
 41
0
  0
VERTEX
  8
0
 10
2.57693
 20
4.3629
 30
0.0
 40
0
 41
0
  0
VERTEX
  8
0
 10
2.59006
 20
4.36811
 30
0.0
 40
0
 41
0
  0
VERTEX
  8
0
 10
2.59289
 20
4.36757
 30
0.0
 40
0
 41
0
  0
VERTEX
  8
0
 10
2.59571
 20
4.36703
 30
0.0
 40
0
 41
0
  0
VERTEX
  8
0
 10
2.60585
 20
4.35726
 30
0.0
 40
0
 41
0
  0
VERTEX
  8
0
 10
2.609
 20
4.34158
 30
0.0
 40
0
 41
0
  0
VERTEX
  8
0
 10
2.60835
 20
4.338
 30
0.0
 40
0
 41
0
  0
SEQEND
 8
0
  0
POLYLINE
  8
0
 62
     233
 66
     1
 10
0
 20
0
 30
0.0
 70
     1
 40
0
 41
0
  0
VERTEX
  8
0
 10
2.8374
 20
4.41265
 30
0.0
 40
0
 41
0
  0
VERTEX
  8
0
 10
2.8374
 20
4.40826
 30
0.0
 40
0
 41
0
  0
VERTEX
  8
0
 10
2.82844
 20
4.39492
 30
0.0
 40
0
 41
0
  0
VERTEX
  8
0
 10
2.81233
 20
4.38753
 30
0.0
 40
0
 41
0
  0
VERTEX
  8
0
 10
2.80697
 20
4.38753
 30
0.0
 40
0
 41
0
  0
VERTEX
  8
0
 10
2.80154
 20
4.38753
 30
0.0
 40
0
 41
0
  0
VERTEX
  8
0
 10
2.78543
 20
4.39492
 30
0.0
 40
0
 41
0
  0
VERTEX
  8
0
 10
2.77653
 20
4.40826
 30
0.0
 40
0
 41
0
  0
VERTEX
  8
0
 10
2.77653
 20
4.41265
 30
0.0
 40
0
 41
0
  0
VERTEX
  8
0
 10
2.77653
 20
4.4171
 30
0.0
 40
0
 41
0
  0
VERTEX
  8
0
 10
2.78543
 20
4.43044
 30
0.0
 40
0
 41
0
  0
VERTEX
  8
0
 10
2.80154
 20
4.43778
 30
0.0
 40
0
 41
0
  0
VERTEX
  8
0
 10
2.80697
 20
4.43778
 30
0.0
 40
0
 41
0
  0
VERTEX
  8
0
 10
2.81233
 20
4.43778
 30
0.0
 40
0
 41
0
  0
VERTEX
  8
0
 10
2.82844
 20
4.43044
 30
0.0
 40
0
 41
0
  0
VERTEX
  8
0
 10
2.8374
 20
4.4171
 30
0.0
 40
0
 41
0
  0
VERTEX
  8
0
 10
2.8374
 20
4.41265
 30
0.0
 40
0
 41
0
  0
SEQEND
 8
0
  0
POLYLINE
  8
0
 62
     233
 66
     1
 10
0
 20
0
 30
0.0
 70
     1
 40
0
 41
0
  0
VERTEX
  8
0
 10
2.76042
 20
4.26215
 30
0.0
 40
0
 41
0
  0
VERTEX
  8
0
 10
2.76042
 20
4.25456
 30
0.0
 40
0
 41
0
  0
VERTEX
  8
0
 10
2.75672
 20
4.23178
 30
0.0
 40
0
 41
0
  0
VERTEX
  8
0
 10
2.74664
 20
4.20692
 30
0.0
 40
0
 41
0
  0
VERTEX
  8
0
 10
2.73178
 20
4.19021
 30
0.0
 40
0
 41
0
  0
VERTEX
  8
0
 10
2.7181
 20
4.18403
 30
0.0
 40
0
 41
0
  0
VERTEX
  8
0
 10
2.71354
 20
4.18403
 30
0.0
 40
0
 41
0
  0
VERTEX
  8
0
 10
2.70893
 20
4.18403
 30
0.0
 40
0
 41
0
  0
VERTEX
  8
0
 10
2.69526
 20
4.19021
 30
0.0
 40
0
 41
0
  0
VERTEX
  8
0
 10
2.68039
 20
4.20692
 30
0.0
 40
0
 41
0
  0
VERTEX
  8
0
 10
2.67031
 20
4.23178
 30
0.0
 40
0
 41
0
  0
VERTEX
  8
0
 10
2.66667
 20
4.25456
 30
0.0
 40
0
 41
0
  0
VERTEX
  8
0
 10
2.66667
 20
4.26215
 30
0.0
 40
0
 41
0
  0
VERTEX
  8
0
 10
2.66667
 20
4.26981
 30
0.0
 40
0
 41
0
  0
VERTEX
  8
0
 10
2.67031
 20
4.29258
 30
0.0
 40
0
 41
0
  0
VERTEX
  8
0
 10
2.68039
 20
4.31743
 30
0.0
 40
0
 41
0
  0
VERTEX
  8
0
 10
2.69526
 20
4.33415
 30
0.0
 40
0
 41
0
  0
VERTEX
  8
0
 10
2.70893
 20
4.34028
 30
0.0
 40
0
 41
0
  0
VERTEX
  8
0
 10
2.71354
 20
4.34028
 30
0.0
 40
0
 41
0
  0
VERTEX
  8
0
 10
2.7181
 20
4.34028
 30
0.0
 40
0
 41
0
  0
VERTEX
  8
0
 10
2.73178
 20
4.33415
 30
0.0
 40
0
 41
0
  0
VERTEX
  8
0
 10
2.74664
 20
4.31743
 30
0.0
 40
0
 41
0
  0
VERTEX
  8
0
 10
2.75672
 20
4.29258
 30
0.0
 40
0
 41
0
  0
VERTEX
  8
0
 10
2.76042
 20
4.26981
 30
0.0
 40
0
 41
0
  0
VERTEX
  8
0
 10
2.76042
 20
4.26215
 30
0.0
 40
0
 41
0
  0
SEQEND
 8
0
  0
POLYLINE
  8
0
 62
     0
 66
     1
 10
0
 20
0
 30
0.0
 40
3.75
 41
3.75
  0
VERTEX
  8
0
 10
-0.119792
 20
4.6059
 30
0.0
 40
0.0520833
 41
0.0520833
  0
VERTEX
  8
0
 10
2.45313
 20
3.98594
 30
0.0
 40
0.0520833
 41
0.0520833
  0
SEQEND
 8
0
  0
POLYLINE
  8
0
 62
     0
 66
     1
 10
0
 20
0
 30
0.0
 40
3.75
 41
3.75
  0
VERTEX
  8
0
 10
6.10482
 20
3.10613
 30
0.0
 40
0.0520833
 41
0.0520833
  0
VERTEX
  8
0
 10
8.22396
 20
2.59549
 30
0.0
 40
0.0520833
 41
0.0520833
  0
SEQEND
 8
0
  0
ENDSEC
  0
EOF
