<?xml version="1.0" encoding="utf-8"?>
<!-- Generator: Adobe Illustrator 24.2.1, SVG Export Plug-In . SVG Version: 6.00 Build 0)  -->
<svg version="1.1" id="Layer_1" xmlns="http://www.w3.org/2000/svg" xmlns:xlink="http://www.w3.org/1999/xlink" x="0px" y="0px"
	 viewBox="0 0 750 750" style="enable-background:new 0 0 750 750;" xml:space="preserve">
<style type="text/css">
	.st0{fill:none;stroke:#000000;stroke-width:5;stroke-linecap:round;}
	.st1{stroke:#000000;}
	.st2{fill:#EA7E95;}
	.st3{fill:#FFFFFF;stroke:#000000;stroke-width:5;stroke-linecap:round;}
</style>
<desc>Created with Sketch.</desc>
<g id="Artboard">
	<g id="keyboard-outline" transform="translate(166.000000, 378.000000)">
		<polygon id="Path-5" class="st0" points="71.3,0.7 6.9,65.4 330.9,141.8 372.5,75.6 		"/>
		<path id="Path-6" class="st0" d="M5.9,66.8c-2.3,1.9-4,13.3-5.2,34l323.4,82.4l5.6-41.4c-86-20.3-144.8-34.2-176.4-41.7
			C56.6,77.1,7.5,65.5,5.9,66.8z"/>
		<path id="Path-7" class="st0" d="M330.1,140.8c0.2-0.5,41-62.1,43.1-64.7s1,17.6,0,22.8s-45.5,79.9-48,83.5
			S329.9,141.3,330.1,140.8z"/>
		<path id="Line-2" class="st0" d="M337.5,126.5l-315-74"/>
		<path id="Path-8" class="st0" d="M292.2,108.2l27.3-45.7"/>
		<path id="Path-9" class="st0" d="M236.5,99.5l34-46"/>
		<path id="Path-11" class="st0" d="M133,73l32.5-46.5"/>
		<path id="Path-12" class="st0" d="M83,62.7l36.1-50"/>
		<path id="Path-10" class="st0" d="M186,84l30.5-45.5"/>
	</g>
	<g id="cat-body" transform="translate(235.000000, 242.000000)">
		<path id="Path" class="st0" d="M134.7,30.7C77.3,45.4,32.7,77.3,0.9,126.5c39.2,9.8,155.9,37.7,350.4,83.9
			c-4.3-24.2-12.4-47.7-24.1-70.6c0-19.3,2.8-13.1,7.6-37.6s4.8-34.9,0-38.3c-3.2-2.3-15.6,3.4-37.3,17
			c-32-29.9-69.2-46.7-111.8-50.4c-20.3-22-20.3-30.2-27.5-30.2C153.3,0.5,145.5,10.5,134.7,30.7z"/>
		
			<ellipse id="Oval-Copy" transform="matrix(0.454 -0.891 0.891 0.454 -1.6378 268.7501)" class="st1" cx="218.5" cy="135.7" rx="9" ry="6.5"/>
		
			<ellipse id="Oval-Copy-2" transform="matrix(0.3746 -0.9272 0.9272 0.3746 -26.3295 164.9618)" class="st1" cx="109.1" cy="102" rx="8.3" ry="7"/>
		<path id="Path-2" class="st0" d="M132.8,109.8c0.1,7.7,6,9,17.6,3.6c4.7,10.8,11.2,14.4,20.5,10.8"/>
	</g>
	<g id="arms-up" transform="translate(233.000000, 303.000000)">
		<g id="right-hand" transform="translate(236.000000, 53.000000)">
			<path id="Path-4" class="st0" d="M3.7,69.7c-7.6-44.1-1.5-67.1,18.2-69c12.9-3.1,23.6,5.5,32.2,26"/>
			<g id="right-paw" transform="translate(12.000000, 14.000000)">
				<ellipse id="Oval-3" class="st2" cx="8.5" cy="5.5" rx="3.5" ry="5.5"/>
				
					<ellipse id="Oval-3-Copy-2" transform="matrix(0.1045 -0.9945 0.9945 0.1045 12.6102 32.5884)" class="st2" cx="24.4" cy="9.3" rx="4" ry="3"/>
				<circle id="Oval-4" class="st2" cx="2" cy="20" r="2"/>
				<ellipse id="Oval-3-Copy" class="st2" cx="14" cy="25" rx="6" ry="7"/>
			</g>
		</g>
		<g id="left-arm">
			<path id="Path-3" class="st3" d="M55,29.7C47.4,8.1,36.2-1.6,21.4,0.7C2,2.9-3.8,24.5,4.2,65.4l7.8,2.3"/>
			<g id="left-paw" transform="translate(13.000000, 15.000000)">
				<circle id="Oval" class="st2" cx="8.5" cy="3.5" r="3.5"/>
				
					<ellipse id="Oval-Copy-3" transform="matrix(0.1908 -0.9816 0.9816 0.1908 -13.5701 15.2095)" class="st2" cx="2.4" cy="15.8" rx="2.5" ry="2"/>
				<ellipse id="Oval-Copy-4" class="st2" cx="23.5" cy="9.1" rx="2.9" ry="2.4"/>
				<ellipse id="Oval-2" class="st2" cx="14.5" cy="23.5" rx="4.5" ry="7.5"/>
			</g>
		</g>
	</g>
	<path id="Line" class="st0" d="M100.6,335.5L235.5,368 M586.1,452.5l102.3,24.7"/>
</g>
</svg>
