G04 #@! TF.GenerationSoftware,KiCad,Pcbnew,(5.1.4)-1*
G04 #@! TF.CreationDate,2020-11-29T00:19:48+01:00*
G04 #@! TF.ProjectId,CZTKeyRev0,435a544b-6579-4526-9576-302e6b696361,rev?*
G04 #@! TF.SameCoordinates,Original*
G04 #@! TF.FileFunction,Legend,Bot*
G04 #@! TF.FilePolarity,Positive*
%FSLAX46Y46*%
G04 Gerber Fmt 4.6, Leading zero omitted, Abs format (unit mm)*
G04 Created by KiCad (PCBNEW (5.1.4)-1) date 2020-11-29 00:19:48*
%MOMM*%
%LPD*%
G04 APERTURE LIST*
%ADD10C,0.300000*%
%ADD11C,0.250000*%
%ADD12C,0.150000*%
G04 APERTURE END LIST*
D10*
X272808833Y-45524714D02*
X271361214Y-45524714D01*
X269178476Y-46158047D02*
X269008833Y-46248523D01*
X268646928Y-46248523D01*
X268454666Y-46158047D01*
X268341571Y-45977095D01*
X268330261Y-45886619D01*
X268398119Y-45705666D01*
X268567761Y-45615190D01*
X268839190Y-45615190D01*
X269008833Y-45524714D01*
X269076690Y-45343761D01*
X269065380Y-45253285D01*
X268952285Y-45072333D01*
X268760023Y-44981857D01*
X268488595Y-44981857D01*
X268318952Y-45072333D01*
X267583833Y-44981857D02*
X267380261Y-46248523D01*
X266905261Y-45343761D01*
X266656452Y-46248523D01*
X266136214Y-44981857D01*
X265570738Y-46248523D02*
X265412404Y-44981857D01*
X265333238Y-44348523D02*
X265435023Y-44439000D01*
X265355857Y-44529476D01*
X265254071Y-44439000D01*
X265333238Y-44348523D01*
X265355857Y-44529476D01*
X264779071Y-44981857D02*
X264055261Y-44981857D01*
X264665976Y-46248523D02*
X264462404Y-44619952D01*
X264349309Y-44439000D01*
X264157047Y-44348523D01*
X263976095Y-44348523D01*
X263693357Y-44981857D02*
X262969547Y-44981857D01*
X263342761Y-44348523D02*
X263546333Y-45977095D01*
X263478476Y-46158047D01*
X263308833Y-46248523D01*
X263127880Y-46248523D01*
X262494547Y-46248523D02*
X262336214Y-44981857D01*
X262381452Y-45343761D02*
X262268357Y-45162809D01*
X262166571Y-45072333D01*
X261974309Y-44981857D01*
X261793357Y-44981857D01*
X260504071Y-46248523D02*
X260379666Y-45253285D01*
X260447523Y-45072333D01*
X260617166Y-44981857D01*
X260979071Y-44981857D01*
X261171333Y-45072333D01*
X260492761Y-46158047D02*
X260685023Y-46248523D01*
X261137404Y-46248523D01*
X261307047Y-46158047D01*
X261374904Y-45977095D01*
X261352285Y-45796142D01*
X261239190Y-45615190D01*
X261046928Y-45524714D01*
X260594547Y-45524714D01*
X260402285Y-45434238D01*
X259780261Y-46248523D02*
X258626690Y-44981857D01*
X259621928Y-44981857D02*
X258785023Y-46248523D01*
X272808833Y-48674714D02*
X271361214Y-48674714D01*
X269178476Y-49308047D02*
X269008833Y-49398523D01*
X268646928Y-49398523D01*
X268454666Y-49308047D01*
X268341571Y-49127095D01*
X268330261Y-49036619D01*
X268398119Y-48855666D01*
X268567761Y-48765190D01*
X268839190Y-48765190D01*
X269008833Y-48674714D01*
X269076690Y-48493761D01*
X269065380Y-48403285D01*
X268952285Y-48222333D01*
X268760023Y-48131857D01*
X268488595Y-48131857D01*
X268318952Y-48222333D01*
X266588595Y-48131857D02*
X266826095Y-50031857D01*
X266735619Y-49308047D02*
X266927880Y-49398523D01*
X267289785Y-49398523D01*
X267459428Y-49308047D01*
X267538595Y-49217571D01*
X267606452Y-49036619D01*
X267538595Y-48493761D01*
X267425500Y-48312809D01*
X267323714Y-48222333D01*
X267131452Y-48131857D01*
X266769547Y-48131857D01*
X266599904Y-48222333D01*
X264869547Y-48131857D02*
X265027880Y-49398523D01*
X265683833Y-48131857D02*
X265808238Y-49127095D01*
X265740380Y-49308047D01*
X265570738Y-49398523D01*
X265299309Y-49398523D01*
X265107047Y-49308047D01*
X265005261Y-49217571D01*
X263388000Y-49308047D02*
X263580261Y-49398523D01*
X263942166Y-49398523D01*
X264111809Y-49308047D01*
X264179666Y-49127095D01*
X264089190Y-48403285D01*
X263976095Y-48222333D01*
X263783833Y-48131857D01*
X263421928Y-48131857D01*
X263252285Y-48222333D01*
X263184428Y-48403285D01*
X263207047Y-48584238D01*
X264134428Y-48765190D01*
X261759428Y-49308047D02*
X261951690Y-49398523D01*
X262313595Y-49398523D01*
X262483238Y-49308047D01*
X262551095Y-49127095D01*
X262460619Y-48403285D01*
X262347523Y-48222333D01*
X262155261Y-48131857D01*
X261793357Y-48131857D01*
X261623714Y-48222333D01*
X261555857Y-48403285D01*
X261578476Y-48584238D01*
X262505857Y-48765190D01*
X260888595Y-48131857D02*
X259893357Y-48131857D01*
X261046928Y-49398523D01*
X260051690Y-49398523D01*
X258592761Y-49308047D02*
X258785023Y-49398523D01*
X259146928Y-49398523D01*
X259316571Y-49308047D01*
X259384428Y-49127095D01*
X259293952Y-48403285D01*
X259180857Y-48222333D01*
X258988595Y-48131857D01*
X258626690Y-48131857D01*
X258457047Y-48222333D01*
X258389190Y-48403285D01*
X258411809Y-48584238D01*
X259339190Y-48765190D01*
X257427880Y-49398523D02*
X257597523Y-49308047D01*
X257676690Y-49217571D01*
X257744547Y-49036619D01*
X257676690Y-48493761D01*
X257563595Y-48312809D01*
X257461809Y-48222333D01*
X257269547Y-48131857D01*
X256998119Y-48131857D01*
X256828476Y-48222333D01*
X256749309Y-48312809D01*
X256681452Y-48493761D01*
X256749309Y-49036619D01*
X256862404Y-49217571D01*
X256964190Y-49308047D01*
X257156452Y-49398523D01*
X257427880Y-49398523D01*
X255821928Y-48131857D02*
X255980261Y-49398523D01*
X255844547Y-48312809D02*
X255742761Y-48222333D01*
X255550500Y-48131857D01*
X255279071Y-48131857D01*
X255109428Y-48222333D01*
X255041571Y-48403285D01*
X255165976Y-49398523D01*
X253526095Y-49308047D02*
X253718357Y-49398523D01*
X254080261Y-49398523D01*
X254249904Y-49308047D01*
X254317761Y-49127095D01*
X254227285Y-48403285D01*
X254114190Y-48222333D01*
X253921928Y-48131857D01*
X253560023Y-48131857D01*
X253390380Y-48222333D01*
X253322523Y-48403285D01*
X253345142Y-48584238D01*
X254272523Y-48765190D01*
X252632642Y-49398523D02*
X252474309Y-48131857D01*
X252395142Y-47498523D02*
X252496928Y-47589000D01*
X252417761Y-47679476D01*
X252315976Y-47589000D01*
X252395142Y-47498523D01*
X252417761Y-47679476D01*
X251569547Y-48131857D02*
X251727880Y-49398523D01*
X251592166Y-48312809D02*
X251490380Y-48222333D01*
X251298119Y-48131857D01*
X251026690Y-48131857D01*
X250857047Y-48222333D01*
X250789190Y-48403285D01*
X250913595Y-49398523D01*
X272808833Y-51824714D02*
X271361214Y-51824714D01*
X268341571Y-51553285D02*
X268974904Y-51553285D01*
X269099309Y-52548523D02*
X268861809Y-50648523D01*
X267957047Y-50648523D01*
X266735619Y-52458047D02*
X266927880Y-52548523D01*
X267289785Y-52548523D01*
X267459428Y-52458047D01*
X267527285Y-52277095D01*
X267436809Y-51553285D01*
X267323714Y-51372333D01*
X267131452Y-51281857D01*
X266769547Y-51281857D01*
X266599904Y-51372333D01*
X266532047Y-51553285D01*
X266554666Y-51734238D01*
X267482047Y-51915190D01*
X272808833Y-54974714D02*
X271361214Y-54974714D01*
X269099309Y-55698523D02*
X268861809Y-53798523D01*
X268398119Y-55155666D01*
X267595142Y-53798523D01*
X267832642Y-55698523D01*
X266113595Y-55698523D02*
X265989190Y-54703285D01*
X266057047Y-54522333D01*
X266226690Y-54431857D01*
X266588595Y-54431857D01*
X266780857Y-54522333D01*
X266102285Y-55608047D02*
X266294547Y-55698523D01*
X266746928Y-55698523D01*
X266916571Y-55608047D01*
X266984428Y-55427095D01*
X266961809Y-55246142D01*
X266848714Y-55065190D01*
X266656452Y-54974714D01*
X266204071Y-54974714D01*
X266011809Y-54884238D01*
X265208833Y-55698523D02*
X265050500Y-54431857D01*
X265095738Y-54793761D02*
X264982642Y-54612809D01*
X264880857Y-54522333D01*
X264688595Y-54431857D01*
X264507642Y-54431857D01*
X264145738Y-54431857D02*
X263421928Y-54431857D01*
X263795142Y-53798523D02*
X263998714Y-55427095D01*
X263930857Y-55608047D01*
X263761214Y-55698523D01*
X263580261Y-55698523D01*
X262946928Y-55698523D02*
X262788595Y-54431857D01*
X262709428Y-53798523D02*
X262811214Y-53889000D01*
X262732047Y-53979476D01*
X262630261Y-53889000D01*
X262709428Y-53798523D01*
X262732047Y-53979476D01*
X261883833Y-54431857D02*
X262042166Y-55698523D01*
X261906452Y-54612809D02*
X261804666Y-54522333D01*
X261612404Y-54431857D01*
X261340976Y-54431857D01*
X261171333Y-54522333D01*
X261103476Y-54703285D01*
X261227880Y-55698523D01*
X258818952Y-53798523D02*
X257552285Y-53798523D01*
X259056452Y-55698523D01*
X257789785Y-55698523D01*
X257043357Y-55517571D02*
X256964190Y-55608047D01*
X257065976Y-55698523D01*
X257145142Y-55608047D01*
X257043357Y-55517571D01*
X257065976Y-55698523D01*
X272808833Y-58124714D02*
X271361214Y-58124714D01*
X269099309Y-58848523D02*
X268861809Y-56948523D01*
X268409428Y-56948523D01*
X268149309Y-57039000D01*
X267990976Y-57219952D01*
X267923119Y-57400904D01*
X267877880Y-57762809D01*
X267911809Y-58034238D01*
X268047523Y-58396142D01*
X268160619Y-58577095D01*
X268364190Y-58758047D01*
X268646928Y-58848523D01*
X269099309Y-58848523D01*
X266385023Y-58848523D02*
X266260619Y-57853285D01*
X266328476Y-57672333D01*
X266498119Y-57581857D01*
X266860023Y-57581857D01*
X267052285Y-57672333D01*
X266373714Y-58758047D02*
X266565976Y-58848523D01*
X267018357Y-58848523D01*
X267188000Y-58758047D01*
X267255857Y-58577095D01*
X267233238Y-58396142D01*
X267120142Y-58215190D01*
X266927880Y-58124714D01*
X266475500Y-58124714D01*
X266283238Y-58034238D01*
X265502880Y-57581857D02*
X265208833Y-58848523D01*
X264598119Y-57581857D01*
X264032642Y-58848523D02*
X263874309Y-57581857D01*
X263795142Y-56948523D02*
X263896928Y-57039000D01*
X263817761Y-57129476D01*
X263715976Y-57039000D01*
X263795142Y-56948523D01*
X263817761Y-57129476D01*
X262313595Y-58848523D02*
X262076095Y-56948523D01*
X262302285Y-58758047D02*
X262494547Y-58848523D01*
X262856452Y-58848523D01*
X263026095Y-58758047D01*
X263105261Y-58667571D01*
X263173119Y-58486619D01*
X263105261Y-57943761D01*
X262992166Y-57762809D01*
X262890380Y-57672333D01*
X262698119Y-57581857D01*
X262336214Y-57581857D01*
X262166571Y-57672333D01*
X259995142Y-56948523D02*
X258909428Y-56948523D01*
X259689785Y-58848523D02*
X259452285Y-56948523D01*
X258490976Y-58667571D02*
X258411809Y-58758047D01*
X258513595Y-58848523D01*
X258592761Y-58758047D01*
X258490976Y-58667571D01*
X258513595Y-58848523D01*
X274258333Y-42921904D02*
X273901190Y-43040952D01*
X273305952Y-43040952D01*
X273067857Y-42921904D01*
X272948809Y-42802857D01*
X272829761Y-42564761D01*
X272829761Y-42326666D01*
X272948809Y-42088571D01*
X273067857Y-41969523D01*
X273305952Y-41850476D01*
X273782142Y-41731428D01*
X274020238Y-41612380D01*
X274139285Y-41493333D01*
X274258333Y-41255238D01*
X274258333Y-41017142D01*
X274139285Y-40779047D01*
X274020238Y-40660000D01*
X273782142Y-40540952D01*
X273186904Y-40540952D01*
X272829761Y-40660000D01*
X271758333Y-41374285D02*
X271758333Y-43874285D01*
X271758333Y-41493333D02*
X271520238Y-41374285D01*
X271044047Y-41374285D01*
X270805952Y-41493333D01*
X270686904Y-41612380D01*
X270567857Y-41850476D01*
X270567857Y-42564761D01*
X270686904Y-42802857D01*
X270805952Y-42921904D01*
X271044047Y-43040952D01*
X271520238Y-43040952D01*
X271758333Y-42921904D01*
X268544047Y-42921904D02*
X268782142Y-43040952D01*
X269258333Y-43040952D01*
X269496428Y-42921904D01*
X269615476Y-42683809D01*
X269615476Y-41731428D01*
X269496428Y-41493333D01*
X269258333Y-41374285D01*
X268782142Y-41374285D01*
X268544047Y-41493333D01*
X268425000Y-41731428D01*
X268425000Y-41969523D01*
X269615476Y-42207619D01*
X266282142Y-42921904D02*
X266520238Y-43040952D01*
X266996428Y-43040952D01*
X267234523Y-42921904D01*
X267353571Y-42802857D01*
X267472619Y-42564761D01*
X267472619Y-41850476D01*
X267353571Y-41612380D01*
X267234523Y-41493333D01*
X266996428Y-41374285D01*
X266520238Y-41374285D01*
X266282142Y-41493333D01*
X265210714Y-43040952D02*
X265210714Y-41374285D01*
X265210714Y-40540952D02*
X265329761Y-40660000D01*
X265210714Y-40779047D01*
X265091666Y-40660000D01*
X265210714Y-40540952D01*
X265210714Y-40779047D01*
X262948809Y-43040952D02*
X262948809Y-41731428D01*
X263067857Y-41493333D01*
X263305952Y-41374285D01*
X263782142Y-41374285D01*
X264020238Y-41493333D01*
X262948809Y-42921904D02*
X263186904Y-43040952D01*
X263782142Y-43040952D01*
X264020238Y-42921904D01*
X264139285Y-42683809D01*
X264139285Y-42445714D01*
X264020238Y-42207619D01*
X263782142Y-42088571D01*
X263186904Y-42088571D01*
X262948809Y-41969523D01*
X261401190Y-43040952D02*
X261639285Y-42921904D01*
X261758333Y-42683809D01*
X261758333Y-40540952D01*
X258901190Y-40540952D02*
X257472619Y-40540952D01*
X258186904Y-43040952D02*
X258186904Y-40540952D01*
X256639285Y-43040952D02*
X256639285Y-40540952D01*
X255567857Y-43040952D02*
X255567857Y-41731428D01*
X255686904Y-41493333D01*
X255925000Y-41374285D01*
X256282142Y-41374285D01*
X256520238Y-41493333D01*
X256639285Y-41612380D01*
X253305952Y-43040952D02*
X253305952Y-41731428D01*
X253425000Y-41493333D01*
X253663095Y-41374285D01*
X254139285Y-41374285D01*
X254377380Y-41493333D01*
X253305952Y-42921904D02*
X253544047Y-43040952D01*
X254139285Y-43040952D01*
X254377380Y-42921904D01*
X254496428Y-42683809D01*
X254496428Y-42445714D01*
X254377380Y-42207619D01*
X254139285Y-42088571D01*
X253544047Y-42088571D01*
X253305952Y-41969523D01*
X252115476Y-41374285D02*
X252115476Y-43040952D01*
X252115476Y-41612380D02*
X251996428Y-41493333D01*
X251758333Y-41374285D01*
X251401190Y-41374285D01*
X251163095Y-41493333D01*
X251044047Y-41731428D01*
X251044047Y-43040952D01*
X249853571Y-43040952D02*
X249853571Y-40540952D01*
X249615476Y-42088571D02*
X248901190Y-43040952D01*
X248901190Y-41374285D02*
X249853571Y-42326666D01*
X247948809Y-42921904D02*
X247710714Y-43040952D01*
X247234523Y-43040952D01*
X246996428Y-42921904D01*
X246877380Y-42683809D01*
X246877380Y-42564761D01*
X246996428Y-42326666D01*
X247234523Y-42207619D01*
X247591666Y-42207619D01*
X247829761Y-42088571D01*
X247948809Y-41850476D01*
X247948809Y-41731428D01*
X247829761Y-41493333D01*
X247591666Y-41374285D01*
X247234523Y-41374285D01*
X246996428Y-41493333D01*
X244258333Y-41374285D02*
X243305952Y-41374285D01*
X243901190Y-40540952D02*
X243901190Y-42683809D01*
X243782142Y-42921904D01*
X243544047Y-43040952D01*
X243305952Y-43040952D01*
X242115476Y-43040952D02*
X242353571Y-42921904D01*
X242472619Y-42802857D01*
X242591666Y-42564761D01*
X242591666Y-41850476D01*
X242472619Y-41612380D01*
X242353571Y-41493333D01*
X242115476Y-41374285D01*
X241758333Y-41374285D01*
X241520238Y-41493333D01*
X241401190Y-41612380D01*
X241282142Y-41850476D01*
X241282142Y-42564761D01*
X241401190Y-42802857D01*
X241520238Y-42921904D01*
X241758333Y-43040952D01*
X242115476Y-43040952D01*
X240210714Y-42802857D02*
X240091666Y-42921904D01*
X240210714Y-43040952D01*
X240329761Y-42921904D01*
X240210714Y-42802857D01*
X240210714Y-43040952D01*
X240210714Y-41493333D02*
X240091666Y-41612380D01*
X240210714Y-41731428D01*
X240329761Y-41612380D01*
X240210714Y-41493333D01*
X240210714Y-41731428D01*
D11*
X14487000Y-55247400D02*
X19177000Y-56388000D01*
X-7874000Y-50038000D02*
X-3771451Y-50848350D01*
X-2235000Y-49467300D02*
X-2235000Y-49467300D01*
X-2154450Y-48736750D02*
X-2154450Y-48714800D01*
X-2653050Y-48296500D02*
X-2599600Y-48393350D01*
X-2560800Y-49827000D02*
X-2635150Y-49743450D01*
X-3072650Y-48940200D02*
X-3058550Y-48942900D01*
X-2235000Y-49467300D02*
X-2235000Y-49505250D01*
X-2492450Y-49857900D02*
X-2560800Y-49827000D01*
X-2469400Y-49857900D02*
X-2492450Y-49857900D01*
X-2378200Y-49827000D02*
X-2446600Y-49857900D01*
X-1850100Y-48692551D02*
X-1850100Y-48714800D01*
X-3136400Y-49193050D02*
X-3187450Y-49144250D01*
X-3203150Y-49065850D02*
X-3199650Y-49048200D01*
X-2992100Y-49070150D02*
X-2995350Y-49088050D01*
X-2446600Y-49857900D02*
X-2469400Y-49857900D01*
X-1850100Y-48714800D02*
X-1850100Y-48714800D01*
X-2154450Y-48714800D02*
X-2154450Y-48692551D01*
X-1894900Y-48803450D02*
X-1975450Y-48840400D01*
X-3199650Y-49048200D02*
X-3196400Y-49030550D01*
X-2154450Y-48692551D02*
X-2109950Y-48625850D01*
X-3086801Y-48937500D02*
X-3072650Y-48940200D01*
X-3152450Y-48963550D02*
X-3086801Y-48937500D01*
X-2998900Y-49105701D02*
X-3042850Y-49172400D01*
X-3187450Y-49144250D02*
X-3203150Y-49065850D01*
X-3042850Y-49172400D02*
X-3108200Y-49198750D01*
X-2029400Y-48840400D02*
X-2109950Y-48803450D01*
X-2995350Y-49088050D02*
X-2995350Y-49088050D01*
X-2703750Y-49467300D02*
X-2703750Y-49429000D01*
X-1975450Y-48589150D02*
X-1894900Y-48625850D01*
X-2109950Y-48803450D02*
X-2154450Y-48736750D01*
X-2235000Y-49429000D02*
X-2235000Y-49467300D01*
X-2002250Y-48589150D02*
X-1975450Y-48589150D01*
X-2781900Y-48243350D02*
X-2749901Y-48243350D01*
X-2253500Y-49315150D02*
X-2235000Y-49429000D01*
X-2303900Y-49190900D02*
X-2253500Y-49315150D01*
X-2703750Y-49429000D02*
X-2685550Y-49315150D01*
X-2378200Y-49107300D02*
X-2303900Y-49190900D01*
X-2446600Y-49076650D02*
X-2378200Y-49107300D01*
X-1894900Y-48625850D02*
X-1850100Y-48692551D01*
X-2599600Y-48393350D02*
X-2599600Y-48425600D01*
X-2685550Y-49315150D02*
X-2635150Y-49190900D01*
X-2235000Y-49505250D02*
X-2253500Y-49619150D01*
X-2995350Y-49088050D02*
X-2998900Y-49105701D01*
X-2469400Y-49076650D02*
X-2446600Y-49076650D01*
X-3108200Y-49198750D02*
X-3122300Y-49196050D01*
X-2749901Y-48243350D02*
X-2653050Y-48296500D01*
X-2492450Y-49076650D02*
X-2469400Y-49076650D01*
X-2814200Y-48243350D02*
X-2781900Y-48243350D01*
X-2560800Y-49107300D02*
X-2492450Y-49076650D01*
X-2703750Y-49505250D02*
X-2703750Y-49467300D01*
X-1850100Y-48714800D02*
X-1850100Y-48736750D01*
X-1850100Y-48736750D02*
X-1894900Y-48803450D01*
X-2109950Y-48625850D02*
X-2029400Y-48589150D01*
X-3122300Y-49196050D02*
X-3136400Y-49193050D01*
X-2029400Y-48589150D02*
X-2002250Y-48589150D01*
X-2002250Y-48840400D02*
X-2029400Y-48840400D01*
X-3196400Y-49030550D02*
X-3152450Y-48963550D01*
X-2635150Y-49190900D02*
X-2560800Y-49107300D01*
X-2303900Y-49743450D02*
X-2378200Y-49827000D01*
X-2253500Y-49619150D02*
X-2303900Y-49743450D01*
X-1975450Y-48840400D02*
X-2002250Y-48840400D01*
X-3007850Y-48991750D02*
X-2992100Y-49070150D01*
X-3058550Y-48942900D02*
X-3007850Y-48991750D01*
X-2599600Y-48425600D02*
X-2599600Y-48425600D01*
X-2685550Y-49619150D02*
X-2703750Y-49505250D01*
X-2635150Y-49743450D02*
X-2685550Y-49619150D01*
X-3848200Y-48895750D02*
X-3859650Y-49458901D01*
X-2653050Y-48554450D02*
X-2749901Y-48607900D01*
X-2599600Y-48425600D02*
X-2599600Y-48457650D01*
X-1038700Y-49007500D02*
X-1104100Y-48819800D01*
X10056650Y-52218200D02*
X10056650Y-52253750D01*
X-3848200Y-48895750D02*
X-3859650Y-49458901D01*
X-1038700Y-49007500D02*
X-1104100Y-48819800D01*
X-3717800Y-50682000D02*
X-3681150Y-50869150D01*
X-3803750Y-50116751D02*
X-3717800Y-50682000D01*
X9865700Y-51917650D02*
X9965000Y-51995750D01*
X-1770100Y-47786500D02*
X-2243150Y-47525850D01*
X-2656250Y-47478050D02*
X-2788150Y-47498400D01*
X9622350Y-51917650D02*
X9713500Y-51889150D01*
X9431650Y-52218200D02*
X9456099Y-52111600D01*
X-2876001Y-47508200D02*
X-3134251Y-47588450D01*
X9774550Y-51889150D02*
X9865700Y-51917650D01*
X-3625000Y-48053200D02*
X-3770101Y-48427200D01*
X-2788150Y-47498400D02*
X-2876001Y-47508200D01*
X-3134251Y-47588450D02*
X-3413150Y-47773450D01*
X-1368550Y-48280500D02*
X-1770100Y-47786500D01*
X-3770101Y-48427200D02*
X-3848200Y-48895750D01*
X9456099Y-52111600D02*
X9523050Y-51995750D01*
X-3625000Y-48053200D02*
X-3770101Y-48427200D01*
X-2243150Y-47525850D02*
X-2656250Y-47478050D01*
X9713500Y-52618350D02*
X9622350Y-52589600D01*
X-1104100Y-48819800D02*
X-1368550Y-48280500D01*
X10056650Y-52253750D02*
X10056650Y-52253750D01*
X-1770100Y-47786500D02*
X-2243150Y-47525850D01*
X-2876001Y-47508200D02*
X-3134251Y-47588450D01*
X-2911000Y-48296500D02*
X-2814200Y-48243350D01*
X9431650Y-52289000D02*
X9431650Y-52253750D01*
X-2964200Y-48425600D02*
X-2964200Y-48393350D01*
X9713500Y-51889150D02*
X9744150Y-51889150D01*
X9523050Y-51995750D02*
X9622350Y-51917650D01*
X-2964200Y-48393350D02*
X-2911000Y-48296500D01*
X-3803750Y-50116751D02*
X-3717800Y-50682000D01*
X9965000Y-51995750D02*
X10032000Y-52111600D01*
X-3681150Y-50869150D02*
X-3276951Y-50991500D01*
X-2599600Y-48457650D02*
X-2653050Y-48554450D01*
X-3859650Y-49458901D02*
X-3803750Y-50116751D01*
X-2788150Y-47498400D02*
X-2876001Y-47508200D01*
X9456099Y-52395600D02*
X9431650Y-52289000D01*
X-2243150Y-47525850D02*
X-2656250Y-47478050D01*
X-3681150Y-50869150D02*
X-3276951Y-50991500D01*
X-2656250Y-47478050D02*
X-2788150Y-47498400D01*
X-3276951Y-50991500D02*
X-1038700Y-49007500D01*
X-3413150Y-47773450D02*
X-3625000Y-48053200D01*
X10032000Y-52111600D02*
X10056650Y-52218200D01*
X9523050Y-52511450D02*
X9456099Y-52395600D01*
X9431650Y-52253750D02*
X9431650Y-52218200D01*
X-2964200Y-48457650D02*
X-2964200Y-48425600D01*
X-3717800Y-50682000D02*
X-3681150Y-50869150D01*
X9622350Y-52589600D02*
X9523050Y-52511450D01*
X-3413150Y-47773450D02*
X-3625000Y-48053200D01*
X-3770101Y-48427200D02*
X-3848200Y-48895750D01*
X-2911000Y-48554450D02*
X-2964200Y-48457650D01*
X-2814200Y-48607900D02*
X-2911000Y-48554450D01*
X-3134251Y-47588450D02*
X-3413150Y-47773450D01*
X-1368550Y-48280500D02*
X-1770100Y-47786500D01*
X-3859650Y-49458901D02*
X-3803750Y-50116751D01*
X-1104100Y-48819800D02*
X-1368550Y-48280500D01*
X9744150Y-51889150D02*
X9774550Y-51889150D01*
X-2781900Y-48607900D02*
X-2814200Y-48607900D01*
X-2749901Y-48607900D02*
X-2781900Y-48607900D01*
X9439799Y-50951650D02*
X9457700Y-50951650D01*
X9015000Y-51993350D02*
X9015000Y-51974850D01*
X9015000Y-52011500D02*
X9015000Y-51993350D01*
X9119150Y-52097500D02*
X9100700Y-52097500D01*
X9100700Y-52097500D02*
X9045400Y-52066850D01*
X9137350Y-52097500D02*
X9119150Y-52097500D01*
X9223300Y-51993350D02*
X9223300Y-52011500D01*
X10441300Y-51451850D02*
X10441300Y-51451850D01*
X9328600Y-51035500D02*
X9386650Y-50974150D01*
X9475350Y-51524600D02*
X9457700Y-51524600D01*
X10133400Y-51390550D02*
X10191249Y-51277450D01*
X10410950Y-51300500D02*
X10444300Y-51423100D01*
X9275400Y-51265750D02*
X9275400Y-51238100D01*
X9586500Y-51440500D02*
X9528500Y-51501800D01*
X10130450Y-51419300D02*
X10133400Y-51390550D01*
X10191249Y-51277450D02*
X10286149Y-51225900D01*
X10242500Y-51640400D02*
X10160550Y-51570400D01*
X9640000Y-51210200D02*
X9640000Y-51238100D01*
X9528500Y-51501800D02*
X9475350Y-51524600D01*
X9457700Y-51524600D02*
X9439799Y-51524600D01*
X10441300Y-51451850D02*
X10438299Y-51480350D01*
X9625600Y-51349350D02*
X9586500Y-51440500D01*
X9457700Y-50951650D02*
X9475350Y-50951650D01*
X9275400Y-51238100D02*
X9275400Y-51210200D01*
X9640000Y-51238100D02*
X9640000Y-51238100D01*
X9275400Y-51210200D02*
X9289500Y-51126650D01*
X9386650Y-51501800D02*
X9328600Y-51440500D01*
X9744150Y-52618350D02*
X9713500Y-52618350D01*
X9774550Y-52618350D02*
X9744150Y-52618350D01*
X9865700Y-52589600D02*
X9774550Y-52618350D01*
X9192700Y-52066850D02*
X9137350Y-52097500D01*
X10127500Y-51447850D02*
X10130450Y-51419300D01*
X10438299Y-51480350D02*
X10380250Y-51593450D01*
X9328600Y-51440500D02*
X9289500Y-51349350D01*
X9386650Y-50974150D02*
X9439799Y-50951650D01*
X10285600Y-51645000D02*
X10264150Y-51642850D01*
X9475350Y-50951650D02*
X9528500Y-50974150D01*
X10032000Y-52395600D02*
X9965000Y-52511450D01*
X9192700Y-51919500D02*
X9223300Y-51974850D01*
X10444300Y-51423100D02*
X10441300Y-51451850D01*
X9289500Y-51349350D02*
X9275400Y-51265750D01*
X10329000Y-51230550D02*
X10410950Y-51300500D01*
X9223300Y-52011500D02*
X9192700Y-52066850D01*
X10286149Y-51225900D02*
X10307550Y-51228350D01*
X10160550Y-51570400D02*
X10127500Y-51447850D01*
X10056650Y-52253750D02*
X10056650Y-52289000D01*
X9015000Y-51974850D02*
X9045400Y-51919500D01*
X9625600Y-51126650D02*
X9640000Y-51210200D01*
X10264150Y-51642850D02*
X10242500Y-51640400D01*
X9439799Y-51524600D02*
X9386650Y-51501800D01*
X9289500Y-51126650D02*
X9328600Y-51035500D01*
X9045400Y-52066850D02*
X9015000Y-52011500D01*
X9586500Y-51035500D02*
X9625600Y-51126650D01*
X9965000Y-52511450D02*
X9865700Y-52589600D01*
X10056650Y-52289000D02*
X10032000Y-52395600D01*
X9528500Y-50974150D02*
X9586500Y-51035500D01*
X9223300Y-51993350D02*
X9223300Y-51993350D01*
X10307550Y-51228350D02*
X10329000Y-51230550D01*
X9137350Y-51889150D02*
X9192700Y-51919500D01*
X10380250Y-51593450D02*
X10285600Y-51645000D01*
X9223300Y-51974850D02*
X9223300Y-51993350D01*
X9119150Y-51889150D02*
X9137350Y-51889150D01*
X9100700Y-51889150D02*
X9119150Y-51889150D01*
X9045400Y-51919500D02*
X9100700Y-51889150D01*
X3939850Y-50238751D02*
X4035900Y-50195050D01*
X4237400Y-50546650D02*
X4479650Y-50757150D01*
X1532600Y-49784950D02*
X1512000Y-49628100D01*
X1564650Y-49422000D02*
X1638400Y-49315350D01*
X1548850Y-49461300D02*
X1564650Y-49422000D01*
X1867050Y-50020150D02*
X1755900Y-50012001D01*
X2238200Y-49694350D02*
X2222500Y-49733401D01*
X2222500Y-49733401D02*
X2222500Y-49733401D01*
X2166300Y-49280150D02*
X2238450Y-49409500D01*
X2080600Y-49208750D02*
X2166300Y-49280150D01*
X1904000Y-49174300D02*
X2015200Y-49182450D01*
X3637600Y-50338900D02*
X3939850Y-50238751D01*
X2259100Y-49566300D02*
X2238200Y-49694350D01*
X2166300Y-49280150D02*
X2238450Y-49409500D01*
X2048050Y-49195750D02*
X2080600Y-49208750D01*
X1762150Y-49216950D02*
X1904000Y-49174300D01*
X2015200Y-49182450D02*
X2048050Y-49195750D01*
X2222500Y-49733401D02*
X2222500Y-49733401D01*
X9640000Y-51265750D02*
X9625600Y-51349350D01*
X2015200Y-49182450D02*
X2048050Y-49195750D01*
X9640000Y-51238100D02*
X9640000Y-51265750D01*
X1638400Y-49315350D02*
X1762150Y-49216950D01*
X3178400Y-50243950D02*
X3351700Y-50355150D01*
X11134450Y-51439350D02*
X11208450Y-51616800D01*
X9179350Y-50350250D02*
X9442200Y-50271050D01*
X8894000Y-50541250D02*
X9179350Y-50350250D01*
X2238450Y-49409500D02*
X2259100Y-49566300D01*
X4479650Y-50757150D02*
X4766950Y-50827400D01*
X5025450Y-50788350D02*
X5104900Y-50758000D01*
X1755900Y-50012001D02*
X1723300Y-49998950D01*
X10853400Y-50932400D02*
X11134450Y-51439350D01*
X10455400Y-50478800D02*
X10853400Y-50932400D01*
X8584200Y-53854250D02*
X8549500Y-53652700D01*
X2132700Y-49879100D02*
X2008950Y-49977550D01*
X10014850Y-50255600D02*
X10455400Y-50478800D01*
X9442200Y-50271050D02*
X9531700Y-50262900D01*
X2259100Y-49566300D02*
X2238200Y-49694350D01*
X2238200Y-49694350D02*
X2222500Y-49733401D01*
X1690450Y-49985700D02*
X1605050Y-49914300D01*
X2080600Y-49208750D02*
X2166300Y-49280150D01*
X4766950Y-50827400D02*
X5025450Y-50788350D01*
X9646249Y-50235000D02*
X10014850Y-50255600D01*
X4075750Y-50287350D02*
X4237400Y-50546650D01*
X2238450Y-49409500D02*
X2259100Y-49566300D01*
X8675350Y-50835250D02*
X8894000Y-50541250D01*
X1723300Y-49998950D02*
X1690450Y-49985700D01*
X1533200Y-49500400D02*
X1548850Y-49461300D01*
X8523450Y-51232400D02*
X8675350Y-50835250D01*
X8468650Y-53043950D02*
X8420100Y-52336750D01*
X4035900Y-50195050D02*
X4075750Y-50287350D01*
X3351700Y-50355150D02*
X3637600Y-50338900D01*
X3118200Y-50064850D02*
X3178400Y-50243950D01*
X1605050Y-49914300D02*
X1532600Y-49784950D01*
X3117350Y-50005200D02*
X3118200Y-50064850D01*
X2048050Y-49195750D02*
X2080600Y-49208750D01*
X1904000Y-49174300D02*
X2015200Y-49182450D01*
X1512000Y-49628100D02*
X1533200Y-49500400D01*
X2222500Y-49733401D02*
X2206700Y-49772500D01*
X2206700Y-49772500D02*
X2132700Y-49879100D01*
X2008950Y-49977550D02*
X1867050Y-50020150D01*
X9531700Y-50262900D02*
X9646249Y-50235000D01*
X8438550Y-51733200D02*
X8523450Y-51232400D01*
X8420100Y-52336750D02*
X8438550Y-51733200D01*
X8549500Y-53652700D02*
X8468650Y-53043950D01*
X7266350Y-51677850D02*
X7215699Y-51539250D01*
X7904450Y-51467100D02*
X7883800Y-51507750D01*
X7904450Y-51467100D02*
X7883800Y-51507750D01*
X7658650Y-50908250D02*
X7763850Y-50920500D01*
X7942700Y-51333050D02*
X7904450Y-51467100D01*
X7883800Y-51507750D02*
X7883800Y-51507750D01*
X7776950Y-51658050D02*
X7644550Y-51757550D01*
X7277500Y-51198800D02*
X7298100Y-51158100D01*
X7945400Y-51167100D02*
X7942700Y-51333050D01*
X7894650Y-51028400D02*
X7945400Y-51167100D01*
X7502400Y-51798000D02*
X7397150Y-51785850D01*
X7822749Y-50950550D02*
X7894650Y-51028400D01*
X7763850Y-50920500D02*
X7793450Y-50935700D01*
X7256950Y-51239250D02*
X7277500Y-51198800D01*
X7644550Y-51757550D02*
X7502400Y-51798000D01*
X7397150Y-51785850D02*
X7367850Y-51770900D01*
X7822749Y-50950550D02*
X7894650Y-51028400D01*
X7516800Y-50948650D02*
X7658650Y-50908250D01*
X7644550Y-51757550D02*
X7502400Y-51798000D01*
X7516800Y-50948650D02*
X7658650Y-50908250D01*
X7945400Y-51167100D02*
X7942700Y-51333050D01*
X7763850Y-50920500D02*
X7793450Y-50935700D01*
X7215699Y-51539250D02*
X7218399Y-51373200D01*
X7502400Y-51798000D02*
X7397150Y-51785850D01*
X7384149Y-51048250D02*
X7516800Y-50948650D01*
X7215699Y-51539250D02*
X7218399Y-51373200D01*
X7862900Y-51548200D02*
X7776950Y-51658050D01*
X2132700Y-49879100D02*
X2008950Y-49977550D01*
X7277500Y-51198800D02*
X7298100Y-51158100D01*
X7883800Y-51507750D02*
X7862900Y-51548200D01*
X7384149Y-51048250D02*
X7516800Y-50948650D01*
X1762150Y-49216950D02*
X1904000Y-49174300D01*
X2222500Y-49733401D02*
X2206700Y-49772500D01*
X7776950Y-51658050D02*
X7644550Y-51757550D01*
X1548850Y-49461300D02*
X1564650Y-49422000D01*
X1532600Y-49784950D02*
X1512000Y-49628100D01*
X1690450Y-49985700D02*
X1605050Y-49914300D01*
X7658650Y-50908250D02*
X7763850Y-50920500D01*
X7793450Y-50935700D02*
X7822749Y-50950550D01*
X7894650Y-51028400D02*
X7945400Y-51167100D01*
X7218399Y-51373200D02*
X7256950Y-51239250D01*
X7266350Y-51677850D02*
X7215699Y-51539250D01*
X7298100Y-51158100D02*
X7384149Y-51048250D01*
X1755900Y-50012001D02*
X1723300Y-49998950D01*
X7367850Y-51770900D02*
X7338250Y-51755700D01*
X2008950Y-49977550D02*
X1867050Y-50020150D01*
X1564650Y-49422000D02*
X1638400Y-49315350D01*
X7397150Y-51785850D02*
X7367850Y-51770900D01*
X7298100Y-51158100D02*
X7384149Y-51048250D01*
X7218399Y-51373200D02*
X7256950Y-51239250D01*
X7367850Y-51770900D02*
X7338250Y-51755700D01*
X7942700Y-51333050D02*
X7904450Y-51467100D01*
X7793450Y-50935700D02*
X7822749Y-50950550D01*
X1638400Y-49315350D02*
X1762150Y-49216950D01*
X1533200Y-49500400D02*
X1548850Y-49461300D01*
X2206700Y-49772500D02*
X2132700Y-49879100D01*
X7883800Y-51507750D02*
X7883800Y-51507750D01*
X7338250Y-51755700D02*
X7266350Y-51677850D01*
X7256950Y-51239250D02*
X7277500Y-51198800D01*
X1512000Y-49628100D02*
X1533200Y-49500400D01*
X7338250Y-51755700D02*
X7266350Y-51677850D01*
X1605050Y-49914300D02*
X1532600Y-49784950D01*
X1723300Y-49998950D02*
X1690450Y-49985700D01*
X1867050Y-50020150D02*
X1755900Y-50012001D01*
X11046500Y-58334450D02*
X10822699Y-58719151D01*
X-3067250Y-54635500D02*
X-1188950Y-52031300D01*
X12100400Y-55417300D02*
X12107400Y-55768550D01*
X9545900Y-60863000D02*
X9545900Y-60863000D01*
X9802200Y-58699600D02*
X9802200Y-58699600D01*
X9799200Y-58706100D02*
X9802200Y-58699600D01*
X9738750Y-59075250D02*
X9782400Y-58807850D01*
X9566700Y-60268350D02*
X9621000Y-59862000D01*
X9594450Y-60785900D02*
X9558600Y-60844250D01*
X12058050Y-56447300D02*
X12044199Y-56514800D01*
X9621000Y-59862000D02*
X9681500Y-59445550D01*
X10822699Y-58719151D02*
X10597550Y-59103000D01*
X9558600Y-60844250D02*
X9545900Y-60863000D01*
X11925950Y-56771450D02*
X11803850Y-57000150D01*
X10597550Y-59103000D02*
X10378400Y-59475150D01*
X9782400Y-58807850D02*
X9799200Y-58706100D01*
X2296250Y-55743350D02*
X3884800Y-53373550D01*
X9681500Y-59445550D02*
X9738750Y-59075250D01*
X11466150Y-57604800D02*
X11263250Y-57959300D01*
X12044199Y-56514800D02*
X12039350Y-56538400D01*
X7826600Y-57001750D02*
X9249350Y-54623550D01*
X9819550Y-60414600D02*
X9687950Y-60632650D01*
X11263250Y-57959300D02*
X11046500Y-58334450D01*
X9982900Y-60141650D02*
X9819550Y-60414600D01*
X-1605651Y-48371650D02*
X-2383150Y-49121950D01*
X2942400Y-45954100D02*
X2128300Y-46212650D01*
X-765550Y-47705400D02*
X-1605651Y-48371650D01*
X4926450Y-56550600D02*
X6697300Y-54154800D01*
X9687950Y-60632650D02*
X9594450Y-60785900D01*
X11919450Y-55510350D02*
X12019550Y-55361400D01*
X136650Y-47123550D02*
X-765550Y-47705400D01*
X9545900Y-60863000D02*
X9519000Y-60825250D01*
X-464200Y-55170400D02*
X1228550Y-52748550D01*
X1101300Y-46626050D02*
X136650Y-47123550D01*
X12046950Y-55327500D02*
X12046950Y-55327500D01*
X2128300Y-46212650D02*
X1101300Y-46626050D01*
X12046950Y-55327500D02*
X12100400Y-55417300D01*
X10186850Y-57956850D02*
X-6219400Y-54102700D01*
X12039350Y-56538400D02*
X12008400Y-56605950D01*
X12008400Y-56605950D02*
X11925950Y-56771450D01*
X10378400Y-59475150D02*
X10171350Y-59825050D01*
X12019550Y-55361400D02*
X12046950Y-55327500D01*
X10171350Y-59825050D02*
X9982900Y-60141650D01*
X11648450Y-57281401D02*
X11466150Y-57604800D01*
X9529550Y-60608250D02*
X9566700Y-60268350D01*
X9519000Y-60825250D02*
X9529550Y-60608250D01*
X11803850Y-57000150D02*
X11648450Y-57281401D01*
X11651450Y-55908000D02*
X11919450Y-55510350D01*
X12083300Y-56196100D02*
X12058050Y-56447300D01*
X12107400Y-55768550D02*
X12083300Y-56196100D01*
X3217950Y-45883800D02*
X2942400Y-45954100D01*
X-7354100Y-56618650D02*
X9487550Y-60909850D01*
X-7301750Y-55899000D02*
X-7343750Y-56438600D01*
X9487550Y-60909850D02*
X9778850Y-58751400D01*
X-5103700Y-55240400D02*
X-5947050Y-55050750D01*
X12010350Y-55308200D02*
X-3677100Y-51406850D01*
X-5947050Y-55050750D02*
X-6557950Y-54921100D01*
X592950Y-56580950D02*
X149699Y-56475751D01*
X-4027800Y-55489150D02*
X-5103700Y-55240400D01*
X3041350Y-57160700D02*
X2092250Y-56936400D01*
X6685350Y-58021450D02*
X5337700Y-57703250D01*
X763600Y-56621450D02*
X592950Y-56580950D01*
X-7239100Y-55363800D02*
X-7301750Y-55899000D01*
X5337700Y-57703250D02*
X4123250Y-57416500D01*
X-7343750Y-56438600D02*
X-7354100Y-56618650D01*
X-3677100Y-51406850D02*
X-3677100Y-51406850D01*
X9778850Y-58751400D02*
X9375450Y-58656200D01*
X9375450Y-58656200D02*
X8165700Y-58370850D01*
X2092250Y-56936400D02*
X1276300Y-56743000D01*
X-7111900Y-54871150D02*
X-7165850Y-55013050D01*
X4123250Y-57416500D02*
X3041350Y-57160700D01*
X11291700Y-56447000D02*
X11651450Y-55908000D01*
X149699Y-56475751D02*
X-1179550Y-56160550D01*
X10887850Y-57054350D02*
X11291700Y-56447000D01*
X10488800Y-57656601D02*
X10887850Y-57054350D01*
X10142600Y-58180400D02*
X10488800Y-57656601D01*
X9897399Y-58552300D02*
X10142600Y-58180400D01*
X-7062500Y-54829700D02*
X-7082300Y-54846500D01*
X-7082300Y-54846500D02*
X-7111900Y-54871150D01*
X9840450Y-58753051D02*
X12010350Y-55308200D01*
X-3677100Y-51406850D02*
X-7030200Y-54774100D01*
X-1179550Y-56160550D02*
X-2719751Y-55796250D01*
X8165700Y-58370850D02*
X6685350Y-58021450D01*
X9805199Y-58692850D02*
X9897399Y-58552300D01*
X9802200Y-58699600D02*
X9805199Y-58692850D01*
X-7082300Y-54846500D02*
X-7082300Y-54846500D01*
X-6936350Y-54852750D02*
X-7062500Y-54829700D01*
X-7030200Y-54774100D02*
X9840450Y-58753051D01*
X-6557950Y-54921100D02*
X-6936350Y-54852750D01*
X1276300Y-56743000D02*
X763600Y-56621450D01*
X-2719751Y-55796250D02*
X-4027800Y-55489150D01*
X-7165850Y-55013050D02*
X-7239100Y-55363800D01*
X3610250Y-45194600D02*
X3311300Y-45708901D01*
X4221150Y-44406800D02*
X3944700Y-44702200D01*
X12451100Y-48051800D02*
X11880950Y-48389300D01*
X13616250Y-49716600D02*
X13636300Y-49614300D01*
X4385000Y-44308600D02*
X4221150Y-44406800D01*
X4566700Y-44329250D02*
X4471500Y-44308600D01*
X11391300Y-48223000D02*
X10393800Y-47465900D01*
X13346049Y-50692350D02*
X13402500Y-50527150D01*
X7483650Y-46154600D02*
X6278750Y-45918550D01*
X13599700Y-47593100D02*
X13422000Y-47608050D01*
X14442499Y-54930050D02*
X14015800Y-53381400D01*
X8990550Y-46681951D02*
X7483650Y-46154600D01*
X14498650Y-55245000D02*
X14442499Y-54930050D01*
X11880950Y-48389300D02*
X11694300Y-48506750D01*
X13300999Y-50844800D02*
X13346049Y-50692350D01*
X14015800Y-53381400D02*
X13394849Y-51867700D01*
X13775450Y-48790200D02*
X13821850Y-48205900D01*
X13775450Y-47826650D02*
X13683750Y-47653351D01*
X-3750850Y-50875700D02*
X-3512650Y-50935150D01*
X13548100Y-50022551D02*
X13616250Y-49716600D01*
X13636300Y-49614300D02*
X13675900Y-49409250D01*
X13248400Y-51249500D02*
X13268450Y-51019250D01*
X7661350Y-53619300D02*
X10890250Y-54387750D01*
X-2796800Y-51110600D02*
X-1463301Y-51434800D01*
X5783950Y-45786750D02*
X5524300Y-45487750D01*
X13636300Y-47619451D02*
X13599700Y-47593100D01*
X-3512650Y-50935150D02*
X-2796800Y-51110600D01*
X4439799Y-44308600D02*
X4385000Y-44308600D01*
X4471500Y-44308600D02*
X4439799Y-44308600D01*
X6278750Y-45918550D02*
X5873450Y-45883800D01*
X13470000Y-50315250D02*
X13548100Y-50022551D01*
X4781600Y-44505250D02*
X4675250Y-44393750D01*
X4903100Y-44667200D02*
X4781600Y-44505250D01*
X-1463301Y-51434800D02*
X248999Y-51847650D01*
X13596450Y-55030700D02*
X14498650Y-55245000D01*
X2340750Y-52349500D02*
X4811450Y-52940050D01*
X5056100Y-44882850D02*
X4903100Y-44667200D01*
X5257700Y-45155200D02*
X5056100Y-44882850D01*
X13027000Y-47752351D02*
X12451100Y-48051800D01*
X13821850Y-48205900D02*
X13775450Y-47826650D01*
X13268450Y-51019250D02*
X13300999Y-50844800D01*
X13241600Y-51489850D02*
X13248400Y-51249500D01*
X13402500Y-50527150D02*
X13470000Y-50315250D01*
X5524300Y-45487750D02*
X5257700Y-45155200D01*
X13394849Y-51867700D02*
X13241600Y-51570150D01*
X5873450Y-45883800D02*
X5783950Y-45786750D01*
X10393800Y-47465900D02*
X8990550Y-46681951D01*
X-3598150Y-50639150D02*
X-3750850Y-50875700D01*
X4811450Y-52940050D02*
X7661350Y-53619300D01*
X11694300Y-48506750D02*
X11391300Y-48223000D01*
X13683750Y-47653351D02*
X13636300Y-47619451D01*
X13675900Y-49409250D02*
X13775450Y-48790200D01*
X-3098200Y-49956650D02*
X-3598150Y-50639150D01*
X3944700Y-44702200D02*
X3610250Y-45194600D01*
X7862900Y-51548200D02*
X7776950Y-51658050D01*
X-2383150Y-49121950D02*
X-3098200Y-49956650D01*
X4675250Y-44393750D02*
X4566700Y-44329250D01*
X13241600Y-51570150D02*
X13241600Y-51489850D01*
X13422000Y-47608050D02*
X13027000Y-47752351D01*
X248999Y-51847650D02*
X2340750Y-52349500D01*
X7883800Y-51507750D02*
X7862900Y-51548200D01*
X3217950Y-45883800D02*
X3217950Y-45883800D01*
X3311300Y-45708901D02*
X3217950Y-45883800D01*
X10890250Y-54387750D02*
X13596450Y-55030700D01*
D10*
X327055476Y-82615773D02*
X326817976Y-80715773D01*
X326908452Y-81439583D02*
X326716190Y-81349107D01*
X326354285Y-81349107D01*
X326184642Y-81439583D01*
X326105476Y-81530059D01*
X326037619Y-81711011D01*
X326105476Y-82253869D01*
X326218571Y-82434821D01*
X326320357Y-82525297D01*
X326512619Y-82615773D01*
X326874523Y-82615773D01*
X327044166Y-82525297D01*
X325359047Y-81349107D02*
X325065000Y-82615773D01*
X324454285Y-81349107D02*
X325065000Y-82615773D01*
X325302500Y-83068154D01*
X325404285Y-83158630D01*
X325596547Y-83249107D01*
X321615595Y-82525297D02*
X321807857Y-82615773D01*
X322169761Y-82615773D01*
X322339404Y-82525297D01*
X322418571Y-82434821D01*
X322486428Y-82253869D01*
X322418571Y-81711011D01*
X322305476Y-81530059D01*
X322203690Y-81439583D01*
X322011428Y-81349107D01*
X321649523Y-81349107D01*
X321479880Y-81439583D01*
X320835238Y-81349107D02*
X319840000Y-81349107D01*
X320993571Y-82615773D01*
X319998333Y-82615773D01*
X319387619Y-81349107D02*
X318663809Y-81349107D01*
X319037023Y-80715773D02*
X319240595Y-82344345D01*
X319172738Y-82525297D01*
X319003095Y-82615773D01*
X318822142Y-82615773D01*
X318188809Y-82615773D02*
X318030476Y-81349107D01*
X318075714Y-81711011D02*
X317962619Y-81530059D01*
X317860833Y-81439583D01*
X317668571Y-81349107D01*
X317487619Y-81349107D01*
X316741190Y-82615773D02*
X316910833Y-82525297D01*
X316990000Y-82434821D01*
X317057857Y-82253869D01*
X316990000Y-81711011D01*
X316876904Y-81530059D01*
X316775119Y-81439583D01*
X316582857Y-81349107D01*
X316311428Y-81349107D01*
X316141785Y-81439583D01*
X316062619Y-81530059D01*
X315994761Y-81711011D01*
X316062619Y-82253869D01*
X316175714Y-82434821D01*
X316277500Y-82525297D01*
X316469761Y-82615773D01*
X316741190Y-82615773D01*
X315022142Y-82615773D02*
X315191785Y-82525297D01*
X315259642Y-82344345D01*
X315056071Y-80715773D01*
X314026904Y-82615773D02*
X314196547Y-82525297D01*
X314264404Y-82344345D01*
X314060833Y-80715773D01*
X313031666Y-82615773D02*
X313201309Y-82525297D01*
X313280476Y-82434821D01*
X313348333Y-82253869D01*
X313280476Y-81711011D01*
X313167380Y-81530059D01*
X313065595Y-81439583D01*
X312873333Y-81349107D01*
X312601904Y-81349107D01*
X312432261Y-81439583D01*
X312353095Y-81530059D01*
X312285238Y-81711011D01*
X312353095Y-82253869D01*
X312466190Y-82434821D01*
X312567976Y-82525297D01*
X312760238Y-82615773D01*
X313031666Y-82615773D01*
X311312619Y-82615773D02*
X311482261Y-82525297D01*
X311550119Y-82344345D01*
X311346547Y-80715773D01*
X309763214Y-82525297D02*
X309955476Y-82615773D01*
X310317380Y-82615773D01*
X310487023Y-82525297D01*
X310566190Y-82434821D01*
X310634047Y-82253869D01*
X310566190Y-81711011D01*
X310453095Y-81530059D01*
X310351309Y-81439583D01*
X310159047Y-81349107D01*
X309797142Y-81349107D01*
X309627500Y-81439583D01*
X308982857Y-81349107D02*
X307987619Y-81349107D01*
X309141190Y-82615773D01*
X308145952Y-82615773D01*
X322142857Y-75067857D02*
X322261904Y-75186904D01*
X322619047Y-75305952D01*
X322857142Y-75305952D01*
X323214285Y-75186904D01*
X323452380Y-74948809D01*
X323571428Y-74710714D01*
X323690476Y-74234523D01*
X323690476Y-73877380D01*
X323571428Y-73401190D01*
X323452380Y-73163095D01*
X323214285Y-72925000D01*
X322857142Y-72805952D01*
X322619047Y-72805952D01*
X322261904Y-72925000D01*
X322142857Y-73044047D01*
X321309523Y-72805952D02*
X319642857Y-72805952D01*
X321309523Y-75305952D01*
X319642857Y-75305952D01*
X319047619Y-72805952D02*
X317619047Y-72805952D01*
X318333333Y-75305952D02*
X318333333Y-72805952D01*
X316785714Y-75305952D02*
X316785714Y-72805952D01*
X315357142Y-75305952D02*
X316428571Y-73877380D01*
X315357142Y-72805952D02*
X316785714Y-74234523D01*
X313333333Y-75186904D02*
X313571428Y-75305952D01*
X314047619Y-75305952D01*
X314285714Y-75186904D01*
X314404761Y-74948809D01*
X314404761Y-73996428D01*
X314285714Y-73758333D01*
X314047619Y-73639285D01*
X313571428Y-73639285D01*
X313333333Y-73758333D01*
X313214285Y-73996428D01*
X313214285Y-74234523D01*
X314404761Y-74472619D01*
X312380952Y-73639285D02*
X311785714Y-75305952D01*
X311190476Y-73639285D02*
X311785714Y-75305952D01*
X312023809Y-75901190D01*
X312142857Y-76020238D01*
X312380952Y-76139285D01*
X321488095Y-79355952D02*
X322321428Y-78165476D01*
X322916666Y-79355952D02*
X322916666Y-76855952D01*
X321964285Y-76855952D01*
X321726190Y-76975000D01*
X321607142Y-77094047D01*
X321488095Y-77332142D01*
X321488095Y-77689285D01*
X321607142Y-77927380D01*
X321726190Y-78046428D01*
X321964285Y-78165476D01*
X322916666Y-78165476D01*
X319464285Y-79236904D02*
X319702380Y-79355952D01*
X320178571Y-79355952D01*
X320416666Y-79236904D01*
X320535714Y-78998809D01*
X320535714Y-78046428D01*
X320416666Y-77808333D01*
X320178571Y-77689285D01*
X319702380Y-77689285D01*
X319464285Y-77808333D01*
X319345238Y-78046428D01*
X319345238Y-78284523D01*
X320535714Y-78522619D01*
X318511904Y-77689285D02*
X317916666Y-79355952D01*
X317321428Y-77689285D01*
X316369047Y-79117857D02*
X316250000Y-79236904D01*
X316369047Y-79355952D01*
X316488095Y-79236904D01*
X316369047Y-79117857D01*
X316369047Y-79355952D01*
X312797619Y-76855952D02*
X312559523Y-76855952D01*
X312321428Y-76975000D01*
X312202380Y-77094047D01*
X312083333Y-77332142D01*
X311964285Y-77808333D01*
X311964285Y-78403571D01*
X312083333Y-78879761D01*
X312202380Y-79117857D01*
X312321428Y-79236904D01*
X312559523Y-79355952D01*
X312797619Y-79355952D01*
X313035714Y-79236904D01*
X313154761Y-79117857D01*
X313273809Y-78879761D01*
X313392857Y-78403571D01*
X313392857Y-77808333D01*
X313273809Y-77332142D01*
X313154761Y-77094047D01*
X313035714Y-76975000D01*
X312797619Y-76855952D01*
D12*
X332632380Y-49972619D02*
X333441904Y-49972619D01*
X333537142Y-50020238D01*
X333584761Y-50067857D01*
X333632380Y-50163095D01*
X333632380Y-50353571D01*
X333584761Y-50448809D01*
X333537142Y-50496428D01*
X333441904Y-50544047D01*
X332632380Y-50544047D01*
X333584761Y-50972619D02*
X333632380Y-51115476D01*
X333632380Y-51353571D01*
X333584761Y-51448809D01*
X333537142Y-51496428D01*
X333441904Y-51544047D01*
X333346666Y-51544047D01*
X333251428Y-51496428D01*
X333203809Y-51448809D01*
X333156190Y-51353571D01*
X333108571Y-51163095D01*
X333060952Y-51067857D01*
X333013333Y-51020238D01*
X332918095Y-50972619D01*
X332822857Y-50972619D01*
X332727619Y-51020238D01*
X332680000Y-51067857D01*
X332632380Y-51163095D01*
X332632380Y-51401190D01*
X332680000Y-51544047D01*
X333108571Y-52305952D02*
X333156190Y-52448809D01*
X333203809Y-52496428D01*
X333299047Y-52544047D01*
X333441904Y-52544047D01*
X333537142Y-52496428D01*
X333584761Y-52448809D01*
X333632380Y-52353571D01*
X333632380Y-51972619D01*
X332632380Y-51972619D01*
X332632380Y-52305952D01*
X332680000Y-52401190D01*
X332727619Y-52448809D01*
X332822857Y-52496428D01*
X332918095Y-52496428D01*
X333013333Y-52448809D01*
X333060952Y-52401190D01*
X333108571Y-52305952D01*
X333108571Y-51972619D01*
X332965714Y-53591666D02*
X332965714Y-53972619D01*
X333632380Y-53734523D02*
X332775238Y-53734523D01*
X332680000Y-53782142D01*
X332632380Y-53877380D01*
X332632380Y-53972619D01*
X333632380Y-54734523D02*
X333108571Y-54734523D01*
X333013333Y-54686904D01*
X332965714Y-54591666D01*
X332965714Y-54401190D01*
X333013333Y-54305952D01*
X333584761Y-54734523D02*
X333632380Y-54639285D01*
X333632380Y-54401190D01*
X333584761Y-54305952D01*
X333489523Y-54258333D01*
X333394285Y-54258333D01*
X333299047Y-54305952D01*
X333251428Y-54401190D01*
X333251428Y-54639285D01*
X333203809Y-54734523D01*
X333584761Y-55639285D02*
X333632380Y-55544047D01*
X333632380Y-55353571D01*
X333584761Y-55258333D01*
X333537142Y-55210714D01*
X333441904Y-55163095D01*
X333156190Y-55163095D01*
X333060952Y-55210714D01*
X333013333Y-55258333D01*
X332965714Y-55353571D01*
X332965714Y-55544047D01*
X333013333Y-55639285D01*
X333632380Y-56067857D02*
X332965714Y-56067857D01*
X332632380Y-56067857D02*
X332680000Y-56020238D01*
X332727619Y-56067857D01*
X332680000Y-56115476D01*
X332632380Y-56067857D01*
X332727619Y-56067857D01*
X332965714Y-56544047D02*
X333632380Y-56544047D01*
X333060952Y-56544047D02*
X333013333Y-56591666D01*
X332965714Y-56686904D01*
X332965714Y-56829761D01*
X333013333Y-56925000D01*
X333108571Y-56972619D01*
X333632380Y-56972619D01*
X332965714Y-57877380D02*
X333775238Y-57877380D01*
X333870476Y-57829761D01*
X333918095Y-57782142D01*
X333965714Y-57686904D01*
X333965714Y-57544047D01*
X333918095Y-57448809D01*
X333584761Y-57877380D02*
X333632380Y-57782142D01*
X333632380Y-57591666D01*
X333584761Y-57496428D01*
X333537142Y-57448809D01*
X333441904Y-57401190D01*
X333156190Y-57401190D01*
X333060952Y-57448809D01*
X333013333Y-57496428D01*
X332965714Y-57591666D01*
X332965714Y-57782142D01*
X333013333Y-57877380D01*
X331465714Y-51139285D02*
X331465714Y-51520238D01*
X331132380Y-51282142D02*
X331989523Y-51282142D01*
X332084761Y-51329761D01*
X332132380Y-51425000D01*
X332132380Y-51520238D01*
X332132380Y-51996428D02*
X332084761Y-51901190D01*
X332037142Y-51853571D01*
X331941904Y-51805952D01*
X331656190Y-51805952D01*
X331560952Y-51853571D01*
X331513333Y-51901190D01*
X331465714Y-51996428D01*
X331465714Y-52139285D01*
X331513333Y-52234523D01*
X331560952Y-52282142D01*
X331656190Y-52329761D01*
X331941904Y-52329761D01*
X332037142Y-52282142D01*
X332084761Y-52234523D01*
X332132380Y-52139285D01*
X332132380Y-51996428D01*
X331465714Y-52663095D02*
X332132380Y-52853571D01*
X331656190Y-53044047D01*
X332132380Y-53234523D01*
X331465714Y-53425000D01*
X332132380Y-54234523D02*
X331608571Y-54234523D01*
X331513333Y-54186904D01*
X331465714Y-54091666D01*
X331465714Y-53901190D01*
X331513333Y-53805952D01*
X332084761Y-54234523D02*
X332132380Y-54139285D01*
X332132380Y-53901190D01*
X332084761Y-53805952D01*
X331989523Y-53758333D01*
X331894285Y-53758333D01*
X331799047Y-53805952D01*
X331751428Y-53901190D01*
X331751428Y-54139285D01*
X331703809Y-54234523D01*
X332132380Y-54710714D02*
X331465714Y-54710714D01*
X331656190Y-54710714D02*
X331560952Y-54758333D01*
X331513333Y-54805952D01*
X331465714Y-54901190D01*
X331465714Y-54996428D01*
X332132380Y-55758333D02*
X331132380Y-55758333D01*
X332084761Y-55758333D02*
X332132380Y-55663095D01*
X332132380Y-55472619D01*
X332084761Y-55377380D01*
X332037142Y-55329761D01*
X331941904Y-55282142D01*
X331656190Y-55282142D01*
X331560952Y-55329761D01*
X331513333Y-55377380D01*
X331465714Y-55472619D01*
X331465714Y-55663095D01*
X331513333Y-55758333D01*
X332084761Y-56186904D02*
X332132380Y-56282142D01*
X332132380Y-56472619D01*
X332084761Y-56567857D01*
X331989523Y-56615476D01*
X331941904Y-56615476D01*
X331846666Y-56567857D01*
X331799047Y-56472619D01*
X331799047Y-56329761D01*
X331751428Y-56234523D01*
X331656190Y-56186904D01*
X331608571Y-56186904D01*
X331513333Y-56234523D01*
X331465714Y-56329761D01*
X331465714Y-56472619D01*
X331513333Y-56567857D01*
X329965714Y-50972619D02*
X329965714Y-51353571D01*
X329632380Y-51115476D02*
X330489523Y-51115476D01*
X330584761Y-51163095D01*
X330632380Y-51258333D01*
X330632380Y-51353571D01*
X330632380Y-51686904D02*
X329632380Y-51686904D01*
X330632380Y-52115476D02*
X330108571Y-52115476D01*
X330013333Y-52067857D01*
X329965714Y-51972619D01*
X329965714Y-51829761D01*
X330013333Y-51734523D01*
X330060952Y-51686904D01*
X330584761Y-52972619D02*
X330632380Y-52877380D01*
X330632380Y-52686904D01*
X330584761Y-52591666D01*
X330489523Y-52544047D01*
X330108571Y-52544047D01*
X330013333Y-52591666D01*
X329965714Y-52686904D01*
X329965714Y-52877380D01*
X330013333Y-52972619D01*
X330108571Y-53020238D01*
X330203809Y-53020238D01*
X330299047Y-52544047D01*
X330632380Y-54210714D02*
X329632380Y-54210714D01*
X329632380Y-54591666D01*
X329680000Y-54686904D01*
X329727619Y-54734523D01*
X329822857Y-54782142D01*
X329965714Y-54782142D01*
X330060952Y-54734523D01*
X330108571Y-54686904D01*
X330156190Y-54591666D01*
X330156190Y-54210714D01*
X330537142Y-55782142D02*
X330584761Y-55734523D01*
X330632380Y-55591666D01*
X330632380Y-55496428D01*
X330584761Y-55353571D01*
X330489523Y-55258333D01*
X330394285Y-55210714D01*
X330203809Y-55163095D01*
X330060952Y-55163095D01*
X329870476Y-55210714D01*
X329775238Y-55258333D01*
X329680000Y-55353571D01*
X329632380Y-55496428D01*
X329632380Y-55591666D01*
X329680000Y-55734523D01*
X329727619Y-55782142D01*
X330108571Y-56544047D02*
X330156190Y-56686904D01*
X330203809Y-56734523D01*
X330299047Y-56782142D01*
X330441904Y-56782142D01*
X330537142Y-56734523D01*
X330584761Y-56686904D01*
X330632380Y-56591666D01*
X330632380Y-56210714D01*
X329632380Y-56210714D01*
X329632380Y-56544047D01*
X329680000Y-56639285D01*
X329727619Y-56686904D01*
X329822857Y-56734523D01*
X329918095Y-56734523D01*
X330013333Y-56686904D01*
X330060952Y-56639285D01*
X330108571Y-56544047D01*
X330108571Y-56210714D01*
M02*
