G04 #@! TF.GenerationSoftware,KiCad,Pcbnew,(5.1.4)-1*
G04 #@! TF.CreationDate,2020-11-29T00:19:47+01:00*
G04 #@! TF.ProjectId,CZTKeyRev0,435a544b-6579-4526-9576-302e6b696361,rev?*
G04 #@! TF.SameCoordinates,Original*
G04 #@! TF.FileFunction,Copper,L2,Bot*
G04 #@! TF.FilePolarity,Positive*
%FSLAX46Y46*%
G04 Gerber Fmt 4.6, Leading zero omitted, Abs format (unit mm)*
G04 Created by KiCad (PCBNEW (5.1.4)-1) date 2020-11-29 00:19:47*
%MOMM*%
%LPD*%
G04 APERTURE LIST*
%ADD10C,4.400000*%
%ADD11O,1.600000X1.600000*%
%ADD12R,1.600000X1.600000*%
%ADD13C,2.250000*%
%ADD14C,2.250000*%
%ADD15O,1.600000X2.000000*%
%ADD16R,2.000000X2.000000*%
%ADD17C,2.000000*%
%ADD18R,2.000000X3.200000*%
%ADD19C,1.700000*%
%ADD20C,2.200000*%
%ADD21C,0.800000*%
%ADD22C,0.254000*%
%ADD23C,0.381000*%
G04 APERTURE END LIST*
D10*
X-3968700Y-40481200D03*
X165894000Y-40481200D03*
X-3968700Y-66675000D03*
X165894000Y-66675000D03*
X330994000Y-66675000D03*
X330994000Y-40481200D03*
X311150000Y-96837500D03*
X15081200Y-96837500D03*
X165894000Y-91281200D03*
X165894000Y-180975000D03*
X311150000Y-180975000D03*
X13493800Y-180975000D03*
D11*
X233362000Y-55880000D03*
D12*
X233362000Y-50800000D03*
D11*
X191294000Y-51117500D03*
D12*
X191294000Y-46037500D03*
D13*
X4087500Y-184975000D03*
X4742499Y-184245000D03*
D14*
X5397500Y-183515000D02*
X4087498Y-184975000D01*
D13*
X-952500Y-186055000D03*
X-932500Y-185765000D03*
D14*
X-912500Y-185475000D02*
X-952500Y-186055000D01*
D13*
X4087500Y-165925000D03*
X4742499Y-165195000D03*
D14*
X5397500Y-164465000D02*
X4087498Y-165925000D01*
D13*
X-952500Y-167005000D03*
X-932500Y-166715000D03*
D14*
X-912500Y-166425000D02*
X-952500Y-167005000D01*
D13*
X4087500Y-146875000D03*
X4742499Y-146145000D03*
D14*
X5397500Y-145415000D02*
X4087498Y-146875000D01*
D13*
X-952500Y-147955000D03*
X-932500Y-147665000D03*
D14*
X-912500Y-147375000D02*
X-952500Y-147955000D01*
D13*
X4087500Y-127825000D03*
X4742499Y-127095000D03*
D14*
X5397500Y-126365000D02*
X4087498Y-127825000D01*
D13*
X-952500Y-128905000D03*
X-932500Y-128615000D03*
D14*
X-912500Y-128325000D02*
X-952500Y-128905000D01*
D13*
X4087500Y-108775000D03*
X4742499Y-108045000D03*
D14*
X5397500Y-107315000D02*
X4087498Y-108775000D01*
D13*
X-952500Y-109855000D03*
X-932500Y-109565000D03*
D14*
X-912500Y-109275000D02*
X-952500Y-109855000D01*
D11*
X65881200Y-60642500D03*
D12*
X65881200Y-55562500D03*
D11*
X62706200Y-60642500D03*
D12*
X62706200Y-55562500D03*
D11*
X59531200Y-60642500D03*
D12*
X59531200Y-55562500D03*
D11*
X56356200Y-60642500D03*
D12*
X56356200Y-55562500D03*
D11*
X53181200Y-60642500D03*
D12*
X53181200Y-55562500D03*
D11*
X225425000Y-60642500D03*
D12*
X225425000Y-55562500D03*
D15*
X28288800Y-42581200D03*
X25748800Y-42581200D03*
X30828800Y-42581200D03*
X33368800Y-42581200D03*
D16*
X-889000Y-88646000D03*
D17*
X1611000Y-88646000D03*
X4111000Y-88646000D03*
D18*
X-3989000Y-81146000D03*
X7211000Y-81146000D03*
D17*
X-889000Y-74146000D03*
X4111000Y-74146000D03*
D13*
X54093800Y-184975000D03*
X54748799Y-184245000D03*
D14*
X55403800Y-183515000D02*
X54093798Y-184975000D01*
D13*
X49053800Y-186055000D03*
X49073800Y-185765000D03*
D14*
X49093800Y-185475000D02*
X49053800Y-186055000D01*
D13*
X268406000Y-165925000D03*
X269060999Y-165195000D03*
D14*
X269716000Y-164465000D02*
X268405998Y-165925000D01*
D13*
X263366000Y-167005000D03*
X263386000Y-166715000D03*
D14*
X263406000Y-166425000D02*
X263366000Y-167005000D01*
D13*
X39806200Y-165925000D03*
X40461199Y-165195000D03*
D14*
X41116200Y-164465000D02*
X39806198Y-165925000D01*
D13*
X34766200Y-167005000D03*
X34786200Y-166715000D03*
D14*
X34806200Y-166425000D02*
X34766200Y-167005000D01*
D13*
X35043800Y-146875000D03*
X35698799Y-146145000D03*
D14*
X36353800Y-145415000D02*
X35043798Y-146875000D01*
D13*
X30003800Y-147955000D03*
X30023800Y-147665000D03*
D14*
X30043800Y-147375000D02*
X30003800Y-147955000D01*
D13*
X204112000Y-165925000D03*
X204766999Y-165195000D03*
D14*
X205422000Y-164465000D02*
X204111998Y-165925000D01*
D13*
X199072000Y-167005000D03*
X199092000Y-166715000D03*
D14*
X199112000Y-166425000D02*
X199072000Y-167005000D01*
D19*
X330450000Y-61590000D03*
X327910000Y-46375000D03*
D20*
X333274800Y-60980000D03*
X333274800Y-46984600D03*
D19*
X330450000Y-46375000D03*
X325370000Y-48915000D03*
X325370000Y-46375000D03*
X322830000Y-46375000D03*
X320290000Y-46375000D03*
X317750000Y-46375000D03*
X325370000Y-51455000D03*
X325370000Y-53995000D03*
X315210000Y-46375000D03*
X312670000Y-46375000D03*
X310130000Y-46375000D03*
X307590000Y-46375000D03*
X305050000Y-46375000D03*
X302510000Y-46375000D03*
X294890000Y-46375000D03*
X289810000Y-46375000D03*
X287270000Y-46375000D03*
X292350000Y-46375000D03*
X284730000Y-46375000D03*
X297430000Y-46375000D03*
X327910000Y-61590000D03*
X325370000Y-61590000D03*
X320290000Y-61590000D03*
X325370000Y-59050000D03*
X322830000Y-61590000D03*
X317750000Y-61590000D03*
X315210000Y-61590000D03*
X312670000Y-61590000D03*
X307590000Y-61590000D03*
X305050000Y-61590000D03*
X310130000Y-61590000D03*
X302510000Y-61590000D03*
X294890000Y-61590000D03*
X297430000Y-61590000D03*
X289810000Y-61590000D03*
X292350000Y-61590000D03*
X287270000Y-61590000D03*
X284730000Y-61590000D03*
D13*
X70762500Y-165925000D03*
X71417499Y-165195000D03*
D14*
X72072500Y-164465000D02*
X70762498Y-165925000D01*
D13*
X65722500Y-167005000D03*
X65742500Y-166715000D03*
D14*
X65762500Y-166425000D02*
X65722500Y-167005000D01*
D13*
X151725000Y-127825000D03*
X152379999Y-127095000D03*
D14*
X153035000Y-126365000D02*
X151724998Y-127825000D01*
D13*
X146685000Y-128905000D03*
X146705000Y-128615000D03*
D14*
X146725000Y-128325000D02*
X146685000Y-128905000D01*
D13*
X89812500Y-165925000D03*
X90467499Y-165195000D03*
D14*
X91122500Y-164465000D02*
X89812498Y-165925000D01*
D13*
X84772500Y-167005000D03*
X84792500Y-166715000D03*
D14*
X84812500Y-166425000D02*
X84772500Y-167005000D01*
D13*
X75525000Y-127825000D03*
X76179999Y-127095000D03*
D14*
X76835000Y-126365000D02*
X75524998Y-127825000D01*
D13*
X70485000Y-128905000D03*
X70505000Y-128615000D03*
D14*
X70525000Y-128325000D02*
X70485000Y-128905000D01*
D13*
X127912000Y-165925000D03*
X128566999Y-165195000D03*
D14*
X129222000Y-164465000D02*
X127911998Y-165925000D01*
D13*
X122872000Y-167005000D03*
X122892000Y-166715000D03*
D14*
X122912000Y-166425000D02*
X122872000Y-167005000D01*
D13*
X304125000Y-170688000D03*
X304779999Y-169958000D03*
D14*
X305435000Y-169228000D02*
X304124998Y-170688000D01*
D13*
X299085000Y-171768000D03*
X299105000Y-171478000D03*
D14*
X299125000Y-171188000D02*
X299085000Y-171768000D01*
D13*
X170775000Y-127825000D03*
X171429999Y-127095000D03*
D14*
X172085000Y-126365000D02*
X170774998Y-127825000D01*
D13*
X165735000Y-128905000D03*
X165755000Y-128615000D03*
D14*
X165775000Y-128325000D02*
X165735000Y-128905000D01*
D13*
X27900000Y-108775000D03*
X28554999Y-108045000D03*
D14*
X29210000Y-107315000D02*
X27899998Y-108775000D01*
D13*
X22860000Y-109855000D03*
X22880000Y-109565000D03*
D14*
X22900000Y-109275000D02*
X22860000Y-109855000D01*
D13*
X32662500Y-127825000D03*
X33317499Y-127095000D03*
D14*
X33972500Y-126365000D02*
X32662498Y-127825000D01*
D13*
X27622500Y-128905000D03*
X27642500Y-128615000D03*
D14*
X27662500Y-128325000D02*
X27622500Y-128905000D01*
D13*
X132675000Y-127825000D03*
X133329999Y-127095000D03*
D14*
X133985000Y-126365000D02*
X132674998Y-127825000D01*
D13*
X127635000Y-128905000D03*
X127655000Y-128615000D03*
D14*
X127675000Y-128325000D02*
X127635000Y-128905000D01*
D13*
X149344000Y-184975000D03*
X149998999Y-184245000D03*
D14*
X150654000Y-183515000D02*
X149343998Y-184975000D01*
D13*
X144304000Y-186055000D03*
X144324000Y-185765000D03*
D14*
X144344000Y-185475000D02*
X144304000Y-186055000D01*
D13*
X242212000Y-165925000D03*
X242866999Y-165195000D03*
D14*
X243522000Y-164465000D02*
X242211998Y-165925000D01*
D13*
X237172000Y-167005000D03*
X237192000Y-166715000D03*
D14*
X237212000Y-166425000D02*
X237172000Y-167005000D01*
D13*
X232688000Y-146875000D03*
X233342999Y-146145000D03*
D14*
X233998000Y-145415000D02*
X232687998Y-146875000D01*
D13*
X227648000Y-147955000D03*
X227668000Y-147665000D03*
D14*
X227688000Y-147375000D02*
X227648000Y-147955000D01*
D13*
X80287500Y-146875000D03*
X80942499Y-146145000D03*
D14*
X81597500Y-145415000D02*
X80287498Y-146875000D01*
D13*
X75247500Y-147955000D03*
X75267500Y-147665000D03*
D14*
X75287500Y-147375000D02*
X75247500Y-147955000D01*
D13*
X323175000Y-189738000D03*
X323829999Y-189008000D03*
D14*
X324485000Y-188278000D02*
X323174998Y-189738000D01*
D13*
X318135000Y-190818000D03*
X318155000Y-190528000D03*
D14*
X318175000Y-190238000D02*
X318135000Y-190818000D01*
D13*
X113625000Y-127825000D03*
X114279999Y-127095000D03*
D14*
X114935000Y-126365000D02*
X113624998Y-127825000D01*
D13*
X108585000Y-128905000D03*
X108605000Y-128615000D03*
D14*
X108625000Y-128325000D02*
X108585000Y-128905000D01*
D13*
X251738000Y-146875000D03*
X252392999Y-146145000D03*
D14*
X253048000Y-145415000D02*
X251737998Y-146875000D01*
D13*
X246698000Y-147955000D03*
X246718000Y-147665000D03*
D14*
X246738000Y-147375000D02*
X246698000Y-147955000D01*
D13*
X56475000Y-127825000D03*
X57129999Y-127095000D03*
D14*
X57785000Y-126365000D02*
X56474998Y-127825000D01*
D13*
X51435000Y-128905000D03*
X51455000Y-128615000D03*
D14*
X51475000Y-128325000D02*
X51435000Y-128905000D01*
D13*
X294600000Y-84962500D03*
X295254999Y-84232500D03*
D14*
X295910000Y-83502500D02*
X294599998Y-84962500D01*
D13*
X289560000Y-86042500D03*
X289580000Y-85752500D03*
D14*
X289600000Y-85462500D02*
X289560000Y-86042500D01*
D13*
X327938000Y-146875000D03*
X328592999Y-146145000D03*
D14*
X329248000Y-145415000D02*
X327937998Y-146875000D01*
D13*
X322898000Y-147955000D03*
X322918000Y-147665000D03*
D14*
X322938000Y-147375000D02*
X322898000Y-147955000D01*
D13*
X327938000Y-165925000D03*
X328592999Y-165195000D03*
D14*
X329248000Y-164465000D02*
X327937998Y-165925000D01*
D13*
X322898000Y-167005000D03*
X322918000Y-166715000D03*
D14*
X322938000Y-166425000D02*
X322898000Y-167005000D01*
D13*
X227925000Y-127825000D03*
X228579999Y-127095000D03*
D14*
X229235000Y-126365000D02*
X227924998Y-127825000D01*
D13*
X222885000Y-128905000D03*
X222905000Y-128615000D03*
D14*
X222925000Y-128325000D02*
X222885000Y-128905000D01*
D13*
X208875000Y-127825000D03*
X209529999Y-127095000D03*
D14*
X210185000Y-126365000D02*
X208874998Y-127825000D01*
D13*
X203835000Y-128905000D03*
X203855000Y-128615000D03*
D14*
X203875000Y-128325000D02*
X203835000Y-128905000D01*
D13*
X166012000Y-165925000D03*
X166666999Y-165195000D03*
D14*
X167322000Y-164465000D02*
X166011998Y-165925000D01*
D13*
X160972000Y-167005000D03*
X160992000Y-166715000D03*
D14*
X161012000Y-166425000D02*
X160972000Y-167005000D01*
D13*
X237450000Y-108775000D03*
X238104999Y-108045000D03*
D14*
X238760000Y-107315000D02*
X237449998Y-108775000D01*
D13*
X232410000Y-109855000D03*
X232430000Y-109565000D03*
D14*
X232450000Y-109275000D02*
X232410000Y-109855000D01*
D13*
X185062000Y-165925000D03*
X185716999Y-165195000D03*
D14*
X186372000Y-164465000D02*
X185061998Y-165925000D01*
D13*
X180022000Y-167005000D03*
X180042000Y-166715000D03*
D14*
X180062000Y-166425000D02*
X180022000Y-167005000D01*
D13*
X285075000Y-189738000D03*
X285729999Y-189008000D03*
D14*
X286385000Y-188278000D02*
X285074998Y-189738000D01*
D13*
X280035000Y-190818000D03*
X280055000Y-190528000D03*
D14*
X280075000Y-190238000D02*
X280035000Y-190818000D01*
D13*
X213638000Y-146875000D03*
X214292999Y-146145000D03*
D14*
X214948000Y-145415000D02*
X213637998Y-146875000D01*
D13*
X208598000Y-147955000D03*
X208618000Y-147665000D03*
D14*
X208638000Y-147375000D02*
X208598000Y-147955000D01*
D13*
X194588000Y-146875000D03*
X195242999Y-146145000D03*
D14*
X195898000Y-145415000D02*
X194587998Y-146875000D01*
D13*
X189548000Y-147955000D03*
X189568000Y-147665000D03*
D14*
X189588000Y-147375000D02*
X189548000Y-147955000D01*
D13*
X175538000Y-146875000D03*
X176192999Y-146145000D03*
D14*
X176848000Y-145415000D02*
X175537998Y-146875000D01*
D13*
X170498000Y-147955000D03*
X170518000Y-147665000D03*
D14*
X170538000Y-147375000D02*
X170498000Y-147955000D01*
D13*
X327938000Y-108775000D03*
X328592999Y-108045000D03*
D14*
X329248000Y-107315000D02*
X327937998Y-108775000D01*
D13*
X322898000Y-109855000D03*
X322918000Y-109565000D03*
D14*
X322938000Y-109275000D02*
X322898000Y-109855000D01*
D13*
X189825000Y-127825000D03*
X190479999Y-127095000D03*
D14*
X191135000Y-126365000D02*
X189824998Y-127825000D01*
D13*
X184785000Y-128905000D03*
X184805000Y-128615000D03*
D14*
X184825000Y-128325000D02*
X184785000Y-128905000D01*
D13*
X156488000Y-146875000D03*
X157142999Y-146145000D03*
D14*
X157798000Y-145415000D02*
X156487998Y-146875000D01*
D13*
X151448000Y-147955000D03*
X151468000Y-147665000D03*
D14*
X151488000Y-147375000D02*
X151448000Y-147955000D01*
D13*
X137438000Y-146875000D03*
X138092999Y-146145000D03*
D14*
X138748000Y-145415000D02*
X137437998Y-146875000D01*
D13*
X132398000Y-147955000D03*
X132418000Y-147665000D03*
D14*
X132438000Y-147375000D02*
X132398000Y-147955000D01*
D13*
X118388000Y-146875000D03*
X119042999Y-146145000D03*
D14*
X119698000Y-145415000D02*
X118387998Y-146875000D01*
D13*
X113348000Y-147955000D03*
X113368000Y-147665000D03*
D14*
X113388000Y-147375000D02*
X113348000Y-147955000D01*
D13*
X270788000Y-84962500D03*
X271442999Y-84232500D03*
D14*
X272098000Y-83502500D02*
X270787998Y-84962500D01*
D13*
X265748000Y-86042500D03*
X265768000Y-85752500D03*
D14*
X265788000Y-85462500D02*
X265748000Y-86042500D01*
D13*
X251738000Y-84962500D03*
X252392999Y-84232500D03*
D14*
X253048000Y-83502500D02*
X251737998Y-84962500D01*
D13*
X246698000Y-86042500D03*
X246718000Y-85752500D03*
D14*
X246738000Y-85462500D02*
X246698000Y-86042500D01*
D13*
X232688000Y-84962500D03*
X233342999Y-84232500D03*
D14*
X233998000Y-83502500D02*
X232687998Y-84962500D01*
D13*
X227648000Y-86042500D03*
X227668000Y-85752500D03*
D14*
X227688000Y-85462500D02*
X227648000Y-86042500D01*
D13*
X213638000Y-84962500D03*
X214292999Y-84232500D03*
D14*
X214948000Y-83502500D02*
X213637998Y-84962500D01*
D13*
X208598000Y-86042500D03*
X208618000Y-85752500D03*
D14*
X208638000Y-85462500D02*
X208598000Y-86042500D01*
D13*
X189825000Y-84962500D03*
X190479999Y-84232500D03*
D14*
X191135000Y-83502500D02*
X189824998Y-84962500D01*
D13*
X184785000Y-86042500D03*
X184805000Y-85752500D03*
D14*
X184825000Y-85462500D02*
X184785000Y-86042500D01*
D13*
X170775000Y-84962500D03*
X171429999Y-84232500D03*
D14*
X172085000Y-83502500D02*
X170774998Y-84962500D01*
D13*
X165735000Y-86042500D03*
X165755000Y-85752500D03*
D14*
X165775000Y-85462500D02*
X165735000Y-86042500D01*
D13*
X151725000Y-84962500D03*
X152379999Y-84232500D03*
D14*
X153035000Y-83502500D02*
X151724998Y-84962500D01*
D13*
X146685000Y-86042500D03*
X146705000Y-85752500D03*
D14*
X146725000Y-85462500D02*
X146685000Y-86042500D01*
D13*
X132675000Y-84962500D03*
X133329999Y-84232500D03*
D14*
X133985000Y-83502500D02*
X132674998Y-84962500D01*
D13*
X127635000Y-86042500D03*
X127655000Y-85752500D03*
D14*
X127675000Y-85462500D02*
X127635000Y-86042500D01*
D13*
X108862000Y-84962500D03*
X109516999Y-84232500D03*
D14*
X110172000Y-83502500D02*
X108861998Y-84962500D01*
D13*
X103822000Y-86042500D03*
X103842000Y-85752500D03*
D14*
X103862000Y-85462500D02*
X103822000Y-86042500D01*
D13*
X89812500Y-84962500D03*
X90467499Y-84232500D03*
D14*
X91122500Y-83502500D02*
X89812498Y-84962500D01*
D13*
X84772500Y-86042500D03*
X84792500Y-85752500D03*
D14*
X84812500Y-85462500D02*
X84772500Y-86042500D01*
D13*
X70762500Y-84962500D03*
X71417499Y-84232500D03*
D14*
X72072500Y-83502500D02*
X70762498Y-84962500D01*
D13*
X65722500Y-86042500D03*
X65742500Y-85752500D03*
D14*
X65762500Y-85462500D02*
X65722500Y-86042500D01*
D13*
X51712500Y-84962500D03*
X52367499Y-84232500D03*
D14*
X53022500Y-83502500D02*
X51712498Y-84962500D01*
D13*
X46672500Y-86042500D03*
X46692500Y-85752500D03*
D14*
X46712500Y-85462500D02*
X46672500Y-86042500D01*
D13*
X27900000Y-84962500D03*
X28554999Y-84232500D03*
D14*
X29210000Y-83502500D02*
X27899998Y-84962500D01*
D13*
X22860000Y-86042500D03*
X22880000Y-85752500D03*
D14*
X22900000Y-85462500D02*
X22860000Y-86042500D01*
D13*
X256500000Y-108775000D03*
X257154999Y-108045000D03*
D14*
X257810000Y-107315000D02*
X256499998Y-108775000D01*
D13*
X251460000Y-109855000D03*
X251480000Y-109565000D03*
D14*
X251500000Y-109275000D02*
X251460000Y-109855000D01*
D13*
X282694000Y-146875000D03*
X283348999Y-146145000D03*
D14*
X284004000Y-145415000D02*
X282693998Y-146875000D01*
D13*
X277654000Y-147955000D03*
X277674000Y-147665000D03*
D14*
X277694000Y-147375000D02*
X277654000Y-147955000D01*
D13*
X94575000Y-127825000D03*
X95229999Y-127095000D03*
D14*
X95885000Y-126365000D02*
X94574998Y-127825000D01*
D13*
X89535000Y-128905000D03*
X89555000Y-128615000D03*
D14*
X89575000Y-128325000D02*
X89535000Y-128905000D01*
D13*
X304125000Y-189738000D03*
X304779999Y-189008000D03*
D14*
X305435000Y-188278000D02*
X304124998Y-189738000D01*
D13*
X299085000Y-190818000D03*
X299105000Y-190528000D03*
D14*
X299125000Y-190238000D02*
X299085000Y-190818000D01*
D13*
X223162000Y-165925000D03*
X223816999Y-165195000D03*
D14*
X224472000Y-164465000D02*
X223161998Y-165925000D01*
D13*
X218122000Y-167005000D03*
X218142000Y-166715000D03*
D14*
X218162000Y-166425000D02*
X218122000Y-167005000D01*
D13*
X327938000Y-127825000D03*
X328592999Y-127095000D03*
D14*
X329248000Y-126365000D02*
X327937998Y-127825000D01*
D13*
X322898000Y-128905000D03*
X322918000Y-128615000D03*
D14*
X322938000Y-128325000D02*
X322898000Y-128905000D01*
D13*
X99337500Y-146875000D03*
X99992499Y-146145000D03*
D14*
X100647500Y-145415000D02*
X99337498Y-146875000D01*
D13*
X94297500Y-147955000D03*
X94317500Y-147665000D03*
D14*
X94337500Y-147375000D02*
X94297500Y-147955000D01*
D13*
X251738000Y-184975000D03*
X252392999Y-184245000D03*
D14*
X253048000Y-183515000D02*
X251737998Y-184975000D01*
D13*
X246698000Y-186055000D03*
X246718000Y-185765000D03*
D14*
X246738000Y-185475000D02*
X246698000Y-186055000D01*
D13*
X30281200Y-184975000D03*
X30936199Y-184245000D03*
D14*
X31591200Y-183515000D02*
X30281198Y-184975000D01*
D13*
X25241200Y-186055000D03*
X25261200Y-185765000D03*
D14*
X25281200Y-185475000D02*
X25241200Y-186055000D01*
D13*
X108862000Y-165925000D03*
X109516999Y-165195000D03*
D14*
X110172000Y-164465000D02*
X108861998Y-165925000D01*
D13*
X103822000Y-167005000D03*
X103842000Y-166715000D03*
D14*
X103862000Y-166425000D02*
X103822000Y-167005000D01*
D13*
X246975000Y-127825000D03*
X247629999Y-127095000D03*
D14*
X248285000Y-126365000D02*
X246974998Y-127825000D01*
D13*
X241935000Y-128905000D03*
X241955000Y-128615000D03*
D14*
X241975000Y-128325000D02*
X241935000Y-128905000D01*
D13*
X266025000Y-127825000D03*
X266679999Y-127095000D03*
D14*
X267335000Y-126365000D02*
X266024998Y-127825000D01*
D13*
X260985000Y-128905000D03*
X261005000Y-128615000D03*
D14*
X261025000Y-128325000D02*
X260985000Y-128905000D01*
D13*
X289838000Y-127825000D03*
X290492999Y-127095000D03*
D14*
X291148000Y-126365000D02*
X289837998Y-127825000D01*
D13*
X284798000Y-128905000D03*
X284818000Y-128615000D03*
D14*
X284838000Y-128325000D02*
X284798000Y-128905000D01*
D13*
X285075000Y-108775000D03*
X285729999Y-108045000D03*
D14*
X286385000Y-107315000D02*
X285074998Y-108775000D01*
D13*
X280035000Y-109855000D03*
X280055000Y-109565000D03*
D14*
X280075000Y-109275000D02*
X280035000Y-109855000D01*
D13*
X146962000Y-165925000D03*
X147616999Y-165195000D03*
D14*
X148272000Y-164465000D02*
X146961998Y-165925000D01*
D13*
X141922000Y-167005000D03*
X141942000Y-166715000D03*
D14*
X141962000Y-166425000D02*
X141922000Y-167005000D01*
D13*
X223162000Y-184975000D03*
X223816999Y-184245000D03*
D14*
X224472000Y-183515000D02*
X223161998Y-184975000D01*
D13*
X218122000Y-186055000D03*
X218142000Y-185765000D03*
D14*
X218162000Y-185475000D02*
X218122000Y-186055000D01*
D13*
X77906200Y-184975000D03*
X78561199Y-184245000D03*
D14*
X79216200Y-183515000D02*
X77906198Y-184975000D01*
D13*
X72866200Y-186055000D03*
X72886200Y-185765000D03*
D14*
X72906200Y-185475000D02*
X72866200Y-186055000D01*
D13*
X61237500Y-146875000D03*
X61892499Y-146145000D03*
D14*
X62547500Y-145415000D02*
X61237498Y-146875000D01*
D13*
X56197500Y-147955000D03*
X56217500Y-147665000D03*
D14*
X56237500Y-147375000D02*
X56197500Y-147955000D01*
D13*
X199350000Y-108775000D03*
X200004999Y-108045000D03*
D14*
X200660000Y-107315000D02*
X199349998Y-108775000D01*
D13*
X194310000Y-109855000D03*
X194330000Y-109565000D03*
D14*
X194350000Y-109275000D02*
X194310000Y-109855000D01*
D13*
X180300000Y-108775000D03*
X180954999Y-108045000D03*
D14*
X181610000Y-107315000D02*
X180299998Y-108775000D01*
D13*
X175260000Y-109855000D03*
X175280000Y-109565000D03*
D14*
X175300000Y-109275000D02*
X175260000Y-109855000D01*
D13*
X161250000Y-108775000D03*
X161904999Y-108045000D03*
D14*
X162560000Y-107315000D02*
X161249998Y-108775000D01*
D13*
X156210000Y-109855000D03*
X156230000Y-109565000D03*
D14*
X156250000Y-109275000D02*
X156210000Y-109855000D01*
D13*
X142200000Y-108775000D03*
X142854999Y-108045000D03*
D14*
X143510000Y-107315000D02*
X142199998Y-108775000D01*
D13*
X137160000Y-109855000D03*
X137180000Y-109565000D03*
D14*
X137200000Y-109275000D02*
X137160000Y-109855000D01*
D13*
X123150000Y-108775000D03*
X123804999Y-108045000D03*
D14*
X124460000Y-107315000D02*
X123149998Y-108775000D01*
D13*
X118110000Y-109855000D03*
X118130000Y-109565000D03*
D14*
X118150000Y-109275000D02*
X118110000Y-109855000D01*
D13*
X104100000Y-108775000D03*
X104754999Y-108045000D03*
D14*
X105410000Y-107315000D02*
X104099998Y-108775000D01*
D13*
X99060000Y-109855000D03*
X99080000Y-109565000D03*
D14*
X99100000Y-109275000D02*
X99060000Y-109855000D01*
D13*
X85050000Y-108775000D03*
X85704999Y-108045000D03*
D14*
X86360000Y-107315000D02*
X85049998Y-108775000D01*
D13*
X80010000Y-109855000D03*
X80030000Y-109565000D03*
D14*
X80050000Y-109275000D02*
X80010000Y-109855000D01*
D13*
X66000000Y-108775000D03*
X66654999Y-108045000D03*
D14*
X67310000Y-107315000D02*
X65999998Y-108775000D01*
D13*
X60960000Y-109855000D03*
X60980000Y-109565000D03*
D14*
X61000000Y-109275000D02*
X60960000Y-109855000D01*
D13*
X46950000Y-108775000D03*
X47604999Y-108045000D03*
D14*
X48260000Y-107315000D02*
X46949998Y-108775000D01*
D13*
X41910000Y-109855000D03*
X41930000Y-109565000D03*
D14*
X41950000Y-109275000D02*
X41910000Y-109855000D01*
D13*
X218400000Y-108775000D03*
X219054999Y-108045000D03*
D14*
X219710000Y-107315000D02*
X218399998Y-108775000D01*
D13*
X213360000Y-109855000D03*
X213380000Y-109565000D03*
D14*
X213400000Y-109275000D02*
X213360000Y-109855000D01*
D11*
X203994000Y-60642500D03*
D12*
X203994000Y-55562500D03*
D11*
X203994000Y-51117500D03*
D12*
X203994000Y-46037500D03*
D11*
X182563000Y-60642500D03*
D12*
X182563000Y-55562500D03*
D11*
X182563000Y-51117500D03*
D12*
X182563000Y-46037500D03*
D11*
X136525000Y-60642500D03*
D12*
X136525000Y-55562500D03*
D11*
X136525000Y-51117500D03*
D12*
X136525000Y-46037500D03*
D11*
X90487600Y-60642500D03*
D12*
X90487600Y-55562500D03*
D11*
X90487600Y-51117500D03*
D12*
X90487600Y-46037500D03*
D11*
X200818000Y-60642500D03*
D12*
X200818000Y-55562500D03*
D11*
X222250000Y-60642500D03*
D12*
X222250000Y-55562500D03*
D11*
X179388000Y-60642500D03*
D12*
X179388000Y-55562500D03*
D11*
X179388000Y-51117500D03*
D12*
X179388000Y-46037500D03*
D11*
X133350000Y-60642500D03*
D12*
X133350000Y-55562500D03*
D11*
X225425000Y-51117500D03*
D12*
X225425000Y-46037500D03*
D11*
X157956000Y-60642500D03*
D12*
X157956000Y-55562500D03*
D11*
X157956000Y-51117500D03*
D12*
X157956000Y-46037500D03*
D11*
X133350000Y-51117500D03*
D12*
X133350000Y-46037500D03*
D11*
X111918000Y-60642500D03*
D12*
X111918000Y-55562500D03*
D11*
X111918000Y-51117500D03*
D12*
X111918000Y-46037500D03*
D11*
X87312600Y-60642500D03*
D12*
X87312600Y-55562500D03*
D11*
X87312600Y-51117500D03*
D12*
X87312600Y-46037500D03*
D11*
X65881200Y-51117500D03*
D12*
X65881200Y-46037500D03*
D11*
X197644000Y-60642500D03*
D12*
X197644000Y-55562500D03*
D11*
X200818000Y-51117500D03*
D12*
X200818000Y-46037500D03*
D11*
X176213000Y-60642500D03*
D12*
X176213000Y-55562500D03*
D11*
X176213000Y-51117500D03*
D12*
X176213000Y-46037500D03*
D11*
X130175000Y-60642500D03*
D12*
X130175000Y-55562500D03*
D11*
X222250000Y-51117500D03*
D12*
X222250000Y-46037500D03*
D11*
X154781000Y-60642500D03*
D12*
X154781000Y-55562500D03*
D11*
X154781000Y-51117500D03*
D12*
X154781000Y-46037500D03*
D11*
X130175000Y-51117500D03*
D12*
X130175000Y-46037500D03*
D11*
X108744000Y-60642500D03*
D12*
X108744000Y-55562500D03*
D11*
X108744000Y-51117500D03*
D12*
X108744000Y-46037500D03*
D11*
X84137600Y-60642500D03*
D12*
X84137600Y-55562500D03*
D11*
X84137600Y-51117500D03*
D12*
X84137600Y-46037500D03*
D11*
X62706200Y-51105000D03*
D12*
X62706200Y-46025000D03*
D11*
X194468000Y-60642500D03*
D12*
X194468000Y-55562500D03*
D11*
X219075000Y-60642500D03*
D12*
X219075000Y-55562500D03*
D11*
X197644000Y-51117500D03*
D12*
X197644000Y-46037500D03*
D11*
X173038000Y-60642500D03*
D12*
X173038000Y-55562500D03*
D11*
X173038000Y-51117500D03*
D12*
X173038000Y-46037500D03*
D11*
X127000000Y-60642500D03*
D12*
X127000000Y-55562500D03*
D11*
X219075000Y-51117500D03*
D12*
X219075000Y-46037500D03*
D11*
X151606000Y-60642500D03*
D12*
X151606000Y-55562500D03*
D11*
X151606000Y-51117500D03*
D12*
X151606000Y-46037500D03*
D11*
X127000000Y-51117500D03*
D12*
X127000000Y-46037500D03*
D11*
X105569000Y-60642500D03*
D12*
X105569000Y-55562500D03*
D11*
X105569000Y-51117500D03*
D12*
X105569000Y-46037500D03*
D11*
X80962600Y-60642500D03*
D12*
X80962600Y-55562500D03*
D11*
X80962600Y-51117500D03*
D12*
X80962600Y-46037500D03*
D11*
X59531200Y-51117500D03*
D12*
X59531200Y-46037500D03*
D11*
X191294000Y-60642500D03*
D12*
X191294000Y-55562500D03*
D11*
X215900000Y-60642500D03*
D12*
X215900000Y-55562500D03*
D11*
X194468000Y-51117500D03*
D12*
X194468000Y-46037500D03*
D11*
X169863000Y-60642500D03*
D12*
X169863000Y-55562500D03*
D11*
X169863000Y-51117500D03*
D12*
X169863000Y-46037500D03*
D11*
X123825000Y-60642500D03*
D12*
X123825000Y-55562500D03*
D11*
X215900000Y-51117500D03*
D12*
X215900000Y-46037500D03*
D11*
X148431000Y-60642500D03*
D12*
X148431000Y-55562500D03*
D11*
X148431000Y-51117500D03*
D12*
X148431000Y-46037500D03*
D11*
X123825000Y-51117500D03*
D12*
X123825000Y-46037500D03*
D11*
X102394000Y-60642500D03*
D12*
X102394000Y-55562500D03*
D11*
X102394000Y-51117500D03*
D12*
X102394000Y-46037500D03*
D11*
X77787600Y-60642500D03*
D12*
X77787600Y-55562500D03*
D11*
X77787600Y-51117500D03*
D12*
X77787600Y-46037500D03*
D11*
X56356200Y-51117500D03*
D12*
X56356200Y-46037500D03*
D11*
X212725000Y-60642500D03*
D12*
X212725000Y-55562500D03*
D11*
X166688000Y-60642500D03*
D12*
X166688000Y-55562500D03*
D11*
X166688000Y-51117500D03*
D12*
X166688000Y-46037500D03*
D11*
X120650000Y-60642500D03*
D12*
X120650000Y-55562500D03*
D11*
X212725000Y-51117500D03*
D12*
X212725000Y-46037500D03*
D11*
X145256000Y-60642500D03*
D12*
X145256000Y-55562500D03*
D11*
X145256000Y-51117500D03*
D12*
X145256000Y-46037500D03*
D11*
X120650000Y-51117500D03*
D12*
X120650000Y-46037500D03*
D11*
X99218700Y-60642500D03*
D12*
X99218700Y-55562500D03*
D11*
X99218700Y-51117500D03*
D12*
X99218700Y-46037500D03*
D11*
X74612600Y-60642500D03*
D12*
X74612600Y-55562500D03*
D11*
X74612600Y-51117500D03*
D12*
X74612600Y-46037500D03*
D11*
X53181200Y-51117500D03*
D12*
X53181200Y-46037500D03*
D21*
X58753800Y-79692200D03*
X137681700Y-84313800D03*
X146190000Y-78848400D03*
X164124300Y-49635100D03*
X185774200Y-61867200D03*
X183688900Y-50241400D03*
X214237500Y-81227900D03*
X223638800Y-65002700D03*
X208345400Y-52025800D03*
X236479400Y-83874200D03*
X233806500Y-91087000D03*
X51035600Y-109511600D03*
X86505200Y-103154700D03*
X160238900Y-52575900D03*
X127599300Y-100171500D03*
X230281200Y-108307900D03*
X304852200Y-49405000D03*
X159001500Y-128905000D03*
X261219300Y-122023600D03*
X163359200Y-68998800D03*
X255669000Y-128219500D03*
X241706800Y-121213100D03*
X62706000Y-148350900D03*
X160840900Y-49329500D03*
X179416800Y-147269500D03*
X162311100Y-68271500D03*
X277736200Y-66523700D03*
X154563500Y-166425000D03*
X278406900Y-164340100D03*
X64978900Y-68951200D03*
X300700500Y-188448800D03*
X275837100Y-79706300D03*
X225868500Y-101824100D03*
X30173600Y-114357600D03*
X41771100Y-146875000D03*
X39267200Y-88126500D03*
X54340900Y-114524900D03*
X82687000Y-130255800D03*
X97227400Y-58364700D03*
X114779900Y-107204100D03*
X278505100Y-77820100D03*
X130081500Y-127825000D03*
X144485100Y-67544200D03*
X139709600Y-84026100D03*
X151337400Y-65670900D03*
X277246000Y-78618400D03*
X273046100Y-88088100D03*
X180609800Y-88116300D03*
X290911600Y-104866000D03*
X265817400Y-101151800D03*
X270163800Y-105657300D03*
X249969000Y-83610900D03*
X243735800Y-101019100D03*
X328652300Y-98237600D03*
X330392800Y-157206000D03*
X330883400Y-180401000D03*
X332247700Y-136157600D03*
X301250400Y-74529200D03*
X8976400Y-77170100D03*
X322124200Y-94045300D03*
X16922000Y-88114600D03*
X278114300Y-84890300D03*
X125026000Y-75792800D03*
X124585600Y-70572700D03*
X162602000Y-75792800D03*
X160094500Y-71031400D03*
X1111600Y-96977900D03*
X41682200Y-70216400D03*
X5828400Y-111854300D03*
X21129900Y-95872400D03*
X44362200Y-119065000D03*
X34964700Y-114184000D03*
X64960900Y-119065000D03*
X60545900Y-114650000D03*
X78469700Y-118053300D03*
X78096300Y-115977300D03*
X101848300Y-118850000D03*
X97648300Y-114650000D03*
X105521100Y-120009000D03*
X106325900Y-115977300D03*
X138339900Y-119841100D03*
X133865000Y-113029700D03*
X156566500Y-119065000D03*
X154134900Y-114650000D03*
X178100300Y-119340200D03*
X173410100Y-114650000D03*
X205211800Y-119027000D03*
X201484400Y-114650000D03*
X217383500Y-119065000D03*
X212968500Y-114650000D03*
X233386200Y-119065000D03*
X232071100Y-114650000D03*
X274806800Y-118100200D03*
X271681800Y-114424700D03*
X289200800Y-159500400D03*
X299871100Y-137228900D03*
X69529900Y-175559100D03*
X65303000Y-170572700D03*
X261287800Y-181125000D03*
X254014100Y-171900000D03*
D22*
X53181200Y-51117500D02*
X53181200Y-52244800D01*
X22900000Y-85462500D02*
X24390300Y-85565300D01*
X24390300Y-85565300D02*
X24390300Y-85265500D01*
X24390300Y-85265500D02*
X36234200Y-73421600D01*
X36234200Y-73421600D02*
X36234200Y-69191800D01*
X36234200Y-69191800D02*
X53181200Y-52244800D01*
X22860000Y-86042500D02*
X22860000Y-85502500D01*
X22860000Y-85502500D02*
X22900000Y-85462500D01*
X166688000Y-54435200D02*
X167858100Y-53265100D01*
X167858100Y-53265100D02*
X167858100Y-48334900D01*
X167858100Y-48334900D02*
X166688000Y-47164800D01*
X166688000Y-55562500D02*
X166688000Y-54435200D01*
X166688000Y-46037500D02*
X166688000Y-47164800D01*
X212725000Y-55562500D02*
X212725000Y-54435200D01*
X212725000Y-46037500D02*
X212725000Y-47164800D01*
X212725000Y-47164800D02*
X213852300Y-48292100D01*
X213852300Y-48292100D02*
X213852300Y-53307900D01*
X213852300Y-53307900D02*
X212725000Y-54435200D01*
X145256000Y-55562500D02*
X145256000Y-54435200D01*
X145256000Y-46037500D02*
X145256000Y-47164800D01*
X145256000Y-47164800D02*
X146383300Y-48292100D01*
X146383300Y-48292100D02*
X146383300Y-53307900D01*
X146383300Y-53307900D02*
X145256000Y-54435200D01*
X120650000Y-55562500D02*
X120650000Y-54435200D01*
X120650000Y-46037500D02*
X120650000Y-47164800D01*
X120650000Y-47164800D02*
X119522700Y-48292100D01*
X119522700Y-48292100D02*
X119522700Y-53307900D01*
X119522700Y-53307900D02*
X120650000Y-54435200D01*
X99218700Y-55562500D02*
X99218700Y-54435200D01*
X99218700Y-46037500D02*
X99218700Y-47164800D01*
X99218700Y-47164800D02*
X100346000Y-48292100D01*
X100346000Y-48292100D02*
X100346000Y-53307900D01*
X100346000Y-53307900D02*
X99218700Y-54435200D01*
X74612600Y-55562500D02*
X74612600Y-54435200D01*
X74612600Y-46037500D02*
X74612600Y-47164800D01*
X74612600Y-47164800D02*
X75739900Y-48292100D01*
X75739900Y-48292100D02*
X75739900Y-53307900D01*
X75739900Y-53307900D02*
X74612600Y-54435200D01*
X58753800Y-79692200D02*
X58753800Y-75969800D01*
X58753800Y-75969800D02*
X61446200Y-73277400D01*
X61446200Y-73277400D02*
X61446200Y-66204600D01*
X61446200Y-66204600D02*
X62778600Y-64872200D01*
X62778600Y-64872200D02*
X62778600Y-63987800D01*
X62778600Y-63987800D02*
X63833600Y-62932800D01*
X63833600Y-62932800D02*
X63833600Y-60769200D01*
X63833600Y-60769200D02*
X73485300Y-51117500D01*
X74612600Y-51117500D02*
X73485300Y-51117500D01*
X65865300Y-83972100D02*
X65865200Y-83972100D01*
X65865200Y-83972100D02*
X65865200Y-83534400D01*
X65865200Y-83534400D02*
X65467700Y-83136900D01*
X65467700Y-83136900D02*
X65467700Y-78623300D01*
X65467700Y-78623300D02*
X65865200Y-78225800D01*
X65865200Y-78225800D02*
X65865200Y-73342300D01*
X65865200Y-73342300D02*
X66280700Y-72926800D01*
X66280700Y-72926800D02*
X66280700Y-71065300D01*
X66280700Y-71065300D02*
X68233500Y-69112500D01*
X68233500Y-69112500D02*
X68233500Y-68148900D01*
X68233500Y-68148900D02*
X74612600Y-61769800D01*
X65762500Y-85462500D02*
X65865300Y-83972100D01*
X65722500Y-86042500D02*
X65722500Y-85502500D01*
X65722500Y-85502500D02*
X65762500Y-85462500D01*
X74612600Y-60642500D02*
X74612600Y-61769800D01*
X84915300Y-83972100D02*
X84915200Y-83972100D01*
X84915200Y-83972100D02*
X84915200Y-71205100D01*
X84915200Y-71205100D02*
X85369400Y-70750900D01*
X85369400Y-70750900D02*
X85369400Y-70108400D01*
X85369400Y-70108400D02*
X86216100Y-69261700D01*
X86216100Y-69261700D02*
X86216100Y-68619200D01*
X86216100Y-68619200D02*
X87203700Y-67631600D01*
X87203700Y-67631600D02*
X87203700Y-66989100D01*
X87203700Y-66989100D02*
X88512300Y-65680500D01*
X88512300Y-65680500D02*
X88512300Y-62583300D01*
X88512300Y-62583300D02*
X88927800Y-62167800D01*
X88927800Y-62167800D02*
X88927800Y-60281100D01*
X88927800Y-60281100D02*
X98091400Y-51117500D01*
X84812500Y-85462500D02*
X84915300Y-83972100D01*
X84772500Y-86042500D02*
X84772500Y-85502500D01*
X84772500Y-85502500D02*
X84812500Y-85462500D01*
X99218700Y-51117500D02*
X98091400Y-51117500D01*
X103842000Y-85462500D02*
X103842000Y-60471000D01*
X103842000Y-60471000D02*
X102846300Y-59475300D01*
X102846300Y-59475300D02*
X101513200Y-59475300D01*
X101513200Y-59475300D02*
X100346000Y-60642500D01*
X103822000Y-86042500D02*
X103822000Y-85482500D01*
X103822000Y-85482500D02*
X103842000Y-85462500D01*
X103862000Y-85462500D02*
X103842000Y-85462500D01*
X99218700Y-60642500D02*
X100346000Y-60642500D01*
X127675000Y-85462500D02*
X127777800Y-83972100D01*
X127777800Y-83972100D02*
X127777700Y-83972100D01*
X127777700Y-83972100D02*
X126909800Y-83104200D01*
X126909800Y-83104200D02*
X126909800Y-72208400D01*
X126909800Y-72208400D02*
X125346100Y-70644700D01*
X125346100Y-70644700D02*
X125346100Y-60548900D01*
X125346100Y-60548900D02*
X122697600Y-57900400D01*
X122697600Y-57900400D02*
X122697600Y-54627000D01*
X122697600Y-54627000D02*
X124952300Y-52372300D01*
X124952300Y-52372300D02*
X124952300Y-50611400D01*
X124952300Y-50611400D02*
X124288400Y-49947500D01*
X124288400Y-49947500D02*
X122947300Y-49947500D01*
X122947300Y-49947500D02*
X121777300Y-51117500D01*
X120650000Y-51117500D02*
X121777300Y-51117500D01*
X127635000Y-86042500D02*
X127635000Y-85502500D01*
X127635000Y-85502500D02*
X127675000Y-85462500D01*
X145256000Y-52244800D02*
X138135200Y-59365600D01*
X138135200Y-59365600D02*
X138135200Y-83286700D01*
X138135200Y-83286700D02*
X137954800Y-83467100D01*
X137954800Y-83467100D02*
X137954800Y-84040700D01*
X137954800Y-84040700D02*
X137681700Y-84313800D01*
X145256000Y-51117500D02*
X145256000Y-52244800D01*
X146685000Y-86042500D02*
X146685000Y-85502500D01*
X146685000Y-85502500D02*
X146725000Y-85462500D01*
X145256000Y-60642500D02*
X145256000Y-61769800D01*
X146190000Y-78848400D02*
X146190000Y-62703800D01*
X146190000Y-62703800D02*
X145256000Y-61769800D01*
X165735000Y-86042500D02*
X165735000Y-85502500D01*
X165735000Y-85502500D02*
X165775000Y-85462500D01*
X183294700Y-85357000D02*
X183294700Y-83932200D01*
X183294700Y-83932200D02*
X180475400Y-81112900D01*
X180475400Y-81112900D02*
X180475400Y-77000300D01*
X180475400Y-77000300D02*
X166428500Y-62953400D01*
X166428500Y-62953400D02*
X166047700Y-62953400D01*
X166047700Y-62953400D02*
X164124300Y-61030000D01*
X164124300Y-61030000D02*
X164124300Y-49635100D01*
X184825000Y-85462500D02*
X183294700Y-85357000D01*
X184785000Y-86042500D02*
X184785000Y-85502500D01*
X184785000Y-85502500D02*
X184825000Y-85462500D01*
X185774200Y-61867200D02*
X187682100Y-63775100D01*
X187682100Y-63775100D02*
X187682100Y-64506600D01*
X187682100Y-64506600D02*
X193450100Y-70274600D01*
X193450100Y-70274600D02*
X193450100Y-70917000D01*
X193450100Y-70917000D02*
X207107700Y-84574600D01*
X207107700Y-84574600D02*
X207107700Y-85357000D01*
X208598000Y-86042500D02*
X208638000Y-86002500D01*
X208638000Y-86002500D02*
X208638000Y-85462500D01*
X208638000Y-85462500D02*
X207107700Y-85357000D01*
X214237500Y-81227900D02*
X214237500Y-80090800D01*
X214237500Y-80090800D02*
X196056000Y-61909300D01*
X196056000Y-61909300D02*
X196056000Y-60628700D01*
X196056000Y-60628700D02*
X193997700Y-58570400D01*
X193997700Y-58570400D02*
X191484800Y-58570400D01*
X191484800Y-58570400D02*
X184320000Y-51405600D01*
X184320000Y-51405600D02*
X184320000Y-50872500D01*
X184320000Y-50872500D02*
X183688900Y-50241400D01*
X227688000Y-85462500D02*
X227648000Y-85502500D01*
X227648000Y-85502500D02*
X227648000Y-86042500D01*
X246698000Y-85482500D02*
X244118600Y-85482500D01*
X244118600Y-85482500D02*
X223638800Y-65002700D01*
X246738000Y-85462500D02*
X246718000Y-85482500D01*
X246718000Y-85482500D02*
X246698000Y-85482500D01*
X246698000Y-85482500D02*
X246698000Y-86042500D01*
X265788000Y-85462500D02*
X265748000Y-85502500D01*
X265748000Y-85502500D02*
X265748000Y-86042500D01*
X208345400Y-52025800D02*
X208345400Y-53437400D01*
X208345400Y-53437400D02*
X213981300Y-59073300D01*
X213981300Y-59073300D02*
X213981300Y-61376100D01*
X213981300Y-61376100D02*
X236479400Y-83874200D01*
X212725000Y-61769800D02*
X227369200Y-76414000D01*
X227369200Y-76414000D02*
X227369200Y-81523200D01*
X227369200Y-81523200D02*
X230377500Y-84531500D01*
X230377500Y-84531500D02*
X230377500Y-87658000D01*
X230377500Y-87658000D02*
X233806500Y-91087000D01*
X212725000Y-60642500D02*
X212725000Y-61769800D01*
X289600000Y-85462500D02*
X289560000Y-85502500D01*
X289560000Y-85502500D02*
X289560000Y-86042500D01*
X22900000Y-109275000D02*
X24390300Y-109377800D01*
X24390300Y-109377800D02*
X24390300Y-109091500D01*
X24390300Y-109091500D02*
X28363600Y-105118200D01*
X28363600Y-105118200D02*
X28363600Y-93266500D01*
X28363600Y-93266500D02*
X55228800Y-66401300D01*
X55228800Y-66401300D02*
X55228800Y-53372200D01*
X55228800Y-53372200D02*
X56356200Y-52244800D01*
X56356200Y-51117500D02*
X56356200Y-52244800D01*
X22860000Y-109855000D02*
X22900000Y-109815000D01*
X22900000Y-109815000D02*
X22900000Y-109275000D01*
X56356200Y-47164800D02*
X54308500Y-49212500D01*
X54308500Y-49212500D02*
X54308500Y-53307900D01*
X54308500Y-53307900D02*
X53181200Y-54435200D01*
X169863000Y-47164800D02*
X170990300Y-48292100D01*
X170990300Y-48292100D02*
X170990300Y-53307900D01*
X170990300Y-53307900D02*
X169863000Y-54435200D01*
X123825000Y-54435200D02*
X125406600Y-52853600D01*
X125406600Y-52853600D02*
X125406600Y-48746400D01*
X125406600Y-48746400D02*
X123825000Y-47164800D01*
X191294000Y-55562500D02*
X191294000Y-54435200D01*
X194468000Y-46037500D02*
X194468000Y-47164800D01*
X194468000Y-47164800D02*
X192421300Y-49211500D01*
X192421300Y-49211500D02*
X192421300Y-53307900D01*
X192421300Y-53307900D02*
X191294000Y-54435200D01*
X169863000Y-55562500D02*
X169863000Y-54435200D01*
X169863000Y-46037500D02*
X169863000Y-47164800D01*
X215900000Y-55562500D02*
X215900000Y-54435200D01*
X215900000Y-46037500D02*
X215900000Y-47164800D01*
X215900000Y-47164800D02*
X214772700Y-48292100D01*
X214772700Y-48292100D02*
X214772700Y-53307900D01*
X214772700Y-53307900D02*
X215900000Y-54435200D01*
X148431000Y-55562500D02*
X148431000Y-54435200D01*
X148431000Y-46037500D02*
X148431000Y-47164800D01*
X148431000Y-47164800D02*
X147303700Y-48292100D01*
X147303700Y-48292100D02*
X147303700Y-53307900D01*
X147303700Y-53307900D02*
X148431000Y-54435200D01*
X123825000Y-55562500D02*
X123825000Y-54435200D01*
X123825000Y-46037500D02*
X123825000Y-47164800D01*
X102394000Y-55562500D02*
X102394000Y-54435200D01*
X102394000Y-46037500D02*
X102394000Y-47164800D01*
X102394000Y-47164800D02*
X101266700Y-48292100D01*
X101266700Y-48292100D02*
X101266700Y-53307900D01*
X101266700Y-53307900D02*
X102394000Y-54435200D01*
X77787600Y-55562500D02*
X77787600Y-54435200D01*
X77787600Y-46037500D02*
X77787600Y-47164800D01*
X77787600Y-47164800D02*
X76660300Y-48292100D01*
X76660300Y-48292100D02*
X76660300Y-53307900D01*
X76660300Y-53307900D02*
X77787600Y-54435200D01*
X53181200Y-55562500D02*
X53181200Y-54435200D01*
X56356200Y-46037500D02*
X56356200Y-47164800D01*
X77787600Y-52244800D02*
X78914900Y-53372100D01*
X78914900Y-53372100D02*
X78914900Y-56512200D01*
X78914900Y-56512200D02*
X78534000Y-56893100D01*
X78534000Y-56893100D02*
X75970300Y-56893100D01*
X75970300Y-56893100D02*
X62376400Y-70487000D01*
X62376400Y-70487000D02*
X62376400Y-78799000D01*
X62376400Y-78799000D02*
X61240500Y-79934900D01*
X61240500Y-79934900D02*
X61240500Y-97527100D01*
X61240500Y-97527100D02*
X60900200Y-97867400D01*
X60900200Y-97867400D02*
X60900200Y-97975700D01*
X60900200Y-97975700D02*
X59646400Y-99229500D01*
X59646400Y-99229500D02*
X59646400Y-99872000D01*
X59646400Y-99872000D02*
X58541600Y-100976800D01*
X58541600Y-100976800D02*
X58541600Y-101619300D01*
X58541600Y-101619300D02*
X51035600Y-109125300D01*
X51035600Y-109125300D02*
X51035600Y-109511600D01*
X77787600Y-51117500D02*
X77787600Y-52244800D01*
X41910000Y-109855000D02*
X41910000Y-109315000D01*
X41910000Y-109315000D02*
X41950000Y-109275000D01*
X61102800Y-107784600D02*
X61102700Y-107784600D01*
X61102700Y-107784600D02*
X61102700Y-101519900D01*
X61102700Y-101519900D02*
X61624200Y-100998400D01*
X61624200Y-100998400D02*
X61624200Y-100677100D01*
X61624200Y-100677100D02*
X63171700Y-99129600D01*
X63171700Y-99129600D02*
X63171700Y-98808400D01*
X63171700Y-98808400D02*
X63881200Y-98098900D01*
X63881200Y-98098900D02*
X63881200Y-97777700D01*
X63881200Y-97777700D02*
X64834500Y-96824400D01*
X64834500Y-96824400D02*
X64834500Y-95860600D01*
X64834500Y-95860600D02*
X64857200Y-95837900D01*
X64857200Y-95837900D02*
X64857200Y-95834400D01*
X64857200Y-95834400D02*
X65311800Y-95379800D01*
X65311800Y-95379800D02*
X65311800Y-94740800D01*
X65311800Y-94740800D02*
X67234800Y-92817800D01*
X67234800Y-92817800D02*
X67234800Y-90216100D01*
X67234800Y-90216100D02*
X68104600Y-89346300D01*
X68104600Y-89346300D02*
X68104600Y-84499900D01*
X68104600Y-84499900D02*
X70963200Y-81641300D01*
X70963200Y-81641300D02*
X70963200Y-71352700D01*
X70963200Y-71352700D02*
X71378700Y-70937200D01*
X71378700Y-70937200D02*
X71378700Y-70427400D01*
X71378700Y-70427400D02*
X72209700Y-69596400D01*
X72209700Y-69596400D02*
X72209700Y-67347700D01*
X72209700Y-67347700D02*
X77787600Y-61769800D01*
X60960000Y-109855000D02*
X61000000Y-109815000D01*
X61000000Y-109815000D02*
X61000000Y-109275000D01*
X61000000Y-109275000D02*
X61102800Y-107784600D01*
X77787600Y-60642500D02*
X77787600Y-61769800D01*
X102394000Y-51117500D02*
X102394000Y-52244800D01*
X102394000Y-52244800D02*
X103521400Y-53372200D01*
X103521400Y-53372200D02*
X103521400Y-56536200D01*
X103521400Y-56536200D02*
X102821100Y-57236500D01*
X102821100Y-57236500D02*
X97321800Y-57236500D01*
X97321800Y-57236500D02*
X90942000Y-63616300D01*
X90942000Y-63616300D02*
X90942000Y-81577300D01*
X90942000Y-81577300D02*
X87812100Y-84707200D01*
X87812100Y-84707200D02*
X87812100Y-101847800D01*
X87812100Y-101847800D02*
X86505200Y-103154700D01*
X99060000Y-109855000D02*
X99100000Y-109815000D01*
X99100000Y-109815000D02*
X99100000Y-109275000D01*
X99100000Y-109275000D02*
X99202800Y-107784600D01*
X99202800Y-107784600D02*
X99202700Y-107784600D01*
X99202700Y-107784600D02*
X99202700Y-64961100D01*
X99202700Y-64961100D02*
X102394000Y-61769800D01*
X102394000Y-60642500D02*
X102394000Y-61769800D01*
X118150000Y-109275000D02*
X118252800Y-107784600D01*
X118252800Y-107784600D02*
X118252700Y-107784600D01*
X118252700Y-107784600D02*
X118252700Y-66938100D01*
X118252700Y-66938100D02*
X121777400Y-63413400D01*
X121777400Y-63413400D02*
X121777400Y-54292400D01*
X121777400Y-54292400D02*
X123825000Y-52244800D01*
X118110000Y-109855000D02*
X118110000Y-109315000D01*
X118110000Y-109315000D02*
X118150000Y-109275000D01*
X123825000Y-51117500D02*
X123825000Y-52244800D01*
X148431000Y-52244800D02*
X149558400Y-53372200D01*
X149558400Y-53372200D02*
X149558400Y-56527600D01*
X149558400Y-56527600D02*
X148671400Y-57414600D01*
X148671400Y-57414600D02*
X148028900Y-57414600D01*
X148028900Y-57414600D02*
X147661800Y-57781700D01*
X147661800Y-57781700D02*
X147019300Y-57781700D01*
X147019300Y-57781700D02*
X146505400Y-58295600D01*
X146505400Y-58295600D02*
X145334400Y-58295600D01*
X145334400Y-58295600D02*
X142978100Y-60651900D01*
X142978100Y-60651900D02*
X142978100Y-61294300D01*
X142978100Y-61294300D02*
X140363100Y-63909300D01*
X140363100Y-63909300D02*
X140363100Y-65742700D01*
X140363100Y-65742700D02*
X139947600Y-66158200D01*
X139947600Y-66158200D02*
X139947600Y-66894800D01*
X139947600Y-66894800D02*
X139795900Y-67046500D01*
X139795900Y-67046500D02*
X139795900Y-67367800D01*
X139795900Y-67367800D02*
X139762300Y-67401400D01*
X139762300Y-67401400D02*
X139762300Y-71466100D01*
X139762300Y-71466100D02*
X139308000Y-71920400D01*
X139308000Y-71920400D02*
X139308000Y-73851500D01*
X139308000Y-73851500D02*
X139080800Y-74078700D01*
X139080800Y-74078700D02*
X139080800Y-75758400D01*
X139080800Y-75758400D02*
X138619000Y-76220200D01*
X138619000Y-76220200D02*
X138619000Y-83445400D01*
X138619000Y-83445400D02*
X138409100Y-83655300D01*
X138409100Y-83655300D02*
X138409100Y-84972200D01*
X138409100Y-84972200D02*
X137825300Y-85556000D01*
X137825300Y-85556000D02*
X137825300Y-86198500D01*
X137825300Y-86198500D02*
X137809700Y-86214100D01*
X137809700Y-86214100D02*
X137809700Y-86461300D01*
X137809700Y-86461300D02*
X137454600Y-86816400D01*
X137454600Y-86816400D02*
X137454600Y-98103900D01*
X137454600Y-98103900D02*
X136914900Y-98643600D01*
X136914900Y-98643600D02*
X136914900Y-106959100D01*
X136914900Y-106959100D02*
X137302700Y-107346900D01*
X137302700Y-107346900D02*
X137302700Y-107784600D01*
X137302700Y-107784600D02*
X137302800Y-107784600D01*
X137160000Y-109855000D02*
X137200000Y-109815000D01*
X137200000Y-109815000D02*
X137200000Y-109275000D01*
X137200000Y-109275000D02*
X137302800Y-107784600D01*
X148431000Y-51117500D02*
X148431000Y-52244800D01*
X156210000Y-109855000D02*
X156250000Y-109815000D01*
X156250000Y-109815000D02*
X156250000Y-109275000D01*
X156250000Y-109275000D02*
X156352800Y-107784600D01*
X156352800Y-107784600D02*
X156352700Y-107784600D01*
X156352700Y-107784600D02*
X155755700Y-107187600D01*
X155755700Y-107187600D02*
X155755700Y-107073700D01*
X155755700Y-107073700D02*
X155528600Y-106846600D01*
X155528600Y-106846600D02*
X155528600Y-69509800D01*
X155528600Y-69509800D02*
X155301400Y-69282600D01*
X155301400Y-69282600D02*
X155301400Y-69121500D01*
X155301400Y-69121500D02*
X152064700Y-65884800D01*
X152064700Y-65884800D02*
X152064700Y-65369600D01*
X152064700Y-65369600D02*
X151638700Y-64943600D01*
X151638700Y-64943600D02*
X151604800Y-64943600D01*
X151604800Y-64943600D02*
X148431000Y-61769800D01*
X148431000Y-60642500D02*
X148431000Y-61769800D01*
X173769700Y-109169500D02*
X173769700Y-108697600D01*
X173769700Y-108697600D02*
X173936900Y-108530400D01*
X173936900Y-108530400D02*
X173936900Y-83256300D01*
X173936900Y-83256300D02*
X156828600Y-66148000D01*
X156828600Y-66148000D02*
X156828600Y-63174700D01*
X156828600Y-63174700D02*
X156351600Y-62697700D01*
X156351600Y-62697700D02*
X156351600Y-59649200D01*
X156351600Y-59649200D02*
X160238900Y-55761900D01*
X160238900Y-55761900D02*
X160238900Y-52575900D01*
X175300000Y-109275000D02*
X173769700Y-109169500D01*
X175260000Y-109855000D02*
X175260000Y-109315000D01*
X175260000Y-109315000D02*
X175300000Y-109275000D01*
X123825000Y-60642500D02*
X123825000Y-96397200D01*
X123825000Y-96397200D02*
X127599300Y-100171500D01*
X194350000Y-109275000D02*
X194310000Y-109315000D01*
X194310000Y-109315000D02*
X194310000Y-109855000D01*
X169863000Y-51117500D02*
X169863000Y-52884600D01*
X169863000Y-52884600D02*
X167815400Y-54932200D01*
X167815400Y-54932200D02*
X167815400Y-61535400D01*
X167815400Y-61535400D02*
X171559500Y-65279500D01*
X171559500Y-65279500D02*
X174372200Y-65279500D01*
X174372200Y-65279500D02*
X174826400Y-65733700D01*
X174826400Y-65733700D02*
X175468900Y-65733700D01*
X175468900Y-65733700D02*
X196625700Y-86890500D01*
X196625700Y-86890500D02*
X196625700Y-92500700D01*
X196625700Y-92500700D02*
X211869700Y-107744700D01*
X211869700Y-107744700D02*
X211869700Y-109169500D01*
X213400000Y-109275000D02*
X211869700Y-109169500D01*
X213400000Y-109275000D02*
X213360000Y-109315000D01*
X213360000Y-109315000D02*
X213360000Y-109855000D01*
X170990300Y-60642500D02*
X172599300Y-59033500D01*
X172599300Y-59033500D02*
X183235300Y-59033500D01*
X183235300Y-59033500D02*
X185046000Y-60844200D01*
X185046000Y-60844200D02*
X185046000Y-64596900D01*
X185046000Y-64596900D02*
X229764100Y-109315000D01*
X229764100Y-109315000D02*
X232410000Y-109315000D01*
X232410000Y-109315000D02*
X232410000Y-109855000D01*
X232450000Y-109275000D02*
X232410000Y-109315000D01*
X169863000Y-60642500D02*
X170990300Y-60642500D01*
X195595300Y-51117500D02*
X196724000Y-49988800D01*
X196724000Y-49988800D02*
X201318400Y-49988800D01*
X201318400Y-49988800D02*
X202853900Y-51524300D01*
X202853900Y-51524300D02*
X202853900Y-57007600D01*
X202853900Y-57007600D02*
X226385600Y-80539300D01*
X226385600Y-80539300D02*
X226385600Y-81884400D01*
X226385600Y-81884400D02*
X229355400Y-84854200D01*
X229355400Y-84854200D02*
X229355400Y-88328000D01*
X229355400Y-88328000D02*
X250342400Y-109315000D01*
X250342400Y-109315000D02*
X251460000Y-109315000D01*
X194468000Y-51117500D02*
X195595300Y-51117500D01*
X251460000Y-109315000D02*
X251460000Y-109855000D01*
X251500000Y-109275000D02*
X251460000Y-109315000D01*
X280035000Y-109295000D02*
X272773000Y-109295000D01*
X272773000Y-109295000D02*
X265076100Y-101598100D01*
X265076100Y-101598100D02*
X265076100Y-101042600D01*
X265076100Y-101042600D02*
X246688700Y-82655200D01*
X246688700Y-82655200D02*
X246688700Y-81701800D01*
X246688700Y-81701800D02*
X243427400Y-78440500D01*
X243427400Y-78440500D02*
X241606100Y-78440500D01*
X241606100Y-78440500D02*
X223679700Y-60514100D01*
X223679700Y-60514100D02*
X223679700Y-60442200D01*
X223679700Y-60442200D02*
X222732900Y-59495400D01*
X222732900Y-59495400D02*
X218174400Y-59495400D01*
X218174400Y-59495400D02*
X217027300Y-60642500D01*
X215900000Y-60642500D02*
X217027300Y-60642500D01*
X280075000Y-109275000D02*
X280055000Y-109295000D01*
X280055000Y-109295000D02*
X280035000Y-109295000D01*
X280035000Y-109295000D02*
X280035000Y-109855000D01*
X191294000Y-60642500D02*
X191294000Y-61769800D01*
X191294000Y-61769800D02*
X207268300Y-77744100D01*
X207268300Y-77744100D02*
X207268300Y-81970400D01*
X207268300Y-81970400D02*
X224179200Y-98881300D01*
X224179200Y-98881300D02*
X224179200Y-102205900D01*
X224179200Y-102205900D02*
X230281200Y-108307900D01*
X322938000Y-109275000D02*
X322898000Y-109315000D01*
X322898000Y-109315000D02*
X322898000Y-109855000D01*
X59531200Y-52244800D02*
X58403800Y-53372200D01*
X58403800Y-53372200D02*
X58403800Y-56932000D01*
X58403800Y-56932000D02*
X60676000Y-59204200D01*
X60676000Y-59204200D02*
X60676000Y-63634100D01*
X60676000Y-63634100D02*
X59531200Y-64778900D01*
X59531200Y-64778900D02*
X59531200Y-65646100D01*
X59531200Y-65646100D02*
X59076900Y-66100400D01*
X59076900Y-66100400D02*
X59076900Y-67172700D01*
X59076900Y-67172700D02*
X57596300Y-68653300D01*
X57596300Y-68653300D02*
X57596300Y-69295800D01*
X57596300Y-69295800D02*
X46891300Y-80000800D01*
X46891300Y-80000800D02*
X46891300Y-83154600D01*
X46891300Y-83154600D02*
X44273600Y-85772300D01*
X44273600Y-85772300D02*
X44273600Y-96211200D01*
X44273600Y-96211200D02*
X35539500Y-104945300D01*
X35539500Y-104945300D02*
X35539500Y-105587800D01*
X35539500Y-105587800D02*
X27765200Y-113362100D01*
X27765200Y-113362100D02*
X27765200Y-121088300D01*
X27765200Y-121088300D02*
X27367700Y-121485800D01*
X27367700Y-121485800D02*
X27367700Y-125999400D01*
X27367700Y-125999400D02*
X27765200Y-126396900D01*
X27765200Y-126396900D02*
X27765200Y-126834600D01*
X27765200Y-126834600D02*
X27765300Y-126834600D01*
X27662500Y-128325000D02*
X27765300Y-126834600D01*
X59531200Y-51117500D02*
X59531200Y-52244800D01*
X27622500Y-128905000D02*
X27622500Y-128365000D01*
X27622500Y-128365000D02*
X27662500Y-128325000D01*
X56356200Y-55562500D02*
X56356200Y-54435200D01*
X59531200Y-46037500D02*
X59531200Y-47164800D01*
X59531200Y-47164800D02*
X57483500Y-49212500D01*
X57483500Y-49212500D02*
X57483500Y-53307900D01*
X57483500Y-53307900D02*
X56356200Y-54435200D01*
X307590000Y-46375000D02*
X307590000Y-46667200D01*
X307590000Y-46667200D02*
X304852200Y-49405000D01*
X194468000Y-55562500D02*
X194468000Y-54435200D01*
X197644000Y-46037500D02*
X196516700Y-46037500D01*
X196516700Y-46037500D02*
X196516700Y-46748200D01*
X196516700Y-46748200D02*
X192875700Y-50389200D01*
X192875700Y-50389200D02*
X192875700Y-52842900D01*
X192875700Y-52842900D02*
X194468000Y-54435200D01*
X151606000Y-55562500D02*
X151606000Y-54435200D01*
X151606000Y-46037500D02*
X151606000Y-47164800D01*
X151606000Y-47164800D02*
X150478700Y-48292100D01*
X150478700Y-48292100D02*
X150478700Y-53307900D01*
X150478700Y-53307900D02*
X151606000Y-54435200D01*
X80962600Y-55562500D02*
X80962600Y-54435200D01*
X80962600Y-46037500D02*
X80962600Y-47164800D01*
X80962600Y-47164800D02*
X82089900Y-48292100D01*
X82089900Y-48292100D02*
X82089900Y-53307900D01*
X82089900Y-53307900D02*
X80962600Y-54435200D01*
X173038000Y-54435200D02*
X171910800Y-53308000D01*
X171910800Y-53308000D02*
X171910700Y-53308000D01*
X171910700Y-53308000D02*
X171910700Y-48292100D01*
X171910700Y-48292100D02*
X173038000Y-47164800D01*
X173038000Y-55562500D02*
X173038000Y-54435200D01*
X173038000Y-46037500D02*
X173038000Y-47164800D01*
X219075000Y-55562500D02*
X219075000Y-54435200D01*
X219075000Y-46037500D02*
X219075000Y-47164800D01*
X219075000Y-47164800D02*
X220202300Y-48292100D01*
X220202300Y-48292100D02*
X220202300Y-53307900D01*
X220202300Y-53307900D02*
X219075000Y-54435200D01*
X127000000Y-55562500D02*
X127000000Y-54435200D01*
X127000000Y-46037500D02*
X127000000Y-47164800D01*
X127000000Y-47164800D02*
X128127300Y-48292100D01*
X128127300Y-48292100D02*
X128127300Y-53307900D01*
X128127300Y-53307900D02*
X127000000Y-54435200D01*
X105569000Y-55562500D02*
X105569000Y-54435200D01*
X105569000Y-46037500D02*
X105569000Y-47164800D01*
X105569000Y-47164800D02*
X104441700Y-48292100D01*
X104441700Y-48292100D02*
X104441700Y-53307900D01*
X104441700Y-53307900D02*
X105569000Y-54435200D01*
X80962600Y-51117500D02*
X80962600Y-52244800D01*
X51475000Y-128325000D02*
X51577800Y-126834600D01*
X51577800Y-126834600D02*
X51577700Y-126834600D01*
X51577700Y-126834600D02*
X51577700Y-116206400D01*
X51577700Y-116206400D02*
X60362600Y-107421500D01*
X60362600Y-107421500D02*
X60362600Y-101617500D01*
X60362600Y-101617500D02*
X61169800Y-100810300D01*
X61169800Y-100810300D02*
X61169800Y-99846300D01*
X61169800Y-99846300D02*
X64317500Y-96698600D01*
X64317500Y-96698600D02*
X64317500Y-91244200D01*
X64317500Y-91244200D02*
X67248900Y-88312800D01*
X67248900Y-88312800D02*
X67248900Y-83980900D01*
X67248900Y-83980900D02*
X65922100Y-82654100D01*
X65922100Y-82654100D02*
X65922100Y-79038700D01*
X65922100Y-79038700D02*
X69389400Y-75571400D01*
X69389400Y-75571400D02*
X69389400Y-68807800D01*
X69389400Y-68807800D02*
X76039300Y-62157900D01*
X76039300Y-62157900D02*
X76039300Y-60779900D01*
X76039300Y-60779900D02*
X79823800Y-56995400D01*
X79823800Y-56995400D02*
X79823800Y-53383600D01*
X79823800Y-53383600D02*
X80962600Y-52244800D01*
X51435000Y-128905000D02*
X51475000Y-128865000D01*
X51475000Y-128865000D02*
X51475000Y-128325000D01*
X70525000Y-128325000D02*
X70627800Y-126834600D01*
X70627800Y-126834600D02*
X70627700Y-126834600D01*
X70627700Y-126834600D02*
X70525000Y-126731900D01*
X70525000Y-126731900D02*
X70525000Y-116378200D01*
X70525000Y-116378200D02*
X64478900Y-110332100D01*
X64478900Y-110332100D02*
X64478900Y-107500500D01*
X64478900Y-107500500D02*
X65953900Y-106025500D01*
X65953900Y-106025500D02*
X65953900Y-97191700D01*
X65953900Y-97191700D02*
X68762100Y-94383500D01*
X68762100Y-94383500D02*
X68762100Y-84485100D01*
X68762100Y-84485100D02*
X71618100Y-81629100D01*
X71618100Y-81629100D02*
X71618100Y-71691200D01*
X71618100Y-71691200D02*
X80962600Y-62346700D01*
X80962600Y-62346700D02*
X80962600Y-60642500D01*
X70485000Y-128905000D02*
X70525000Y-128865000D01*
X70525000Y-128865000D02*
X70525000Y-128325000D01*
X105569000Y-52244800D02*
X106696400Y-53372200D01*
X106696400Y-53372200D02*
X106696400Y-56521500D01*
X106696400Y-56521500D02*
X105384100Y-57833800D01*
X105384100Y-57833800D02*
X103427600Y-57833800D01*
X103427600Y-57833800D02*
X102973300Y-58288100D01*
X102973300Y-58288100D02*
X99299500Y-58288100D01*
X99299500Y-58288100D02*
X97190500Y-60397100D01*
X97190500Y-60397100D02*
X97190500Y-101761300D01*
X97190500Y-101761300D02*
X89677700Y-109274100D01*
X89677700Y-109274100D02*
X89677700Y-126834600D01*
X89677700Y-126834600D02*
X89677800Y-126834600D01*
X89575000Y-128325000D02*
X89677800Y-126834600D01*
X89535000Y-128905000D02*
X89535000Y-128365000D01*
X89535000Y-128365000D02*
X89575000Y-128325000D01*
X105569000Y-51117500D02*
X105569000Y-52244800D01*
X105569000Y-61769800D02*
X112231900Y-68432700D01*
X112231900Y-68432700D02*
X112231900Y-78946600D01*
X112231900Y-78946600D02*
X112686200Y-79400900D01*
X112686200Y-79400900D02*
X112686200Y-81937800D01*
X112686200Y-81937800D02*
X112232000Y-82392000D01*
X112232000Y-82392000D02*
X112232000Y-101964700D01*
X112232000Y-101964700D02*
X109181900Y-105014800D01*
X109181900Y-105014800D02*
X109181900Y-110212200D01*
X109181900Y-110212200D02*
X108727700Y-110666400D01*
X108727700Y-110666400D02*
X108727700Y-121088300D01*
X108727700Y-121088300D02*
X108330200Y-121485800D01*
X108330200Y-121485800D02*
X108330200Y-125999400D01*
X108330200Y-125999400D02*
X108727700Y-126396900D01*
X108727700Y-126396900D02*
X108727700Y-126834600D01*
X108727700Y-126834600D02*
X108727800Y-126834600D01*
X108625000Y-128325000D02*
X108727800Y-126834600D01*
X108585000Y-128905000D02*
X108585000Y-128365000D01*
X108585000Y-128365000D02*
X108625000Y-128325000D01*
X105569000Y-60642500D02*
X105569000Y-61769800D01*
X127675000Y-128325000D02*
X126144700Y-128219500D01*
X126144700Y-128219500D02*
X126144700Y-126794700D01*
X126144700Y-126794700D02*
X121629000Y-122279000D01*
X121629000Y-122279000D02*
X121629000Y-107175600D01*
X121629000Y-107175600D02*
X129188900Y-99615700D01*
X129188900Y-99615700D02*
X129188900Y-83659200D01*
X129188900Y-83659200D02*
X127655000Y-82125300D01*
X127655000Y-82125300D02*
X127655000Y-63097700D01*
X127655000Y-63097700D02*
X125872600Y-61315300D01*
X125872600Y-61315300D02*
X125872600Y-53372200D01*
X125872600Y-53372200D02*
X127000000Y-52244800D01*
X127000000Y-51117500D02*
X127000000Y-52244800D01*
X127675000Y-128325000D02*
X127635000Y-128365000D01*
X127635000Y-128365000D02*
X127635000Y-128905000D01*
X145194700Y-128219500D02*
X145194700Y-126794700D01*
X145194700Y-126794700D02*
X141122900Y-122722900D01*
X141122900Y-122722900D02*
X141122900Y-114192800D01*
X141122900Y-114192800D02*
X140668600Y-113738500D01*
X140668600Y-113738500D02*
X140668600Y-107495800D01*
X140668600Y-107495800D02*
X143577600Y-104586800D01*
X143577600Y-104586800D02*
X143577600Y-86054600D01*
X143577600Y-86054600D02*
X146903700Y-82728500D01*
X146903700Y-82728500D02*
X146903700Y-79163300D01*
X146903700Y-79163300D02*
X146917300Y-79149700D01*
X146917300Y-79149700D02*
X146917300Y-60557800D01*
X146917300Y-60557800D02*
X148417700Y-59057400D01*
X148417700Y-59057400D02*
X150181900Y-59057400D01*
X150181900Y-59057400D02*
X152775000Y-56464300D01*
X152775000Y-56464300D02*
X152775000Y-53413800D01*
X152775000Y-53413800D02*
X151606000Y-52244800D01*
X146725000Y-128325000D02*
X145194700Y-128219500D01*
X151606000Y-51117500D02*
X151606000Y-52244800D01*
X146725000Y-128325000D02*
X146685000Y-128365000D01*
X146685000Y-128365000D02*
X146685000Y-128905000D01*
X151606000Y-61769800D02*
X155690700Y-65854500D01*
X155690700Y-65854500D02*
X155690700Y-68011700D01*
X155690700Y-68011700D02*
X157935700Y-70256700D01*
X157935700Y-70256700D02*
X157935700Y-70899000D01*
X157935700Y-70899000D02*
X161085200Y-74048500D01*
X161085200Y-74048500D02*
X161085200Y-105818900D01*
X161085200Y-105818900D02*
X159001500Y-107902600D01*
X159001500Y-107902600D02*
X159001500Y-128905000D01*
X151606000Y-60642500D02*
X151606000Y-61769800D01*
X165775000Y-128325000D02*
X165735000Y-128365000D01*
X165735000Y-128365000D02*
X165735000Y-128905000D01*
X219075000Y-51117500D02*
X219075000Y-52244800D01*
X219075000Y-52244800D02*
X217947700Y-53372100D01*
X217947700Y-53372100D02*
X217947700Y-56320500D01*
X217947700Y-56320500D02*
X214763300Y-59504900D01*
X214763300Y-59504900D02*
X214763300Y-61133000D01*
X214763300Y-61133000D02*
X226155100Y-72524800D01*
X226155100Y-72524800D02*
X228560900Y-72524800D01*
X228560900Y-72524800D02*
X240988300Y-84952200D01*
X240988300Y-84952200D02*
X240988300Y-90489600D01*
X240988300Y-90489600D02*
X251126700Y-100628000D01*
X251126700Y-100628000D02*
X251126700Y-105899100D01*
X251126700Y-105899100D02*
X261219300Y-115991700D01*
X261219300Y-115991700D02*
X261219300Y-122023600D01*
X184825000Y-128325000D02*
X184785000Y-128365000D01*
X184785000Y-128365000D02*
X184785000Y-128905000D01*
X163359200Y-68998800D02*
X169651700Y-75291300D01*
X169651700Y-75291300D02*
X170350200Y-75291300D01*
X170350200Y-75291300D02*
X170510800Y-75451900D01*
X170510800Y-75451900D02*
X171026800Y-75451900D01*
X171026800Y-75451900D02*
X171178900Y-75604000D01*
X171178900Y-75604000D02*
X171793800Y-75604000D01*
X171793800Y-75604000D02*
X174119300Y-77929500D01*
X174119300Y-77929500D02*
X174648400Y-77929500D01*
X174648400Y-77929500D02*
X176611100Y-79892200D01*
X176611100Y-79892200D02*
X176611100Y-80421300D01*
X176611100Y-80421300D02*
X177472400Y-81282600D01*
X177472400Y-81282600D02*
X177472400Y-81947800D01*
X177472400Y-81947800D02*
X177724600Y-82200000D01*
X177724600Y-82200000D02*
X177724600Y-82842500D01*
X177724600Y-82842500D02*
X179647100Y-84765000D01*
X179647100Y-84765000D02*
X179647100Y-85407500D01*
X179647100Y-85407500D02*
X180341800Y-86102200D01*
X180341800Y-86102200D02*
X180341800Y-86177100D01*
X180341800Y-86177100D02*
X181904800Y-87740100D01*
X181904800Y-87740100D02*
X181904800Y-87809500D01*
X181904800Y-87809500D02*
X182915500Y-88820200D01*
X182915500Y-88820200D02*
X182915500Y-89462600D01*
X182915500Y-89462600D02*
X184017900Y-90565000D01*
X184017900Y-90565000D02*
X184017900Y-90565100D01*
X184017900Y-90565100D02*
X184887900Y-91435100D01*
X184887900Y-91435100D02*
X184887900Y-92398800D01*
X184887900Y-92398800D02*
X185879300Y-93390200D01*
X185879300Y-93390200D02*
X185879300Y-93390300D01*
X185879300Y-93390300D02*
X185962200Y-93473200D01*
X185962200Y-93473200D02*
X185962200Y-95519400D01*
X185962200Y-95519400D02*
X186870800Y-96428000D01*
X186870800Y-96428000D02*
X186870800Y-98898500D01*
X186870800Y-98898500D02*
X187325100Y-99352800D01*
X187325100Y-99352800D02*
X187325100Y-109111300D01*
X187325100Y-109111300D02*
X187779400Y-109565600D01*
X187779400Y-109565600D02*
X187779400Y-111008800D01*
X187779400Y-111008800D02*
X187779500Y-111008900D01*
X187779500Y-111008900D02*
X187779500Y-111335600D01*
X187779500Y-111335600D02*
X188006600Y-111562700D01*
X188006600Y-111562700D02*
X188006600Y-112456600D01*
X188006600Y-112456600D02*
X202344700Y-126794700D01*
X202344700Y-126794700D02*
X202344700Y-128219500D01*
X203835000Y-128905000D02*
X203875000Y-128865000D01*
X203875000Y-128865000D02*
X203875000Y-128325000D01*
X203875000Y-128325000D02*
X202344700Y-128219500D01*
X222925000Y-128325000D02*
X223027800Y-126834600D01*
X223027800Y-126834600D02*
X223027700Y-126834600D01*
X223027700Y-126834600D02*
X222159800Y-125966700D01*
X222159800Y-125966700D02*
X222159800Y-115448400D01*
X222159800Y-115448400D02*
X212568800Y-105857400D01*
X212568800Y-105857400D02*
X212568800Y-99392500D01*
X212568800Y-99392500D02*
X178001400Y-64825100D01*
X178001400Y-64825100D02*
X171747800Y-64825100D01*
X171747800Y-64825100D02*
X168269800Y-61347100D01*
X168269800Y-61347100D02*
X168269800Y-59932000D01*
X168269800Y-59932000D02*
X171026100Y-57175700D01*
X171026100Y-57175700D02*
X173565900Y-57175700D01*
X173565900Y-57175700D02*
X174165400Y-56576200D01*
X174165400Y-56576200D02*
X174165400Y-53372200D01*
X174165400Y-53372200D02*
X173038000Y-52244800D01*
X173038000Y-51117500D02*
X173038000Y-52244800D01*
X222925000Y-128325000D02*
X222885000Y-128365000D01*
X222885000Y-128365000D02*
X222885000Y-128905000D01*
X174165300Y-60642500D02*
X175310600Y-59497200D01*
X175310600Y-59497200D02*
X183056300Y-59497200D01*
X183056300Y-59497200D02*
X184179500Y-60620400D01*
X184179500Y-60620400D02*
X184179500Y-64373100D01*
X184179500Y-64373100D02*
X228567800Y-108761400D01*
X228567800Y-108761400D02*
X228567800Y-109258100D01*
X228567800Y-109258100D02*
X236782600Y-117472900D01*
X236782600Y-117472900D02*
X236782600Y-123132600D01*
X236782600Y-123132600D02*
X240444700Y-126794700D01*
X240444700Y-126794700D02*
X240444700Y-128219500D01*
X241975000Y-128325000D02*
X240444700Y-128219500D01*
X173038000Y-60642500D02*
X174165300Y-60642500D01*
X241975000Y-128325000D02*
X241935000Y-128365000D01*
X241935000Y-128365000D02*
X241935000Y-128905000D01*
X261025000Y-128325000D02*
X260985000Y-128365000D01*
X260985000Y-128365000D02*
X260985000Y-128905000D01*
X255669000Y-128219500D02*
X255669000Y-117970000D01*
X255669000Y-117970000D02*
X201945300Y-64246300D01*
X201945300Y-64246300D02*
X201945300Y-54291500D01*
X201945300Y-54291500D02*
X198771300Y-51117500D01*
X197644000Y-51117500D02*
X198771300Y-51117500D01*
X284798000Y-128365000D02*
X284043100Y-128365000D01*
X284043100Y-128365000D02*
X274079500Y-118401400D01*
X274079500Y-118401400D02*
X274079500Y-117852800D01*
X274079500Y-117852800D02*
X241669700Y-85443000D01*
X241669700Y-85443000D02*
X241669700Y-84364500D01*
X241669700Y-84364500D02*
X219075000Y-61769800D01*
X219075000Y-60642500D02*
X219075000Y-61769800D01*
X284798000Y-128365000D02*
X284838000Y-128325000D01*
X284798000Y-128905000D02*
X284798000Y-128365000D01*
X194468000Y-61769800D02*
X208128100Y-75429900D01*
X208128100Y-75429900D02*
X208128100Y-81931600D01*
X208128100Y-81931600D02*
X225141200Y-98944700D01*
X225141200Y-98944700D02*
X225141200Y-102125300D01*
X225141200Y-102125300D02*
X230760600Y-107744700D01*
X230760600Y-107744700D02*
X233020000Y-107744700D01*
X233020000Y-107744700D02*
X241706800Y-116431500D01*
X241706800Y-116431500D02*
X241706800Y-121213100D01*
X194468000Y-60642500D02*
X194468000Y-61769800D01*
X322938000Y-128325000D02*
X322898000Y-128365000D01*
X322898000Y-128365000D02*
X322898000Y-128905000D01*
X30023800Y-147375000D02*
X30023800Y-127786100D01*
X30023800Y-127786100D02*
X27822000Y-125584300D01*
X27822000Y-125584300D02*
X27822000Y-121901300D01*
X27822000Y-121901300D02*
X29291000Y-120432300D01*
X29291000Y-120432300D02*
X29291000Y-113153500D01*
X29291000Y-113153500D02*
X46544000Y-95900500D01*
X46544000Y-95900500D02*
X46544000Y-89488300D01*
X46544000Y-89488300D02*
X49054600Y-86977700D01*
X49054600Y-86977700D02*
X49054600Y-84499900D01*
X49054600Y-84499900D02*
X52543800Y-81010700D01*
X52543800Y-81010700D02*
X52543800Y-78641200D01*
X52543800Y-78641200D02*
X59985500Y-71199500D01*
X59985500Y-71199500D02*
X59985500Y-65288300D01*
X59985500Y-65288300D02*
X61578800Y-63695000D01*
X61578800Y-63695000D02*
X61578800Y-53359700D01*
X61578800Y-53359700D02*
X62706200Y-52232300D01*
X30003800Y-147955000D02*
X30003800Y-147395000D01*
X30003800Y-147395000D02*
X30023800Y-147375000D01*
X30043800Y-147375000D02*
X30023800Y-147375000D01*
X62706200Y-51105000D02*
X62706200Y-52232300D01*
X200818000Y-46037500D02*
X201945300Y-46037500D01*
X222250000Y-46037500D02*
X221122700Y-46037500D01*
X221122700Y-46037500D02*
X221122700Y-45896600D01*
X221122700Y-45896600D02*
X220136300Y-44910200D01*
X220136300Y-44910200D02*
X202931600Y-44910200D01*
X202931600Y-44910200D02*
X201945300Y-45896500D01*
X201945300Y-45896500D02*
X201945300Y-46037500D01*
X84137600Y-54435200D02*
X83010300Y-53307900D01*
X83010300Y-53307900D02*
X83010300Y-48292100D01*
X83010300Y-48292100D02*
X84137600Y-47164800D01*
X197644000Y-55562500D02*
X196516700Y-55562500D01*
X200818000Y-46037500D02*
X199690700Y-46037500D01*
X199690700Y-46037500D02*
X199690700Y-46167400D01*
X199690700Y-46167400D02*
X195882700Y-49975400D01*
X195882700Y-49975400D02*
X193987900Y-49975400D01*
X193987900Y-49975400D02*
X193340700Y-50622600D01*
X193340700Y-50622600D02*
X193340700Y-51597600D01*
X193340700Y-51597600D02*
X196516700Y-54773600D01*
X196516700Y-54773600D02*
X196516700Y-55562500D01*
X62706200Y-47152300D02*
X60658500Y-49200000D01*
X60658500Y-49200000D02*
X60658500Y-53307900D01*
X60658500Y-53307900D02*
X59531200Y-54435200D01*
X176213000Y-55562500D02*
X176213000Y-54435200D01*
X176213000Y-46037500D02*
X176213000Y-47164800D01*
X176213000Y-47164800D02*
X175085700Y-48292100D01*
X175085700Y-48292100D02*
X175085700Y-53307900D01*
X175085700Y-53307900D02*
X176213000Y-54435200D01*
X154781000Y-55562500D02*
X154781000Y-54435200D01*
X154781000Y-46037500D02*
X154781000Y-47164800D01*
X154781000Y-47164800D02*
X153653700Y-48292100D01*
X153653700Y-48292100D02*
X153653700Y-53307900D01*
X153653700Y-53307900D02*
X154781000Y-54435200D01*
X130175000Y-55562500D02*
X130175000Y-54435200D01*
X130175000Y-46037500D02*
X130175000Y-47164800D01*
X130175000Y-47164800D02*
X129047700Y-48292100D01*
X129047700Y-48292100D02*
X129047700Y-53307900D01*
X129047700Y-53307900D02*
X130175000Y-54435200D01*
X108744000Y-55562500D02*
X108744000Y-54435200D01*
X108744000Y-46037500D02*
X108744000Y-47164800D01*
X108744000Y-47164800D02*
X107616700Y-48292100D01*
X107616700Y-48292100D02*
X107616700Y-53307900D01*
X107616700Y-53307900D02*
X108744000Y-54435200D01*
X84137600Y-55562500D02*
X84137600Y-54435200D01*
X84137600Y-46037500D02*
X84137600Y-47164800D01*
X59531200Y-55562500D02*
X59531200Y-54435200D01*
X62706200Y-46025000D02*
X62706200Y-47152300D01*
X84137600Y-52244800D02*
X85320400Y-53427600D01*
X85320400Y-53427600D02*
X85320400Y-56652100D01*
X85320400Y-56652100D02*
X82090000Y-59882500D01*
X82090000Y-59882500D02*
X82090000Y-61995000D01*
X82090000Y-61995000D02*
X75785000Y-68300000D01*
X75785000Y-68300000D02*
X75785000Y-108850100D01*
X75785000Y-108850100D02*
X77037100Y-110102200D01*
X77037100Y-110102200D02*
X77037100Y-120145000D01*
X77037100Y-120145000D02*
X79334800Y-122442700D01*
X79334800Y-122442700D02*
X79334800Y-124459800D01*
X79334800Y-124459800D02*
X78724400Y-125070200D01*
X78724400Y-125070200D02*
X78724400Y-127069500D01*
X78724400Y-127069500D02*
X65376100Y-140417800D01*
X65376100Y-140417800D02*
X65376100Y-145680800D01*
X65376100Y-145680800D02*
X62706000Y-148350900D01*
X84137600Y-51117500D02*
X84137600Y-52244800D01*
X84137600Y-61769800D02*
X82085500Y-63821900D01*
X82085500Y-63821900D02*
X82085500Y-65000500D01*
X82085500Y-65000500D02*
X80395200Y-66690800D01*
X80395200Y-66690800D02*
X80395200Y-68472200D01*
X80395200Y-68472200D02*
X79940900Y-68926500D01*
X79940900Y-68926500D02*
X79940900Y-72244500D01*
X79940900Y-72244500D02*
X79486600Y-72698800D01*
X79486600Y-72698800D02*
X79486600Y-73362000D01*
X79486600Y-73362000D02*
X79267100Y-73581500D01*
X79267100Y-73581500D02*
X79267100Y-104775000D01*
X79267100Y-104775000D02*
X78521700Y-105520400D01*
X78521700Y-105520400D02*
X78521700Y-107476000D01*
X78521700Y-107476000D02*
X78067400Y-107930300D01*
X78067400Y-107930300D02*
X78067400Y-111044600D01*
X78067400Y-111044600D02*
X78872100Y-111849300D01*
X78872100Y-111849300D02*
X78872100Y-114701200D01*
X78872100Y-114701200D02*
X79326400Y-115155500D01*
X79326400Y-115155500D02*
X79326400Y-116846400D01*
X79326400Y-116846400D02*
X79780700Y-117300700D01*
X79780700Y-117300700D02*
X79780700Y-118216100D01*
X79780700Y-118216100D02*
X80016100Y-118451500D01*
X80016100Y-118451500D02*
X80016100Y-119094000D01*
X80016100Y-119094000D02*
X80096700Y-119174600D01*
X80096700Y-119174600D02*
X80096700Y-121277400D01*
X80096700Y-121277400D02*
X80292100Y-121472800D01*
X80292100Y-121472800D02*
X80292100Y-124787500D01*
X80292100Y-124787500D02*
X79781000Y-125298600D01*
X79781000Y-125298600D02*
X79781000Y-125552900D01*
X79781000Y-125552900D02*
X79659100Y-125674800D01*
X79659100Y-125674800D02*
X79659100Y-126933000D01*
X79659100Y-126933000D02*
X79633000Y-126959100D01*
X79633000Y-126959100D02*
X79633000Y-127445900D01*
X79633000Y-127445900D02*
X78080300Y-128998600D01*
X78080300Y-128998600D02*
X78080300Y-129641100D01*
X78080300Y-129641100D02*
X75390200Y-132331200D01*
X75390200Y-132331200D02*
X75390200Y-140138300D01*
X75390200Y-140138300D02*
X74992700Y-140535800D01*
X74992700Y-140535800D02*
X74992700Y-145049400D01*
X74992700Y-145049400D02*
X75390200Y-145446900D01*
X75390200Y-145446900D02*
X75390200Y-145884600D01*
X75390200Y-145884600D02*
X75390300Y-145884600D01*
X75247500Y-147955000D02*
X75287500Y-147915000D01*
X75287500Y-147915000D02*
X75287500Y-147375000D01*
X75287500Y-147375000D02*
X75390300Y-145884600D01*
X84137600Y-60642500D02*
X84137600Y-61769800D01*
X108744000Y-51117500D02*
X108744000Y-52244800D01*
X94337500Y-147375000D02*
X94440300Y-145884600D01*
X94440300Y-145884600D02*
X94440200Y-145884600D01*
X94440200Y-145884600D02*
X94440200Y-133729300D01*
X94440200Y-133729300D02*
X98404900Y-129764600D01*
X98404900Y-129764600D02*
X98404900Y-117416700D01*
X98404900Y-117416700D02*
X96900100Y-115911900D01*
X96900100Y-115911900D02*
X96900100Y-108615400D01*
X96900100Y-108615400D02*
X97787600Y-107727900D01*
X97787600Y-107727900D02*
X97787600Y-60442700D01*
X97787600Y-60442700D02*
X99487800Y-58742500D01*
X99487800Y-58742500D02*
X105155500Y-58742500D01*
X105155500Y-58742500D02*
X106526100Y-57371900D01*
X106526100Y-57371900D02*
X109045500Y-57371900D01*
X109045500Y-57371900D02*
X109871400Y-56546000D01*
X109871400Y-56546000D02*
X109871400Y-53372200D01*
X109871400Y-53372200D02*
X108744000Y-52244800D01*
X94297500Y-147955000D02*
X94337500Y-147915000D01*
X94337500Y-147915000D02*
X94337500Y-147375000D01*
X111857700Y-147269500D02*
X111857700Y-145844700D01*
X111857700Y-145844700D02*
X109578300Y-143565300D01*
X109578300Y-143565300D02*
X109578300Y-140728700D01*
X109578300Y-140728700D02*
X111422600Y-138884400D01*
X111422600Y-138884400D02*
X111422600Y-126812900D01*
X111422600Y-126812900D02*
X113463700Y-124771800D01*
X113463700Y-124771800D02*
X113463700Y-82445300D01*
X113463700Y-82445300D02*
X113594800Y-82314200D01*
X113594800Y-82314200D02*
X113594800Y-79024400D01*
X113594800Y-79024400D02*
X113463700Y-78893300D01*
X113463700Y-78893300D02*
X113463700Y-66489500D01*
X113463700Y-66489500D02*
X108744000Y-61769800D01*
X113388000Y-147375000D02*
X111857700Y-147269500D01*
X108744000Y-60642500D02*
X108744000Y-61769800D01*
X113348000Y-147955000D02*
X113348000Y-147415000D01*
X113348000Y-147415000D02*
X113388000Y-147375000D01*
X130175000Y-52244800D02*
X131768300Y-53838100D01*
X131768300Y-53838100D02*
X131768300Y-74110400D01*
X131768300Y-74110400D02*
X136475300Y-78817400D01*
X136475300Y-78817400D02*
X136475300Y-81910200D01*
X136475300Y-81910200D02*
X135792000Y-82593500D01*
X135792000Y-82593500D02*
X135792000Y-84212500D01*
X135792000Y-84212500D02*
X135673700Y-84330800D01*
X135673700Y-84330800D02*
X135673700Y-85255200D01*
X135673700Y-85255200D02*
X135446500Y-85482400D01*
X135446500Y-85482400D02*
X135446500Y-102248000D01*
X135446500Y-102248000D02*
X132523700Y-105170800D01*
X132523700Y-105170800D02*
X132523700Y-124861600D01*
X132523700Y-124861600D02*
X131199000Y-126186300D01*
X131199000Y-126186300D02*
X131199000Y-146506300D01*
X131199000Y-146506300D02*
X130907700Y-146797600D01*
X130907700Y-146797600D02*
X130907700Y-147269500D01*
X132438000Y-147375000D02*
X130907700Y-147269500D01*
X130175000Y-51117500D02*
X130175000Y-52244800D01*
X132398000Y-147955000D02*
X132398000Y-147415000D01*
X132398000Y-147415000D02*
X132438000Y-147375000D01*
X154781000Y-52244800D02*
X155908400Y-53372200D01*
X155908400Y-53372200D02*
X155908400Y-56588500D01*
X155908400Y-56588500D02*
X154062100Y-58434800D01*
X154062100Y-58434800D02*
X152198900Y-58434800D01*
X152198900Y-58434800D02*
X150430200Y-60203500D01*
X150430200Y-60203500D02*
X150430200Y-62060000D01*
X150430200Y-62060000D02*
X153393700Y-65023500D01*
X153393700Y-65023500D02*
X153393700Y-65714700D01*
X153393700Y-65714700D02*
X153633100Y-65954100D01*
X153633100Y-65954100D02*
X153633100Y-66596500D01*
X153633100Y-66596500D02*
X155209500Y-68172900D01*
X155209500Y-68172900D02*
X155209500Y-68173000D01*
X155209500Y-68173000D02*
X155812500Y-68776000D01*
X155812500Y-68776000D02*
X155812500Y-68859100D01*
X155812500Y-68859100D02*
X156039700Y-69086300D01*
X156039700Y-69086300D02*
X156039700Y-106715100D01*
X156039700Y-106715100D02*
X157741700Y-108417100D01*
X157741700Y-108417100D02*
X157741700Y-135741900D01*
X157741700Y-135741900D02*
X151590700Y-141892900D01*
X151590700Y-141892900D02*
X151590700Y-145884600D01*
X151590700Y-145884600D02*
X151590800Y-145884600D01*
X151488000Y-147375000D02*
X151590800Y-145884600D01*
X154781000Y-51117500D02*
X154781000Y-52244800D01*
X151488000Y-147375000D02*
X151448000Y-147415000D01*
X151448000Y-147415000D02*
X151448000Y-147955000D01*
X154781000Y-61769800D02*
X155920000Y-62908800D01*
X155920000Y-62908800D02*
X155920000Y-63664700D01*
X155920000Y-63664700D02*
X156362800Y-64107500D01*
X156362800Y-64107500D02*
X156362800Y-68041100D01*
X156362800Y-68041100D02*
X158390000Y-70068300D01*
X158390000Y-70068300D02*
X158390000Y-70655700D01*
X158390000Y-70655700D02*
X158581700Y-70847400D01*
X158581700Y-70847400D02*
X158581700Y-70902400D01*
X158581700Y-70902400D02*
X161576100Y-73896800D01*
X161576100Y-73896800D02*
X161576100Y-105970600D01*
X161576100Y-105970600D02*
X159733300Y-107813400D01*
X159733300Y-107813400D02*
X159733300Y-136570300D01*
X159733300Y-136570300D02*
X169007700Y-145844700D01*
X169007700Y-145844700D02*
X169007700Y-147269500D01*
X170538000Y-147375000D02*
X169007700Y-147269500D01*
X154781000Y-60642500D02*
X154781000Y-61769800D01*
X170498000Y-147955000D02*
X170498000Y-147415000D01*
X170498000Y-147415000D02*
X170538000Y-147375000D01*
X179416800Y-147269500D02*
X179416800Y-141697800D01*
X179416800Y-141697800D02*
X179151300Y-141432300D01*
X179151300Y-141432300D02*
X179151300Y-114525800D01*
X179151300Y-114525800D02*
X176816400Y-112190900D01*
X176816400Y-112190900D02*
X176816400Y-108603500D01*
X176816400Y-108603500D02*
X174566800Y-106353900D01*
X174566800Y-106353900D02*
X174566800Y-80417900D01*
X174566800Y-80417900D02*
X173909100Y-79760200D01*
X173909100Y-79760200D02*
X171083500Y-79760200D01*
X171083500Y-79760200D02*
X157633800Y-66310500D01*
X157633800Y-66310500D02*
X157633800Y-63224100D01*
X157633800Y-63224100D02*
X156828600Y-62418900D01*
X156828600Y-62418900D02*
X156828600Y-60175500D01*
X156828600Y-60175500D02*
X160980500Y-56023600D01*
X160980500Y-56023600D02*
X160980500Y-49469100D01*
X160980500Y-49469100D02*
X160840900Y-49329500D01*
X189548000Y-147955000D02*
X189548000Y-147415000D01*
X189548000Y-147415000D02*
X189588000Y-147375000D01*
X162311100Y-68271500D02*
X162311100Y-69013100D01*
X162311100Y-69013100D02*
X169910100Y-76612100D01*
X169910100Y-76612100D02*
X172116900Y-76612100D01*
X172116900Y-76612100D02*
X173888600Y-78383800D01*
X173888600Y-78383800D02*
X174460200Y-78383800D01*
X174460200Y-78383800D02*
X176156800Y-80080400D01*
X176156800Y-80080400D02*
X176156800Y-80652000D01*
X176156800Y-80652000D02*
X176838300Y-81333500D01*
X176838300Y-81333500D02*
X176838300Y-82100600D01*
X176838300Y-82100600D02*
X177270300Y-82532600D01*
X177270300Y-82532600D02*
X177270300Y-83030700D01*
X177270300Y-83030700D02*
X179192800Y-84953200D01*
X179192800Y-84953200D02*
X179192800Y-85595700D01*
X179192800Y-85595700D02*
X179887500Y-86290400D01*
X179887500Y-86290400D02*
X179887500Y-86365300D01*
X179887500Y-86365300D02*
X181450500Y-87928300D01*
X181450500Y-87928300D02*
X181450500Y-87997800D01*
X181450500Y-87997800D02*
X182359100Y-88906400D01*
X182359100Y-88906400D02*
X182359100Y-92981600D01*
X182359100Y-92981600D02*
X186416500Y-97039000D01*
X186416500Y-97039000D02*
X186416500Y-99086800D01*
X186416500Y-99086800D02*
X186538100Y-99208400D01*
X186538100Y-99208400D02*
X186538100Y-112174500D01*
X186538100Y-112174500D02*
X196893700Y-122530100D01*
X196893700Y-122530100D02*
X196893700Y-135630700D01*
X196893700Y-135630700D02*
X204371700Y-143108700D01*
X204371700Y-143108700D02*
X204371700Y-143751200D01*
X204371700Y-143751200D02*
X206653400Y-146032900D01*
X206653400Y-146032900D02*
X206653400Y-146515300D01*
X206653400Y-146515300D02*
X207107700Y-146969600D01*
X207107700Y-146969600D02*
X207107700Y-147269500D01*
X208638000Y-147375000D02*
X207107700Y-147269500D01*
X208638000Y-147375000D02*
X208598000Y-147415000D01*
X208598000Y-147415000D02*
X208598000Y-147955000D01*
X227668000Y-147375000D02*
X227668000Y-129750800D01*
X227668000Y-129750800D02*
X222905000Y-124987800D01*
X222905000Y-124987800D02*
X222905000Y-115515100D01*
X222905000Y-115515100D02*
X213023200Y-105633300D01*
X213023200Y-105633300D02*
X213023200Y-99204200D01*
X213023200Y-99204200D02*
X176155400Y-62336400D01*
X176155400Y-62336400D02*
X169925700Y-62336400D01*
X169925700Y-62336400D02*
X168728900Y-61139600D01*
X168728900Y-61139600D02*
X168728900Y-60174800D01*
X168728900Y-60174800D02*
X171273600Y-57630100D01*
X171273600Y-57630100D02*
X176227600Y-57630100D01*
X176227600Y-57630100D02*
X177340400Y-56517300D01*
X177340400Y-56517300D02*
X177340400Y-53372200D01*
X177340400Y-53372200D02*
X176213000Y-52244800D01*
X227648000Y-147955000D02*
X227648000Y-147395000D01*
X227648000Y-147395000D02*
X227668000Y-147375000D01*
X227688000Y-147375000D02*
X227668000Y-147375000D01*
X176213000Y-51117500D02*
X176213000Y-52244800D01*
X246738000Y-147375000D02*
X245207700Y-147269500D01*
X245207700Y-147269500D02*
X245207700Y-145844700D01*
X245207700Y-145844700D02*
X234099000Y-134736000D01*
X234099000Y-134736000D02*
X234099000Y-130420700D01*
X234099000Y-130420700D02*
X231971100Y-128292800D01*
X231971100Y-128292800D02*
X231971100Y-117488700D01*
X231971100Y-117488700D02*
X176252200Y-61769800D01*
X176252200Y-61769800D02*
X176213000Y-61769800D01*
X176213000Y-60642500D02*
X176213000Y-61769800D01*
X246738000Y-147375000D02*
X246698000Y-147415000D01*
X246698000Y-147415000D02*
X246698000Y-147955000D01*
X200818000Y-52244800D02*
X202399600Y-53826400D01*
X202399600Y-53826400D02*
X202399600Y-57423300D01*
X202399600Y-57423300D02*
X205121300Y-60145000D01*
X205121300Y-60145000D02*
X205121300Y-66137300D01*
X205121300Y-66137300D02*
X256850600Y-117866600D01*
X256850600Y-117866600D02*
X256850600Y-126906000D01*
X256850600Y-126906000D02*
X277359600Y-147415000D01*
X277359600Y-147415000D02*
X277654000Y-147415000D01*
X200818000Y-51117500D02*
X200818000Y-52244800D01*
X277654000Y-147415000D02*
X277654000Y-147955000D01*
X277694000Y-147375000D02*
X277654000Y-147415000D01*
X322898000Y-147375000D02*
X322898000Y-137480000D01*
X322898000Y-137480000D02*
X291011300Y-105593300D01*
X291011300Y-105593300D02*
X290610400Y-105593300D01*
X290610400Y-105593300D02*
X277387000Y-92369900D01*
X277387000Y-92369900D02*
X277387000Y-79506000D01*
X277387000Y-79506000D02*
X277973300Y-78919700D01*
X277973300Y-78919700D02*
X277973300Y-78317100D01*
X277973300Y-78317100D02*
X277736200Y-78080000D01*
X277736200Y-78080000D02*
X277736200Y-66523700D01*
X322898000Y-147375000D02*
X322898000Y-147955000D01*
X322938000Y-147375000D02*
X322898000Y-147375000D01*
X67008500Y-51117500D02*
X73215900Y-44910100D01*
X73215900Y-44910100D02*
X78797700Y-44910100D01*
X78797700Y-44910100D02*
X79369400Y-45481800D01*
X79369400Y-45481800D02*
X79369400Y-56715100D01*
X79369400Y-56715100D02*
X78737100Y-57347400D01*
X78737100Y-57347400D02*
X76197000Y-57347400D01*
X76197000Y-57347400D02*
X70822100Y-62722300D01*
X70822100Y-62722300D02*
X70822100Y-64917600D01*
X70822100Y-64917600D02*
X64431000Y-71308700D01*
X64431000Y-71308700D02*
X64431000Y-81675000D01*
X64431000Y-81675000D02*
X62906000Y-83200000D01*
X62906000Y-83200000D02*
X62906000Y-95418800D01*
X62906000Y-95418800D02*
X62451700Y-95873100D01*
X62451700Y-95873100D02*
X62451700Y-97600900D01*
X62451700Y-97600900D02*
X61808800Y-98243800D01*
X61808800Y-98243800D02*
X61808800Y-98564800D01*
X61808800Y-98564800D02*
X60555100Y-99818500D01*
X60555100Y-99818500D02*
X60555100Y-100461000D01*
X60555100Y-100461000D02*
X59622400Y-101393700D01*
X59622400Y-101393700D02*
X59622400Y-105635900D01*
X59622400Y-105635900D02*
X50969200Y-114289100D01*
X50969200Y-114289100D02*
X50969200Y-125601700D01*
X50969200Y-125601700D02*
X49155500Y-127415400D01*
X49155500Y-127415400D02*
X49155500Y-137783300D01*
X49155500Y-137783300D02*
X39946100Y-146992700D01*
X39946100Y-146992700D02*
X39946100Y-150507200D01*
X39946100Y-150507200D02*
X34908900Y-155544400D01*
X34908900Y-155544400D02*
X34908900Y-164934600D01*
X34908900Y-164934600D02*
X34909000Y-164934600D01*
X34806200Y-166425000D02*
X34909000Y-164934600D01*
X34766200Y-167005000D02*
X34766200Y-166465000D01*
X34766200Y-166465000D02*
X34806200Y-166425000D01*
X65881200Y-51117500D02*
X67008500Y-51117500D01*
X222250000Y-55562500D02*
X222250000Y-54435200D01*
X225425000Y-46037500D02*
X225425000Y-47164800D01*
X225425000Y-47164800D02*
X223377300Y-49212500D01*
X223377300Y-49212500D02*
X223377300Y-53307900D01*
X223377300Y-53307900D02*
X222250000Y-54435200D01*
X132222700Y-46037500D02*
X131768400Y-46491800D01*
X131768400Y-46491800D02*
X131768400Y-52853600D01*
X131768400Y-52853600D02*
X133350000Y-54435200D01*
X111918000Y-46037500D02*
X113045300Y-46037500D01*
X111918000Y-55562500D02*
X111918000Y-54435200D01*
X110790700Y-46037500D02*
X110790700Y-53307900D01*
X110790700Y-53307900D02*
X111918000Y-54435200D01*
X88439900Y-46037500D02*
X88439900Y-45896500D01*
X88439900Y-45896500D02*
X89426200Y-44910200D01*
X89426200Y-44910200D02*
X109804400Y-44910200D01*
X109804400Y-44910200D02*
X110790700Y-45896500D01*
X110790700Y-45896500D02*
X110790700Y-46037500D01*
X88439900Y-46037500D02*
X88439900Y-53307900D01*
X88439900Y-53307900D02*
X87312600Y-54435200D01*
X87312600Y-55562500D02*
X87312600Y-54435200D01*
X88326300Y-46037500D02*
X88439900Y-46037500D01*
X87312600Y-46037500D02*
X88326300Y-46037500D01*
X87312600Y-46037500D02*
X86185300Y-46037500D01*
X65881200Y-46601100D02*
X68063900Y-44418400D01*
X68063900Y-44418400D02*
X84707100Y-44418400D01*
X84707100Y-44418400D02*
X86185300Y-45896600D01*
X86185300Y-45896600D02*
X86185300Y-46037500D01*
X65881200Y-46601100D02*
X65881200Y-47164800D01*
X65881200Y-46037500D02*
X65881200Y-46601100D01*
X62706200Y-55562500D02*
X62706200Y-54435200D01*
X65881200Y-47164800D02*
X63833500Y-49212500D01*
X63833500Y-49212500D02*
X63833500Y-53307900D01*
X63833500Y-53307900D02*
X62706200Y-54435200D01*
X180515300Y-46037500D02*
X180515300Y-45896500D01*
X180515300Y-45896500D02*
X181501600Y-44910200D01*
X181501600Y-44910200D02*
X183525600Y-44910200D01*
X183525600Y-44910200D02*
X185309500Y-46694100D01*
X185309500Y-46694100D02*
X185309500Y-51690000D01*
X185309500Y-51690000D02*
X190320800Y-56701300D01*
X190320800Y-56701300D02*
X198637600Y-56701300D01*
X198637600Y-56701300D02*
X199690700Y-55648200D01*
X199690700Y-55648200D02*
X199690700Y-55562500D01*
X179388000Y-46037500D02*
X180515300Y-46037500D01*
X200818000Y-55562500D02*
X199690700Y-55562500D01*
X111918000Y-46037500D02*
X110790700Y-46037500D01*
X179388000Y-47164800D02*
X180515300Y-48292100D01*
X180515300Y-48292100D02*
X180515300Y-53307900D01*
X180515300Y-53307900D02*
X179388000Y-54435200D01*
X179388000Y-55562500D02*
X179388000Y-54435200D01*
X179388000Y-46037500D02*
X179388000Y-47164800D01*
X113045300Y-46037500D02*
X114172600Y-44910200D01*
X114172600Y-44910200D02*
X131236400Y-44910200D01*
X131236400Y-44910200D02*
X132222700Y-45896500D01*
X132222700Y-45896500D02*
X132222700Y-46037500D01*
X157956000Y-55562500D02*
X157956000Y-54435200D01*
X157956000Y-46037500D02*
X157956000Y-47164800D01*
X157956000Y-47164800D02*
X156828700Y-48292100D01*
X156828700Y-48292100D02*
X156828700Y-53307900D01*
X156828700Y-53307900D02*
X157956000Y-54435200D01*
X133350000Y-55562500D02*
X133350000Y-54435200D01*
X132336300Y-46037500D02*
X132222700Y-46037500D01*
X133350000Y-46037500D02*
X132336300Y-46037500D01*
X87312600Y-52244800D02*
X85785000Y-53772400D01*
X85785000Y-53772400D02*
X85785000Y-57400700D01*
X85785000Y-57400700D02*
X82616600Y-60569100D01*
X82616600Y-60569100D02*
X82616600Y-62606900D01*
X82616600Y-62606900D02*
X76239400Y-68984100D01*
X76239400Y-68984100D02*
X76239400Y-105494600D01*
X76239400Y-105494600D02*
X77613100Y-106868300D01*
X77613100Y-106868300D02*
X77613100Y-111232800D01*
X77613100Y-111232800D02*
X78067300Y-111687000D01*
X78067300Y-111687000D02*
X78067300Y-114445200D01*
X78067300Y-114445200D02*
X78417800Y-114795700D01*
X78417800Y-114795700D02*
X78417800Y-114889500D01*
X78417800Y-114889500D02*
X78872100Y-115343800D01*
X78872100Y-115343800D02*
X78872100Y-117034700D01*
X78872100Y-117034700D02*
X79326400Y-117489000D01*
X79326400Y-117489000D02*
X79326400Y-121764500D01*
X79326400Y-121764500D02*
X79789200Y-122227300D01*
X79789200Y-122227300D02*
X79789200Y-124647900D01*
X79789200Y-124647900D02*
X79326700Y-125110400D01*
X79326700Y-125110400D02*
X79326700Y-125364700D01*
X79326700Y-125364700D02*
X79204800Y-125486600D01*
X79204800Y-125486600D02*
X79204800Y-126744800D01*
X79204800Y-126744800D02*
X79178700Y-126770900D01*
X79178700Y-126770900D02*
X79178700Y-127257700D01*
X79178700Y-127257700D02*
X77625900Y-128810500D01*
X77625900Y-128810500D02*
X77625900Y-129452800D01*
X77625900Y-129452800D02*
X73301900Y-133776800D01*
X73301900Y-133776800D02*
X73301900Y-140580100D01*
X73301900Y-140580100D02*
X65865200Y-148016800D01*
X65865200Y-148016800D02*
X65865200Y-164934600D01*
X65865200Y-164934600D02*
X65865300Y-164934600D01*
X65762500Y-166425000D02*
X65865300Y-164934600D01*
X65722500Y-167005000D02*
X65722500Y-166465000D01*
X65722500Y-166465000D02*
X65762500Y-166425000D01*
X87312600Y-51117500D02*
X87312600Y-52244800D01*
X83282200Y-166319500D02*
X83282200Y-164894700D01*
X83282200Y-164894700D02*
X78756100Y-160368600D01*
X78756100Y-160368600D02*
X78756100Y-145595800D01*
X78756100Y-145595800D02*
X81572000Y-142779900D01*
X81572000Y-142779900D02*
X81572000Y-108026900D01*
X81572000Y-108026900D02*
X80175700Y-106630600D01*
X80175700Y-106630600D02*
X80175700Y-73957900D01*
X80175700Y-73957900D02*
X80395200Y-73738400D01*
X80395200Y-73738400D02*
X80395200Y-73302400D01*
X80395200Y-73302400D02*
X80849500Y-72848100D01*
X80849500Y-72848100D02*
X80849500Y-69302900D01*
X80849500Y-69302900D02*
X81303800Y-68848600D01*
X81303800Y-68848600D02*
X81303800Y-68421100D01*
X81303800Y-68421100D02*
X81579600Y-68145300D01*
X81579600Y-68145300D02*
X81579600Y-67502800D01*
X81579600Y-67502800D02*
X87312600Y-61769800D01*
X84812500Y-166425000D02*
X83282200Y-166319500D01*
X87312600Y-60642500D02*
X87312600Y-61769800D01*
X84812500Y-166425000D02*
X84772500Y-166465000D01*
X84772500Y-166465000D02*
X84772500Y-167005000D01*
X103862000Y-166425000D02*
X103964800Y-164934600D01*
X103964800Y-164934600D02*
X103964700Y-164934600D01*
X103964700Y-164934600D02*
X103964700Y-139860900D01*
X103964700Y-139860900D02*
X110154000Y-133671600D01*
X110154000Y-133671600D02*
X110154000Y-126953800D01*
X110154000Y-126953800D02*
X108784500Y-125584300D01*
X108784500Y-125584300D02*
X108784500Y-121901300D01*
X108784500Y-121901300D02*
X112846700Y-117839100D01*
X112846700Y-117839100D02*
X112846700Y-82419800D01*
X112846700Y-82419800D02*
X113140500Y-82126000D01*
X113140500Y-82126000D02*
X113140500Y-79212700D01*
X113140500Y-79212700D02*
X112913400Y-78985600D01*
X112913400Y-78985600D02*
X112913400Y-66612100D01*
X112913400Y-66612100D02*
X107573000Y-61271700D01*
X107573000Y-61271700D02*
X107573000Y-60199200D01*
X107573000Y-60199200D02*
X110305900Y-57466300D01*
X110305900Y-57466300D02*
X112135500Y-57466300D01*
X112135500Y-57466300D02*
X113059000Y-56542800D01*
X113059000Y-56542800D02*
X113059000Y-53385800D01*
X113059000Y-53385800D02*
X111918000Y-52244800D01*
X103822000Y-167005000D02*
X103822000Y-166465000D01*
X103822000Y-166465000D02*
X103862000Y-166425000D01*
X111918000Y-51117500D02*
X111918000Y-52244800D01*
X122892000Y-166425000D02*
X122892000Y-154256700D01*
X122892000Y-154256700D02*
X112149000Y-143513700D01*
X112149000Y-143513700D02*
X112149000Y-126823000D01*
X112149000Y-126823000D02*
X114049100Y-124922900D01*
X114049100Y-124922900D02*
X114049100Y-63900900D01*
X114049100Y-63900900D02*
X111918000Y-61769800D01*
X122872000Y-167005000D02*
X122872000Y-166445000D01*
X122872000Y-166445000D02*
X122892000Y-166425000D01*
X122912000Y-166425000D02*
X122892000Y-166425000D01*
X111918000Y-60642500D02*
X111918000Y-61769800D01*
X133350000Y-52244800D02*
X134943300Y-53838100D01*
X134943300Y-53838100D02*
X134943300Y-69018400D01*
X134943300Y-69018400D02*
X136929600Y-71004700D01*
X136929600Y-71004700D02*
X136929600Y-83394900D01*
X136929600Y-83394900D02*
X136500100Y-83824400D01*
X136500100Y-83824400D02*
X136500100Y-85071300D01*
X136500100Y-85071300D02*
X135900800Y-85670600D01*
X135900800Y-85670600D02*
X135900800Y-107072200D01*
X135900800Y-107072200D02*
X135206200Y-107766800D01*
X135206200Y-107766800D02*
X135206200Y-111249000D01*
X135206200Y-111249000D02*
X139126700Y-115169500D01*
X139126700Y-115169500D02*
X139126700Y-124505700D01*
X139126700Y-124505700D02*
X141942000Y-127321000D01*
X141942000Y-127321000D02*
X141942000Y-166425000D01*
X141922000Y-167005000D02*
X141922000Y-166445000D01*
X141922000Y-166445000D02*
X141942000Y-166425000D01*
X141942000Y-166425000D02*
X141962000Y-166425000D01*
X133350000Y-51117500D02*
X133350000Y-52244800D01*
X157956000Y-51117500D02*
X157956000Y-49990200D01*
X157956000Y-49990200D02*
X159083400Y-48862800D01*
X159083400Y-48862800D02*
X159083400Y-45099200D01*
X159083400Y-45099200D02*
X158894400Y-44910200D01*
X158894400Y-44910200D02*
X150670400Y-44910200D01*
X150670400Y-44910200D02*
X150012700Y-45567900D01*
X150012700Y-45567900D02*
X150012700Y-56725600D01*
X150012700Y-56725600D02*
X147511700Y-59226600D01*
X147511700Y-59226600D02*
X145046000Y-59226600D01*
X145046000Y-59226600D02*
X143619800Y-60652800D01*
X143619800Y-60652800D02*
X143619800Y-71955800D01*
X143619800Y-71955800D02*
X139073300Y-76502300D01*
X139073300Y-76502300D02*
X139073300Y-83633600D01*
X139073300Y-83633600D02*
X138863400Y-83843500D01*
X138863400Y-83843500D02*
X138863400Y-101499300D01*
X138863400Y-101499300D02*
X137369300Y-102993400D01*
X137369300Y-102993400D02*
X137369300Y-106476300D01*
X137369300Y-106476300D02*
X140214200Y-109321200D01*
X140214200Y-109321200D02*
X140214200Y-122622300D01*
X140214200Y-122622300D02*
X144513200Y-126921300D01*
X144513200Y-126921300D02*
X144513200Y-143950100D01*
X144513200Y-143950100D02*
X154563500Y-154000400D01*
X154563500Y-154000400D02*
X154563500Y-166425000D01*
X160972000Y-167005000D02*
X160972000Y-166465000D01*
X160972000Y-166465000D02*
X161012000Y-166425000D01*
X180164800Y-164934600D02*
X180164700Y-164934600D01*
X180164700Y-164934600D02*
X180164700Y-125380200D01*
X180164700Y-125380200D02*
X180134000Y-125349500D01*
X180134000Y-125349500D02*
X180134000Y-125186400D01*
X180134000Y-125186400D02*
X179607700Y-124660100D01*
X179607700Y-124660100D02*
X179607700Y-113643000D01*
X179607700Y-113643000D02*
X177852500Y-111887800D01*
X177852500Y-111887800D02*
X177852500Y-110603200D01*
X177852500Y-110603200D02*
X177554200Y-110304900D01*
X177554200Y-110304900D02*
X177554200Y-108508700D01*
X177554200Y-108508700D02*
X177270700Y-108225200D01*
X177270700Y-108225200D02*
X177270700Y-108094200D01*
X177270700Y-108094200D02*
X175248200Y-106071700D01*
X175248200Y-106071700D02*
X175248200Y-80456800D01*
X175248200Y-80456800D02*
X174083800Y-79292400D01*
X174083800Y-79292400D02*
X173441300Y-79292400D01*
X173441300Y-79292400D02*
X173427900Y-79279000D01*
X173427900Y-79279000D02*
X171325200Y-79279000D01*
X171325200Y-79279000D02*
X171189600Y-79143400D01*
X171189600Y-79143400D02*
X171109300Y-79143400D01*
X171109300Y-79143400D02*
X161129400Y-69163500D01*
X161129400Y-69163500D02*
X161129400Y-68521100D01*
X161129400Y-68521100D02*
X158410200Y-65801900D01*
X158410200Y-65801900D02*
X158410200Y-64113900D01*
X158410200Y-64113900D02*
X158183000Y-63886700D01*
X158183000Y-63886700D02*
X158183000Y-63130700D01*
X158183000Y-63130700D02*
X157956000Y-62903700D01*
X157956000Y-62903700D02*
X157956000Y-60642500D01*
X180062000Y-166425000D02*
X180164800Y-164934600D01*
X180022000Y-167005000D02*
X180022000Y-166465000D01*
X180022000Y-166465000D02*
X180062000Y-166425000D01*
X199072000Y-167005000D02*
X200597500Y-168530500D01*
X200597500Y-168530500D02*
X218737000Y-168530500D01*
X218737000Y-168530500D02*
X219675900Y-167591600D01*
X219675900Y-167591600D02*
X219675900Y-165316600D01*
X219675900Y-165316600D02*
X218340700Y-163981400D01*
X218340700Y-163981400D02*
X218340700Y-154077200D01*
X218340700Y-154077200D02*
X208816800Y-144553300D01*
X208816800Y-144553300D02*
X208816800Y-130121900D01*
X208816800Y-130121900D02*
X203386400Y-124691500D01*
X203386400Y-124691500D02*
X203386400Y-122013600D01*
X203386400Y-122013600D02*
X190567600Y-109194800D01*
X190567600Y-109194800D02*
X190567600Y-94063700D01*
X190567600Y-94063700D02*
X179894400Y-83390500D01*
X179894400Y-83390500D02*
X179894400Y-77100600D01*
X179894400Y-77100600D02*
X166226100Y-63432300D01*
X166226100Y-63432300D02*
X165822700Y-63432300D01*
X165822700Y-63432300D02*
X163345000Y-60954600D01*
X163345000Y-60954600D02*
X163345000Y-46001000D01*
X163345000Y-46001000D02*
X165377600Y-43968400D01*
X165377600Y-43968400D02*
X225474100Y-43968400D01*
X225474100Y-43968400D02*
X226611400Y-45105700D01*
X226611400Y-45105700D02*
X226611400Y-48803800D01*
X226611400Y-48803800D02*
X225425000Y-49990200D01*
X199112000Y-166425000D02*
X199072000Y-166465000D01*
X199072000Y-166465000D02*
X199072000Y-167005000D01*
X225425000Y-51117500D02*
X225425000Y-49990200D01*
X218142000Y-166425000D02*
X218162000Y-166425000D01*
X218122000Y-167005000D02*
X218122000Y-166445000D01*
X218122000Y-166445000D02*
X218142000Y-166425000D01*
X133350000Y-59515200D02*
X134477400Y-58387800D01*
X134477400Y-58387800D02*
X134477400Y-54064200D01*
X134477400Y-54064200D02*
X132222700Y-51809500D01*
X132222700Y-51809500D02*
X132222700Y-49306600D01*
X132222700Y-49306600D02*
X135397600Y-46131700D01*
X135397600Y-46131700D02*
X135397600Y-45096800D01*
X135397600Y-45096800D02*
X136505800Y-43988600D01*
X136505800Y-43988600D02*
X159294300Y-43988600D01*
X159294300Y-43988600D02*
X162801900Y-47496200D01*
X162801900Y-47496200D02*
X162801900Y-67187400D01*
X162801900Y-67187400D02*
X167794900Y-72180400D01*
X167794900Y-72180400D02*
X169547200Y-72180400D01*
X169547200Y-72180400D02*
X178283700Y-80916900D01*
X178283700Y-80916900D02*
X178283700Y-82759100D01*
X178283700Y-82759100D02*
X188370500Y-92845900D01*
X188370500Y-92845900D02*
X188370500Y-108172500D01*
X188370500Y-108172500D02*
X202704900Y-122506900D01*
X202704900Y-122506900D02*
X202704900Y-124973600D01*
X202704900Y-124973600D02*
X207618800Y-129887500D01*
X207618800Y-129887500D02*
X207618800Y-144260000D01*
X207618800Y-144260000D02*
X217499500Y-154140700D01*
X217499500Y-154140700D02*
X217499500Y-165782500D01*
X217499500Y-165782500D02*
X218142000Y-166425000D01*
X133350000Y-60642500D02*
X133350000Y-59515200D01*
X235681700Y-166319500D02*
X235681700Y-165537100D01*
X235681700Y-165537100D02*
X232347700Y-162203100D01*
X232347700Y-162203100D02*
X232347700Y-161560700D01*
X232347700Y-161560700D02*
X221403200Y-150616200D01*
X221403200Y-150616200D02*
X221403200Y-132853400D01*
X221403200Y-132853400D02*
X220948900Y-132399100D01*
X220948900Y-132399100D02*
X220948900Y-130373700D01*
X220948900Y-130373700D02*
X220313900Y-129738700D01*
X220313900Y-129738700D02*
X220313900Y-129096200D01*
X220313900Y-129096200D02*
X203463500Y-112245800D01*
X203463500Y-112245800D02*
X203463500Y-101631900D01*
X203463500Y-101631900D02*
X184330700Y-82499100D01*
X184330700Y-82499100D02*
X184330700Y-81199700D01*
X184330700Y-81199700D02*
X183652600Y-80521600D01*
X183652600Y-80521600D02*
X183652600Y-79879100D01*
X183652600Y-79879100D02*
X180929700Y-77156200D01*
X180929700Y-77156200D02*
X180929700Y-76701800D01*
X180929700Y-76701800D02*
X166688200Y-62460300D01*
X166688200Y-62460300D02*
X166233800Y-62460300D01*
X166233800Y-62460300D02*
X165106200Y-61332700D01*
X165106200Y-61332700D02*
X165106200Y-44912800D01*
X165106200Y-44912800D02*
X165563200Y-44455800D01*
X165563200Y-44455800D02*
X177401900Y-44455800D01*
X177401900Y-44455800D02*
X177794700Y-44848600D01*
X177794700Y-44848600D02*
X177794700Y-48396900D01*
X177794700Y-48396900D02*
X179388000Y-49990200D01*
X237212000Y-166425000D02*
X235681700Y-166319500D01*
X237172000Y-167005000D02*
X237172000Y-166465000D01*
X237172000Y-166465000D02*
X237212000Y-166425000D01*
X179388000Y-51117500D02*
X179388000Y-49990200D01*
X263406000Y-166425000D02*
X261875700Y-166319500D01*
X179388000Y-61769800D02*
X179731300Y-61769800D01*
X179731300Y-61769800D02*
X227037900Y-109076400D01*
X227037900Y-109076400D02*
X227037900Y-111743300D01*
X227037900Y-111743300D02*
X232615500Y-117320900D01*
X232615500Y-117320900D02*
X232615500Y-128294400D01*
X232615500Y-128294400D02*
X245656800Y-141335700D01*
X245656800Y-141335700D02*
X245656800Y-144198100D01*
X245656800Y-144198100D02*
X248988700Y-147530000D01*
X248988700Y-147530000D02*
X248988700Y-152007700D01*
X248988700Y-152007700D02*
X261875700Y-164894700D01*
X261875700Y-164894700D02*
X261875700Y-166319500D01*
X263406000Y-166425000D02*
X263366000Y-166465000D01*
X263366000Y-166465000D02*
X263366000Y-167005000D01*
X179388000Y-60642500D02*
X179388000Y-61769800D01*
X299125000Y-171188000D02*
X297594700Y-171082500D01*
X297594700Y-171082500D02*
X297594700Y-169657700D01*
X297594700Y-169657700D02*
X287073200Y-159136200D01*
X287073200Y-159136200D02*
X287073200Y-128404100D01*
X287073200Y-128404100D02*
X284813500Y-126144400D01*
X284813500Y-126144400D02*
X282859300Y-126144400D01*
X282859300Y-126144400D02*
X278553200Y-121838300D01*
X278553200Y-121838300D02*
X278553200Y-116999600D01*
X278553200Y-116999600D02*
X264566700Y-103013100D01*
X264566700Y-103013100D02*
X264566700Y-101175900D01*
X264566700Y-101175900D02*
X246186800Y-82796000D01*
X246186800Y-82796000D02*
X243276200Y-82796000D01*
X243276200Y-82796000D02*
X222250000Y-61769800D01*
X299085000Y-171768000D02*
X299085000Y-171228000D01*
X299085000Y-171228000D02*
X299125000Y-171188000D01*
X222250000Y-60642500D02*
X222250000Y-61769800D01*
X200818000Y-60642500D02*
X200818000Y-63861900D01*
X200818000Y-63861900D02*
X251477000Y-114520900D01*
X251477000Y-114520900D02*
X251477000Y-130462700D01*
X251477000Y-130462700D02*
X278406900Y-157392600D01*
X278406900Y-157392600D02*
X278406900Y-164340100D01*
X322938000Y-166425000D02*
X322898000Y-166465000D01*
X322898000Y-166465000D02*
X322898000Y-167005000D01*
X64978900Y-68951200D02*
X62830700Y-71099400D01*
X62830700Y-71099400D02*
X62830700Y-78987200D01*
X62830700Y-78987200D02*
X61694800Y-80123100D01*
X61694800Y-80123100D02*
X61694800Y-97715300D01*
X61694800Y-97715300D02*
X61354500Y-98055600D01*
X61354500Y-98055600D02*
X61354500Y-98163900D01*
X61354500Y-98163900D02*
X60953800Y-98564600D01*
X60953800Y-98564600D02*
X60953800Y-98777300D01*
X60953800Y-98777300D02*
X60100700Y-99630400D01*
X60100700Y-99630400D02*
X60100700Y-100060300D01*
X60100700Y-100060300D02*
X58995900Y-101165100D01*
X58995900Y-101165100D02*
X58995900Y-101807500D01*
X58995900Y-101807500D02*
X51762900Y-109040500D01*
X51762900Y-109040500D02*
X51762900Y-109812900D01*
X51762900Y-109812900D02*
X50514800Y-111061000D01*
X50514800Y-111061000D02*
X50514800Y-123985400D01*
X50514800Y-123985400D02*
X48224700Y-126275500D01*
X48224700Y-126275500D02*
X48224700Y-137276500D01*
X48224700Y-137276500D02*
X47316100Y-138185100D01*
X47316100Y-138185100D02*
X47316100Y-138980200D01*
X47316100Y-138980200D02*
X39331400Y-146964900D01*
X39331400Y-146964900D02*
X39331400Y-147607400D01*
X39331400Y-147607400D02*
X38780200Y-148158600D01*
X38780200Y-148158600D02*
X38780200Y-148801100D01*
X38780200Y-148801100D02*
X27242300Y-160339000D01*
X27242300Y-160339000D02*
X27242300Y-178134500D01*
X27242300Y-178134500D02*
X25383900Y-179992900D01*
X25383900Y-179992900D02*
X25383900Y-183984600D01*
X25383900Y-183984600D02*
X25384000Y-183984600D01*
X25281200Y-185475000D02*
X25384000Y-183984600D01*
X25241200Y-186055000D02*
X25241200Y-185515000D01*
X25241200Y-185515000D02*
X25281200Y-185475000D01*
X136525000Y-47164800D02*
X134934500Y-48755300D01*
X134934500Y-48755300D02*
X134934500Y-52844700D01*
X134934500Y-52844700D02*
X136525000Y-54435200D01*
X233362000Y-50800000D02*
X232234700Y-50800000D01*
X225425000Y-55562500D02*
X227472200Y-55562500D01*
X227472200Y-55562500D02*
X232234700Y-50800000D01*
X182563000Y-55562500D02*
X182563000Y-54435200D01*
X182563000Y-46037500D02*
X182563000Y-47164800D01*
X182563000Y-47164800D02*
X181435700Y-48292100D01*
X181435700Y-48292100D02*
X181435700Y-53307900D01*
X181435700Y-53307900D02*
X182563000Y-54435200D01*
X136525000Y-55562500D02*
X136525000Y-54435200D01*
X136525000Y-46037500D02*
X136525000Y-47164800D01*
X90487600Y-55562500D02*
X90487600Y-54435200D01*
X90487600Y-46037500D02*
X90487600Y-47164800D01*
X90487600Y-47164800D02*
X89360300Y-48292100D01*
X89360300Y-48292100D02*
X89360300Y-53307900D01*
X89360300Y-53307900D02*
X90487600Y-54435200D01*
X49053800Y-186055000D02*
X49487300Y-186488500D01*
X49487300Y-186488500D02*
X59665400Y-186488500D01*
X59665400Y-186488500D02*
X76774300Y-169379600D01*
X76774300Y-169379600D02*
X76774300Y-145961600D01*
X76774300Y-145961600D02*
X75447000Y-144634300D01*
X75447000Y-144634300D02*
X75447000Y-140951300D01*
X75447000Y-140951300D02*
X80753700Y-135644600D01*
X80753700Y-135644600D02*
X80753700Y-113088400D01*
X80753700Y-113088400D02*
X78521700Y-110856400D01*
X78521700Y-110856400D02*
X78521700Y-108345800D01*
X78521700Y-108345800D02*
X79721400Y-107146100D01*
X79721400Y-107146100D02*
X79721400Y-73769700D01*
X79721400Y-73769700D02*
X79940900Y-73550200D01*
X79940900Y-73550200D02*
X79940900Y-72887200D01*
X79940900Y-72887200D02*
X80395200Y-72432900D01*
X80395200Y-72432900D02*
X80395200Y-69114700D01*
X80395200Y-69114700D02*
X80849500Y-68660400D01*
X80849500Y-68660400D02*
X80849500Y-67495200D01*
X80849500Y-67495200D02*
X85725100Y-62619600D01*
X85725100Y-62619600D02*
X85725100Y-60578700D01*
X85725100Y-60578700D02*
X89613900Y-56689900D01*
X89613900Y-56689900D02*
X91489900Y-56689900D01*
X91489900Y-56689900D02*
X91615000Y-56564800D01*
X91615000Y-56564800D02*
X91615000Y-53372200D01*
X91615000Y-53372200D02*
X90487600Y-52244800D01*
X49053800Y-186055000D02*
X49053800Y-185515000D01*
X49053800Y-185515000D02*
X49093800Y-185475000D01*
X90487600Y-51117500D02*
X90487600Y-52244800D01*
X90487600Y-60642500D02*
X90487600Y-81166900D01*
X90487600Y-81166900D02*
X87154600Y-84499900D01*
X87154600Y-84499900D02*
X87154600Y-99992100D01*
X87154600Y-99992100D02*
X85337000Y-101809700D01*
X85337000Y-101809700D02*
X85337000Y-105692400D01*
X85337000Y-105692400D02*
X83568600Y-107460800D01*
X83568600Y-107460800D02*
X83568600Y-115705600D01*
X83568600Y-115705600D02*
X85338400Y-117475400D01*
X85338400Y-117475400D02*
X85338400Y-150186200D01*
X85338400Y-150186200D02*
X93625000Y-158472800D01*
X93625000Y-158472800D02*
X93625000Y-171374500D01*
X93625000Y-171374500D02*
X78500600Y-186498900D01*
X78500600Y-186498900D02*
X73310100Y-186498900D01*
X73310100Y-186498900D02*
X72866200Y-186055000D01*
X72866200Y-186055000D02*
X72866200Y-185515000D01*
X72866200Y-185515000D02*
X72906200Y-185475000D01*
X136525000Y-52244800D02*
X138106700Y-53826500D01*
X138106700Y-53826500D02*
X138106700Y-56686200D01*
X138106700Y-56686200D02*
X137652400Y-57140500D01*
X137652400Y-57140500D02*
X137652400Y-83127000D01*
X137652400Y-83127000D02*
X137500500Y-83278900D01*
X137500500Y-83278900D02*
X137500500Y-83466500D01*
X137500500Y-83466500D02*
X136954400Y-84012600D01*
X136954400Y-84012600D02*
X136954400Y-85259500D01*
X136954400Y-85259500D02*
X136355100Y-85858800D01*
X136355100Y-85858800D02*
X136355100Y-107581600D01*
X136355100Y-107581600D02*
X135660500Y-108276200D01*
X135660500Y-108276200D02*
X135660500Y-110853500D01*
X135660500Y-110853500D02*
X139750900Y-114943900D01*
X139750900Y-114943900D02*
X139750900Y-122801900D01*
X139750900Y-122801900D02*
X143831700Y-126882700D01*
X143831700Y-126882700D02*
X143831700Y-144553800D01*
X143831700Y-144553800D02*
X153162000Y-153884100D01*
X153162000Y-153884100D02*
X153162000Y-183299600D01*
X153162000Y-183299600D02*
X149973100Y-186488500D01*
X149973100Y-186488500D02*
X144737500Y-186488500D01*
X144737500Y-186488500D02*
X144304000Y-186055000D01*
X136525000Y-51117500D02*
X136525000Y-52244800D01*
X144344000Y-185475000D02*
X144304000Y-185515000D01*
X144304000Y-185515000D02*
X144304000Y-186055000D01*
X136525000Y-60642500D02*
X136525000Y-57625400D01*
X136525000Y-57625400D02*
X137652300Y-56498100D01*
X137652300Y-56498100D02*
X137652300Y-54626900D01*
X137652300Y-54626900D02*
X135397700Y-52372300D01*
X135397700Y-52372300D02*
X135397700Y-50633700D01*
X135397700Y-50633700D02*
X141575700Y-44455700D01*
X141575700Y-44455700D02*
X159083700Y-44455700D01*
X159083700Y-44455700D02*
X161583700Y-46955700D01*
X161583700Y-46955700D02*
X161583700Y-68933500D01*
X161583700Y-68933500D02*
X170430700Y-77780500D01*
X170430700Y-77780500D02*
X172607100Y-77780500D01*
X172607100Y-77780500D02*
X173664700Y-78838100D01*
X173664700Y-78838100D02*
X174272000Y-78838100D01*
X174272000Y-78838100D02*
X175702500Y-80268600D01*
X175702500Y-80268600D02*
X175702500Y-97596400D01*
X175702500Y-97596400D02*
X180125800Y-102019700D01*
X180125800Y-102019700D02*
X180125800Y-106449300D01*
X180125800Y-106449300D02*
X178824000Y-107751100D01*
X178824000Y-107751100D02*
X178824000Y-109439400D01*
X178824000Y-109439400D02*
X181042600Y-111658000D01*
X181042600Y-111658000D02*
X181042600Y-151104100D01*
X181042600Y-151104100D02*
X215433500Y-185495000D01*
X215433500Y-185495000D02*
X218122000Y-185495000D01*
X218162000Y-185475000D02*
X218142000Y-185495000D01*
X218142000Y-185495000D02*
X218122000Y-185495000D01*
X218122000Y-185495000D02*
X218122000Y-186055000D01*
X246718000Y-185475000D02*
X246718000Y-173800100D01*
X246718000Y-173800100D02*
X235842300Y-162924400D01*
X235842300Y-162924400D02*
X235842300Y-159129200D01*
X235842300Y-159129200D02*
X223905600Y-147192500D01*
X223905600Y-147192500D02*
X223905600Y-132045100D01*
X223905600Y-132045100D02*
X211415300Y-119554800D01*
X211415300Y-119554800D02*
X211415300Y-108714300D01*
X211415300Y-108714300D02*
X184785000Y-82084000D01*
X184785000Y-82084000D02*
X184785000Y-79816600D01*
X184785000Y-79816600D02*
X166974400Y-62006000D01*
X166974400Y-62006000D02*
X166439100Y-62006000D01*
X166439100Y-62006000D02*
X165560500Y-61127400D01*
X165560500Y-61127400D02*
X165560500Y-45101000D01*
X165560500Y-45101000D02*
X165751400Y-44910100D01*
X165751400Y-44910100D02*
X177213700Y-44910100D01*
X177213700Y-44910100D02*
X177340400Y-45036800D01*
X177340400Y-45036800D02*
X177340400Y-49708000D01*
X177340400Y-49708000D02*
X178231600Y-50599200D01*
X178231600Y-50599200D02*
X178231600Y-56478300D01*
X178231600Y-56478300D02*
X178521500Y-56768200D01*
X178521500Y-56768200D02*
X183492700Y-56768200D01*
X183492700Y-56768200D02*
X183690400Y-56570500D01*
X183690400Y-56570500D02*
X183690400Y-53372200D01*
X183690400Y-53372200D02*
X182563000Y-52244800D01*
X246698000Y-186055000D02*
X246698000Y-185495000D01*
X246698000Y-185495000D02*
X246718000Y-185475000D01*
X246718000Y-185475000D02*
X246738000Y-185475000D01*
X182563000Y-51117500D02*
X182563000Y-52244800D01*
X182563000Y-60642500D02*
X182563000Y-63906300D01*
X182563000Y-63906300D02*
X234801300Y-116144600D01*
X234801300Y-116144600D02*
X234801300Y-123985100D01*
X234801300Y-123985100D02*
X246916700Y-136100500D01*
X246916700Y-136100500D02*
X246916700Y-144553200D01*
X246916700Y-144553200D02*
X250262000Y-147898500D01*
X250262000Y-147898500D02*
X250262000Y-149621800D01*
X250262000Y-149621800D02*
X262928300Y-162288100D01*
X262928300Y-162288100D02*
X262928300Y-162900100D01*
X262928300Y-162900100D02*
X280055000Y-180026800D01*
X280055000Y-180026800D02*
X280055000Y-190238000D01*
X280035000Y-190818000D02*
X280035000Y-190258000D01*
X280035000Y-190258000D02*
X280055000Y-190238000D01*
X280075000Y-190238000D02*
X280055000Y-190238000D01*
X203994000Y-51117500D02*
X203994000Y-52244800D01*
X300700500Y-188448800D02*
X299303700Y-187052000D01*
X299303700Y-187052000D02*
X299303700Y-180765900D01*
X299303700Y-180765900D02*
X279929200Y-161391400D01*
X279929200Y-161391400D02*
X279929200Y-146130400D01*
X279929200Y-146130400D02*
X277232600Y-143433800D01*
X277232600Y-143433800D02*
X277232600Y-140233400D01*
X277232600Y-140233400D02*
X266752400Y-129753200D01*
X266752400Y-129753200D02*
X265849100Y-129753200D01*
X265849100Y-129753200D02*
X260491900Y-124396000D01*
X260491900Y-124396000D02*
X260491900Y-116134400D01*
X260491900Y-116134400D02*
X251001500Y-106644000D01*
X251001500Y-106644000D02*
X248326900Y-106644000D01*
X248326900Y-106644000D02*
X229923100Y-88240200D01*
X229923100Y-88240200D02*
X229923100Y-84779200D01*
X229923100Y-84779200D02*
X226914800Y-81770900D01*
X226914800Y-81770900D02*
X226914800Y-76764900D01*
X226914800Y-76764900D02*
X207311600Y-57161700D01*
X207311600Y-57161700D02*
X207311600Y-55562400D01*
X207311600Y-55562400D02*
X203994000Y-52244800D01*
X299125000Y-190238000D02*
X299085000Y-190278000D01*
X299085000Y-190278000D02*
X299085000Y-190818000D01*
X318175000Y-190238000D02*
X318135000Y-190278000D01*
X318135000Y-190278000D02*
X318135000Y-190818000D01*
X203994000Y-60642500D02*
X203994000Y-65652500D01*
X203994000Y-65652500D02*
X256396300Y-118054800D01*
X256396300Y-118054800D02*
X256396300Y-130400300D01*
X256396300Y-130400300D02*
X279175800Y-153179800D01*
X279175800Y-153179800D02*
X279175800Y-163330200D01*
X279175800Y-163330200D02*
X298630700Y-182785100D01*
X298630700Y-182785100D02*
X298630700Y-187407500D01*
X298630700Y-187407500D02*
X302444200Y-191221000D01*
X302444200Y-191221000D02*
X317732000Y-191221000D01*
X317732000Y-191221000D02*
X318135000Y-190818000D01*
X275837100Y-79706300D02*
X276064300Y-79479100D01*
X276064300Y-79479100D02*
X276064300Y-65881900D01*
X276064300Y-65881900D02*
X292350000Y-49596200D01*
X292350000Y-49596200D02*
X292350000Y-46375000D01*
X214948000Y-83502500D02*
X215939700Y-82397300D01*
X225868500Y-101824100D02*
X225868500Y-94423000D01*
X225868500Y-94423000D02*
X216430800Y-84985300D01*
X216430800Y-84985300D02*
X216430800Y-82888400D01*
X216430800Y-82888400D02*
X215939700Y-82397300D01*
X224472000Y-183515000D02*
X225463700Y-182409800D01*
X225463700Y-182409800D02*
X223162000Y-180108100D01*
X223162000Y-180108100D02*
X223162000Y-165925000D01*
X224472000Y-183515000D02*
X223162000Y-184825000D01*
X223162000Y-184825000D02*
X223162000Y-184975000D01*
X213638000Y-146875000D02*
X224472000Y-157709000D01*
X224472000Y-157709000D02*
X224472000Y-162368100D01*
X224472000Y-162368100D02*
X225463700Y-163359800D01*
X213638000Y-146875000D02*
X214948000Y-145565000D01*
X214948000Y-145565000D02*
X214948000Y-145415000D01*
X224472000Y-164465000D02*
X225463700Y-163359800D01*
X208875000Y-127825000D02*
X214948000Y-133898000D01*
X214948000Y-133898000D02*
X214948000Y-143318100D01*
X214948000Y-143318100D02*
X215939700Y-144309800D01*
X214948000Y-145415000D02*
X215939700Y-144309800D01*
X208875000Y-127825000D02*
X210185000Y-126515000D01*
X210185000Y-126515000D02*
X210185000Y-126365000D01*
X223162000Y-165925000D02*
X223162000Y-165775000D01*
X223162000Y-165775000D02*
X224472000Y-164465000D01*
X210185000Y-126365000D02*
X211176700Y-125259800D01*
X214948000Y-83502500D02*
X213638000Y-84812500D01*
X213638000Y-84812500D02*
X213638000Y-84962500D01*
X199350000Y-108775000D02*
X210185000Y-119610000D01*
X210185000Y-119610000D02*
X210185000Y-124268100D01*
X210185000Y-124268100D02*
X211176700Y-125259800D01*
X200660000Y-107315000D02*
X199350000Y-108625000D01*
X199350000Y-108625000D02*
X199350000Y-108775000D01*
X33493700Y-126365000D02*
X33493700Y-117677700D01*
X33493700Y-117677700D02*
X30173600Y-114357600D01*
X30201700Y-106209800D02*
X29272000Y-105280100D01*
X29272000Y-105280100D02*
X29272000Y-104189800D01*
X29272000Y-104189800D02*
X31288100Y-102173700D01*
X31288100Y-102173700D02*
X31288100Y-98846500D01*
X31288100Y-98846500D02*
X31703600Y-98431000D01*
X31703600Y-98431000D02*
X31703600Y-95831200D01*
X31703600Y-95831200D02*
X39267200Y-88267600D01*
X39267200Y-88267600D02*
X39267200Y-88126500D01*
X32662500Y-127825000D02*
X32662500Y-127196200D01*
X32662500Y-127196200D02*
X33493700Y-126365000D01*
X33493700Y-126365000D02*
X33972500Y-126365000D01*
X42107900Y-163359800D02*
X41178200Y-162430100D01*
X41178200Y-162430100D02*
X41178200Y-147852300D01*
X41178200Y-147852300D02*
X41771100Y-147259400D01*
X41771100Y-147259400D02*
X41771100Y-146875000D01*
X41116200Y-164465000D02*
X42107900Y-163359800D01*
X38814600Y-167030300D02*
X38814500Y-167030300D01*
X32582900Y-182409800D02*
X33189300Y-182409800D01*
X33189300Y-182409800D02*
X38814600Y-176784500D01*
X38814600Y-176784500D02*
X38814600Y-167030400D01*
X38814600Y-167030400D02*
X38814600Y-167030300D01*
X39806200Y-165925000D02*
X39806200Y-166038700D01*
X39806200Y-166038700D02*
X38814600Y-167030300D01*
X41116200Y-164465000D02*
X38814500Y-167030300D01*
X29210000Y-107315000D02*
X30201700Y-106209800D01*
X32662500Y-127825000D02*
X32662500Y-130392600D01*
X32662500Y-130392600D02*
X36353800Y-134083900D01*
X36353800Y-134083900D02*
X36353800Y-143318100D01*
X36353800Y-143318100D02*
X37345500Y-144309800D01*
X27900000Y-108775000D02*
X29210000Y-107465000D01*
X29210000Y-107465000D02*
X29210000Y-107315000D01*
X29210000Y-83502500D02*
X27900000Y-84812500D01*
X27900000Y-84812500D02*
X27900000Y-84962500D01*
X30281200Y-184975000D02*
X31591200Y-183665000D01*
X31591200Y-183665000D02*
X31591200Y-183515000D01*
X31591200Y-183515000D02*
X32582900Y-182409800D01*
X35043800Y-146875000D02*
X36353800Y-145565000D01*
X36353800Y-145565000D02*
X36353800Y-145415000D01*
X36353800Y-145415000D02*
X37345500Y-144309800D01*
X55403800Y-183515000D02*
X56395500Y-182409800D01*
X65109800Y-168518600D02*
X68168900Y-168518600D01*
X68168900Y-168518600D02*
X70762500Y-165925000D01*
X61892500Y-146875000D02*
X61892500Y-165301300D01*
X61892500Y-165301300D02*
X65109800Y-168518600D01*
X56395500Y-182409800D02*
X56995500Y-182409800D01*
X56995500Y-182409800D02*
X63783100Y-175622200D01*
X63783100Y-175622200D02*
X63783100Y-169845300D01*
X63783100Y-169845300D02*
X65109800Y-168518600D01*
X54093800Y-184975000D02*
X54093800Y-184825000D01*
X54093800Y-184825000D02*
X55403800Y-183515000D01*
X62547500Y-145415000D02*
X62547500Y-146220000D01*
X62547500Y-146220000D02*
X61892500Y-146875000D01*
X61237500Y-146875000D02*
X61892500Y-146875000D01*
X57785000Y-126365000D02*
X58776700Y-125259800D01*
X54340900Y-114524900D02*
X57785000Y-117969000D01*
X57785000Y-117969000D02*
X57785000Y-124268100D01*
X57785000Y-124268100D02*
X58776700Y-125259800D01*
X62547500Y-145415000D02*
X63539200Y-144309800D01*
X56475000Y-127825000D02*
X62547500Y-133897500D01*
X62547500Y-133897500D02*
X62547500Y-143318100D01*
X62547500Y-143318100D02*
X63539200Y-144309800D01*
X49251700Y-106209800D02*
X48322000Y-105280100D01*
X48322000Y-105280100D02*
X48322000Y-89881800D01*
X48322000Y-89881800D02*
X48776300Y-89427500D01*
X48776300Y-89427500D02*
X48776300Y-88541200D01*
X48776300Y-88541200D02*
X49894200Y-87423300D01*
X49894200Y-87423300D02*
X49894200Y-86780800D01*
X49894200Y-86780800D02*
X51712500Y-84962500D01*
X72072500Y-164465000D02*
X70762500Y-165775000D01*
X70762500Y-165775000D02*
X70762500Y-165925000D01*
X48260000Y-107315000D02*
X49251700Y-106209800D01*
X53022500Y-83502500D02*
X51712500Y-84812500D01*
X51712500Y-84812500D02*
X51712500Y-84962500D01*
X48260000Y-107315000D02*
X46950000Y-108625000D01*
X46950000Y-108625000D02*
X46950000Y-108775000D01*
X81597500Y-145415000D02*
X82589200Y-144309800D01*
X82687000Y-130255800D02*
X84070000Y-131638800D01*
X84070000Y-131638800D02*
X84070000Y-143394000D01*
X84070000Y-143394000D02*
X83154200Y-144309800D01*
X83154200Y-144309800D02*
X82589200Y-144309800D01*
X69770900Y-86067800D02*
X69770800Y-86067800D01*
X68301700Y-106209800D02*
X67372000Y-105280100D01*
X67372000Y-105280100D02*
X67372000Y-97773000D01*
X67372000Y-97773000D02*
X69770900Y-95374100D01*
X69770900Y-95374100D02*
X69770900Y-86067900D01*
X69770900Y-86067900D02*
X69770900Y-86067800D01*
X70762500Y-84962500D02*
X70762500Y-85076200D01*
X70762500Y-85076200D02*
X69770900Y-86067800D01*
X72072500Y-83502500D02*
X69770800Y-86067800D01*
X67604900Y-106986300D02*
X75725800Y-115107200D01*
X75725800Y-115107200D02*
X75725800Y-116305700D01*
X75725800Y-116305700D02*
X76128500Y-116708400D01*
X76128500Y-116708400D02*
X76128500Y-117498600D01*
X76128500Y-117498600D02*
X76180000Y-117550100D01*
X76180000Y-117550100D02*
X76180000Y-126365000D01*
X80287500Y-146875000D02*
X90668200Y-157255700D01*
X90668200Y-157255700D02*
X90668200Y-158944800D01*
X90668200Y-158944800D02*
X91122500Y-159399100D01*
X91122500Y-159399100D02*
X91122500Y-162368100D01*
X91122500Y-162368100D02*
X92114200Y-163359800D01*
X75525000Y-127825000D02*
X75525000Y-127020000D01*
X75525000Y-127020000D02*
X76180000Y-126365000D01*
X88820900Y-167030300D02*
X88820800Y-167030300D01*
X80207900Y-182409800D02*
X80764200Y-182409800D01*
X80764200Y-182409800D02*
X88820900Y-174353100D01*
X88820900Y-174353100D02*
X88820900Y-167030400D01*
X88820900Y-167030400D02*
X88820900Y-167030300D01*
X89812500Y-165925000D02*
X89812500Y-166038700D01*
X89812500Y-166038700D02*
X88820900Y-167030300D01*
X91122500Y-164465000D02*
X88820800Y-167030300D01*
X91122500Y-164465000D02*
X92114200Y-163359800D01*
X76835000Y-126365000D02*
X76180000Y-126365000D01*
X67604900Y-106986300D02*
X68301700Y-106209800D01*
X67310000Y-107315000D02*
X67604900Y-106986300D01*
X66000000Y-108775000D02*
X66000000Y-108625000D01*
X66000000Y-108625000D02*
X67310000Y-107315000D01*
X79216200Y-183515000D02*
X80207900Y-182409800D01*
X77906200Y-184975000D02*
X77906200Y-184825000D01*
X77906200Y-184825000D02*
X79216200Y-183515000D01*
X108862000Y-165925000D02*
X106274800Y-168512200D01*
X106274800Y-168512200D02*
X103223200Y-168512200D01*
X103223200Y-168512200D02*
X96750700Y-162039700D01*
X96750700Y-162039700D02*
X96750700Y-149461800D01*
X110172000Y-164465000D02*
X108862000Y-165775000D01*
X108862000Y-165775000D02*
X108862000Y-165925000D01*
X96750700Y-149461800D02*
X99337500Y-146875000D01*
X91965800Y-130434200D02*
X92959900Y-131428300D01*
X92959900Y-131428300D02*
X92959900Y-146380800D01*
X92959900Y-146380800D02*
X92792800Y-146547900D01*
X92792800Y-146547900D02*
X92792800Y-148547200D01*
X92792800Y-148547200D02*
X93707400Y-149461800D01*
X93707400Y-149461800D02*
X96750700Y-149461800D01*
X91965800Y-130434200D02*
X94575000Y-127825000D01*
X85792700Y-108775000D02*
X85792700Y-127272100D01*
X85792700Y-127272100D02*
X88954800Y-130434200D01*
X88954800Y-130434200D02*
X91965800Y-130434200D01*
X85792700Y-108775000D02*
X85050000Y-108775000D01*
X86360000Y-107315000D02*
X85792700Y-107882300D01*
X85792700Y-107882300D02*
X85792700Y-108775000D01*
X92114200Y-82397300D02*
X92668800Y-82397300D01*
X92668800Y-82397300D02*
X96736100Y-78330000D01*
X96736100Y-78330000D02*
X96736100Y-58856000D01*
X96736100Y-58856000D02*
X97227400Y-58364700D01*
X91122500Y-83502500D02*
X92114200Y-82397300D01*
X89812500Y-84962500D02*
X89812500Y-84812500D01*
X89812500Y-84812500D02*
X91122500Y-83502500D01*
X86360000Y-107315000D02*
X87351700Y-106209800D01*
X89812500Y-84962500D02*
X89223300Y-85551700D01*
X89223300Y-85551700D02*
X89223300Y-101481200D01*
X89223300Y-101481200D02*
X86422000Y-104282500D01*
X86422000Y-104282500D02*
X86422000Y-105280100D01*
X86422000Y-105280100D02*
X87351700Y-106209800D01*
X95885000Y-126365000D02*
X94575000Y-127675000D01*
X94575000Y-127675000D02*
X94575000Y-127825000D01*
X307590000Y-61590000D02*
X305463700Y-59463700D01*
X305463700Y-59463700D02*
X284540500Y-59463700D01*
X284540500Y-59463700D02*
X278505100Y-65499100D01*
X278505100Y-65499100D02*
X278505100Y-77820100D01*
X114935000Y-126365000D02*
X115926700Y-125259800D01*
X115926700Y-125259800D02*
X114779900Y-124113000D01*
X114779900Y-124113000D02*
X114779900Y-107204100D01*
X127912000Y-165925000D02*
X129222000Y-164615000D01*
X129222000Y-164615000D02*
X129222000Y-164465000D01*
X129222000Y-164465000D02*
X130213700Y-163359800D01*
X119698000Y-145415000D02*
X120689700Y-144309800D01*
X113625000Y-127825000D02*
X119698000Y-133898000D01*
X119698000Y-133898000D02*
X119698000Y-143318100D01*
X119698000Y-143318100D02*
X120689700Y-144309800D01*
X114935000Y-126365000D02*
X113625000Y-127675000D01*
X113625000Y-127675000D02*
X113625000Y-127825000D01*
X118388000Y-146875000D02*
X129222000Y-157709000D01*
X129222000Y-157709000D02*
X129222000Y-162368100D01*
X129222000Y-162368100D02*
X130213700Y-163359800D01*
X119698000Y-145415000D02*
X118388000Y-146725000D01*
X118388000Y-146725000D02*
X118388000Y-146875000D01*
X105410000Y-107315000D02*
X106401700Y-106209800D01*
X108862000Y-84962500D02*
X108862000Y-100892500D01*
X108862000Y-100892500D02*
X105472000Y-104282500D01*
X105472000Y-104282500D02*
X105472000Y-105280100D01*
X105472000Y-105280100D02*
X106401700Y-106209800D01*
X110172000Y-83502500D02*
X108862000Y-84812500D01*
X108862000Y-84812500D02*
X108862000Y-84962500D01*
X105410000Y-107315000D02*
X104100000Y-108625000D01*
X104100000Y-108625000D02*
X104100000Y-108775000D01*
X132675000Y-128930400D02*
X131683400Y-128930400D01*
X131683400Y-128930400D02*
X131683300Y-128930300D01*
X139739700Y-144309800D02*
X138748000Y-143318100D01*
X138748000Y-143318100D02*
X138748000Y-135003400D01*
X138748000Y-135003400D02*
X132675000Y-128930400D01*
X132675000Y-127825000D02*
X132675000Y-128930400D01*
X133985000Y-126365000D02*
X131683300Y-128930300D01*
X138748000Y-145415000D02*
X139739700Y-144309800D01*
X139709600Y-84026100D02*
X139709600Y-82741100D01*
X139709600Y-82741100D02*
X144485100Y-77965600D01*
X144485100Y-77965600D02*
X144485100Y-67544200D01*
X123150000Y-108775000D02*
X126843900Y-112468900D01*
X126843900Y-112468900D02*
X126843900Y-124587400D01*
X126843900Y-124587400D02*
X130081500Y-127825000D01*
X137438000Y-146875000D02*
X137438000Y-164678300D01*
X137438000Y-164678300D02*
X141265100Y-168505400D01*
X141265100Y-168505400D02*
X144381600Y-168505400D01*
X144381600Y-168505400D02*
X146962000Y-165925000D01*
X132675000Y-84962500D02*
X132675000Y-99548700D01*
X132675000Y-99548700D02*
X126013900Y-106209800D01*
X126013900Y-106209800D02*
X125451700Y-106209800D01*
X148272000Y-164465000D02*
X146962000Y-165775000D01*
X146962000Y-165775000D02*
X146962000Y-165925000D01*
X124460000Y-107315000D02*
X125451700Y-106209800D01*
X133985000Y-83502500D02*
X132675000Y-84812500D01*
X132675000Y-84812500D02*
X132675000Y-84962500D01*
X124460000Y-107315000D02*
X123150000Y-108625000D01*
X123150000Y-108625000D02*
X123150000Y-108775000D01*
X150175200Y-183515000D02*
X150175200Y-169138200D01*
X150175200Y-169138200D02*
X146962000Y-165925000D01*
X149344000Y-184975000D02*
X149344000Y-184346200D01*
X149344000Y-184346200D02*
X150175200Y-183515000D01*
X150175200Y-183515000D02*
X150654000Y-183515000D01*
X167322000Y-164465000D02*
X168313700Y-163359800D01*
X157798000Y-145415000D02*
X158789700Y-144309800D01*
X158789700Y-144309800D02*
X159280700Y-144800800D01*
X159280700Y-144800800D02*
X159280700Y-146897700D01*
X159280700Y-146897700D02*
X167322000Y-154939000D01*
X167322000Y-154939000D02*
X167322000Y-162368100D01*
X167322000Y-162368100D02*
X168313700Y-163359800D01*
X151725000Y-127825000D02*
X150784200Y-128765800D01*
X150784200Y-128765800D02*
X150784200Y-145529700D01*
X150784200Y-145529700D02*
X149942000Y-146371900D01*
X149942000Y-146371900D02*
X149942000Y-148562400D01*
X149942000Y-148562400D02*
X150833000Y-149453400D01*
X150833000Y-149453400D02*
X153909600Y-149453400D01*
X153909600Y-149453400D02*
X156488000Y-146875000D01*
X153035000Y-126365000D02*
X153035000Y-126515000D01*
X153035000Y-126515000D02*
X151725000Y-127825000D01*
X150733400Y-86067800D02*
X150733300Y-86067800D01*
X145078400Y-106209800D02*
X150733400Y-100554800D01*
X150733400Y-100554800D02*
X150733400Y-86067900D01*
X150733400Y-86067900D02*
X150733400Y-86067800D01*
X151725000Y-84962500D02*
X151725000Y-85076200D01*
X151725000Y-85076200D02*
X150733400Y-86067800D01*
X153035000Y-83502500D02*
X150733300Y-86067800D01*
X153035000Y-83502500D02*
X154026700Y-82397300D01*
X151337400Y-65670900D02*
X151546300Y-65879800D01*
X151546300Y-65879800D02*
X151546300Y-79916900D01*
X151546300Y-79916900D02*
X154026700Y-82397300D01*
X153035000Y-126365000D02*
X154026700Y-125259800D01*
X145078400Y-106209800D02*
X144501700Y-106209800D01*
X145078400Y-106209800D02*
X153035000Y-114166400D01*
X153035000Y-114166400D02*
X153035000Y-124268100D01*
X153035000Y-124268100D02*
X154026700Y-125259800D01*
X143510000Y-107315000D02*
X144501700Y-106209800D01*
X167322000Y-164465000D02*
X166012000Y-165775000D01*
X166012000Y-165775000D02*
X166012000Y-165925000D01*
X156488000Y-146875000D02*
X156488000Y-146725000D01*
X156488000Y-146725000D02*
X157798000Y-145415000D01*
X143510000Y-107315000D02*
X142200000Y-108625000D01*
X142200000Y-108625000D02*
X142200000Y-108775000D01*
X277246000Y-78618400D02*
X276972900Y-78345300D01*
X276972900Y-78345300D02*
X276972900Y-66258300D01*
X276972900Y-66258300D02*
X296856200Y-46375000D01*
X296856200Y-46375000D02*
X297430000Y-46375000D01*
X175538000Y-146875000D02*
X175538000Y-164648200D01*
X175538000Y-164648200D02*
X179379500Y-168489700D01*
X179379500Y-168489700D02*
X182497300Y-168489700D01*
X182497300Y-168489700D02*
X185062000Y-165925000D01*
X176369200Y-145415000D02*
X175538000Y-146246200D01*
X175538000Y-146246200D02*
X175538000Y-146875000D01*
X162560000Y-107315000D02*
X163551700Y-106209800D01*
X170775000Y-84962500D02*
X170775000Y-95716200D01*
X170775000Y-95716200D02*
X162622000Y-103869200D01*
X162622000Y-103869200D02*
X162622000Y-105280100D01*
X162622000Y-105280100D02*
X163551700Y-106209800D01*
X172085000Y-83502500D02*
X170775000Y-84812500D01*
X170775000Y-84812500D02*
X170775000Y-84962500D01*
X170775000Y-128930400D02*
X169783400Y-128930400D01*
X169783400Y-128930400D02*
X169783300Y-128930300D01*
X176369200Y-145415000D02*
X176369200Y-134524600D01*
X176369200Y-134524600D02*
X170775000Y-128930400D01*
X170775000Y-127825000D02*
X170775000Y-128930400D01*
X172085000Y-126365000D02*
X169783300Y-128930300D01*
X172085000Y-126365000D02*
X173076700Y-125259800D01*
X186372000Y-164465000D02*
X185062000Y-165775000D01*
X185062000Y-165775000D02*
X185062000Y-165925000D01*
X176369200Y-145415000D02*
X176848000Y-145415000D01*
X161250000Y-108775000D02*
X172085000Y-119610000D01*
X172085000Y-119610000D02*
X172085000Y-124268100D01*
X172085000Y-124268100D02*
X173076700Y-125259800D01*
X162560000Y-107315000D02*
X161250000Y-108625000D01*
X161250000Y-108625000D02*
X161250000Y-108775000D01*
X294890000Y-46375000D02*
X294890000Y-47698700D01*
X294890000Y-47698700D02*
X276518600Y-66070100D01*
X276518600Y-66070100D02*
X276518600Y-79180400D01*
X276518600Y-79180400D02*
X276564400Y-79226200D01*
X276564400Y-79226200D02*
X276564400Y-84569800D01*
X276564400Y-84569800D02*
X273046100Y-88088100D01*
X181131200Y-107315000D02*
X180609800Y-106793600D01*
X180609800Y-106793600D02*
X180609800Y-88116300D01*
X180300000Y-108775000D02*
X190226400Y-118701400D01*
X190226400Y-118701400D02*
X190226400Y-120390500D01*
X190226400Y-120390500D02*
X191135000Y-121299100D01*
X191135000Y-121299100D02*
X191135000Y-124268100D01*
X191135000Y-124268100D02*
X192126700Y-125259800D01*
X180300000Y-108775000D02*
X180300000Y-108146200D01*
X180300000Y-108146200D02*
X181131200Y-107315000D01*
X181131200Y-107315000D02*
X181610000Y-107315000D01*
X189825000Y-127825000D02*
X195898000Y-133898000D01*
X195898000Y-133898000D02*
X195898000Y-143318100D01*
X195898000Y-143318100D02*
X196889700Y-144309800D01*
X195898000Y-145415000D02*
X196889700Y-144309800D01*
X189825000Y-127825000D02*
X191135000Y-126515000D01*
X191135000Y-126515000D02*
X191135000Y-126365000D01*
X204112000Y-165925000D02*
X205422000Y-164615000D01*
X205422000Y-164615000D02*
X205422000Y-164465000D01*
X205422000Y-164465000D02*
X206413700Y-163359800D01*
X194588000Y-146875000D02*
X205422000Y-157709000D01*
X205422000Y-157709000D02*
X205422000Y-162368100D01*
X205422000Y-162368100D02*
X206413700Y-163359800D01*
X195898000Y-145415000D02*
X194588000Y-146725000D01*
X194588000Y-146725000D02*
X194588000Y-146875000D01*
X191135000Y-126365000D02*
X192126700Y-125259800D01*
X191135000Y-83502500D02*
X189825000Y-84812500D01*
X189825000Y-84812500D02*
X189825000Y-84962500D01*
X304125000Y-170688000D02*
X305435000Y-169378000D01*
X305435000Y-169378000D02*
X305435000Y-169228000D01*
X305435000Y-169228000D02*
X306426700Y-168122800D01*
X291148000Y-127825000D02*
X291513400Y-127825000D01*
X291513400Y-127825000D02*
X305435000Y-141746600D01*
X305435000Y-141746600D02*
X305435000Y-167131100D01*
X305435000Y-167131100D02*
X306426700Y-168122800D01*
X289838000Y-127825000D02*
X291148000Y-127825000D01*
X291148000Y-127825000D02*
X291148000Y-126365000D01*
X295910000Y-83502500D02*
X296901700Y-82397300D01*
X296901700Y-82397300D02*
X295910000Y-81405600D01*
X295910000Y-81405600D02*
X295910000Y-72130200D01*
X295910000Y-72130200D02*
X286087200Y-62307400D01*
X286087200Y-62307400D02*
X286087200Y-61103700D01*
X286087200Y-61103700D02*
X286818500Y-60372400D01*
X286818500Y-60372400D02*
X288592400Y-60372400D01*
X288592400Y-60372400D02*
X289810000Y-61590000D01*
X294600000Y-84962500D02*
X295910000Y-83652500D01*
X295910000Y-83652500D02*
X295910000Y-83502500D01*
X291148000Y-126365000D02*
X292139700Y-125259800D01*
X290911600Y-104866000D02*
X290911600Y-88650900D01*
X290911600Y-88650900D02*
X294600000Y-84962500D01*
X285075000Y-108775000D02*
X291148000Y-114848000D01*
X291148000Y-114848000D02*
X291148000Y-124268100D01*
X291148000Y-124268100D02*
X292139700Y-125259800D01*
X286385000Y-107315000D02*
X285075000Y-108625000D01*
X285075000Y-108625000D02*
X285075000Y-108775000D01*
X254616400Y-82397300D02*
X265817400Y-93598300D01*
X265817400Y-93598300D02*
X265817400Y-101151800D01*
X269061000Y-165120000D02*
X268406000Y-165120000D01*
X269716000Y-164465000D02*
X269061000Y-165120000D01*
X269061000Y-165120000D02*
X286385000Y-182444000D01*
X286385000Y-182444000D02*
X286385000Y-186181100D01*
X286385000Y-186181100D02*
X287376700Y-187172800D01*
X286385000Y-188278000D02*
X287376700Y-187172800D01*
X254616400Y-82397300D02*
X254039700Y-82397300D01*
X287270000Y-46375000D02*
X286031900Y-45136900D01*
X286031900Y-45136900D02*
X284278300Y-45136900D01*
X284278300Y-45136900D02*
X275155500Y-54259700D01*
X275155500Y-54259700D02*
X275155500Y-61858200D01*
X275155500Y-61858200D02*
X254616400Y-82397300D01*
X253048000Y-83502500D02*
X254039700Y-82397300D01*
X237450000Y-108775000D02*
X248285000Y-119610000D01*
X248285000Y-119610000D02*
X248285000Y-124268100D01*
X248285000Y-124268100D02*
X249276700Y-125259800D01*
X238760000Y-107315000D02*
X237450000Y-108625000D01*
X237450000Y-108625000D02*
X237450000Y-108775000D01*
X248285000Y-126365000D02*
X249276700Y-125259800D01*
X268406000Y-165120000D02*
X265799800Y-165120000D01*
X265799800Y-165120000D02*
X263382700Y-162702900D01*
X263382700Y-162702900D02*
X263382700Y-162060400D01*
X263382700Y-162060400D02*
X253048000Y-151725700D01*
X253048000Y-151725700D02*
X253048000Y-150282000D01*
X253048000Y-150282000D02*
X250746300Y-147980300D01*
X251738000Y-146875000D02*
X251897200Y-146715800D01*
X251897200Y-146715800D02*
X251897200Y-146697700D01*
X251897200Y-146697700D02*
X250746300Y-147980300D01*
X253048000Y-145415000D02*
X251897200Y-146697700D01*
X285075000Y-189738000D02*
X285075000Y-189588000D01*
X285075000Y-189588000D02*
X286385000Y-188278000D01*
X251738000Y-84962500D02*
X253048000Y-83652500D01*
X253048000Y-83652500D02*
X253048000Y-83502500D01*
X246975000Y-127825000D02*
X253048000Y-133898000D01*
X253048000Y-133898000D02*
X253048000Y-143318100D01*
X253048000Y-143318100D02*
X254039700Y-144309800D01*
X248285000Y-126365000D02*
X246975000Y-127675000D01*
X246975000Y-127675000D02*
X246975000Y-127825000D01*
X253048000Y-145415000D02*
X254039700Y-144309800D01*
X268406000Y-165120000D02*
X268406000Y-165925000D01*
X304780000Y-188278000D02*
X304780000Y-179694300D01*
X304780000Y-179694300D02*
X282694000Y-157608300D01*
X282694000Y-157608300D02*
X282694000Y-146875000D01*
X304125000Y-189738000D02*
X304125000Y-188933000D01*
X304125000Y-188933000D02*
X304780000Y-188278000D01*
X305435000Y-188278000D02*
X304780000Y-188278000D01*
X282694000Y-146875000D02*
X284004000Y-145565000D01*
X284004000Y-145565000D02*
X284004000Y-145415000D01*
X284004000Y-145415000D02*
X284995700Y-144309800D01*
X268326700Y-125259800D02*
X283525200Y-140458300D01*
X283525200Y-140458300D02*
X283525200Y-142826700D01*
X283525200Y-142826700D02*
X283525300Y-142826800D01*
X283525300Y-142826800D02*
X283525300Y-142839400D01*
X283525300Y-142839400D02*
X284995700Y-144309800D01*
X256500000Y-108775000D02*
X267335000Y-119610000D01*
X267335000Y-119610000D02*
X267335000Y-124268100D01*
X267335000Y-124268100D02*
X268326700Y-125259800D01*
X267335000Y-126365000D02*
X268326700Y-125259800D01*
X257810000Y-107315000D02*
X256500000Y-108625000D01*
X256500000Y-108625000D02*
X256500000Y-108775000D01*
X270788000Y-84962500D02*
X268308400Y-87442100D01*
X268308400Y-87442100D02*
X268308400Y-103801900D01*
X268308400Y-103801900D02*
X270163800Y-105657300D01*
X272098000Y-83502500D02*
X272098000Y-83652500D01*
X272098000Y-83652500D02*
X270788000Y-84962500D01*
X284730000Y-46375000D02*
X280101900Y-51003100D01*
X280101900Y-51003100D02*
X280101900Y-51645600D01*
X280101900Y-51645600D02*
X278363900Y-53383600D01*
X278363900Y-53383600D02*
X278363900Y-54026100D01*
X278363900Y-54026100D02*
X277601800Y-54788200D01*
X277601800Y-54788200D02*
X277601800Y-55430700D01*
X277601800Y-55430700D02*
X276064200Y-56968300D01*
X276064200Y-56968300D02*
X276064200Y-64774900D01*
X276064200Y-64774900D02*
X276039900Y-64799200D01*
X276039900Y-64799200D02*
X276039900Y-65036800D01*
X276039900Y-65036800D02*
X275609900Y-65466800D01*
X275609900Y-65466800D02*
X275609900Y-78576800D01*
X275609900Y-78576800D02*
X275382800Y-78803900D01*
X275382800Y-78803900D02*
X275382800Y-79132100D01*
X275382800Y-79132100D02*
X275109800Y-79405100D01*
X275109800Y-79405100D02*
X275109800Y-80983700D01*
X275109800Y-80983700D02*
X273696200Y-82397300D01*
X273696200Y-82397300D02*
X273089700Y-82397300D01*
X272098000Y-83502500D02*
X273089700Y-82397300D01*
X266025000Y-127825000D02*
X267335000Y-126515000D01*
X267335000Y-126515000D02*
X267335000Y-126365000D01*
X320290000Y-61590000D02*
X310262900Y-51562900D01*
X310262900Y-51562900D02*
X305880100Y-51562900D01*
X305880100Y-51562900D02*
X297784200Y-43467000D01*
X297784200Y-43467000D02*
X60033600Y-43467000D01*
X60033600Y-43467000D02*
X58403800Y-45096800D01*
X58403800Y-45096800D02*
X58403800Y-46066400D01*
X58403800Y-46066400D02*
X54774400Y-49695800D01*
X54774400Y-49695800D02*
X54774400Y-54019700D01*
X54774400Y-54019700D02*
X54320200Y-54473900D01*
X54320200Y-54473900D02*
X54320200Y-62094900D01*
X54320200Y-62094900D02*
X21324500Y-95090600D01*
X21324500Y-95090600D02*
X20835900Y-95090600D01*
X20835900Y-95090600D02*
X9716700Y-106209800D01*
X9716700Y-106209800D02*
X6389200Y-106209800D01*
X5397500Y-107315000D02*
X6389200Y-106209800D01*
X5397500Y-126365000D02*
X6389200Y-125259800D01*
X4087500Y-108775000D02*
X4087500Y-122958100D01*
X4087500Y-122958100D02*
X6389200Y-125259800D01*
X5397500Y-107315000D02*
X4087500Y-108625000D01*
X4087500Y-108625000D02*
X4087500Y-108775000D01*
X4087500Y-127314300D02*
X4448200Y-127314300D01*
X4448200Y-127314300D02*
X5397500Y-126365000D01*
X-1536100Y-149469900D02*
X-2448400Y-148557600D01*
X-2448400Y-148557600D02*
X-2448400Y-146060500D01*
X-2448400Y-146060500D02*
X-2270400Y-145882500D01*
X-2270400Y-145882500D02*
X-2270400Y-141880900D01*
X-2270400Y-141880900D02*
X-2476600Y-141674700D01*
X-2476600Y-141674700D02*
X-2476600Y-127790800D01*
X-2476600Y-127790800D02*
X-1489400Y-126803600D01*
X-1489400Y-126803600D02*
X3576800Y-126803600D01*
X3576800Y-126803600D02*
X4087500Y-127314300D01*
X4087500Y-127825000D02*
X4087500Y-127314300D01*
X4087500Y-165419900D02*
X4442600Y-165419900D01*
X4442600Y-165419900D02*
X5397500Y-164465000D01*
X-1536100Y-164914800D02*
X3582400Y-164914800D01*
X3582400Y-164914800D02*
X4087500Y-165419900D01*
X4087500Y-165419900D02*
X4087500Y-165925000D01*
X-1536100Y-149469900D02*
X1492600Y-149469900D01*
X1492600Y-149469900D02*
X4087500Y-146875000D01*
X-1536100Y-149469900D02*
X-1536100Y-164914800D01*
X4087500Y-184975000D02*
X1520000Y-187542500D01*
X1520000Y-187542500D02*
X-1563800Y-187542500D01*
X-1563800Y-187542500D02*
X-2436000Y-186670300D01*
X-2436000Y-186670300D02*
X-2436000Y-181715600D01*
X-2436000Y-181715600D02*
X-2278900Y-181558500D01*
X-2278900Y-181558500D02*
X-2278900Y-168187400D01*
X-2278900Y-168187400D02*
X-2434400Y-168031900D01*
X-2434400Y-168031900D02*
X-2434400Y-165813100D01*
X-2434400Y-165813100D02*
X-1536100Y-164914800D01*
X5397500Y-145415000D02*
X4087500Y-146725000D01*
X4087500Y-146725000D02*
X4087500Y-146875000D01*
X249969000Y-83610900D02*
X263485100Y-70094800D01*
X263485100Y-70094800D02*
X263485100Y-65287400D01*
X263485100Y-65287400D02*
X284090000Y-44682500D01*
X284090000Y-44682500D02*
X288117500Y-44682500D01*
X288117500Y-44682500D02*
X289810000Y-46375000D01*
X232688000Y-84962500D02*
X243735800Y-96010300D01*
X243735800Y-96010300D02*
X243735800Y-101019100D01*
X242212000Y-165925000D02*
X253048000Y-176761000D01*
X253048000Y-176761000D02*
X253048000Y-181418100D01*
X253048000Y-181418100D02*
X254039700Y-182409800D01*
X242212000Y-165925000D02*
X243522000Y-164615000D01*
X243522000Y-164615000D02*
X243522000Y-164465000D01*
X253048000Y-183515000D02*
X254039700Y-182409800D01*
X232688000Y-146875000D02*
X243522000Y-157709000D01*
X243522000Y-157709000D02*
X243522000Y-162368100D01*
X243522000Y-162368100D02*
X244513700Y-163359800D01*
X232688000Y-146875000D02*
X232688000Y-146246200D01*
X232688000Y-146246200D02*
X233519200Y-145415000D01*
X243522000Y-164465000D02*
X244513700Y-163359800D01*
X251738000Y-184975000D02*
X251738000Y-184825000D01*
X251738000Y-184825000D02*
X253048000Y-183515000D01*
X232688000Y-84962500D02*
X233998000Y-83652500D01*
X233998000Y-83652500D02*
X233998000Y-83502500D01*
X233519200Y-145415000D02*
X233519200Y-133419200D01*
X233519200Y-133419200D02*
X227925000Y-127825000D01*
X233519200Y-145415000D02*
X233998000Y-145415000D01*
X227925000Y-127825000D02*
X229235000Y-126515000D01*
X229235000Y-126515000D02*
X229235000Y-126365000D01*
X229235000Y-126365000D02*
X230226700Y-125259800D01*
X218400000Y-108775000D02*
X229075600Y-119450600D01*
X229075600Y-119450600D02*
X229075600Y-120153900D01*
X229075600Y-120153900D02*
X229235000Y-120313300D01*
X229235000Y-120313300D02*
X229235000Y-124268100D01*
X229235000Y-124268100D02*
X230226700Y-125259800D01*
X219710000Y-107315000D02*
X218400000Y-108625000D01*
X218400000Y-108625000D02*
X218400000Y-108775000D01*
X327938000Y-127825000D02*
X329248000Y-126515000D01*
X329248000Y-126515000D02*
X329248000Y-126365000D01*
X327938000Y-127825000D02*
X329248000Y-129135000D01*
X329248000Y-129135000D02*
X329248000Y-143318100D01*
X329248000Y-143318100D02*
X330239700Y-144309800D01*
X329248000Y-126365000D02*
X330239700Y-125259800D01*
X327938000Y-108775000D02*
X329248000Y-110085000D01*
X329248000Y-110085000D02*
X329248000Y-124268100D01*
X329248000Y-124268100D02*
X330239700Y-125259800D01*
X327938000Y-108625000D02*
X327938000Y-108775000D01*
X329248000Y-107315000D02*
X327938000Y-108625000D01*
X287270000Y-61590000D02*
X321560400Y-95880400D01*
X321560400Y-95880400D02*
X321560400Y-104240900D01*
X321560400Y-104240900D02*
X325944500Y-108625000D01*
X325944500Y-108625000D02*
X327938000Y-108625000D01*
X324485000Y-188278000D02*
X325476700Y-187172800D01*
X325476700Y-187172800D02*
X324547000Y-186243100D01*
X324547000Y-186243100D02*
X324547000Y-169316000D01*
X324547000Y-169316000D02*
X327938000Y-165925000D01*
X323175000Y-189738000D02*
X323175000Y-189588000D01*
X323175000Y-189588000D02*
X324485000Y-188278000D01*
X327938000Y-147980400D02*
X327938000Y-146875000D01*
X330239700Y-163359800D02*
X327938000Y-161058100D01*
X327938000Y-161058100D02*
X327938000Y-147980400D01*
X327938000Y-147980400D02*
X326946400Y-147980400D01*
X326946400Y-147980400D02*
X326946300Y-147980300D01*
X329248000Y-145415000D02*
X326946300Y-147980300D01*
X329248000Y-145415000D02*
X330239700Y-144309800D01*
X329248000Y-164465000D02*
X330239700Y-163359800D01*
X329248000Y-164465000D02*
X327938000Y-165775000D01*
X327938000Y-165775000D02*
X327938000Y-165925000D01*
D23*
X328652300Y-98237600D02*
X332247700Y-101833000D01*
X332247700Y-101833000D02*
X332247700Y-136157600D01*
X317510800Y-74529200D02*
X317510800Y-90617100D01*
X317510800Y-90617100D02*
X325131200Y-98237500D01*
X325131200Y-98237500D02*
X328652300Y-98237500D01*
X328652300Y-98237500D02*
X328652300Y-98237600D01*
X317510800Y-74529200D02*
X330450000Y-61590000D01*
X301250400Y-74529200D02*
X317510800Y-74529200D01*
X332247700Y-136157600D02*
X332247700Y-155351100D01*
X332247700Y-155351100D02*
X330392800Y-157206000D01*
X330392800Y-157206000D02*
X331842400Y-158655600D01*
X331842400Y-158655600D02*
X331842400Y-179442000D01*
X331842400Y-179442000D02*
X330883400Y-180401000D01*
X25748800Y-42581200D02*
X25748800Y-60397700D01*
X25748800Y-60397700D02*
X8976400Y-77170100D01*
X1611000Y-88646000D02*
X1611000Y-83542100D01*
X1611000Y-83542100D02*
X7983000Y-77170100D01*
X7983000Y-77170100D02*
X8976400Y-77170100D01*
X327910000Y-60326400D02*
X327910000Y-61590000D01*
X325370000Y-46375000D02*
X327910000Y-48915000D01*
X327910000Y-48915000D02*
X327910000Y-60326400D01*
X327910000Y-60326400D02*
X330948500Y-60326400D01*
X330948500Y-60326400D02*
X331737400Y-61115300D01*
X331737400Y-61115300D02*
X331737400Y-62267500D01*
X331737400Y-62267500D02*
X322124200Y-71880700D01*
X322124200Y-71880700D02*
X322124200Y-94045300D01*
X28288800Y-42581200D02*
X28288800Y-70809100D01*
X28288800Y-70809100D02*
X16922000Y-82175900D01*
X16922000Y-82175900D02*
X16922000Y-88114600D01*
D22*
X292350000Y-61590000D02*
X290678000Y-59918000D01*
X290678000Y-59918000D02*
X284728700Y-59918000D01*
X284728700Y-59918000D02*
X283382100Y-61264600D01*
X283382100Y-61264600D02*
X283382100Y-79622500D01*
X283382100Y-79622500D02*
X278114300Y-84890300D01*
X53181200Y-60642500D02*
X53181200Y-61769800D01*
X53181200Y-61769800D02*
X43266500Y-71684500D01*
X43266500Y-71684500D02*
X43266500Y-71755900D01*
X43266500Y-71755900D02*
X36991000Y-78031400D01*
X36991000Y-78031400D02*
X36991000Y-78673900D01*
X36991000Y-78673900D02*
X28002200Y-87662700D01*
X28002200Y-87662700D02*
X27320600Y-87662700D01*
X27320600Y-87662700D02*
X25513700Y-89469600D01*
X25513700Y-89469600D02*
X18855800Y-89469600D01*
X18855800Y-89469600D02*
X4318500Y-104006900D01*
X4318500Y-104006900D02*
X4318500Y-105372000D01*
X4318500Y-105372000D02*
X577800Y-109112700D01*
X577800Y-109112700D02*
X577800Y-109377800D01*
X-912500Y-109275000D02*
X577800Y-109377800D01*
X-952500Y-109855000D02*
X-952500Y-109315000D01*
X-952500Y-109315000D02*
X-912500Y-109275000D01*
X-952500Y-128905000D02*
X-551100Y-129306400D01*
X-551100Y-129306400D02*
X9517400Y-129306400D01*
X9517400Y-129306400D02*
X31742500Y-107081300D01*
X31742500Y-107081300D02*
X31742500Y-99034600D01*
X31742500Y-99034600D02*
X32196700Y-98580400D01*
X32196700Y-98580400D02*
X32196700Y-96342500D01*
X32196700Y-96342500D02*
X45982600Y-82556600D01*
X45982600Y-82556600D02*
X45982600Y-79624500D01*
X45982600Y-79624500D02*
X56356200Y-69250900D01*
X56356200Y-69250900D02*
X56356200Y-60642500D01*
X-912500Y-128325000D02*
X-952500Y-128365000D01*
X-952500Y-128365000D02*
X-952500Y-128905000D01*
X59531200Y-60642500D02*
X59531200Y-64136400D01*
X59531200Y-64136400D02*
X58849900Y-64817700D01*
X58849900Y-64817700D02*
X58849900Y-65684900D01*
X58849900Y-65684900D02*
X58622600Y-65912200D01*
X58622600Y-65912200D02*
X58622600Y-66984500D01*
X58622600Y-66984500D02*
X57141900Y-68465200D01*
X57141900Y-68465200D02*
X57141900Y-69107700D01*
X57141900Y-69107700D02*
X46436900Y-79812700D01*
X46436900Y-79812700D02*
X46436900Y-82966300D01*
X46436900Y-82966300D02*
X35646600Y-93756600D01*
X35646600Y-93756600D02*
X35646600Y-94177600D01*
X35646600Y-94177600D02*
X32651000Y-97173200D01*
X32651000Y-97173200D02*
X32651000Y-98768600D01*
X32651000Y-98768600D02*
X32547000Y-98872600D01*
X32547000Y-98872600D02*
X32547000Y-107937700D01*
X32547000Y-107937700D02*
X26375400Y-114109300D01*
X26375400Y-114109300D02*
X26375400Y-114751800D01*
X26375400Y-114751800D02*
X5465100Y-135662100D01*
X5465100Y-135662100D02*
X5465100Y-142284200D01*
X5465100Y-142284200D02*
X577800Y-147171500D01*
X577800Y-147171500D02*
X577800Y-147477800D01*
X-912500Y-147375000D02*
X577800Y-147477800D01*
X-952500Y-147955000D02*
X-952500Y-147415000D01*
X-952500Y-147415000D02*
X-912500Y-147375000D01*
X62706200Y-61769800D02*
X62296100Y-62179900D01*
X62296100Y-62179900D02*
X62296100Y-64390900D01*
X62296100Y-64390900D02*
X60837400Y-65849600D01*
X60837400Y-65849600D02*
X60837400Y-73016400D01*
X60837400Y-73016400D02*
X57472300Y-76381500D01*
X57472300Y-76381500D02*
X57472300Y-101403600D01*
X57472300Y-101403600D02*
X46407500Y-112468400D01*
X46407500Y-112468400D02*
X46407500Y-137707100D01*
X46407500Y-137707100D02*
X16670300Y-167444300D01*
X16670300Y-167444300D02*
X-513200Y-167444300D01*
X-513200Y-167444300D02*
X-952500Y-167005000D01*
X62706200Y-60642500D02*
X62706200Y-61769800D01*
X-912500Y-166425000D02*
X-952500Y-166465000D01*
X-952500Y-166465000D02*
X-952500Y-167005000D01*
X65881200Y-61769800D02*
X63407500Y-64243500D01*
X63407500Y-64243500D02*
X63407500Y-64886000D01*
X63407500Y-64886000D02*
X62778400Y-65515100D01*
X62778400Y-65515100D02*
X62778400Y-65836400D01*
X62778400Y-65836400D02*
X62376300Y-66238500D01*
X62376300Y-66238500D02*
X62376300Y-69673700D01*
X62376300Y-69673700D02*
X61922100Y-70127900D01*
X61922100Y-70127900D02*
X61922100Y-73969400D01*
X61922100Y-73969400D02*
X61922000Y-73969500D01*
X61922000Y-73969500D02*
X61922000Y-76275700D01*
X61922000Y-76275700D02*
X61746000Y-76451700D01*
X61746000Y-76451700D02*
X61746000Y-76628900D01*
X61746000Y-76628900D02*
X61467700Y-76907200D01*
X61467700Y-76907200D02*
X61467700Y-79065200D01*
X61467700Y-79065200D02*
X60786200Y-79746700D01*
X60786200Y-79746700D02*
X60786200Y-93831800D01*
X60786200Y-93831800D02*
X60559100Y-94058900D01*
X60559100Y-94058900D02*
X60559100Y-96027200D01*
X60559100Y-96027200D02*
X60331900Y-96254400D01*
X60331900Y-96254400D02*
X60331900Y-96464700D01*
X60331900Y-96464700D02*
X60143600Y-96653000D01*
X60143600Y-96653000D02*
X60143600Y-98089800D01*
X60143600Y-98089800D02*
X58526500Y-99706900D01*
X58526500Y-99706900D02*
X58526500Y-100282800D01*
X58526500Y-100282800D02*
X58299200Y-100510100D01*
X58299200Y-100510100D02*
X58299200Y-100576700D01*
X58299200Y-100576700D02*
X58087300Y-100788600D01*
X58087300Y-100788600D02*
X58087300Y-101431100D01*
X58087300Y-101431100D02*
X50263300Y-109255100D01*
X50263300Y-109255100D02*
X50263300Y-109897600D01*
X50263300Y-109897600D02*
X50194100Y-109966800D01*
X50194100Y-109966800D02*
X50194100Y-110609300D01*
X50194100Y-110609300D02*
X49715500Y-111087900D01*
X49715500Y-111087900D02*
X49715500Y-111409300D01*
X49715500Y-111409300D02*
X47692600Y-113432200D01*
X47692600Y-113432200D02*
X47692600Y-122030700D01*
X47692600Y-122030700D02*
X47465600Y-122257700D01*
X47465600Y-122257700D02*
X47465600Y-122300500D01*
X47465600Y-122300500D02*
X47238300Y-122527800D01*
X47238300Y-122527800D02*
X47238300Y-137620400D01*
X47238300Y-137620400D02*
X46861800Y-137996900D01*
X46861800Y-137996900D02*
X46861800Y-138792000D01*
X46861800Y-138792000D02*
X38877000Y-146776800D01*
X38877000Y-146776800D02*
X38877000Y-146986700D01*
X38877000Y-146986700D02*
X577800Y-185285900D01*
X577800Y-185285900D02*
X577800Y-185577800D01*
X65881200Y-60642500D02*
X65881200Y-61769800D01*
X-912500Y-185475000D02*
X577800Y-185577800D01*
X-952500Y-186055000D02*
X-952500Y-185515000D01*
X-952500Y-185515000D02*
X-912500Y-185475000D01*
X125026000Y-75792800D02*
X124585600Y-75352400D01*
X124585600Y-75352400D02*
X124585600Y-70572700D01*
X160094500Y-71031400D02*
X162602000Y-73538900D01*
X162602000Y-73538900D02*
X162602000Y-75792800D01*
X41682200Y-70216400D02*
X36536700Y-75361900D01*
X36536700Y-75361900D02*
X36536700Y-78413100D01*
X36536700Y-78413100D02*
X28511300Y-86438500D01*
X28511300Y-86438500D02*
X25144300Y-86438500D01*
X25144300Y-86438500D02*
X22653100Y-88929700D01*
X22653100Y-88929700D02*
X9159800Y-88929700D01*
X9159800Y-88929700D02*
X1111600Y-96977900D01*
X21129900Y-95872400D02*
X5828400Y-111173900D01*
X5828400Y-111173900D02*
X5828400Y-111854300D01*
X34964700Y-114184000D02*
X39845700Y-119065000D01*
X39845700Y-119065000D02*
X44362200Y-119065000D01*
X64960900Y-119065000D02*
X60545900Y-114650000D01*
X78469700Y-118053300D02*
X78096300Y-117679900D01*
X78096300Y-117679900D02*
X78096300Y-115977300D01*
X97648300Y-114650000D02*
X101848300Y-118850000D01*
X105521100Y-120009000D02*
X105521100Y-116782100D01*
X105521100Y-116782100D02*
X106325900Y-115977300D01*
X133865000Y-113029700D02*
X133865000Y-115366200D01*
X133865000Y-115366200D02*
X138339900Y-119841100D01*
X156566500Y-119065000D02*
X156566500Y-117081600D01*
X156566500Y-117081600D02*
X154134900Y-114650000D01*
X178100300Y-119340200D02*
X173410100Y-114650000D01*
X201484400Y-114650000D02*
X201484400Y-115299600D01*
X201484400Y-115299600D02*
X205211800Y-119027000D01*
X217383500Y-119065000D02*
X212968500Y-114650000D01*
X233386200Y-119065000D02*
X233386200Y-115965100D01*
X233386200Y-115965100D02*
X232071100Y-114650000D01*
X274806800Y-118100200D02*
X274806800Y-117549700D01*
X274806800Y-117549700D02*
X271681800Y-114424700D01*
X299871100Y-137228900D02*
X289200800Y-147899200D01*
X289200800Y-147899200D02*
X289200800Y-159500400D01*
X69529900Y-175559100D02*
X69529900Y-174799600D01*
X69529900Y-174799600D02*
X65303000Y-170572700D01*
X261287800Y-181125000D02*
X261287800Y-179173700D01*
X261287800Y-179173700D02*
X254014100Y-171900000D01*
M02*
